<?xml version="1.0" encoding="utf-8"?>
<!-- Generator: Adobe Illustrator 21.1.0, SVG Export Plug-In . SVG Version: 6.00 Build 0)  -->
<svg version="1.1" id="Layer_2" xmlns="http://www.w3.org/2000/svg" xmlns:xlink="http://www.w3.org/1999/xlink" x="0px" y="0px"
	 viewBox="0 0 503.3 468.5" style="enable-background:new 0 0 503.3 468.5;" xml:space="preserve">
<style type="text/css">
	.st0{fill:url(#SVGID_1_);}
	.st1{opacity:0.2;enable-background:new    ;}
	.st2{opacity:0.2;fill:url(#SVGID_2_);enable-background:new    ;}
	.st3{opacity:0.2;fill:url(#SVGID_3_);enable-background:new    ;}
	.st4{opacity:0.2;fill:url(#SVGID_4_);enable-background:new    ;}
	.st5{fill:#83542C;}
	.st6{fill:#CC6666;}
	.st7{fill:#072126;}
	.st8{fill:#053139;}
	.st9{fill:#AA5252;}
	.st10{clip-path:url(#SVGID_7_);fill:#58381E;}
	.st11{fill:#4C1A08;}
	.st12{fill:#58381E;}
	.st13{fill:#CFCFCE;}
	.st14{fill:#BBBBBB;}
	.st15{fill:url(#SVGID_8_);}
	.st16{fill:#11727F;}
	.st17{fill:#0B6475;}
	.st18{fill:url(#SVGID_9_);}
	.st19{opacity:0.17;clip-path:url(#SVGID_11_);enable-background:new    ;}
	.st20{fill:#0F879E;}
	.st21{fill:url(#SVGID_12_);}
	.st22{fill:url(#SVGID_13_);}
	.st23{fill:url(#SVGID_14_);}
	.st24{fill:url(#SVGID_15_);}
	.st25{fill:url(#SVGID_16_);}
	.st26{fill:url(#SVGID_17_);}
	.st27{fill:url(#SVGID_18_);}
	.st28{fill:url(#SVGID_19_);}
	.st29{fill:url(#SVGID_20_);}
	.st30{fill:url(#SVGID_21_);}
	.st31{fill:url(#SVGID_22_);}
	.st32{fill:url(#SVGID_23_);}
	.st33{fill:url(#SVGID_24_);}
	.st34{fill:url(#SVGID_25_);}
	.st35{fill:#1C1C1C;}
	.st36{fill:#49AFD9;}
	.st37{fill:url(#XMLID_4_);}
	.st38{opacity:0.38;fill:url(#SVGID_26_);enable-background:new    ;}
	.st39{opacity:0.17;enable-background:new    ;}
	.st40{opacity:0.23;}
	.st41{fill:url(#SVGID_27_);}
	.st42{fill:url(#SVGID_28_);}
	.st43{fill:url(#SVGID_29_);stroke:url(#SVGID_30_);stroke-miterlimit:10;}
	.st44{fill:url(#SVGID_31_);stroke:url(#SVGID_32_);stroke-miterlimit:10;}
	.st45{fill:#DADDB3;}
	.st46{opacity:0.11;clip-path:url(#SVGID_34_);}
	.st47{opacity:0.22;enable-background:new    ;}
	.st48{opacity:0.11;clip-path:url(#SVGID_36_);}
	.st49{opacity:0.11;clip-path:url(#SVGID_38_);enable-background:new    ;}
	.st50{opacity:0.11;clip-path:url(#SVGID_40_);enable-background:new    ;}
	.st51{fill:none;stroke:url(#XMLID_5_);stroke-miterlimit:10;}
	.st52{opacity:0.38;fill:url(#SVGID_41_);enable-background:new    ;}
	.st53{fill:url(#XMLID_6_);}
	.st54{opacity:0.38;clip-path:url(#SVGID_43_);fill:url(#SVGID_44_);enable-background:new    ;}
	.st55{fill:url(#SVGID_45_);}
	.st56{fill:url(#SVGID_46_);}
	.st57{fill:url(#XMLID_7_);}
	.st58{opacity:0.1;clip-path:url(#SVGID_48_);enable-background:new    ;}
	.st59{fill:url(#SVGID_49_);}
	.st60{fill:url(#XMLID_8_);}
	.st61{opacity:0.1;clip-path:url(#SVGID_51_);enable-background:new    ;}
	.st62{fill:url(#SVGID_52_);}
	.st63{fill:url(#XMLID_9_);}
	.st64{opacity:0.1;clip-path:url(#SVGID_54_);enable-background:new    ;}
	.st65{fill:url(#XMLID_10_);}
	.st66{opacity:0.1;clip-path:url(#SVGID_56_);enable-background:new    ;}
	.st67{fill:#CC8956;}
	.st68{fill:#E09427;}
	.st69{clip-path:url(#SVGID_58_);fill:#F5A623;}
	.st70{fill:#B98834;}
	.st71{fill:#F5A623;}
	.st72{fill:#E19859;}
	.st73{clip-path:url(#SVGID_60_);fill:#A97243;}
	.st74{fill:#A97243;}
	.st75{opacity:0.7;fill:url(#SVGID_61_);enable-background:new    ;}
	.st76{fill:#FFFFFF;}
	.st77{font-family:Roboto, Helvetica, Arial, Sans-Serif;}
	.st78{font-size:19.57px;}
	.st79{font-size:13px;}
	.st80{font-size:11.7919px;}
</style>
<g>
	<g>
		
			<linearGradient id="SVGID_1_" gradientUnits="userSpaceOnUse" x1="250.5" y1="152.8" x2="250.5" y2="209.3" gradientTransform="matrix(1 0 0 -1 0 584)">
			<stop  offset="0" style="stop-color:#FFFFFF;stop-opacity:0"/>
			<stop  offset="1" style="stop-color:#FFFFFF;stop-opacity:0.56"/>
		</linearGradient>
		<polygon class="st0" points="251.7,374.7 498.1,402.9 251.7,431.2 2.9,402.9 		"/>
	</g>
	<ellipse class="st1" cx="129.6" cy="408.4" rx="9.7" ry="0.9"/>
	
		<linearGradient id="SVGID_2_" gradientUnits="userSpaceOnUse" x1="322.3274" y1="373.0487" x2="492.2893" y2="373.0487" gradientTransform="matrix(1 0 0 -1 0 584)">
		<stop  offset="0" style="stop-color:#FDFDFE;stop-opacity:0"/>
		<stop  offset="1" style="stop-color:#FDFDFE"/>
	</linearGradient>
	<path class="st2" d="M376.2,212.6c4-4.5,10.1-7.2,16.1-6.7c2,0.2,4,0.6,6,0.4c2.3-0.3,4.4-1.5,6.5-2.5c3.4-1.7,9.2-4.8,12.9-2.5
		c8-9.8,21.5-11.2,33.3-9c10.3,1.9,21.3,7.2,24.4,17.2c5.8-1.5,13.4-1.1,16.1,4.3c2.4,4.8-1,10.9-5.8,13.4c-8.2,4.1-20.8,2.9-30,3
		c-24.2,0.3-48.5,0.4-72.7,0.2c-19.3-0.2-39.7,0.8-58.8-2.5c-2-0.3-2.6-3-0.8-4.1c3.8-2.4,8.3-1.4,12.5-3.7
		c5.1-2.8,10.1-5.8,15.7-7.3c7.6-2,16.7-0.8,21.5,5.4C373.7,215.9,374.8,214.1,376.2,212.6z"/>
	
		<linearGradient id="SVGID_3_" gradientUnits="userSpaceOnUse" x1="4015.8374" y1="354.5157" x2="4195.9111" y2="354.5157" gradientTransform="matrix(1 0 0 -1 -4006.0103 584)">
		<stop  offset="0" style="stop-color:#FDFDFE;stop-opacity:0"/>
		<stop  offset="1" style="stop-color:#FDFDFE"/>
	</linearGradient>
	<path class="st3" d="M50.3,245.1c8.1-1,17,0.6,25.2,0.8c16.2,0.5,32.5,0.2,48.8,0.2c11.4,0,22.8,0,34.2-0.1c8.8,0,24,2.9,29.5-5.7
		c2.1-3.3,2.5-7.7,1-11.4c-2.5-5.8-9.1-8.9-15.4-9.5c-3.2-0.3-6.6,0-9.1,2c-0.4-3.8-3.8-6.8-7.5-7.9c-5-1.5-10.9-0.9-15.8,0.9
		c-5.4,2-9.7,6-13.9,9.9c-5.1-7.2-13.8-11.7-22.7-11.8c-8.4-0.1-14.8,3.7-20.9,9.1c-4,3.5-3.1,3.2-7.8,1.3c-3.2-1.3-5.5-2.9-9.2-3
		c-5.8-0.1-7.8,2.4-11.7,5.8c-4.8,4.1-12.9,1.3-18.7,3.2c-2.7,0.9-4.1,2.8-6.4,4.1c-3.7,2.1-7.4,2.3-11.7,2.5
		c-2.4,0.1-7.7,0.1-8.2,3c-1.3,6.7,5,6.4,9.8,6.9C25.1,245.8,45.2,245.8,50.3,245.1z"/>
	
		<linearGradient id="SVGID_4_" gradientUnits="userSpaceOnUse" x1="3799.3428" y1="284.5085" x2="3944.9521" y2="284.5085" gradientTransform="matrix(1 0 0 -1 -3468.9617 583.9999)">
		<stop  offset="0" style="stop-color:#FDFDFE;stop-opacity:0"/>
		<stop  offset="1" style="stop-color:#FDFDFE"/>
	</linearGradient>
	<path class="st4" d="M370.9,297.7c2.4-2.6,4.3-5.4,8.7-5c6.1,0.6,12.5,1.7,18.2,2.3c6.3,0.7,7.1-1.3,12-5.8
		c4.5-4.1,13.3-7.3,19.5-5.6c1.8,0.5,3.1,1.9,4.8,2.6c4.7,1.9,9.4-2.6,13.9-4.9c7.1-3.7,16.6-1.8,22.1,4c5.6,5.8,7.3,14.8,4.7,22.5
		c-0.9,2.7-2.4,5.3-4.8,6.7c-1.5,0.9-3.4,1.2-5.1,1.5c-2.3,0.4-4.7,0.8-7,1.1c-6.9,1.1-14,2-21,2.1c-5.9,0.1-12-1.3-17.9-0.3
		c-11.2,1.9-26-0.5-37.2-3.1c-10.4-2.4-22-0.6-32.7-0.5c-2.1,0-4.3,0-6.3-0.8c-1.7-0.7-3.2-2-5.1-2.2c-1.6-0.2-3.2,0.5-4.9,0.3
		c-1.6-0.2-3.2-2.2-2-3.4c5.6-1.3,11-3.1,16.2-5.4c1.4-0.6,2.7-1.2,4.2-1.5c5.4-1.1,10.7,1.4,15.7-1.3
		C368.6,300.2,369.8,299,370.9,297.7z"/>
	<g>
		<path class="st5" d="M128.6,379.5l1.8,2.2l0.8,1.2c0.2,0.3,0.5,0.5,0.9,0.4l0.4-0.1c0.2,0,0.4-0.2,0.5-0.3l0,0
			c0.3-0.4,0.2-0.9-0.2-1.2l-1.1-0.8l-1.7-2.3L128.6,379.5z"/>
		<path class="st6" d="M128,370l-2-0.4l0.5,7.7l2.7,3.4l1.4-1.1l-1.7-3.2l-0.2-5.4C128.8,370.5,128.5,370.1,128,370z"/>
		<path class="st7" d="M123.8,386.1c-0.2,4.3,0.9,10.4,0.9,10.4s0,6,0.4,9.7l1.2,0.6l0.7-4.6l0.3-5.2l-0.2-3.5"/>
		<path class="st8" d="M124.1,387.8c0.1,1.9-0.1,6-0.2,7.5c0,0.5-0.1,1-0.1,1.5c-0.3,2-1.1,7.5-1.7,9.9h-1.4
			c-0.3-3.9-0.2-11.1-0.2-11.1s-1.3-8.6-0.5-11.4l8.1-0.3c0.5,7.5,0.3,15.6-1.5,23.1h-1.3c-0.5-4.4-0.4-10.4-0.4-10.4
			S124.1,391.4,124.1,387.8"/>
		<path class="st9" d="M118.7,371.3L120,386l8.4-0.3l0.3-15c0-0.2-0.4-0.6-0.6-0.5c-1.2,0.1-1.4-0.5-2.6-0.6
			c-0.7,1.7-2.3,0.1-2.3-0.2v-0.1c-1.2,0-2.4,0.2-3.4,0.5C119,369.9,118.6,370.6,118.7,371.3z"/>
		<path class="st6" d="M118.4,371.3l1.3,14.8l8.4-0.3l0.5-15c0-0.2-0.1-0.4-0.3-0.6c-0.8-0.4-2.2-0.7-3.3-0.8
			c-0.7,1.7-1.8,0.3-1.9,0v-0.1c-1.2,0-2.6,0.2-3.6,0.5C118.8,369.9,118.4,370.6,118.4,371.3z"/>
		<g>
			<g>
				<path id="XMLID_393_" class="st5" d="M120.8,367.7c0.8,0.5,1.5,0.9,2.2,0.9l-0.1,1c0.4,0.5,1.6,0.7,2,0.4c0.2-0.2,0-2.4,0-2.4
					c0.3-0.3,0.3-0.7,0.3-0.7c0.2-1-0.4-2.3-1.8-3.3c-1.3-0.8-2.7-1-3.6-0.4c-0.2,0.1-0.4,0.3-0.5,0.5
					C118.5,365,119.2,366.7,120.8,367.7z"/>
			</g>
			<g>
				<defs>
					<path id="SVGID_5_" d="M120.8,367.7c0.8,0.5,1.5,0.9,2.2,0.9l-0.1,1c0.4,0.5,1.6,0.7,2,0.4c0.2-0.2,0-2.4,0-2.4
						c0.3-0.3,0.3-0.7,0.3-0.7c0.2-1-0.4-2.3-1.8-3.3c-1.3-0.8-2.7-1-3.6-0.4c-0.2,0.1-0.4,0.3-0.5,0.5
						C118.5,365,119.2,366.7,120.8,367.7z"/>
				</defs>
				<clipPath id="SVGID_7_">
					<use xlink:href="#SVGID_5_"  style="overflow:visible;"/>
				</clipPath>
				<path class="st10" d="M123.8,370.6l-0.1-1.5c0,0-0.2-1.4-0.4-1.5c-0.1,0,0.1,0,0,0c-0.2,0-0.4-0.1-0.6-0.1
					c-1.1-0.4-2.1-1.1-3.2-1.2c-0.1,0-0.2,0-0.3,0.1c-0.1,0.1-0.1,0.3,0,0.4c0.5,1.1,1.5,1.8,2.5,2.5c0.5,0.3,0.9,0.7,1.4,1"/>
			</g>
		</g>
		<path class="st5" d="M119.6,381l0.7,2.8l0.6,1.3c0.2,0.3,0.1,0.7-0.1,0.9l-0.3,0.3c-0.1,0.1-0.3,0.2-0.5,0.3l0,0
			c-0.5,0-0.9-0.3-0.9-0.8l-0.1-1.3l-1.1-2.6L119.6,381z"/>
		<path class="st11" d="M124.9,406.3l-0.3,2.1h5l0,0c0-0.5-0.4-0.9-0.9-0.9H128c-0.5,0-1-0.4-1-0.9v-0.2c0-0.1-0.1-0.2-0.2-0.2
			l-1.5-0.1C125.1,406,125,406.1,124.9,406.3z"/>
		<path class="st11" d="M120.3,406.3l-0.3,2.1h3.6h0.3c0-0.5-0.4-0.9-0.9-0.9h0.1c-0.5,0-0.6-0.4-0.7-0.9v-0.2
			c0-0.1-0.1-0.2-0.2-0.2l-1.5-0.1C120.5,406,120.3,406.1,120.3,406.3z"/>
		<polygon class="st9" points="121.1,372 121.1,370.7 119,370.6 116.7,377.3 118,382.3 119.8,381.2 119.3,377.1 		"/>
		<path class="st6" d="M121.2,371.7c0.4-1.6-2.2-2.2-2.7-1.1l-2.2,6.7l1.7,5l1.8-1.1l-0.9-4.1L121.2,371.7z"/>
		<path class="st9" d="M124.7,370.1c-0.1,0-0.2,0-0.3,0l0.3,1.4V370.1z"/>
		<g>
			<polygon class="st12" points="123.1,363.4 123.5,363.7 119.7,366.5 			"/>
			<path class="st13" d="M119.3,366.6l0.2,0.2l4.3-3.9l-0.2-0.2l-0.4,0.4l0,0c0,0-1.6-1.3-2.3-1.4c-0.5-0.1-0.9,0.3-1.6,1
				c-0.5,0.5-0.8,1.1-0.8,1.8c0,0.6,0.3,1.3,0.8,1.8l0.2,0.2L119.3,366.6z"/>
			<path class="st14" d="M118.5,364c1.5-1.7,2.4-0.9,3.4,0.2l-2.5,2.2C118.7,365.7,118.3,364.9,118.5,364z"/>
			<path class="st14" d="M121.1,362.5h-0.7l-1.8,1.2l1.7-1.4c0.1-0.1,0.2-0.1,0.3,0L121.1,362.5z"/>
		</g>
	</g>
</g>
<g>
	
		<linearGradient id="SVGID_8_" gradientUnits="userSpaceOnUse" x1="-320.3301" y1="176.8974" x2="-320.3301" y2="169.2991" gradientTransform="matrix(-0.9997 2.435094e-02 -2.435094e-02 -0.9997 -67.1044 583.8723)">
		<stop  offset="0" style="stop-color:#231F20;stop-opacity:0.56"/>
		<stop  offset="1" style="stop-color:#231F20;stop-opacity:0"/>
	</linearGradient>
	<path class="st15" d="M236.3,402.5l-5.8,2c0,0,8.5-0.9,8.5-0.8l-2.1,2.4l5.7-1.5l2.5,2.2l4-2.1l1.5,2.1l5-3l6.2,1.8l-0.7-2.5
		c0,0,7.1-0.1,7-0.1l-3.9-1.9l1.5-1.1h-7l0.6-0.9l-6.2,0.7l-2-0.6l-1.2,0.7l-6.5-0.3l-1.9,0.5l-5.6-0.2l0.4,1.4l-6.6,0.6
		L236.3,402.5z"/>
</g>
<g>
	<polygon class="st16" points="220.4,344.4 198.5,337.5 195.5,344.3 217.8,351.4 	"/>
	<polygon class="st17" points="220.4,344.4 239.9,353 237.7,360.1 217.8,351.4 	"/>
	<g>
		<g>
			
				<linearGradient id="SVGID_9_" gradientUnits="userSpaceOnUse" x1="323.734" y1="428.8098" x2="365.8134" y2="428.8098" gradientTransform="matrix(0.9365 0.3506 0.3506 -0.9365 -227.9338 556.9357)">
				<stop  offset="0" style="stop-color:#9BD9E6"/>
				<stop  offset="1" style="stop-color:#21ACC8"/>
			</linearGradient>
			<path id="SVGID_6_" class="st18" d="M245.7,329.2l7.2-24l0.2-0.6l8.2-27.3l1.4,0.6l1.8-6l-1.4-0.6l5.6-18.8l0.2-0.5l6.4-21.5
				l0.1-0.5l6.1-20.2l2.2,1.3l2.3-6.1l-11.3-7l-12.7-2.7l-2.3,6.1l2.2,0.5l-8.8,19.4l-0.2,0.5l-9.3,20.5l-0.2,0.5l-8.1,18l-1.1-0.4
				l-2.6,5.7l1.1,0.4l-11.8,26l-0.3,0.6L210.2,316l-0.3,0.6l-12.8,28.2l18.4,9.4l1,0.5l1.1,0.3l18.8,4.6l9-30 M228.3,319.9
				l-2.3-11.6l8.9-5.9L228.3,319.9z M225.6,324.4l-10.9,7.6l-2.1-13.2L225.6,324.4z M213.5,316.6l10.4-6.9l2.5,12.5L213.5,316.6z
				 M237.8,294.3l-1.1-12.5l8.4-7.3L237.8,294.3z M262.4,225.5l-6.3,5.6l-0.8-7.5L262.4,225.5z M256.2,221.5l6.7-6.5l0.6,8.5
				L256.2,221.5z M255.2,245.3l-8.5-2.8l7.5-6.7L255.2,245.3z M254.3,247.4l-7.3,6.2l-1.1-8.9L254.3,247.4z M245.9,264.6l-6-2.1
				l5.2-4.4L245.9,264.6z M243.9,270.5l1.6,0.6l0,0l-9.1,7.9l-1-11.4v-0.1L243.9,270.5z M248.5,265.4l-0.2-0.1l-1.1-9.1l6.7-5.7
				L248.5,265.4z M257.2,241.9l-0.8-8l5.7-5.1L257.2,241.9z M265.5,219.5l-0.5-6.7l4.7-4.6L265.5,219.5z M270.2,204.5l-5.4,5.3
				l-0.5-6.5L270.2,204.5z M262.3,206.5l0.4,5.4l-5.1,5L262.3,206.5z M253.3,226.4l0.7,6.6l-6.2,5.5L253.3,226.4z M237.4,261.6
				l6.5-14.3l1,8.1L237.4,261.6L237.4,261.6L237.4,261.6z M233.4,270.3l0.9,10.5L225,289L233.4,270.3z M223.9,292.9l10.7-9.3l1.2,14
				L223.9,292.9 M234.7,299.7l-9.2,6.2l-2.2-10.7L234.7,299.7z M221.3,297l2.1,10.2l-9.6,6.4L221.3,297z M210.5,320.8l2,12.6
				l-11.2,7.7L210.5,320.8z M200.9,344.3L213,336l2.5,15.8L200.9,344.3z M215.1,334.5l10.6-7.3l-8.2,22.1l0,0L215.1,334.5z
				 M273,202.7L273,202.7L273,202.7L273,202.7z M249.7,307.8l-5.1,17l-2.6-10.6L249.7,307.8z M272.3,230.1l-5.3,5.2l-0.9-8.5
				L272.3,230.1z M266.8,224.5l5.6-5.7l0.6,9L266.8,224.5z M265.2,240.2l1.1,9.8l-7.7-3.3L265.2,240.2z M265.6,252.1l-6.3,6
				l-1.3-9.3L265.6,252.1z M257.6,262.9l0.9,6.5l-5.4-2.2L257.6,262.9z M258.4,276.1L258.4,276.1l-7.9,8l-1.4-11.7l0,0L258.4,276.1z
				 M248.9,289.2l1.6,13.6l-11.3-3.8L248.9,289.2z M249.5,304.9l-8.2,6.8l-2.6-10.4L249.5,304.9z M240,315.8l2.9,11.7l-12.6-3.7
				L240,315.8z M242.2,329.7l-9.8,8.8l-2.8-12.5L242.2,329.7z M252.3,298.9l-1.4-11.8l7.1-7.2L252.3,298.9z M260.9,270.3v0.1V270.3
				L260.9,270.3l-1.3-9.3l5.7-5.4L260.9,270.3z M268.2,246l-0.9-7.9l4.5-4.4L268.2,246z M275,223.3l-0.4-6.7l3.5-3.6L275,223.3z
				 M278.7,209.1l-4.3,4.4l-0.5-7.5L278.7,209.1z M271.8,209.3l0.4,6.4l-4.5,4.6L271.8,209.3z M264.1,229.9l0.8,7.3l-5.5,5.3
				L264.1,229.9z M250.6,266.4v-0.1l5.4-14.6l0,0l0,0l1.1,8.4l-6.5,6.2V266.4L250.6,266.4z M248.5,272.1L248.5,272.1L248.5,272.1
				L248.5,272.1L248.5,272.1z M240.1,294.8l7.2-19.3l1.3,10.7L240.1,294.8L240.1,294.8z M230.5,320.5l6.4-17.2l0,0l0,0l2.5,9.9
				L230.5,320.5L230.5,320.5z M219.7,349.8L219.7,349.8l8-21.6l0,0l2.7,12L219.7,349.8z M219.4,353.2l11.6-10.4l3.2,14.1
				L219.4,353.2z M232.9,341l9.2-8.3l-6.3,21.2L232.9,341z"/>
		</g>
		<g>
			<defs>
				<path id="SVGID_10_" d="M245.7,329.2l7.2-24l0.2-0.6l8.2-27.3l1.4,0.6l1.8-6l-1.4-0.6l5.6-18.8l0.2-0.5l6.4-21.5l0.1-0.5
					l6.1-20.2l2.2,1.3l2.3-6.1l-11.3-7l-12.7-2.7l-2.3,6.1l2.2,0.5l-8.8,19.4l-0.2,0.5l-9.3,20.5l-0.2,0.5l-8.1,18l-1.1-0.4
					l-2.6,5.7l1.1,0.4l-11.8,26l-0.3,0.6L210.2,316l-0.3,0.6l-12.8,28.2l18.4,9.4l1,0.5l1.1,0.3l18.8,4.6l9-30 M228.3,319.9
					l-2.3-11.6l8.9-5.9L228.3,319.9z M225.6,324.4l-10.9,7.6l-2.1-13.2L225.6,324.4z M213.5,316.6l10.4-6.9l2.5,12.5L213.5,316.6z
					 M237.8,294.3l-1.1-12.5l8.4-7.3L237.8,294.3z M262.4,225.5l-6.3,5.6l-0.8-7.5L262.4,225.5z M256.2,221.5l6.7-6.5l0.6,8.5
					L256.2,221.5z M255.2,245.3l-8.5-2.8l7.5-6.7L255.2,245.3z M254.3,247.4l-7.3,6.2l-1.1-8.9L254.3,247.4z M245.9,264.6l-6-2.1
					l5.2-4.4L245.9,264.6z M243.9,270.5l1.6,0.6l0,0l-9.1,7.9l-1-11.4v-0.1L243.9,270.5z M248.5,265.4l-0.2-0.1l-1.1-9.1l6.7-5.7
					L248.5,265.4z M257.2,241.9l-0.8-8l5.7-5.1L257.2,241.9z M265.5,219.5l-0.5-6.7l4.7-4.6L265.5,219.5z M270.2,204.5l-5.4,5.3
					l-0.5-6.5L270.2,204.5z M262.3,206.5l0.4,5.4l-5.1,5L262.3,206.5z M253.3,226.4l0.7,6.6l-6.2,5.5L253.3,226.4z M237.4,261.6
					l6.5-14.3l1,8.1L237.4,261.6L237.4,261.6L237.4,261.6z M233.4,270.3l0.9,10.5L225,289L233.4,270.3z M223.9,292.9l10.7-9.3
					l1.2,14L223.9,292.9 M234.7,299.7l-9.2,6.2l-2.2-10.7L234.7,299.7z M221.3,297l2.1,10.2l-9.6,6.4L221.3,297z M210.5,320.8
					l2,12.6l-11.2,7.7L210.5,320.8z M200.9,344.3L213,336l2.5,15.8L200.9,344.3z M215.1,334.5l10.6-7.3l-8.2,22.1l0,0L215.1,334.5z
					 M273,202.7L273,202.7L273,202.7L273,202.7z M249.7,307.8l-5.1,17l-2.6-10.6L249.7,307.8z M272.3,230.1l-5.3,5.2l-0.9-8.5
					L272.3,230.1z M266.8,224.5l5.6-5.7l0.6,9L266.8,224.5z M265.2,240.2l1.1,9.8l-7.7-3.3L265.2,240.2z M265.6,252.1l-6.3,6
					l-1.3-9.3L265.6,252.1z M257.6,262.9l0.9,6.5l-5.4-2.2L257.6,262.9z M258.4,276.1L258.4,276.1l-7.9,8l-1.4-11.7l0,0L258.4,276.1
					z M248.9,289.2l1.6,13.6l-11.3-3.8L248.9,289.2z M249.5,304.9l-8.2,6.8l-2.6-10.4L249.5,304.9z M240,315.8l2.9,11.7l-12.6-3.7
					L240,315.8z M242.2,329.7l-9.8,8.8l-2.8-12.5L242.2,329.7z M252.3,298.9l-1.4-11.8l7.1-7.2L252.3,298.9z M260.9,270.3v0.1V270.3
					L260.9,270.3l-1.3-9.3l5.7-5.4L260.9,270.3z M268.2,246l-0.9-7.9l4.5-4.4L268.2,246z M275,223.3l-0.4-6.7l3.5-3.6L275,223.3z
					 M278.7,209.1l-4.3,4.4l-0.5-7.5L278.7,209.1z M271.8,209.3l0.4,6.4l-4.5,4.6L271.8,209.3z M264.1,229.9l0.8,7.3l-5.5,5.3
					L264.1,229.9z M250.6,266.4v-0.1l5.4-14.6l0,0l0,0l1.1,8.4l-6.5,6.2V266.4L250.6,266.4z M248.5,272.1L248.5,272.1L248.5,272.1
					L248.5,272.1L248.5,272.1z M240.1,294.8l7.2-19.3l1.3,10.7L240.1,294.8L240.1,294.8z M230.5,320.5l6.4-17.2l0,0l0,0l2.5,9.9
					L230.5,320.5L230.5,320.5z M219.7,349.8L219.7,349.8l8-21.6l0,0l2.7,12L219.7,349.8z M219.4,353.2l11.6-10.4l3.2,14.1
					L219.4,353.2z M232.9,341l9.2-8.3l-6.3,21.2L232.9,341z"/>
			</defs>
			<clipPath id="SVGID_11_">
				<use xlink:href="#SVGID_10_"  style="overflow:visible;"/>
			</clipPath>
			<polygon class="st19" points="216.6,354.9 274.4,233.4 236.5,359.8 			"/>
		</g>
	</g>
	<polygon class="st20" points="272.2,204.9 259.4,202.2 262,195.3 274.7,198.1 	"/>
	<polygon class="st17" points="272.2,204.9 283.3,212 286,204.9 274.7,198.1 	"/>
	<g>
		
			<linearGradient id="SVGID_12_" gradientUnits="userSpaceOnUse" x1="341.4905" y1="433.7091" x2="343.1992" y2="433.7091" gradientTransform="matrix(0.9365 0.3506 0.3506 -0.9365 -227.9338 556.9357)">
			<stop  offset="0" style="stop-color:#9BD9E6"/>
			<stop  offset="1" style="stop-color:#21ACC8"/>
		</linearGradient>
		<polygon class="st21" points="245.6,271.1 245.5,271.1 243.9,270.5 		"/>
	</g>
	<g>
		<g>
			
				<linearGradient id="SVGID_13_" gradientUnits="userSpaceOnUse" x1="344.2054" y1="428.9973" x2="357.3658" y2="428.9973" gradientTransform="matrix(0.9365 0.3506 0.3506 -0.9365 -227.9338 556.9357)">
				<stop  offset="0" style="stop-color:#9BD9E6"/>
				<stop  offset="1" style="stop-color:#21ACC8"/>
			</linearGradient>
			<path class="st22" d="M225.6,327.2l-8.2,22.1l0,0L225.6,327.2z M260.9,270.3L260.9,270.3v0.1V270.3z M273,202.7L273,202.7
				L273,202.7L273,202.7z"/>
			
				<linearGradient id="SVGID_14_" gradientUnits="userSpaceOnUse" x1="346.2353" y1="403.2584" x2="346.5742" y2="403.2584" gradientTransform="matrix(0.9365 0.3506 0.3506 -0.9365 -227.9338 556.9357)">
				<stop  offset="0" style="stop-color:#9BD9E6"/>
				<stop  offset="1" style="stop-color:#21ACC8"/>
			</linearGradient>
			<path class="st23" d="M247.2,275.5l-7.2,19.3l0,0L247.2,275.5z M236.9,303.4L236.9,303.4L236.9,303.4l-6.4,17.2l0,0L236.9,303.4z
				 M227.7,328.2L227.7,328.2l-8,21.6l0,0L227.7,328.2z M248.5,272.1L248.5,272.1L248.5,272.1L248.5,272.1L248.5,272.1z
				 M256.1,251.7L256.1,251.7L256.1,251.7l-5.4,14.6v0.1l0,0v-0.1L256.1,251.7z"/>
		</g>
	</g>
	
		<linearGradient id="SVGID_15_" gradientUnits="userSpaceOnUse" x1="331.0767" y1="459.6936" x2="331.2462" y2="459.6936" gradientTransform="matrix(0.9365 0.3506 0.3506 -0.9365 -227.9338 556.9357)">
		<stop  offset="0" style="stop-color:#9BD9E6"/>
		<stop  offset="1" style="stop-color:#21ACC8"/>
	</linearGradient>
	<polygon class="st24" points="243.5,242.3 243.3,242.8 243.3,242.6 	"/>
	
		<linearGradient id="SVGID_16_" gradientUnits="userSpaceOnUse" x1="327.3632" y1="404.6089" x2="327.5678" y2="404.6089" gradientTransform="matrix(0.9365 0.3506 0.3506 -0.9365 -227.9338 556.9357)">
		<stop  offset="0" style="stop-color:#9BD9E6"/>
		<stop  offset="1" style="stop-color:#21ACC8"/>
	</linearGradient>
	<polygon class="st25" points="220.8,292.6 220.5,293.1 220.5,292.9 	"/>
	
		<linearGradient id="SVGID_17_" gradientUnits="userSpaceOnUse" x1="332.63" y1="482.5983" x2="332.7783" y2="482.5983" gradientTransform="matrix(0.9365 0.3506 0.3506 -0.9365 -227.9338 556.9357)">
		<stop  offset="0" style="stop-color:#9BD9E6"/>
		<stop  offset="1" style="stop-color:#21ACC8"/>
	</linearGradient>
	<polygon class="st26" points="253,221.4 252.8,221.9 252.8,221.6 	"/>
	<g>
		
			<linearGradient id="SVGID_18_" gradientUnits="userSpaceOnUse" x1="332.1923" y1="439.6844" x2="332.2419" y2="439.6844" gradientTransform="matrix(0.9365 0.3506 0.3506 -0.9365 -227.9338 556.9357)">
			<stop  offset="0" style="stop-color:#9BD9E6"/>
			<stop  offset="1" style="stop-color:#21ACC8"/>
		</linearGradient>
		<path class="st27" d="M237.4,261.6l-0.1,0.1L237.4,261.6z"/>
		
			<linearGradient id="SVGID_19_" gradientUnits="userSpaceOnUse" x1="332.5169" y1="433.5779" x2="341.4905" y2="433.5779" gradientTransform="matrix(0.9365 0.3506 0.3506 -0.9365 -227.9338 556.9357)">
			<stop  offset="0" style="stop-color:#9BD9E6"/>
			<stop  offset="1" style="stop-color:#21ACC8"/>
		</linearGradient>
		<polygon class="st28" points="243.9,270.5 235.5,267.6 235.5,267.5 		"/>
		
			<linearGradient id="SVGID_20_" gradientUnits="userSpaceOnUse" x1="346.2845" y1="439.9458" x2="346.348" y2="439.9458" gradientTransform="matrix(0.9365 0.3506 0.3506 -0.9365 -227.9338 556.9357)">
			<stop  offset="0" style="stop-color:#9BD9E6"/>
			<stop  offset="1" style="stop-color:#21ACC8"/>
		</linearGradient>
		<polygon class="st29" points="250.7,266.3 250.6,266.4 250.6,266.4 250.6,266.3 		"/>
		
			<linearGradient id="SVGID_21_" gradientUnits="userSpaceOnUse" x1="347.054" y1="433.6516" x2="357.0515" y2="433.6516" gradientTransform="matrix(0.9365 0.3506 0.3506 -0.9365 -227.9338 556.9357)">
			<stop  offset="0" style="stop-color:#9BD9E6"/>
			<stop  offset="1" style="stop-color:#21ACC8"/>
		</linearGradient>
		<polygon class="st30" points="258.4,276.1 258.4,276.1 249.2,272.4 249.2,272.4 		"/>
	</g>
	<polygon class="st20" points="219.1,347.9 198.5,337.5 195.5,344.3 216.5,354.9 	"/>
	<polygon class="st17" points="219.1,347.9 239.9,353 237.7,360.1 216.5,354.9 	"/>
	<polygon class="st17" points="247,271.6 262.6,277.8 264.4,271.8 249.2,265.7 	"/>
	<g>
		<polygon class="st20" points="247,271.6 231.3,266.1 233.9,260.4 249.2,265.7 		"/>
	</g>
</g>
<g>
	<g>
		<path class="st35" d="M256.8,387.5c-0.1,0.7-0.8,0.8-1.4,0.8c-1.1-0.1-2.1,1.6-2.1,1.6c-0.4-1.2-0.6-3,0.7-3.7
			c0.5-0.3,1.2-0.4,1.8-0.2c0.6,0.2,1,0.8,1,1.4C256.8,387.4,256.8,387.5,256.8,387.5z"/>
	</g>
	<g>
		<path class="st35" d="M242,386.4c0.5,0.3,1.2-0.2,2,0c1.1,0.2,2.1,0.9,2.1,0.9s-0.3-2-1.1-3s-2.2-1.2-3-0.6
			C240.7,384.6,241.2,385.9,242,386.4z"/>
	</g>
	<g>
		<path class="st35" d="M245,382.1c0.2,0.7,1.2,0.8,1.8,1.6c0.9,1.1,1.4,2.7,1.4,2.7s1-1.8,1-3.6c0-1.9-0.1-3.4-1.9-3.6
			C245.6,379,244.6,380.3,245,382.1z"/>
	</g>
	<g>
		<path class="st35" d="M252.4,394c-0.3,0.4-0.9,0.2-1.5,0.5l0,0c-0.5,0.2-0.8,0.7-0.8,1.3v0.1c0,0.8,0,1.5,0,2.3s0,1.6,0,2.4
			c0,0.9,0,1.7,0,2.6c0,0.1,0,3,0,3.2l-0.7-1.1c0-0.2,0-2.1,0-2.3c0-0.8-0.3-3.9-0.9-5.6c-0.2-0.6-0.4-1.1-0.7-1.2l0,0
			c-0.6-0.3-1.2,0-1.5-0.4c-0.7-0.9-0.5-2,0.6-2.4c0.8-0.3,1.6-0.1,2.2,0.5c0-0.2,0-0.5,0.1-0.7c0.4-1.1,1.6-1.7,2.7-1.3
			C252.9,392,253.1,393,252.4,394z"/>
	</g>
</g>
<g>
	<g>
		<g>
			<path class="st36" d="M295.4,346.8l-1,0.4c-1.7,1.8-6,3.8-8.6,4.9c-4.7,2-8.5,3.1-9.5,2.6l-0.7,0.3l0,0c1-1.1,4.7-3.2,9.3-5.1
				C290,347.7,294.4,346.5,295.4,346.8L295.4,346.8z"/>
			<g>
				<path class="st36" d="M301.2,360.4l-1,0.4c-1.7,1.8-6,3.8-8.6,4.9c-4.7,2-8.5,3.1-9.5,2.6l-0.7,0.3l0,0c1-1.1,4.7-3.2,9.3-5.1
					C295.8,361.3,300.2,360.1,301.2,360.4L301.2,360.4z"/>
				<path class="st20" d="M302.1,362.2L302.1,362.2c0.3,0.8-4,3.3-9.5,5.7s-10.3,3.6-10.7,2.9l0,0c-0.2-0.5-0.7-1.6-0.7-1.6
					c1.8,0.2,6-0.9,10.7-2.9s8.7-4.8,9.5-5.7C301.4,360.6,301.8,361.5,302.1,362.2z"/>
				<path class="st36" d="M301.4,360.6L301.4,360.6c0.3,0.8-4,3.3-9.5,5.7c-5.5,2.3-10.3,3.6-10.7,2.9l0,0c-0.1-0.1,0-0.3,0.2-0.6
					l0.7-0.3c1,0.5,4.8-0.6,9.5-2.6c2.6-1.1,6.9-3.1,8.6-4.9l1-0.4C301.3,360.5,301.4,360.5,301.4,360.6z"/>
				<g>
					<g>
						<g>
							<g>
								
									<linearGradient id="XMLID_4_" gradientUnits="userSpaceOnUse" x1="102.0354" y1="150.8102" x2="127.5189" y2="132.9407" gradientTransform="matrix(0.9202 -0.3914 -0.3914 -0.9202 236.0914 528.1193)">
									<stop  offset="0" style="stop-color:#9BD9E6"/>
									<stop  offset="1" style="stop-color:#21ACC8"/>
								</linearGradient>
								<path id="XMLID_398_" class="st37" d="M290,336.8l10.3,24.1c-1.7,1.8-6,3.8-8.6,4.9c-4.8,2-8.6,3.1-9.6,2.6L272,344.5
									c0.4,0.7,4.6-0.5,9.6-2.6S290.3,337.5,290,336.8z"/>
							</g>
						</g>
						<path class="st20" d="M291.1,336.3L291.1,336.3c0.3,0.8-4,3.3-9.5,5.7s-10.3,3.6-10.7,2.9l0,0c-0.2-0.5-0.7-1.6-0.7-1.6
							c1.3-0.7,18.5-7.9,20.2-8.6C290.4,334.7,290.8,335.6,291.1,336.3z"/>
						<path class="st36" d="M290.4,334.7L290.4,334.7c0.3,0.8-4,3.3-9.5,5.7s-10.3,3.6-10.7,2.9l0,0c-0.3-0.8,3.9-3.3,9.5-5.7
							C285.3,335.2,290.1,333.9,290.4,334.7z"/>
					</g>
					
						<linearGradient id="SVGID_22_" gradientUnits="userSpaceOnUse" x1="286.153" y1="231.1231" x2="301.3601" y2="227.0483" gradientTransform="matrix(1 0 0 -1 0 584)">
						<stop  offset="0" style="stop-color:#231F20;stop-opacity:0"/>
						<stop  offset="2.300739e-02" style="stop-color:#231F20;stop-opacity:2.300739e-02"/>
						<stop  offset="1" style="stop-color:#231F20"/>
					</linearGradient>
					<path style="opacity:0.38;fill:url(#SVGID_22_);enable-background:new    ;" d="M290.3,337.4l-8.1,31c1.6,0.6,7.2-1.5,11.7-3.5
						c3.7-1.7,6.4-3.7,6.4-4L290.3,337.4z"/>
				</g>
				<path class="st20" d="M296.3,348.6L296.3,348.6c0.3,0.8-4,3.3-9.5,5.7c-5.5,2.4-10.3,3.6-10.7,2.9l0,0c-0.2-0.5-0.7-1.6-0.7-1.6
					c1.8,0.2,6-0.9,10.7-2.9s8.7-4.8,9.5-5.7C295.6,347,296,347.9,296.3,348.6z"/>
				<path class="st36" d="M295.6,347L295.6,347c0.3,0.8-4,3.3-9.5,5.7c-5.5,2.3-10.3,3.6-10.7,2.9l0,0c-0.1-0.1,0-0.3,0.2-0.6
					l0.7-0.3c1,0.5,4.8-0.6,9.5-2.6c2.6-1.1,6.9-3.1,8.6-4.9l1-0.4C295.5,346.8,295.6,346.9,295.6,347z"/>
			</g>
		</g>
		<path class="st20" d="M282.7,348.3c0.3,0.8,1.2,1.2,2,0.8c0.8-0.3,1.2-1.2,0.8-2c-0.3-0.8-2.5-2-2.5-2S282.4,347.5,282.7,348.3z"
			/>
	</g>
	<path class="st39" d="M291.7,368.3c3-1.2,5.8-2.6,7.3-3.5c0.6-0.4,1.3-0.8,1.9-1.2c0.4-0.3,1.1-0.7,1.2-1.3c0-0.2-0.1-0.4-0.1-0.4
		c-0.1-0.3-0.4-1.1-0.6-1.4c-0.1-0.2-0.4-0.2-0.6-0.2s-0.3,0-0.7,0l0.2,0.5c-0.1,0.6-4.4,3.1-6.2,3.9c-5,2.2-9.9,4.2-11.9,3.6
		l-0.9,0.8l0.7,1.7C282.5,371.6,286.7,370.3,291.7,368.3z"/>
	<path class="st39" d="M285.7,354.8c2.7-0.9,7.1-3.4,7.5-3.6c0.6-0.4,1.3-0.8,1.9-1.2c0.4-0.3,1.1-0.7,1.2-1.3
		c0-0.2-0.1-0.4-0.1-0.4c-0.1-0.3-0.4-1.1-0.6-1.4c-0.1-0.2-0.4-0.2-0.6-0.2s-0.3,0-0.7,0l0.2,0.4c-0.9,1-3.9,2.9-8,4.6l-0.4,0.8
		L285.7,354.8z"/>
</g>
<g class="st40">
	
		<linearGradient id="SVGID_23_" gradientUnits="userSpaceOnUse" x1="251.6" y1="428.3" x2="251.6" y2="176.1" gradientTransform="matrix(1 0 0 -1 0 584)">
		<stop  offset="0" style="stop-color:#FDFDFE"/>
		<stop  offset="1" style="stop-color:#FDFDFE;stop-opacity:0"/>
	</linearGradient>
	<path class="st32" d="M319.1,401.1c0,3.8-30.2,6.8-67.5,6.8s-67.5-3.1-67.5-6.8c0-0.3,46.4-245.4,46.4-245.4l46.6,0.8
		C277.2,156.5,319.1,400.8,319.1,401.1z"/>
</g>
<ellipse class="st1" cx="251.9" cy="402.9" rx="67.5" ry="6.8"/>
<ellipse class="st1" cx="353.9" cy="390.8" rx="19.5" ry="0.8"/>
<linearGradient id="SVGID_24_" gradientUnits="userSpaceOnUse" x1="334.3771" y1="199.75" x2="336.8064" y2="199.75" gradientTransform="matrix(1 0 0 -1 0 584)">
	<stop  offset="2.167468e-02" style="stop-color:#543211"/>
	<stop  offset="0.7838" style="stop-color:#2F1500"/>
</linearGradient>
<path class="st33" d="M336.8,390.8c0,0.4-2.4,0.4-2.4,0v-13.4h2.4V390.8z"/>
<g>
	
		<linearGradient id="SVGID_25_" gradientUnits="userSpaceOnUse" x1="203.3" y1="432.4" x2="299.6" y2="432.4" gradientTransform="matrix(1 0 0 -1 0 584)">
		<stop  offset="0" style="stop-color:#FFFFED"/>
		<stop  offset="0.1403" style="stop-color:#F8F8CD"/>
		<stop  offset="0.3938" style="stop-color:#EDED99"/>
		<stop  offset="0.5849" style="stop-color:#E6E679"/>
		<stop  offset="0.6901" style="stop-color:#E3E36D"/>
		<stop  offset="1" style="stop-color:#8F9246"/>
	</linearGradient>
	
		<linearGradient id="SVGID_26_" gradientUnits="userSpaceOnUse" x1="202.8" y1="432.4" x2="300.1" y2="432.4" gradientTransform="matrix(1 0 0 -1 0 584)">
		<stop  offset="0" style="stop-color:#FFFFED"/>
		<stop  offset="0.1403" style="stop-color:#F8F8CD"/>
		<stop  offset="0.3938" style="stop-color:#EDED99"/>
		<stop  offset="0.5849" style="stop-color:#E6E679"/>
		<stop  offset="0.6901" style="stop-color:#E3E36D"/>
		<stop  offset="1" style="stop-color:#8F9246"/>
	</linearGradient>
	<path style="fill:url(#SVGID_25_);stroke:url(#SVGID_26_);stroke-miterlimit:10;" d="M299.6,151.6c0,1.4-1.2,2.8-3.5,4.1
		c-2.8,1.6-7.3,3-12.8,4.1c-1.2,0.2-2.4,0.5-3.7,0.7c-0.4,0.1-0.9,0.1-1.4,0.2c-0.5,0.1-0.9,0.1-1.4,0.2c-3,0.4-6.2,0.8-9.5,1
		c-0.5,0-0.9,0.1-1.4,0.1c-0.9,0.1-1.9,0.1-2.8,0.2c-0.9,0-1.9,0.1-2.8,0.1s-1.8,0.1-2.7,0.1c-1.1,0-2.2,0.1-3.4,0.1
		c-0.9,0-1.8,0-2.7,0c-12.2,0-23.3-1-31.8-2.7c-5.6-1.1-10-2.5-12.9-4.1c-2.3-1.2-3.5-2.6-3.5-4.1c0-0.6,0.2-1.1,0.6-1.7
		c3.5-5.2,23.5-9.2,47.6-9.2c23.7,0,43.4,3.8,47.4,8.9c0.1,0.1,0.1,0.2,0.2,0.2C299.4,150.5,299.6,151,299.6,151.6z"/>
	
		<linearGradient id="SVGID_27_" gradientUnits="userSpaceOnUse" x1="203.3" y1="422.95" x2="299.6" y2="422.95" gradientTransform="matrix(1 0 0 -1 0 584)">
		<stop  offset="0" style="stop-color:#FFFFED"/>
		<stop  offset="0.2033" style="stop-color:#F8F8CD"/>
		<stop  offset="0.5706" style="stop-color:#EDED99"/>
		<stop  offset="0.8475" style="stop-color:#E6E679"/>
		<stop  offset="1" style="stop-color:#E3E36D"/>
	</linearGradient>
	
		<linearGradient id="SVGID_28_" gradientUnits="userSpaceOnUse" x1="202.8" y1="422.7" x2="300.1" y2="422.7" gradientTransform="matrix(1 0 0 -1 0 584)">
		<stop  offset="0" style="stop-color:#FFFFED"/>
		<stop  offset="0.2033" style="stop-color:#F8F8CD"/>
		<stop  offset="0.5706" style="stop-color:#EDED99"/>
		<stop  offset="0.8475" style="stop-color:#E6E679"/>
		<stop  offset="1" style="stop-color:#E3E36D"/>
	</linearGradient>
	<path style="fill:url(#SVGID_27_);stroke:url(#SVGID_28_);stroke-miterlimit:10;" d="M299.6,151.6v8.1c0,5.5-18,10-41.4,10.7
		c-2.2,0.1-4.5,0.1-6.8,0.1c-26.6,0-48.1-4.8-48.1-10.8v-8.1c0,1.4,1.2,2.8,3.5,4.1c2.8,1.6,7.3,3,12.9,4.1
		c8.5,1.7,19.6,2.7,31.8,2.7c0.9,0,1.8,0,2.7,0c1.1,0,2.3,0,3.4-0.1c0.9,0,1.8-0.1,2.7-0.1c1,0,1.9-0.1,2.8-0.1
		c1-0.1,1.9-0.1,2.8-0.2c0.5,0,0.9-0.1,1.4-0.1c3.4-0.3,6.5-0.6,9.5-1c0.5-0.1,0.9-0.1,1.4-0.2c0.5-0.1,0.9-0.1,1.4-0.2
		c1.3-0.2,2.5-0.4,3.7-0.7c5.6-1.1,10-2.5,12.8-4.1C298.3,154.4,299.6,153,299.6,151.6z"/>
	<g>
		<g>
			<path id="XMLID_391_" class="st45" d="M278.8,144.1c-7.8,1.2-17.2,1.9-27.4,1.9c-10.2,0-19.6-0.7-27.4-1.9c0.2-1.4,0.6-2.7,1-4
				c0.4-1.3,1-2.6,1.6-3.8c4.6-9,14-15.1,24.8-15.1s20.2,6.1,24.8,15.1c0.6,1.2,1.2,2.5,1.6,3.8
				C278.2,141.4,278.6,142.8,278.8,144.1z"/>
		</g>
		<g>
			<defs>
				<path id="SVGID_33_" d="M278.8,144.1c-7.8,1.2-17.2,1.9-27.4,1.9c-10.2,0-19.6-0.7-27.4-1.9c0.2-1.4,0.6-2.7,1-4
					c0.4-1.3,1-2.6,1.6-3.8c4.6-9,14-15.1,24.8-15.1s20.2,6.1,24.8,15.1c0.6,1.2,1.2,2.5,1.6,3.8
					C278.2,141.4,278.6,142.8,278.8,144.1z"/>
			</defs>
			<clipPath id="SVGID_29_">
				<use xlink:href="#SVGID_33_"  style="overflow:visible;"/>
			</clipPath>
			<g style="opacity:0.11;clip-path:url(#SVGID_29_);">
				<ellipse class="st47" cx="243.8" cy="169.4" rx="7.3" ry="0.4"/>
				<path d="M250.9,143.5l2.9,0.5l1.2,0.2c0.5,0.1,0.5-0.2,0.8-0.5c0.2-0.3,0.5-0.5,0.9-0.6c0,0,0.1,0,0.1-0.1c0,0,0,0,0-0.1
					c0-0.1-0.1-0.2-0.2-0.3c-0.1-0.1-0.2-0.1-0.3-0.1c-0.4-0.1-0.8-0.2-1.2-0.1l-1.1,0.3l-2.3-0.1L250.9,143.5z"/>
				<path d="M246.6,137.9l-1.7,1.1l1.8,3.9c0.4,0.9,1.6,0.9,2.6,0.9l4.4,0.2l0.2-1.2l-4.9-0.6c-1.4-0.2-1.9-3.6-2-3.8L246.6,137.9z"
					/>
				<path d="M243.1,151.1c-0.2,3.5,0.7,8.6,0.7,8.6s0,4.9,0.3,8l1,0.5l0.6-3.8l0.2-4.3l-0.1-2.9"/>
				<path d="M243.4,152.5c0.1,1.5-0.1,4.9-0.2,6.2c0,0.4,0,0.8-0.1,1.3c-0.2,1.7-0.9,6.2-1.4,8.1h-1.2c-0.2-3.2-0.2-9.2-0.2-9.2
					s-1.1-7-0.4-9.4l6.7-0.3c0.4,6.2,0.2,12.9-1.2,19h-1.1c-0.4-3.6-0.4-8.5-0.4-8.5S243.4,155.5,243.4,152.5"/>
				<path d="M238.9,138.9L240,151l6.9-0.3l0.2-12.3c0-0.2-0.3-0.5-0.5-0.5c-1,0.1-1.2-0.4-2.1-0.5c-0.5,1.4-1.9,0.1-1.9-0.2v-0.1
					c-1,0-2,0.2-2.8,0.4C239.2,137.7,238.9,138.3,238.9,138.9z"/>
				<path d="M238.7,138.9l1.1,12.1l6.9-0.3l0.4-12.3c0-0.2-0.1-0.4-0.3-0.5c-0.6-0.3-1.6-0.5-2.5-0.7c-0.5,1.4-1.9,0.2-1.9,0v-0.1
					c-1,0-2,0.2-2.8,0.4C239,137.7,238.7,138.3,238.7,138.9z"/>
				<path d="M241.2,133.9c0.4,0.6,0.9,1,1.1,1.7c0.2,0.5,0.1,1.2,0.1,1.8v0.7c0.5,0.4,1.4,0.6,1.9-0.1v-0.5v-1
					c0,0.1,0.7-0.4,0.8-0.4c0.2-0.2,0.3-0.5,0.4-0.8c0.4-0.8,0.8-1.7,0.8-2.7s-0.4-2.1-1.3-2.5c-0.3-0.1-0.6-0.2-0.9-0.2
					c-1.1-0.1-2.3,0-3,0.8c-0.6,0.7-0.7,1.8-0.4,2.6C240.9,133.4,241,133.6,241.2,133.9z"/>
				<path d="M239.7,146.9l0.6,2.3l0.5,1.1c0.1,0.3,0.1,0.6-0.1,0.8l-0.2,0.2c-0.1,0.1-0.3,0.2-0.4,0.2l0,0c-0.4,0-0.7-0.3-0.8-0.7
					l-0.1-1.1l-0.9-2.2L239.7,146.9z"/>
				<path d="M244.1,167.7l-0.2,1.7h4.1l0,0c0-0.4-0.3-0.7-0.7-0.7h-0.6c-0.4,0-0.8-0.3-0.8-0.7v-0.2c0-0.1-0.1-0.2-0.2-0.2l-1.3-0.1
					C244.2,167.5,244.1,167.6,244.1,167.7z"/>
				<path d="M240.3,167.7l-0.2,1.7h3h0.2c0-0.4-0.3-0.7-0.7-0.7h0.1c-0.4,0-0.5-0.3-0.6-0.7v-0.2c0-0.1-0.1-0.2-0.2-0.2l-1.3-0.1
					C240.4,167.5,240.3,167.6,240.3,167.7z"/>
				<polygon points="240.9,139.5 240.9,138.4 239.2,138.3 237.3,143.8 238.4,147.9 239.9,147 239.5,143.7 				"/>
				<path d="M241,139.2c0.3-1.3-1.8-1.8-2.2-0.9l-1.8,5.5l1.4,4.1l1.5-0.9l-0.7-3.3L241,139.2z"/>
				<path d="M243.6,138.3c-0.1,0-0.2,0-0.3,0l0.2,1.2L243.6,138.3z"/>
			</g>
		</g>
		<g>
			<defs>
				<path id="SVGID_35_" d="M278.8,144.1c-7.8,1.2-17.2,1.9-27.4,1.9c-10.2,0-19.6-0.7-27.4-1.9c0.2-1.4,0.6-2.7,1-4
					c0.4-1.3,1-2.6,1.6-3.8c4.6-9,14-15.1,24.8-15.1s20.2,6.1,24.8,15.1c0.6,1.2,1.2,2.5,1.6,3.8
					C278.2,141.4,278.6,142.8,278.8,144.1z"/>
			</defs>
			<clipPath id="SVGID_30_">
				<use xlink:href="#SVGID_35_"  style="overflow:visible;"/>
			</clipPath>
			<g style="opacity:0.11;clip-path:url(#SVGID_30_);">
				<ellipse class="st47" cx="261.5" cy="169.4" rx="7.3" ry="0.4"/>
				<path d="M262.2,151.1c0.2,3.5-0.7,8.6-0.7,8.6s0,4.9-0.3,8l-1,0.5l-0.6-3.8l-0.2-4.3l0.1-2.9"/>
				<path d="M261.9,152.5c-0.1,1.5,0.1,4.9,0.2,6.2c0,0.4,0,0.8,0.1,1.3c0.2,1.7,0.9,6.2,1.4,8.1h1.2c0.2-3.2,0.2-9.2,0.2-9.2
					s1.1-7,0.4-9.4l-6.7-0.3c-0.4,6.2-0.2,12.9,1.2,19h1.1c0.4-3.6,0.4-8.5,0.4-8.5S261.9,155.5,261.9,152.5"/>
				<path d="M266.4,138.9l-1.1,12.1l-6.9-0.3l-0.2-12.3c0-0.2,0.3-0.5,0.5-0.5c1,0.1,1.2-0.4,2.1-0.5c0.5,1.4,1.9,0.1,1.9-0.2v-0.1
					c1,0,2,0.2,2.8,0.4C266.1,137.7,266.5,138.3,266.4,138.9z"/>
				<path d="M266.6,138.9l-1.1,12.1l-6.9-0.3l-0.4-12.3c0-0.2,0.1-0.4,0.3-0.5c0.6-0.3,1.6-0.5,2.5-0.7c0.5,1.4,1.9,0.2,1.9,0v-0.1
					c1,0,2,0.2,2.8,0.4C266.3,137.7,266.6,138.3,266.6,138.9z"/>
				<path d="M264.1,133.9c-0.4,0.6-0.9,1-1.1,1.7c-0.2,0.5-0.1,1.2-0.1,1.8v0.7c-0.5,0.4-1.4,0.6-1.9-0.1v-0.5v-1
					c0,0.1-0.7-0.4-0.8-0.4c-0.2-0.2-0.3-0.5-0.4-0.8c-0.4-0.8-0.8-1.7-0.8-2.7s0.4-2.1,1.3-2.5c0.3-0.1,0.6-0.2,0.9-0.2
					c1.1-0.1,2.3,0,3,0.8c0.6,0.7,0.7,1.8,0.4,2.6C264.4,133.4,264.3,133.6,264.1,133.9z"/>
				<path d="M265.6,146.9l-0.6,2.3l-0.5,1.1c-0.1,0.3-0.1,0.6,0.1,0.8l0.2,0.2c0.1,0.1,0.3,0.2,0.4,0.2l0,0c0.4,0,0.7-0.3,0.8-0.7
					l0.1-1.1l0.9-2.2L265.6,146.9z"/>
				<path d="M261.2,167.7l0.2,1.7h-4.1l0,0c0-0.4,0.3-0.7,0.7-0.7h0.6c0.4,0,0.8-0.3,0.8-0.7v-0.2c0-0.1,0.1-0.2,0.2-0.2l1.3-0.1
					C261.1,167.5,261.2,167.6,261.2,167.7z"/>
				<path d="M265,167.7l0.2,1.7h-3H262c0-0.4,0.3-0.7,0.7-0.7h-0.1c0.4,0,0.5-0.3,0.6-0.7v-0.2c0-0.1,0.1-0.2,0.2-0.2l1.3-0.1
					C264.9,167.5,265,167.6,265,167.7z"/>
				<polygon points="264.4,139.5 264.4,138.4 266.1,138.3 268,143.8 266.9,147.9 265.4,147 265.8,143.7 				"/>
				<path d="M264.3,139.2c-0.3-1.3,1.8-1.8,2.2-0.9l1.8,5.5l-1.4,4.1l-1.5-0.9l0.7-3.3L264.3,139.2z"/>
				<path d="M257.7,138.9c0-1.4,2.2-1.3,2.4-0.3l0.4,5.8l-2.4,3.6l-1.2-1.2l1.5-3.1L257.7,138.9z"/>
				<path d="M261.7,138.3c0.1,0,0.2,0,0.3,0l-0.2,1.2L261.7,138.3z"/>
			</g>
		</g>
		<g>
			<defs>
				<path id="SVGID_37_" d="M278.8,144.1c-7.8,1.2-17.2,1.9-27.4,1.9c-10.2,0-19.6-0.7-27.4-1.9c0.2-1.4,0.6-2.7,1-4
					c0.4-1.3,1-2.6,1.6-3.8c4.6-9,14-15.1,24.8-15.1s20.2,6.1,24.8,15.1c0.6,1.2,1.2,2.5,1.6,3.8
					C278.2,141.4,278.6,142.8,278.8,144.1z"/>
			</defs>
			<clipPath id="SVGID_31_">
				<use xlink:href="#SVGID_37_"  style="overflow:visible;"/>
			</clipPath>
			<circle style="opacity:0.11;clip-path:url(#SVGID_31_);enable-background:new    ;" cx="256.5" cy="144.1" r="0.8"/>
		</g>
		<g>
			<defs>
				<path id="SVGID_39_" d="M278.8,144.1c-7.8,1.2-17.2,1.9-27.4,1.9c-10.2,0-19.6-0.7-27.4-1.9c0.2-1.4,0.6-2.7,1-4
					c0.4-1.3,1-2.6,1.6-3.8c4.6-9,14-15.1,24.8-15.1s20.2,6.1,24.8,15.1c0.6,1.2,1.2,2.5,1.6,3.8
					C278.2,141.4,278.6,142.8,278.8,144.1z"/>
			</defs>
			<clipPath id="SVGID_32_">
				<use xlink:href="#SVGID_39_"  style="overflow:visible;"/>
			</clipPath>
			
				<rect x="256.3" y="144.8" style="opacity:0.11;clip-path:url(#SVGID_32_);enable-background:new    ;" width="0.5" height="3.4"/>
		</g>
		<g>
			
				<linearGradient id="XMLID_5_" gradientUnits="userSpaceOnUse" x1="223.4351" y1="450.4" x2="279.3702" y2="450.4" gradientTransform="matrix(1 0 0 -1 0 584)">
				<stop  offset="0" style="stop-color:#FFFFED"/>
				<stop  offset="0.2033" style="stop-color:#F8F8CD"/>
				<stop  offset="0.5706" style="stop-color:#EDED99"/>
				<stop  offset="0.8475" style="stop-color:#E6E679"/>
				<stop  offset="1" style="stop-color:#E3E36D"/>
			</linearGradient>
			<path id="XMLID_1_" class="st51" d="M278.8,144.1c-7.8,1.2-17.2,1.9-27.4,1.9c-10.2,0-19.6-0.7-27.4-1.9c0.2-1.4,0.6-2.7,1-4
				c0.4-1.3,1-2.6,1.6-3.8c4.6-9,14-15.1,24.8-15.1s20.2,6.1,24.8,15.1c0.6,1.2,1.2,2.5,1.6,3.8
				C278.2,141.4,278.6,142.8,278.8,144.1z"/>
		</g>
	</g>
	
		<linearGradient id="SVGID_34_" gradientUnits="userSpaceOnUse" x1="257.3821" y1="422.85" x2="300.0408" y2="422.85" gradientTransform="matrix(1 0 0 -1 0 584)">
		<stop  offset="0" style="stop-color:#231F20;stop-opacity:0"/>
		<stop  offset="2.300739e-02" style="stop-color:#231F20;stop-opacity:2.300739e-02"/>
		<stop  offset="1" style="stop-color:#231F20"/>
	</linearGradient>
	<path style="opacity:0.38;fill:url(#SVGID_34_);enable-background:new    ;" d="M262.8,161.6h0.3c0.9,0,1.9-0.1,2.8-0.2h0.1
		c0.4,0,0.8-0.1,1.3-0.1c3.4-0.3,6.6-0.6,9.5-1c0.5-0.1,0.9-0.1,1.4-0.2c0.5-0.1,0.9-0.1,1.3-0.2c1.3-0.2,2.5-0.4,3.7-0.7
		c5.6-1.1,10-2.5,12.7-4c2.1-1.2,3.3-2.4,3.3-3.7h0.9v8.1c0,6.5-21,10.5-41.8,11.2h-0.8L262.8,161.6z"/>
	<g>
		<g>
			<g>
				
					<linearGradient id="XMLID_6_" gradientUnits="userSpaceOnUse" x1="223.0928" y1="435.3" x2="279.7627" y2="435.3" gradientTransform="matrix(1 0 0 -1 0 584)">
					<stop  offset="0" style="stop-color:#FFFFED"/>
					<stop  offset="0.2033" style="stop-color:#F8F8CD"/>
					<stop  offset="0.5706" style="stop-color:#EDED99"/>
					<stop  offset="0.8475" style="stop-color:#E6E679"/>
					<stop  offset="1" style="stop-color:#E3E36D"/>
				</linearGradient>
				<path id="XMLID_399_" class="st53" d="M279.8,149.1c0,0.4,0,0.8,0,1.1v0.4l-0.3,0.1c-1.3,0.4-2.9,0.8-4.6,1.1
					c-6.4,1.3-14.7,2-23.3,2c-8.6,0-16.9-0.7-23.3-2c-1.7-0.3-3.3-0.7-4.6-1.1l-0.4-0.1v-0.4c0-0.4,0-0.8,0-1.1c0-1.7,0.2-3.4,0.4-5
					l0.1-0.5l0.5,0.1c8,1.2,17.5,1.9,27.3,1.9s19.3-0.7,27.3-1.9l0.5-0.1l0.1,0.5C279.6,145.7,279.8,147.4,279.8,149.1z"/>
			</g>
			<g>
				<defs>
					<path id="SVGID_42_" d="M279.8,149.1c0,0.4,0,0.8,0,1.1v0.4l-0.3,0.1c-1.3,0.4-2.9,0.8-4.6,1.1c-6.4,1.3-14.7,2-23.3,2
						c-8.6,0-16.9-0.7-23.3-2c-1.7-0.3-3.3-0.7-4.6-1.1l-0.4-0.1v-0.4c0-0.4,0-0.8,0-1.1c0-1.7,0.2-3.4,0.4-5l0.1-0.5l0.5,0.1
						c8,1.2,17.5,1.9,27.3,1.9s19.3-0.7,27.3-1.9l0.5-0.1l0.1,0.5C279.6,145.7,279.8,147.4,279.8,149.1z"/>
				</defs>
				<clipPath id="SVGID_36_">
					<use xlink:href="#SVGID_42_"  style="overflow:visible;"/>
				</clipPath>
				
					<linearGradient id="SVGID_38_" gradientUnits="userSpaceOnUse" x1="265.0103" y1="440.05" x2="307.669" y2="440.05" gradientTransform="matrix(1 0 0 -1 0 584)">
					<stop  offset="0" style="stop-color:#231F20;stop-opacity:0"/>
					<stop  offset="2.300739e-02" style="stop-color:#231F20;stop-opacity:2.300739e-02"/>
					<stop  offset="1" style="stop-color:#231F20"/>
				</linearGradient>
				<path style="opacity:0.38;clip-path:url(#SVGID_36_);fill:url(#SVGID_38_);enable-background:new    ;" d="M270.4,144.4h0.3
					c0.9,0,1.9-0.1,2.8-0.2h0.1c0.4,0,0.8-0.1,1.3-0.1c3.4-0.3,6.6-0.6,9.5-1c0.5-0.1,0.9-0.1,1.4-0.2c0.5-0.1,0.9-0.1,1.3-0.2
					c1.3-0.2,2.5-0.4,3.7-0.7c5.6-1.1,10-2.5,12.7-4c2.1-1.2,3.3-2.4,3.3-3.7h0.9v8.1c0,6.5-21,10.5-41.8,11.2h-0.8L270.4,144.4z"/>
			</g>
		</g>
	</g>
</g>
<linearGradient id="SVGID_40_" gradientUnits="userSpaceOnUse" x1="128.2233" y1="117.2248" x2="127.2574" y2="176.7613" gradientTransform="matrix(1 0 0 -1 0 584)">
	<stop  offset="0.2089" style="stop-color:#FFFFFF;stop-opacity:0"/>
	<stop  offset="1" style="stop-color:#FFFFFF;stop-opacity:0.54"/>
</linearGradient>
<polygon style="fill:url(#SVGID_40_);" points="4.1,402.9 4.1,462.5 251.7,462.5 251.7,431.2 "/>
<ellipse class="st1" cx="420.6" cy="404" rx="22.5" ry="0.9"/>
<linearGradient id="SVGID_41_" gradientUnits="userSpaceOnUse" x1="398.1067" y1="187.6125" x2="400.8984" y2="187.6125" gradientTransform="matrix(1 0 0 -1 0 584)">
	<stop  offset="2.167468e-02" style="stop-color:#543211"/>
	<stop  offset="0.7838" style="stop-color:#2F1500"/>
</linearGradient>
<path style="fill:url(#SVGID_41_);" d="M400.9,403.9c0,0.5-2.8,0.5-2.8,0v-15.4h2.8V403.9z"/>
<g>
	<g>
		
			<linearGradient id="XMLID_7_" gradientUnits="userSpaceOnUse" x1="391.1276" y1="212.6477" x2="407.8776" y2="212.6477" gradientTransform="matrix(1 0 0 -1 0 584)">
			<stop  offset="0" style="stop-color:#74BA44"/>
			<stop  offset="1" style="stop-color:#538531"/>
		</linearGradient>
		<path id="XMLID_394_" class="st57" d="M407.9,381.7c0,12.1-3.7,11.5-8.4,11.5c-4.6,0-8.4,0.6-8.4-11.5s3.7-32.2,8.4-32.2
			C404.1,349.4,407.9,369.6,407.9,381.7z"/>
	</g>
	<g>
		<defs>
			<path id="SVGID_47_" d="M407.9,381.7c0,12.1-3.7,11.5-8.4,11.5c-4.6,0-8.4,0.6-8.4-11.5s3.7-32.2,8.4-32.2
				C404.1,349.4,407.9,369.6,407.9,381.7z"/>
		</defs>
		<clipPath id="SVGID_43_">
			<use xlink:href="#SVGID_47_"  style="overflow:visible;"/>
		</clipPath>
		<path style="opacity:0.1;clip-path:url(#SVGID_43_);enable-background:new    ;" d="M404.6,352.7c-1.7,18.2-0.2,36.2-5.8,41.8
			l13.8,4C414.2,384.9,409.5,368.8,404.6,352.7z"/>
	</g>
</g>
<ellipse class="st1" cx="170.9" cy="394.6" rx="19.5" ry="0.8"/>
<linearGradient id="SVGID_44_" gradientUnits="userSpaceOnUse" x1="151.3494" y1="196.05" x2="153.7787" y2="196.05" gradientTransform="matrix(1 0 0 -1 0 584)">
	<stop  offset="2.167468e-02" style="stop-color:#543211"/>
	<stop  offset="0.7838" style="stop-color:#2F1500"/>
</linearGradient>
<path style="fill:url(#SVGID_44_);" d="M153.8,394.5c0,0.4-2.4,0.4-2.4,0v-13.4h2.4V394.5z"/>
<g>
	<g>
		
			<linearGradient id="XMLID_8_" gradientUnits="userSpaceOnUse" x1="145.2762" y1="217.8481" x2="159.8519" y2="217.8481" gradientTransform="matrix(1 0 0 -1 0 584)">
			<stop  offset="0" style="stop-color:#74BA44"/>
			<stop  offset="1" style="stop-color:#538531"/>
		</linearGradient>
		<path id="XMLID_396_" class="st60" d="M159.9,375.2c0,10.5-3.3,10-7.3,10s-7.3,0.5-7.3-10s3.3-28.1,7.3-28.1
			S159.9,364.7,159.9,375.2z"/>
	</g>
	<g>
		<defs>
			<path id="SVGID_50_" d="M159.9,375.2c0,10.5-3.3,10-7.3,10s-7.3,0.5-7.3-10s3.3-28.1,7.3-28.1S159.9,364.7,159.9,375.2z"/>
		</defs>
		<clipPath id="SVGID_45_">
			<use xlink:href="#SVGID_50_"  style="overflow:visible;"/>
		</clipPath>
		<path style="opacity:0.1;clip-path:url(#SVGID_45_);enable-background:new    ;" d="M157,350c-1.4,15.9-0.1,31.5-5.1,36.4l12,3.5
			C165.4,378,161.3,364,157,350z"/>
	</g>
</g>
<ellipse class="st1" cx="194.5" cy="386.6" rx="18.8" ry="0.7"/>
<linearGradient id="SVGID_46_" gradientUnits="userSpaceOnUse" x1="175.737" y1="203.7" x2="178.0717" y2="203.7" gradientTransform="matrix(1 0 0 -1 0 584)">
	<stop  offset="2.167468e-02" style="stop-color:#543211"/>
	<stop  offset="0.7838" style="stop-color:#2F1500"/>
</linearGradient>
<path class="st56" d="M178.1,386.6c0,0.4-2.3,0.4-2.3,0v-12.9h2.3V386.6z"/>
<g>
	<g>
		
			<linearGradient id="XMLID_9_" gradientUnits="userSpaceOnUse" x1="169.9" y1="224.698" x2="183.9" y2="224.698" gradientTransform="matrix(1 0 0 -1 0 584)">
			<stop  offset="0" style="stop-color:#74BA44"/>
			<stop  offset="1" style="stop-color:#538531"/>
		</linearGradient>
		<path id="XMLID_395_" class="st63" d="M183.9,368c0,10.1-3.1,9.6-7,9.6s-7,0.5-7-9.6s3.1-27,7-27C180.8,341,183.9,357.9,183.9,368
			z"/>
	</g>
	<g>
		<defs>
			<path id="SVGID_53_" d="M183.9,368c0,10.1-3.1,9.6-7,9.6s-7,0.5-7-9.6s3.1-27,7-27C180.8,341,183.9,357.9,183.9,368z"/>
		</defs>
		<clipPath id="SVGID_48_">
			<use xlink:href="#SVGID_53_"  style="overflow:visible;"/>
		</clipPath>
		<path class="st58" d="M181.2,343.7c-1.4,15.3-0.1,30.2-4.9,35l11.5,3.3C189.2,370.7,185.3,357.2,181.2,343.7z"/>
	</g>
</g>
<ellipse class="st1" cx="360.6" cy="411.1" rx="9.7" ry="0.9"/>
<g>
	<g>
		
			<linearGradient id="XMLID_10_" gradientUnits="userSpaceOnUse" x1="328.3" y1="221.6481" x2="342.8757" y2="221.6481" gradientTransform="matrix(1 0 0 -1 0 584)">
			<stop  offset="0" style="stop-color:#74BA44"/>
			<stop  offset="1" style="stop-color:#538531"/>
		</linearGradient>
		<path id="XMLID_390_" class="st65" d="M342.9,371.4c0,10.5-3.3,10-7.3,10s-7.3,0.5-7.3-10s3.3-28.1,7.3-28.1
			S342.9,360.9,342.9,371.4z"/>
	</g>
	<g>
		<defs>
			<path id="SVGID_55_" d="M342.9,371.4c0,10.5-3.3,10-7.3,10s-7.3,0.5-7.3-10s3.3-28.1,7.3-28.1S342.9,360.9,342.9,371.4z"/>
		</defs>
		<clipPath id="SVGID_49_">
			<use xlink:href="#SVGID_55_"  style="overflow:visible;"/>
		</clipPath>
		<path style="opacity:0.1;clip-path:url(#SVGID_49_);enable-background:new    ;" d="M340,346.2c-1.4,15.9-0.1,31.5-5.1,36.4
			l12,3.5C348.4,374.2,344.3,360.2,340,346.2z"/>
	</g>
</g>
<g>
	<path class="st67" d="M352.8,367l2.5-1.2c0.7-0.3,1.8-1.6,2.5-0.6c0.1,0.1,0.1,0.3,0.1,0.4c0,0.1-0.1,0.2-0.1,0.3
		c-0.2,0.3-0.4,0.6-0.7,0.8c-0.1,0.1-0.2,0.2-0.3,0.1c-0.1-0.1,0-0.3-0.1-0.4c-0.2,0-0.5,0.3-0.6,0.4c-0.2,0.1-0.5,0.3-0.7,0.5
		c-0.4,0.3-0.7,0.5-1.1,0.8c-0.4,0.2-0.2,0.1-0.6,0.3L352.8,367z"/>
	<path class="st68" d="M354.4,376l-1.4,1.5l-4.5-7.3c-0.2-0.3-0.1-0.8,0.3-1l5.3-3l0.4,1.8l-2.8,2.3c0,0,1.5,2.2,2.4,2
		S354.7,375.7,354.4,376z"/>
	<g>
		<g>
			<path id="XMLID_2_" class="st68" d="M354.4,376l-1.4,1.5l-4.5-7.3c-0.2-0.3-0.1-0.8,0.3-1l5.3-3l0.4,1.8l-2.8,2.3
				c0,0,1.6,2,2.4,2C354.9,372.3,354.7,375.7,354.4,376z"/>
		</g>
		<g>
			<defs>
				<path id="SVGID_57_" d="M354.4,376l-1.4,1.5l-4.5-7.3c-0.2-0.3-0.1-0.8,0.3-1l5.3-3l0.4,1.8l-2.8,2.3c0,0,1.6,2,2.4,2
					C354.9,372.3,354.7,375.7,354.4,376z"/>
			</defs>
			<clipPath id="SVGID_51_">
				<use xlink:href="#SVGID_57_"  style="overflow:visible;"/>
			</clipPath>
			<path style="clip-path:url(#SVGID_51_);fill:#F5A623;" d="M355.3,376.3l-2,1.9l-3.9-7.6c-0.2-0.3-0.1-0.8,0.3-1l5.3-3l0.4,1.8
				l-2.8,2.3l2.4,2C355.2,373,355.6,376,355.3,376.3z"/>
		</g>
	</g>
	<path class="st7" d="M357.1,388.8c0.2,4.3-0.9,10.4-0.9,10.4s0,6-0.4,9.7l-1.2,0.6l-0.7-4.6l-0.3-5.2l0.2-3.5"/>
	<path class="st8" d="M356.7,390.5c-0.1,1.9,0.1,6,0.2,7.5c0,0.5,0.1,1,0.1,1.5c0.3,2,1.1,7.5,1.7,9.9h1.4
		c0.3-3.9,0.2-11.1,0.2-11.1s1.3-8.6,0.5-11.4l-8.1-0.3c-0.5,7.5-0.3,15.6,1.5,23.1h1.3c0.5-4.4,0.4-10.4,0.4-10.4
		S356.7,394.2,356.7,390.5"/>
	<path class="st70" d="M362.2,374l-1.3,14.8l-8.4-0.3l-0.2-11.9c0-0.2,1.5-4.2,1.7-4.2c1.2,0.1,0.2,0,1.3-0.1
		c0.7,1.7,2.3,0.1,2.3-0.2V372c1.2,0,2.4,0.2,3.4,0.5C361.9,372.6,362.3,373.3,362.2,374z"/>
	<path class="st71" d="M362.4,374l-1.3,14.8l-8.4-0.3l-0.4-12c0,0,1.1-3.9,1.7-4s1.2-0.3,1.8-0.3c0.7,1.7,1.8,0.3,1.9,0v-0.1
		c1.2,0,2.6,0.2,3.6,0.5C362.1,372.6,362.5,373.3,362.4,374z"/>
	<g>
		<g>
			<path id="XMLID_397_" class="st72" d="M360.1,370.4c-0.8,0.5-1.5,0.9-2.2,0.9l0.1,1c-0.4,0.5-1.6,0.7-2,0.4c-0.2-0.2,0-2.4,0-2.4
				c-0.3-0.3-0.3-0.7-0.3-0.7c-0.2-1,0.4-2.3,1.8-3.3c1.3-0.8,2.7-1,3.6-0.4c0.2,0.1,0.4,0.3,0.5,0.5
				C362.3,367.7,361.6,369.4,360.1,370.4z"/>
		</g>
		<g>
			<defs>
				<path id="SVGID_59_" d="M360.1,370.4c-0.8,0.5-1.5,0.9-2.2,0.9l0.1,1c-0.4,0.5-1.6,0.7-2,0.4c-0.2-0.2,0-2.4,0-2.4
					c-0.3-0.3-0.3-0.7-0.3-0.7c-0.2-1,0.4-2.3,1.8-3.3c1.3-0.8,2.7-1,3.6-0.4c0.2,0.1,0.4,0.3,0.5,0.5
					C362.3,367.7,361.6,369.4,360.1,370.4z"/>
			</defs>
			<clipPath id="SVGID_52_">
				<use xlink:href="#SVGID_59_"  style="overflow:visible;"/>
			</clipPath>
			<path style="clip-path:url(#SVGID_52_);fill:#A97243;" d="M357,373.3l0.1-1.5c0,0,0.2-1.4,0.4-1.5c0.1,0-0.1,0,0,0
				c0.2,0,0.4-0.1,0.6-0.1c1.1-0.4,2.1-1.1,3.2-1.2c0.1,0,0.2,0,0.3,0.1c0.1,0.1,0.1,0.3,0,0.4c-0.5,1.1-1.5,1.8-2.5,2.5
				c-0.5,0.3-0.9,0.7-1.4,1"/>
		</g>
	</g>
	<path class="st72" d="M361.2,383.7l-0.7,2.8l-0.6,1.3c-0.2,0.3-0.1,0.7,0.1,0.9l0.3,0.3c0.1,0.1,0.3,0.2,0.5,0.3l0,0
		c0.5,0,0.9-0.3,0.9-0.8l0.1-1.3l1.1-2.6L361.2,383.7z"/>
	<path class="st11" d="M355.9,409l0.3,2.1h-5l0,0c0-0.5,0.4-0.9,0.9-0.9h0.7c0.5,0,1-0.4,1-0.9v-0.2c0-0.1,0.1-0.2,0.2-0.2l1.5-0.1
		C355.8,408.8,355.9,408.9,355.9,409z"/>
	<path class="st11" d="M360.5,409l0.3,2.1h-3.6H357c0-0.5,0.4-0.9,0.9-0.9h-0.1c0.5,0,0.6-0.4,0.7-0.9v-0.2c0-0.1,0.1-0.2,0.2-0.2
		l1.5-0.1C360.4,408.8,360.5,408.9,360.5,409z"/>
	<polygon class="st70" points="359.8,374.7 359.8,373.4 361.9,373.3 364.1,380 362.9,385 361,383.9 361.5,379.8 	"/>
	<path class="st71" d="M359.6,374.4c-0.4-1.6,2.2-2.2,2.7-1.1l2.1,6.5c0,0.1,0,0.3,0,0.4l-1.6,4.8l-1.8-1.1l0.9-4.1L359.6,374.4z"/>
	<path class="st70" d="M356.1,372.8c0.1,0,0.2,0,0.3,0l-0.3,1.4V372.8z"/>
	<g>
		<polygon class="st74" points="357.7,366.1 357.3,366.4 361.2,369.2 		"/>
		<path class="st13" d="M361.6,369.3l-0.2,0.2l-4.3-3.9l0.2-0.2l0.4,0.4l0,0c0,0,1.6-1.3,2.3-1.4c0.5-0.1,0.9,0.3,1.6,1
			c0.5,0.5,0.8,1.1,0.8,1.8c0,0.6-0.3,1.3-0.8,1.8l-0.2,0.2L361.6,369.3z"/>
		<path class="st14" d="M362.4,366.8c-1.5-1.7-2.4-0.9-3.4,0.2l2.5,2.2C362.2,368.4,362.6,367.6,362.4,366.8z"/>
		<path class="st14" d="M359.8,365.2h0.7l1.8,1.2l-1.7-1.4c-0.1-0.1-0.2-0.1-0.3,0L359.8,365.2z"/>
	</g>
</g>
<linearGradient id="SVGID_54_" gradientUnits="userSpaceOnUse" x1="-696.0529" y1="117.3378" x2="-696.1164" y2="176.8822" gradientTransform="matrix(-1 0 0 -1 -320.624 584)">
	<stop  offset="0.1967" style="stop-color:#FFFFFF;stop-opacity:0"/>
	<stop  offset="1" style="stop-color:#FFFFFF;stop-opacity:0.54"/>
</linearGradient>
<polygon style="opacity:0.7;fill:url(#SVGID_54_);enable-background:new    ;" points="499.2,402.9 499.2,462.5 251.7,462.5 
	251.7,431.2 "/>
<text transform="matrix(1 0 0 1 58.8075 42.7646)" class="st76 st77 st78">The page you were looking for doesnt exist.</text>
<text transform="matrix(1 0 0 1 58.4464 63.728)" class="st76 st77 st79">You may have mistyped the address or the page may have moved.</text>
<text transform="matrix(1 0 0 1 189.0423 87.3115)" class="st76 st77 st80">Click anywhere to go home.</text>
</svg>
