<?xml version="1.0" encoding="UTF-8"?>
<svg width="83px" height="68px" viewBox="0 0 83 68" version="1.1" xmlns="http://www.w3.org/2000/svg" xmlns:xlink="http://www.w3.org/1999/xlink">
    <!-- Generator: sketchtool 59.1 (101010) - https://sketch.com -->
    <title>4A4891D9-1CE9-4D84-ADE5-B16810E06583</title>
    <desc>Created with sketchtool.</desc>
    <g id="Homepage" stroke="none" stroke-width="1" fill="none" fill-rule="evenodd">
        <g id="Home-Page" transform="translate(-279.000000, -3203.000000)">
            <g id="Solutions" transform="translate(-5.000000, 2905.000000)">
                <g id="1" transform="translate(140.000000, 251.000000)">
                    <g id="Icon-/-audience-contractor-Icon-/-Audience-/-Contractors" transform="translate(143.000000, 40.000000)">
                        <g id="hard-hat" transform="translate(0.000000, 7.500000)">
                            <path d="M67.7921293,46.7232781 C51.3796517,51.8878636 33.7770683,51.8878636 17.3645907,46.7232781 C16.5230704,46.5195991 15.66831,47.005721 15.4131728,47.8330944 C15.1580357,48.6604678 15.5905734,49.5435539 16.4006564,49.8491799 C24.8693127,52.4995985 33.6908741,53.8506904 42.5645895,53.8563931 C51.4381914,53.8492062 60.2595305,52.4981484 68.7285227,49.8491799 C69.560216,49.5556456 70.0103959,48.6564971 69.7471143,47.8147376 C69.4838328,46.9729782 68.6015433,46.4905933 67.7508178,46.7232781 L67.7921293,46.7232781 Z" id="Path" fill="#064658"></path>
                            <path d="M82.8845902,46.3377057 C82.6014984,44.9128296 81.6766617,43.6983461 80.3783607,43.0465581 C79.8413139,42.7842091 79.4771074,42.2639141 79.4144263,41.6695089 C79.4218568,41.5502803 79.4218568,41.4307048 79.4144263,41.3114761 L79.4144263,40.3062302 C79.435518,30.5210123 75.5317206,21.1360252 68.5770493,14.2524593 C64.0347791,9.72308558 58.3922673,6.45337099 52.2039345,4.76459024 L52.0800001,4.76459024 L52.0800001,4.59934433 C52.0724117,2.18625977 50.1140801,0.234076671 47.7009837,0.234076671 L37.4557378,0.234076671 C36.2906965,0.230440462 35.1719198,0.68974619 34.3455288,1.51097232 C33.5191377,2.33219844 33.0528268,3.44807351 33.0491804,4.61311483 L33.0491804,4.72327876 L32.9390164,4.72327876 C29.9829256,5.54230163 27.145503,6.74114741 24.497705,8.2898362 C24.2431028,8.36482601 24.011199,8.50207523 23.8229509,8.68918047 L23.8229509,8.68918047 C12.609271,15.650015 5.78336522,27.9064471 5.76983609,41.1049188 L5.76983609,41.4629516 C5.7718891,42.1338771 5.39286564,42.7477884 4.79213117,43.0465581 C3.4899047,43.6967298 2.56016665,44.9109778 2.27213117,46.3377057 L1.3770492,50.6065583 C0.952347287,52.6476243 2.25726037,54.6480807 4.29639346,55.0819682 L14.0321312,57.2439354 C15.3388989,57.5212758 16.5217667,58.2116844 17.4059017,59.2131158 L17.8052459,59.695083 C21.8512068,64.6109543 27.8804669,67.4639962 34.2472132,67.4754173 L50.9508197,67.4754173 C57.2991439,67.4802698 63.3201854,64.6590105 67.3790165,59.777706 L67.7508197,59.2131158 C68.6264291,58.1758087 69.8152371,57.4509257 71.1383607,57.147542 L80.860328,55.0819682 C82.8568256,54.6287414 84.1316149,52.6708114 83.7383607,50.6616402 L82.8845902,46.3377057 Z M80.2268882,52.1626234 L70.5049206,54.3245906 C68.5445277,54.7592804 66.7825073,55.8290785 65.4924614,57.3678693 L65.0931171,57.8498365 C61.5991078,62.0533439 56.4168596,64.4855187 50.9508215,64.4872137 L34.2472143,64.4872137 C28.7661726,64.4872137 23.5690197,62.0496038 20.0636073,57.836066 L19.6780335,57.3540988 C18.3879876,55.815308 16.6259672,54.7455099 14.6655743,54.3108201 L4.94360669,52.1626234 C4.50405631,52.0598621 4.22431126,51.6280817 4.31016404,51.1849184 L5.16393457,46.9160659 C5.27234686,46.3784203 5.62303482,45.9210012 6.11409853,45.6767217 C6.41331332,45.5242379 6.69498271,45.3395366 6.95409857,45.125902 L7.09180349,45.015738 L7.2432789,45.2222954 L7.33967235,45.3324594 C7.68737804,45.7351703 8.08539149,46.0915312 8.52393469,46.3927872 C9.19560169,46.8373679 10.0991272,46.6664306 10.5619676,46.0072135 C11.018554,45.3363801 10.8531102,44.4233753 10.1901643,43.9554102 C9.95458652,43.8019456 9.74141153,43.616576 9.55672161,43.4045905 C9.06272854,42.8130867 8.76867978,42.0803751 8.71672158,41.3114757 L8.71672158,41.0498364 C8.76029509,29.8507729 14.1348743,19.3419622 23.189509,12.7514754 L23.4373779,12.5586885 L23.4373779,24.1947542 C23.4373779,25.0085141 24.0970606,25.6681968 24.9108205,25.6681968 C25.7245804,25.6681968 26.3842632,25.0085141 26.3842632,24.1947542 L26.3842632,10.6721311 L26.4668862,10.6721311 C28.49678,9.52795106 30.6434677,8.60464454 32.8701651,7.91803271 L33.0767225,7.84918025 L33.0767225,14.8859016 C33.0767225,15.6996615 33.7364052,16.3593443 34.5501652,16.3593443 C35.3639251,16.3593443 36.0236078,15.6996615 36.0236078,14.8859016 L36.0236078,4.61311464 C36.0236078,3.85259137 36.6401338,3.23606544 37.4006571,3.23606544 L47.6459034,3.23606544 C48.4064266,3.23606544 49.0229526,3.85259137 49.0229526,4.61311464 L49.0229526,14.8445902 C48.9688303,15.4024714 49.2359202,15.9427468 49.7120428,16.2384968 C50.1881653,16.5342469 50.7908547,16.5342469 51.2669773,16.2384968 C51.7430998,15.9427468 52.0101897,15.4024714 51.9560675,14.8445902 L51.9560675,7.76655729 L52.1763953,7.76655729 C54.3914158,8.43778493 56.5323019,9.33289676 58.5659038,10.4380327 L58.6622972,10.4380327 L58.6622972,24.0708198 C58.6081749,24.628701 58.8752649,25.1689764 59.3513874,25.4647265 C59.8275099,25.7604765 60.4301993,25.7604765 60.9063219,25.4647265 C61.3824444,25.1689764 61.6495344,24.628701 61.5954121,24.0708198 L61.5954121,12.3934426 L61.8570514,12.572459 C63.4684362,13.697794 64.9796247,14.9601892 66.3737729,16.3455738 C72.7488308,22.6723755 76.332991,31.2832831 76.3298389,40.2649183 L76.3298389,41.5593446 C76.2420416,42.254694 75.9551158,42.9098412 75.5036093,43.445902 C75.3202862,43.6540907 75.1121831,43.8390711 74.8839372,43.9967216 C74.5537232,44.2066372 74.3284035,44.5471202 74.264265,44.9331151 C74.1933411,45.3168395 74.2775312,45.7130282 74.4983634,46.0347544 C74.7674674,46.4408669 75.2229917,46.6841583 75.7101667,46.6819676 C76.0112437,46.688954 76.3063098,46.5970482 76.5501667,46.4203282 C76.9811884,46.120057 77.3742194,45.768641 77.7206586,45.3737708 L77.817052,45.2636069 L77.9822979,45.0570495 L78.1062324,45.153443 C78.3572626,45.3674311 78.6349894,45.5479536 78.9324619,45.6904921 C79.4235256,45.9347717 79.7742136,46.3921908 79.8826259,46.9298364 L80.7363964,51.1986889 C80.8205499,51.60073 80.6064892,52.0057097 80.2268882,52.1626234 L80.2268882,52.1626234 Z" id="Shape" fill="#064658" fill-rule="nonzero"></path>
                            <path d="M48.6098364,29.9370486 L51.8045906,26.8937701 L48.8439348,24.0570489 L46.2963938,26.4944258 C44.6770617,24.1353068 43.4580675,21.5251707 42.6885249,18.7691803 C41.9050901,21.5248994 40.6771457,24.1342812 39.053115,26.4944258 L36.4918035,24.0570489 L33.5311477,26.8937701 L36.7259018,29.9232781 C36.5715766,30.1995224 36.4336335,30.4846049 36.3127871,30.7770486 L31.8511477,30.7770486 L31.8511477,34.7842615 L36.2714756,34.7842615 C36.3714516,35.0985457 36.5005357,35.4028154 36.6570494,35.6931139 L33.5311477,38.6813105 L36.4918035,41.4354088 L39.6314756,38.5573761 C39.932665,38.7072677 40.2458937,38.8316379 40.5678691,38.9291794 L40.5678691,43.1567202 L44.7678692,43.1567202 L44.7678692,38.8878679 C45.0930595,38.8037544 45.4108371,38.6932231 45.7180331,38.5573761 L48.8439348,41.5455727 L51.8045906,38.7914745 L48.6786889,35.8032779 C48.8352025,35.5129793 48.9642866,35.2087096 49.0642627,34.8944255 L53.4983611,34.8944255 L53.4983611,30.7770486 L49.0229512,30.7770486 C48.9104159,30.4853574 48.7721666,30.2042505 48.6098364,29.9370486 L48.6098364,29.9370486 Z M42.6885248,36.3541031 C41.9285393,36.3554679 41.2017675,36.0427328 40.6802491,35.4899232 C40.1587307,34.9371137 39.8888261,34.1933717 39.9344265,33.4347542 C39.9344265,32.6773772 40.3062298,32.057705 41.3114757,30.3639345 C41.7108199,29.7304918 42.1377051,28.9868852 42.6059019,28.2295082 C43.0603281,29.0281967 43.4872133,29.7304918 43.8865576,30.3639345 C44.9331149,32.030164 45.2636067,32.6773772 45.2636067,33.4347542 C45.3578259,34.9517081 44.2053752,36.2582298 42.6885248,36.3541031 Z" id="Shape" fill="#24A5C2"></path>
                        </g>
                    </g>
                </g>
            </g>
        </g>
    </g>
</svg>