<?xml version="1.0" encoding="UTF-8"?>
<svg width="84px" height="78px" viewBox="0 0 84 78" version="1.1" xmlns="http://www.w3.org/2000/svg" xmlns:xlink="http://www.w3.org/1999/xlink">
    <!-- Generator: sketchtool 52.5 (67469) - http://www.bohemiancoding.com/sketch -->
    <title>4A72C60A-71F5-44D6-A628-413CC48232BE</title>
    <desc>Created with sketchtool.</desc>
    <g id="Website" stroke="none" stroke-width="1" fill="none" fill-rule="evenodd">
        <g id="Careers" transform="translate(-1157.000000, -2300.000000)">
            <g id="Benefits" transform="translate(0.000000, 2066.000000)">
                <g id="Top" transform="translate(135.000000, 230.000000)">
                    <g id="5" transform="translate(967.000000, 0.000000)">
                        <g id="Careers-/-icon-benefits-wfh" transform="translate(55.000000, 0.000000)">
                            <rect id="Background" x="0" y="0" width="85" height="85.1"></rect>
                            <g id="benefits-wfh" transform="translate(0.000000, 3.039286)">
                                <path d="M51.3344262,18.3871803 L75.4827869,18.3871803 L75.8032787,17.4664262 C75.9817804,16.993591 76.0761043,16.4930863 76.0819672,15.9876393 C76.0596315,14.0530924 74.7838949,12.3576444 72.9327869,11.8023934 C72.4336392,8.56888933 69.8927244,6.03578059 66.6609264,5.54980114 C63.4291285,5.06382168 60.2570552,6.73784364 58.8311475,9.68186885 C58.3732197,9.58259309 57.9062376,9.53116462 57.4377049,9.52840984 C53.8745629,9.52840984 50.9860656,12.4203054 50.9860656,15.9876393 C50.9857155,16.4231646 51.0277169,16.8576895 51.1114754,17.2850656 L51.3344262,18.3871803 Z M71.6508197,14.3274918 C72.4245521,14.3334559 73.0931411,14.8701104 73.2672131,15.624918 L53.7590164,15.624918 C53.9449557,13.7366202 55.5285553,12.2958385 57.4237705,12.2906721 C57.9825347,12.2954348 58.5320261,12.4341653 59.0262295,12.6952459 L60.5729508,13.4485902 L60.9909836,11.7884426 C61.5654883,9.4798537 63.7720277,7.9648279 66.1300441,8.25992673 C68.4880606,8.55502555 70.2542153,10.5672223 70.2434426,12.9463607 L70.2434426,14.3414426 L71.6508197,14.3274918 Z" id="Shape" fill="#064658" fill-rule="nonzero"></path>
                                <path d="M1.39344262,66.768623 L82.2131148,66.768623 C82.9826919,66.768623 83.6065574,66.1440235 83.6065574,65.373541 C83.6065574,64.6030585 82.9826919,63.978459 82.2131148,63.978459 L71.8598361,63.978459 L71.8598361,44.2659508 L74.507377,44.2659508 C74.9972101,44.2580541 75.4469185,43.9932085 75.6918033,43.5684098 C75.9407178,43.13677 75.9407178,42.6049677 75.6918033,42.1733279 L64.892623,24.7906066 C64.6394845,24.3955201 64.2048679,24.1543649 63.7360656,24.1488689 L30.0704918,24.218623 C30.2339766,21.9960481 29.5742404,19.7910294 28.2172131,18.024459 C30.4675093,14.5843674 30.6090774,10.1737197 28.5840286,6.59607975 C26.5589797,3.01843976 22.7068502,0.87366377 18.6028193,1.03877492 C14.4987885,1.20388606 10.8309715,3.65120047 9.09918033,7.37998361 C5.86385448,8.21424435 3.28008232,10.6482589 2.25160677,13.8306661 C1.22313121,17.0130733 1.89305299,20.5010772 4.02704918,23.0746557 C4.02704918,23.2560164 3.9295082,23.4513279 3.88770492,23.6326885 C2.79599122,28.5160268 5.85553079,33.3633976 10.7295082,34.4724754 C11.3782312,34.6232305 12.0422318,34.6981355 12.7081967,34.6956885 C13.8028187,34.692888 14.8881508,34.4944638 15.9131148,34.1097541 L10.0885246,42.1035738 C9.80422016,42.5149564 9.76168651,43.0472527 9.97704918,43.4986557 C10.21366,43.943853 10.6718348,44.2265487 11.1754098,44.2380492 L11.7467213,44.2380492 L11.7467213,64.0482131 L1.39344262,64.0482131 C0.623865513,64.0482131 9.42460145e-17,64.6728126 0,65.4432951 C-9.42460145e-17,66.2137776 0.623865513,66.838377 1.39344262,66.838377 L1.39344262,66.768623 Z M69.1147541,63.978459 L35.9786885,63.978459 L35.9786885,44.2659508 L69.142623,44.2659508 L69.1147541,63.978459 Z M13.8368852,41.5594918 L23.7721311,27.9016393 L33.5262295,41.5594918 L13.8368852,41.5594918 Z M14.45,44.2659508 L33.2754098,44.2659508 L33.2754098,64.0482131 L29.6803279,64.0482131 L29.6803279,48.8278689 C29.6803279,48.0573864 29.0564624,47.4327869 28.2868852,47.4327869 L19.0204918,47.4327869 C18.2509147,47.4327869 17.6270492,48.0573864 17.6270492,48.8278689 L17.6270492,64.0482131 L14.4221311,64.0482131 L14.45,44.2659508 Z M20.3721311,50.2229508 L26.9631148,50.2229508 L26.9631148,64.0342623 L20.3721311,64.0342623 L20.3721311,50.2229508 Z M26.4754098,26.9390328 L63.0532787,26.8553279 L72.152459,41.5594918 L36.8008197,41.5594918 L26.4754098,26.9390328 Z M23.8418033,24.2325738 L23.6885246,24.2325738 C23.6885246,24.2325738 23.6885246,24.2325738 23.6188525,24.2325738 C23.4665903,24.2564111 23.3200998,24.3084527 23.1868852,24.3860328 C23.0518774,24.470412 22.9337437,24.5792229 22.8385246,24.7069016 L19.354918,29.4920328 L19.0344262,29.3804262 L18.797541,29.2967213 L18.797541,15.1366393 C18.797541,14.3661568 18.1736755,13.7415574 17.4040984,13.7415574 C16.6345213,13.7415574 16.0106557,14.3661568 16.0106557,15.1366393 L16.0106557,27.3575574 C14.4939025,27.2324557 13.1648938,26.2919709 12.5409836,24.9022131 C11.58271,22.9568229 11.6879177,20.6553292 12.8196721,18.8057049 C13.0168852,18.5054262 13.0823693,18.1372749 13.0008197,17.7872951 C12.9217136,17.4390927 12.7122523,17.1345172 12.4155738,16.9362951 C12.1255109,16.7532635 11.7782283,16.6837253 11.4401639,16.7409836 C11.090124,16.8236327 10.7855575,17.0385797 10.5901639,17.3408689 C8.93007555,19.9911199 8.7664472,23.3150979 10.1581967,26.1159344 C11.2390692,28.3666681 13.4393173,29.8671511 15.9270492,30.0500656 L15.9270492,31.0126721 C13.7706477,32.2994912 11.0561939,32.1780137 9.02306845,30.7037045 C6.98994304,29.2293954 6.02823605,26.6851262 6.57704918,24.2325738 C6.68360527,23.8981303 6.81399475,23.571773 6.96721311,23.2560164 L7.31557377,22.4050164 L6.64672131,21.7493279 C4.81057871,19.9172995 4.14217603,17.2161434 4.9117192,14.7378185 C5.68126236,12.2594936 7.761497,10.4138246 10.3114754,9.94693443 L11.147541,9.76557377 L11.4262295,9.01222951 C12.6535212,5.84291215 15.695006,3.75012341 19.0901639,3.73881967 C19.6992345,3.73875815 20.3065475,3.80423804 20.9016393,3.93413115 C25.3013611,4.92685264 28.0766872,9.28787007 27.1163934,13.6997049 C26.8434917,14.9715446 26.2593377,16.1556084 25.4163934,17.1455574 L24.6081967,18.1360656 L25.5,19.028918 C26.8782594,20.3607169 27.5626368,22.2565601 27.3532787,24.1628197 L23.8418033,24.2325738 Z" id="Shape" fill="#064658" fill-rule="nonzero"></path>
                                <path d="M82.2131148,75.892459 L1.39344262,75.892459 C0.623865513,75.892459 9.42460145e-17,76.5170585 0,77.287541 C-9.42460145e-17,78.0580235 0.623865513,78.682623 1.39344262,78.682623 L82.2131148,78.682623 C82.9826919,78.682623 83.6065574,78.0580235 83.6065574,77.287541 C83.6065574,76.5170585 82.9826919,75.892459 82.2131148,75.892459 Z" id="Path" fill="#064658"></path>
                                <path d="M22.4901639,56.0822951 C21.7205868,56.0822951 21.0967213,56.7068946 21.0967213,57.477377 L21.0967213,58.5934426 C20.9556526,59.1569756 21.1781722,59.7490455 21.6553031,60.0796914 C22.1324341,60.4103374 22.7642873,60.4103374 23.2414182,60.0796914 C23.7185491,59.7490455 23.9410687,59.1569756 23.8,58.5934426 L23.8,57.3797213 C23.7520398,56.6787104 23.190824,56.1228117 22.4901639,56.0822951 Z" id="Path" fill="#064658"></path>
                                <path d="M16.9442623,69.9773115 C16.3243344,70.1328628 15.8895724,70.6906882 15.8895724,71.330541 C15.8895724,71.9703937 16.3243344,72.5282191 16.9442623,72.6837705 L19.9262295,72.6837705 C20.4891002,72.8250052 21.0804745,72.6022237 21.4107319,72.1245315 C21.7409892,71.6468393 21.7409892,71.0142427 21.4107319,70.5365505 C21.0804745,70.0588582 20.4891002,69.8360768 19.9262295,69.9773115 L16.9442623,69.9773115 Z" id="Path" fill="#064658"></path>
                                <path d="M32.4672131,69.9773115 C31.8472853,70.1328628 31.4125232,70.6906882 31.4125232,71.330541 C31.4125232,71.9703937 31.8472853,72.5282191 32.4672131,72.6837705 L35.4491803,72.6837705 C36.0120511,72.8250052 36.6034253,72.6022237 36.9336827,72.1245315 C37.26394,71.6468393 37.26394,71.0142427 36.9336827,70.5365505 C36.6034253,70.0588582 36.0120511,69.8360768 35.4491803,69.9773115 L32.4672131,69.9773115 Z" id="Path" fill="#064658"></path>
                                <path d="M40.2286885,69.9773115 C39.6087607,70.1328628 39.1739987,70.6906882 39.1739987,71.330541 C39.1739987,71.9703937 39.6087607,72.5282191 40.2286885,72.6837705 L43.1967213,72.6837705 C43.759592,72.8250052 44.3509663,72.6022237 44.6812237,72.1245315 C45.011481,71.6468393 45.011481,71.0142427 44.6812237,70.5365505 C44.3509663,70.0588582 43.759592,69.8360768 43.1967213,69.9773115 L40.2286885,69.9773115 Z" id="Path" fill="#064658"></path>
                                <path d="M24.7057377,69.9773115 C24.0858099,70.1328628 23.6510478,70.6906882 23.6510478,71.330541 C23.6510478,71.9703937 24.0858099,72.5282191 24.7057377,72.6837705 L27.6877049,72.6837705 C28.2505757,72.8250052 28.8419499,72.6022237 29.1722073,72.1245315 C29.5024646,71.6468393 29.5024646,71.0142427 29.1722073,70.5365505 C28.8419499,70.0588582 28.2505757,69.8360768 27.6877049,69.9773115 L24.7057377,69.9773115 Z" id="Path" fill="#064658"></path>
                                <path d="M82.0319672,69.9773115 L79.05,69.9773115 C78.4871293,69.8360768 77.895755,70.0588582 77.5654977,70.5365505 C77.2352403,71.0142427 77.2352403,71.6468393 77.5654977,72.1245315 C77.895755,72.6022237 78.4871293,72.8250052 79.05,72.6837705 L82.0319672,72.6837705 C82.5948379,72.8250052 83.1862122,72.6022237 83.5164696,72.1245315 C83.8467269,71.6468393 83.8467269,71.0142427 83.5164696,70.5365505 C83.1862122,70.0588582 82.5948379,69.8360768 82.0319672,69.9773115 Z" id="Path" fill="#064658"></path>
                                <path d="M1.39344262,69.9773115 C0.773514771,70.1328628 0.338752751,70.6906882 0.338752751,71.330541 C0.338752751,71.9703937 0.773514771,72.5282191 1.39344262,72.6837705 L4.40327869,72.6837705 C5.02320654,72.5282191 5.45796856,71.9703937 5.45796856,71.330541 C5.45796856,70.6906882 5.02320654,70.1328628 4.40327869,69.9773115 L1.39344262,69.9773115 Z" id="Path" fill="#064658"></path>
                                <path d="M9.18278689,69.9773115 C8.56285903,70.1328628 8.12809701,70.6906882 8.12809701,71.330541 C8.12809701,71.9703937 8.56285903,72.5282191 9.18278689,72.6837705 L12.1647541,72.6837705 C12.784682,72.5282191 13.219444,71.9703937 13.219444,71.330541 C13.219444,70.6906882 12.784682,70.1328628 12.1647541,69.9773115 L9.18278689,69.9773115 Z" id="Path" fill="#064658"></path>
                                <path d="M47.9901639,69.9773115 C47.4272932,69.8360768 46.835919,70.0588582 46.5056616,70.5365505 C46.1754042,71.0142427 46.1754042,71.6468393 46.5056616,72.1245315 C46.835919,72.6022237 47.4272932,72.8250052 47.9901639,72.6837705 L50.9860656,72.6837705 C51.6059934,72.5282191 52.0407554,71.9703937 52.0407554,71.330541 C52.0407554,70.6906882 51.6059934,70.1328628 50.9860656,69.9773115 L47.9901639,69.9773115 Z" id="Path" fill="#064658"></path>
                                <path d="M63.5131148,69.9773115 C62.8931869,70.1328628 62.4584249,70.6906882 62.4584249,71.330541 C62.4584249,71.9703937 62.8931869,72.5282191 63.5131148,72.6837705 L66.5090164,72.6837705 C67.0718871,72.8250052 67.6632614,72.6022237 67.9935187,72.1245315 C68.3237761,71.6468393 68.3237761,71.0142427 67.9935187,70.5365505 C67.6632614,70.0588582 67.0718871,69.8360768 66.5090164,69.9773115 L63.5131148,69.9773115 Z" id="Path" fill="#064658"></path>
                                <path d="M71.2885246,69.9773115 C70.6685967,70.1328628 70.2338347,70.6906882 70.2338347,71.330541 C70.2338347,71.9703937 70.6685967,72.5282191 71.2885246,72.6837705 L74.2704918,72.6837705 C74.8904197,72.5282191 75.3251817,71.9703937 75.3251817,71.330541 C75.3251817,70.6906882 74.8904197,70.1328628 74.2704918,69.9773115 L71.2885246,69.9773115 Z" id="Path" fill="#064658"></path>
                                <path d="M55.7377049,69.9773115 C55.1177771,70.1328628 54.683015,70.6906882 54.683015,71.330541 C54.683015,71.9703937 55.1177771,72.5282191 55.7377049,72.6837705 L58.7336066,72.6837705 C59.2964773,72.8250052 59.8878515,72.6022237 60.2181089,72.1245315 C60.5483663,71.6468393 60.5483663,71.0142427 60.2181089,70.5365505 C59.8878515,70.0588582 59.2964773,69.8360768 58.7336066,69.9773115 L55.7377049,69.9773115 Z" id="Path" fill="#064658"></path>
                                <path d="M55.9606557,53.613 L58.0090164,51.6180328 L56.1139344,49.7904754 L54.4696721,51.3529672 C53.4233618,49.838642 52.636871,48.1600784 52.142623,46.3864754 C51.6445695,48.1611565 50.8533079,49.8398501 49.8016393,51.3529672 L48.1713115,49.7904754 L46.2622951,51.6180328 L48.3106557,53.5711475 C48.2156454,53.7470175 48.1318707,53.9287429 48.0598361,54.1152295 L45.1754098,54.1152295 L45.1754098,56.6961311 L47.9622951,56.6961311 C48.0276942,56.9010063 48.1165356,57.0976234 48.2270492,57.2820656 L46.2622951,59.2491311 L48.1713115,61.0627377 L50.1639344,59.1375246 C50.3621658,59.2355329 50.567044,59.3194453 50.7770492,59.3886393 L50.7770492,62.1788033 L53.4663934,62.1788033 L53.4663934,59.3886393 C53.6773064,59.321934 53.8823716,59.237945 54.0795082,59.1375246 L56.1,61.0627377 L57.995082,59.2491311 L55.9885246,57.323918 C56.0888258,57.1362011 56.1727443,56.940161 56.2393443,56.7379836 L59.0262295,56.7379836 L59.0262295,54.157082 L56.2254098,54.157082 C56.1485134,53.9704 56.0600913,53.7886884 55.9606557,53.613 Z M52.142623,57.7982459 C51.1452918,57.7529638 50.3693105,56.913918 50.4008197,55.9148852 C50.4008197,55.4266066 50.6377049,55.008082 51.3065574,53.9338689 C51.557377,53.5292951 51.85,53.0828689 52.142623,52.5387869 C52.4352459,53.0549672 52.7139344,53.5013934 52.9647541,53.9338689 C53.647541,55.008082 53.8844262,55.4266066 53.8844262,55.9148852 C53.8929495,56.8978035 53.1233945,57.7114096 52.142623,57.7563934 L52.142623,57.7982459 Z" id="Shape" fill="#24A5C2"></path>
                            </g>
                        </g>
                    </g>
                </g>
            </g>
        </g>
    </g>
</svg>