<?xml version="1.0" encoding="UTF-8"?>
<svg width="84px" height="84px" viewBox="0 0 84 84" version="1.1" xmlns="http://www.w3.org/2000/svg" xmlns:xlink="http://www.w3.org/1999/xlink">
    <!-- Generator: sketchtool 52.5 (67469) - http://www.bohemiancoding.com/sketch -->
    <title>74678AF6-FF1C-4FD0-9980-564D239983DF</title>
    <desc>Created with sketchtool.</desc>
    <g id="Website" stroke="none" stroke-width="1" fill="none" fill-rule="evenodd">
        <g id="Careers" transform="translate(-921.000000, -2543.000000)">
            <g id="Benefits" transform="translate(0.000000, 2066.000000)">
                <g id="Bottom" transform="translate(135.000000, 476.000000)">
                    <g id="8" transform="translate(727.000000, 0.000000)">
                        <g id="Careers-/-icon-benefits-social" transform="translate(58.000000, 0.000000)">
                            <rect id="Background" x="0" y="0" width="85" height="85.1"></rect>
                            <g id="benefits-social" transform="translate(0.000000, 1.519643)">
                                <path d="M17.2881356,51.9254237 C18.0161537,51.922138 18.7396247,51.8103299 19.4347458,51.593678 C20.4597323,51.2614964 21.2325333,50.4109638 21.4661017,49.358 C21.4661017,49.1272203 21.5669492,48.9252881 21.6245763,48.7089322 C21.9403447,47.5403844 22.128732,46.341025 22.1864407,45.1318475 C22.3222572,42.5981463 22.1285439,40.0575177 21.6101695,37.5738136 C22.3079577,37.0115768 22.8529857,36.2823643 23.1949153,35.4535254 C23.7731127,34.0292619 23.7731127,32.4352805 23.1949153,31.0110169 C22.9872405,30.492761 22.4156722,30.2223615 21.8838983,30.3907966 C20.7731825,30.7470904 19.6019349,30.8746563 18.440678,30.7658136 C17.5440858,30.6542069 16.6751882,30.3805243 15.8762712,29.9580847 C14.8443358,29.4038675 13.7032296,29.0837849 12.5338983,29.0205424 C10.5288749,28.874437 8.53997197,29.4697571 6.9440678,30.6936949 C5.88529619,31.569265 5.07539141,32.7084454 4.59576271,33.9967288 C3.8135544,36.1080595 3.85988796,38.4377713 4.72542373,40.5162542 C4.80649638,40.7215979 4.95347371,40.8941189 5.14322034,41.006661 C5.2190329,42.0284605 5.62918222,42.9967405 6.31016949,43.7615932 L6.31016949,48.2473729 C6.31016948,48.6287024 6.51336731,48.9810655 6.84322033,49.1717303 C7.17307335,49.362395 7.57946903,49.362395 7.90932204,49.1717303 C8.23917506,48.9810655 8.44237289,48.6287024 8.44237288,48.2473729 L8.44237288,45.1318475 C8.90838291,45.2787778 9.39449132,45.3517799 9.88305085,45.3482034 C10.4718426,45.3482034 10.9491525,44.8703319 10.9491525,44.2808475 C10.9337516,43.7241458 10.4824812,43.2787079 9.92627119,43.2711864 C9.30945365,43.285103 8.70749001,43.0808075 8.22627119,42.6942373 C7.50387992,42.1680007 7.1825511,41.2488383 7.41949153,40.3864407 C7.53507212,40.1489072 7.73562794,39.963561 7.98135593,39.8671864 C8.4279661,39.7806441 9.32118644,40.3287458 9.73898305,41.5547627 C9.89307275,42.0069548 10.3285476,42.3015407 10.8050847,42.2759492 C11.2839085,42.2532055 11.6867852,41.9091712 11.7847458,41.4393729 L12.1449153,39.8816102 C12.1998508,39.6384277 12.3492739,39.4271684 12.5601479,39.2945404 C12.771022,39.1619124 13.025977,39.1188404 13.2686441,39.1748475 C14.0033579,39.3284665 14.7511895,39.4105833 15.5016949,39.4200508 C16.5365029,39.3994102 17.5638186,39.2393097 18.5559322,38.9440678 L18.7288136,38.9440678 C19.0531435,38.8806732 19.3713072,38.7889728 19.679661,38.6700169 C20.0490233,40.7736156 20.1747132,42.9128585 20.0542373,45.0453051 C19.989298,46.1274011 19.8155377,47.2001836 19.5355932,48.2473729 C19.5355932,48.4493051 19.4347458,48.665661 19.3771186,48.9108644 C19.3056738,49.2261776 19.0769926,49.4823839 18.7720339,49.5887797 C18.1677007,49.7819971 17.5315565,49.8554847 16.8991525,49.8051356 C15.4676639,49.6657277 14.1531866,48.9530983 13.2542373,47.8290847 C12.8859002,47.4137654 12.263261,47.3451946 11.8135593,47.6704237 C11.3876066,48.0317336 11.3122015,48.6608487 11.640678,49.1127966 C12.5699362,50.2553825 13.8038499,51.1106355 15.1991525,51.5792542 C15.8786797,51.7799154 16.5802697,51.8961772 17.2881356,51.9254237 Z M6.62711864,34.7756102 C6.96491349,33.829052 7.55235897,32.991705 8.32711864,32.3524237 C9.52642977,31.465911 11.0042805,31.0409771 12.490678,31.1552542 C13.370342,31.2006838 14.2278977,31.4473977 14.9974576,31.8764407 C16.0133506,32.4185538 17.1233817,32.7612569 18.2677966,32.8861017 C19.3467652,32.9884126 20.4350121,32.9251811 21.4949153,32.6985932 C21.5854178,33.3472396 21.5059853,34.0082994 21.2644068,34.6169492 C21.0474623,35.1225813 20.7113071,35.5680161 20.2847458,35.9150847 L20.2127119,35.9150847 C18.8141461,36.7506452 17.2167808,37.1940495 15.5881356,37.1987966 L15.5161017,37.1987966 C14.9107445,37.1893911 14.3076907,37.1217696 13.7152542,36.9968644 C12.3639386,36.7145587 10.9891213,37.3616006 10.3440678,38.5834746 C9.61023081,37.8626038 8.57943626,37.5310782 7.56355932,37.6892034 C7.11160553,37.7866291 6.69084884,37.994777 6.33898305,38.295 C6.10602479,37.1178836 6.205813,35.8990353 6.62711864,34.7756102 Z" id="Shape" stroke="#064658" stroke-width="0.5" fill="#064658" fill-rule="nonzero"></path>
                                <path d="M70.8669492,51.6369492 C72.2580522,51.1599743 73.4898316,50.3062007 74.4254237,49.1704915 C74.7539002,48.7185437 74.6784951,48.0894285 74.2525424,47.7281186 C73.8028406,47.4028895 73.1802015,47.4714604 72.8118644,47.8867797 C71.9049508,49.0019305 70.5839039,49.6996807 69.1525424,49.8195593 C68.5201384,49.8699085 67.8839942,49.7964208 67.279661,49.6032034 C66.9747023,49.4968076 66.7460211,49.2406014 66.6745763,48.9252881 C66.6745763,48.6800847 66.5737288,48.4637288 66.5161017,48.2617966 C66.2361572,47.2146073 66.0623969,46.1418249 65.9974576,45.0597288 C65.8818279,42.897986 66.0123288,40.7300907 66.3864407,38.5978983 C67.7097526,39.1302352 69.1238864,39.3996777 70.55,39.3912034 C71.3005054,39.3817358 72.048337,39.2996191 72.7830508,39.146 C73.025718,39.089993 73.2806729,39.1330649 73.491547,39.265693 C73.7024211,39.398321 73.8518441,39.6095802 73.9067797,39.8527627 L74.2669492,41.4105254 C74.3649097,41.8803237 74.7677864,42.2243581 75.2466102,42.2471017 C75.7231473,42.2726933 76.1586222,41.9781073 76.3127119,41.5259153 C76.7305085,40.2998983 77.609322,39.7517966 78.070339,39.838339 C78.316067,39.9347135 78.5166228,40.1200598 78.6322034,40.3575932 C78.8499191,41.2170841 78.5180482,42.1222098 77.7966102,42.6365424 C77.3153913,43.0231126 76.7134277,43.2274081 76.0966102,43.2134915 C75.8139477,43.2094506 75.5418827,43.3210853 75.3433542,43.5225701 C75.1448257,43.7240549 75.0370339,43.9979336 75.0449153,44.2808475 C75.0449153,44.8703319 75.5222252,45.3482034 76.1110169,45.3482034 C76.5995765,45.3517799 77.0856849,45.2787778 77.5516949,45.1318475 L77.5516949,48.2473729 C77.5516949,48.8368573 78.0290049,49.3147288 78.6177966,49.3147288 C79.2065883,49.3147288 79.6838983,48.8368573 79.6838983,48.2473729 L79.6838983,43.7615932 C80.3648856,42.9967405 80.7750349,42.0284605 80.8508475,41.006661 C81.0405941,40.8941189 81.1875714,40.7215979 81.2686441,40.5162542 C82.1341798,38.4377713 82.1805134,36.1080595 81.3983051,33.9967288 C80.8921346,32.7384163 80.0975999,31.6168538 79.0788136,30.7225424 C75.5923729,27.6791356 69.9449153,28.0108814 66.1847458,29.9292373 C64.9624276,30.5547358 63.8484976,31.3729035 62.8855932,32.3524237 C62.6615847,32.5817285 62.5507633,32.8987335 62.5830508,33.2178475 C62.6550474,33.9315931 62.8297357,34.6311683 63.1016949,35.2948644 C63.3938509,36.0049307 63.7921925,36.666372 64.2830508,37.2564915 C64.3147951,37.3438102 64.3584272,37.4263235 64.4127119,37.5016949 C63.8926004,40.0240804 63.7085135,42.6043297 63.8652542,45.1751186 C63.9300938,46.3835557 64.1183639,47.5821691 64.4271186,48.7522034 C64.4271186,48.9685593 64.5279661,49.1704915 64.5855932,49.4012712 C64.8191616,50.454235 65.5919626,51.3047675 66.6169492,51.6369492 C67.3120702,51.8536011 68.0355412,51.9654092 68.7635593,51.9686949 C69.4745194,51.9337188 70.179682,51.8225008 70.8669492,51.6369492 Z M67.1211864,31.8331695 C70.2474576,30.2465593 74.8720339,29.9003898 77.6525424,32.3235763 C78.4150959,32.9919032 79.0077145,33.832434 79.3813559,34.7756102 C79.8135959,35.9166429 79.913512,37.1570609 79.6694915,38.3526949 C79.3156975,38.0554155 78.8957051,37.8476457 78.4449153,37.7468983 C77.4290383,37.5887731 76.3982438,37.9202987 75.6644068,38.6411695 C75.0193532,37.4192955 73.644536,36.7722536 72.2932203,37.0545593 C71.7007839,37.1794645 71.0977301,37.247086 70.4923729,37.2564915 C68.9818298,37.2521282 67.4962593,36.8703832 66.170339,36.1458644 C65.726553,35.6717192 65.3747992,35.1190117 65.1330508,34.5159831 C65.0040199,34.1934891 64.9028029,33.8605276 64.8305085,33.5207458 C65.5154729,32.8584535 66.285867,32.2908928 67.1211864,31.8331695 Z" id="Shape" stroke="#064658" stroke-width="0.5" fill="#064658" fill-rule="nonzero"></path>
                                <path d="M84.0779661,67.1857288 C83.3832135,62.107015 82.0119768,57.1443807 80.0008475,52.4302542 C79.8703745,52.1504226 79.6307456,51.9365891 79.3381356,51.8388814 C79.0438858,51.7490906 78.7256069,51.7856573 78.459322,51.9398475 C77.2231279,52.698465 75.8970167,53.299309 74.5118644,53.7283898 C73.0281331,54.1762699 71.4934724,54.4331554 69.9449153,54.4928475 C69.5571686,54.5079982 69.2063955,54.7274893 69.0228814,55.0697966 C67.3483228,58.3373568 65.9740199,61.7506033 64.9169492,65.2673729 C64.1844556,67.7287969 63.6070485,70.2338379 63.1881356,72.7677119 L56.8635593,72.7677119 C56.4940806,72.7671562 56.1506573,72.9581714 55.9559322,73.2725424 L54.1694915,72.9840678 L56.0279661,70.6762712 C56.3564426,70.2243233 56.2810375,69.5952082 55.8550847,69.2338983 C55.403668,68.9050354 54.7752921,68.9805292 54.4144068,69.4069831 L51.8211864,72.6811695 L51.6483051,72.6811695 C50.5245134,72.5005618 49.39189,72.9486127 48.6949153,73.8494915 L47.2542373,75.739 C46.7492056,76.3944403 46.5356101,77.2289642 46.6635593,78.0467966 C46.7055237,78.3421826 46.7930046,78.6292629 46.9228814,78.8977966 L45.7415254,80.3401695 L42.8889831,80.3401695 C42.9809737,80.0956574 43.0297248,79.8369728 43.0330508,79.5757119 C43.0213089,78.3600793 42.1730392,77.3134466 40.9872881,77.0515593 L36.7805085,76.1717119 L37.3279661,75.1908983 C37.7182641,74.4758394 37.5424696,73.5836947 36.9101695,73.0706102 C36.1970371,72.5008293 35.2564998,72.3028701 34.3745763,72.5369322 L32.1847458,72.9119492 L31.5220339,73.0706102 L30.0813559,73.4600508 C29.9015801,73.0987924 29.5336447,72.8699576 29.1305085,72.868678 L22.7915254,72.868678 C22.3843742,70.333744 21.8116773,67.8282588 21.0771186,65.368339 C20.0200479,61.8515694 18.645745,58.4383229 16.9711864,55.1707627 C16.7947409,54.8286146 16.4479011,54.6081398 16.0635593,54.5938136 C14.5200495,54.5012797 12.994831,54.2104201 11.5254237,53.7283898 C10.1292368,53.2980122 8.79316598,52.6921957 7.54915254,51.9254237 C7.28286768,51.7712336 6.96458876,51.7346668 6.67033898,51.8244576 C6.37772894,51.9221654 6.13810011,52.1359989 6.00762712,52.4158305 C3.99526192,57.1345357 2.62400282,62.1021021 1.93050847,67.1857288 C1.29915725,71.9128462 1.26527455,76.7007737 1.82966102,81.4363729 C1.89486226,81.9692008 2.34518495,82.3706448 2.88135593,82.3739153 L83.1271186,82.3739153 C83.6663761,82.3715365 84.1213239,81.9714501 84.1932203,81.4363729 C84.7457144,76.69978 84.7069985,71.9127435 84.0779661,67.1857288 Z M23.4254237,80.2392034 L16.7262712,80.2392034 C12.4011449,80.2312653 8.89691181,76.7229096 8.88898305,72.3926949 L8.88898305,64.1567458 C8.88898305,63.5672614 8.41167306,63.0893898 7.82288136,63.0893898 C7.23408965,63.0893898 6.75677966,63.5672614 6.75677966,64.1567458 L6.75677966,72.3926949 C6.7605266,75.4591485 8.17396004,78.35318 10.5889831,80.2392034 L3.84661017,80.2392034 C2.94474126,71.4476389 4.20601905,62.5686913 7.52033898,54.3774576 C8.59016875,54.9655408 9.71433553,55.4485834 10.8771186,55.8198305 C12.3340459,56.2655836 13.8375005,56.5414606 15.3576271,56.6419831 C16.8556798,59.629452 18.0897645,62.7424251 19.0457627,65.9452881 C19.7208667,68.2042092 20.2596922,70.501728 20.659322,72.8254068 L19.4635593,72.8254068 C17.7491525,72.8254068 16.3516949,70.7628136 16.3516949,69.0463898 L16.3516949,68.2530847 C16.3516949,67.6636003 15.8743849,67.1857288 15.2855932,67.1857288 C14.6968015,67.1857288 14.2194915,67.6636003 14.2194915,68.2530847 L14.2194915,69.0463898 C14.2194915,71.8445932 16.4669492,74.9601186 19.4635593,74.9601186 L23.4254237,74.9601186 L23.4254237,80.2392034 Z M27.9923729,80.2392034 L25.5576271,80.2392034 L25.5576271,74.9024237 L27.9923729,74.9024237 L27.9923729,80.2392034 Z M40.540678,79.8497627 L33.2364407,80.2392034 L30.2542373,80.0661186 L30.2542373,75.5370678 L32.0694915,75.0033898 L32.5449153,74.888 L34.7923729,74.4985593 L34.9220339,74.4985593 C35.0216963,74.4766695 35.1249139,74.4766695 35.2245763,74.4985593 L34.6771186,75.4793729 C34.4180378,75.9866226 34.4180378,76.5875808 34.6771186,77.0948305 C34.9167326,77.6043535 35.3803884,77.9725131 35.9305085,78.0900678 L40.6127119,79.0853051 C40.8149732,79.1207259 40.9615455,79.2980424 40.9584746,79.5035932 C40.9357514,79.7131793 40.750574,79.8666099 40.540678,79.8497627 Z M55.7974576,80.2392034 L52.2101695,80.2392034 C51.9787179,80.2385921 51.7528118,80.1682276 51.5618644,80.0372712 L49.0838983,78.2343051 C48.8810426,78.0861968 48.7460868,77.8627382 48.709322,77.6140847 C48.6701445,77.3626342 48.7380826,77.1062585 48.8966102,76.907322 L50.3372881,75.0033898 C50.3991436,74.9300156 50.4720542,74.8667521 50.5533898,74.8158814 C50.6723154,75.2838609 51.0939529,75.6108657 51.5762712,75.6091864 C51.9012977,75.6072442 52.2081833,75.4589183 52.4118644,75.205322 L52.6567797,74.888 L55.7974576,75.4072542 L55.7974576,80.2392034 Z M60.4508475,80.2392034 L57.929661,80.2392034 L57.929661,74.9024237 L60.5084746,74.9024237 L60.4508475,80.2392034 Z M82.1762712,80.2392034 L75.4194915,80.2392034 C77.8342947,78.3544679 79.2435128,75.4581789 79.2372881,72.3926949 L79.2372881,64.1567458 C79.2372881,63.5672614 78.7599781,63.0893898 78.1711864,63.0893898 C77.5823947,63.0893898 77.1050847,63.5672614 77.1050847,64.1567458 L77.1050847,72.3926949 C77.097156,76.7229096 73.5929229,80.2312653 69.2677966,80.2392034 L62.5830508,80.2392034 L62.5830508,74.9024237 L66.5449153,74.9024237 C69.5415254,74.9024237 71.7889831,71.7868983 71.7889831,68.9886949 L71.7889831,68.1953898 C71.7889831,67.6059054 71.3116731,67.1280339 70.7228814,67.1280339 C70.1340896,67.1280339 69.6567797,67.6059054 69.6567797,68.1953898 L69.6567797,68.9886949 C69.6567797,70.7051186 68.2161017,72.7677119 66.5449153,72.7677119 L65.3491525,72.7677119 C66.3011636,67.1464659 68.0678179,61.6944929 70.5932203,56.5842881 C72.1182168,56.4849975 73.626583,56.2091064 75.0881356,55.7621356 C76.2518862,55.3934895 77.3763021,54.9103398 78.4449153,54.3197627 C80.1431442,58.5233369 81.3095424,62.9230693 81.9169492,67.4165085 C82.4851169,71.6681129 82.5528118,75.9717955 82.1186441,80.2392034 L82.1762712,80.2392034 Z" id="Shape" stroke="#064658" stroke-width="0.5" fill="#064658" fill-rule="nonzero"></path>
                                <path d="M27.8338983,22.7606441 C27.9276771,23.4884307 27.9276771,24.2252642 27.8338983,24.9530508 C27.6566657,26.198452 27.219811,27.3926159 26.5516949,28.4580169 C26.3356968,28.8070612 26.3356968,29.2484473 26.5516949,29.5974915 C26.7507229,29.8981227 27.0847235,30.0814998 27.4449153,30.0878983 L27.6033898,30.0878983 C29.1388053,29.8584751 30.6244293,29.3708122 31.9974576,28.6455254 C33.265467,27.9901525 34.41864,27.1327803 35.4118644,26.1069492 C36.9410661,26.4362288 38.5010876,26.6006347 40.0652542,26.5973559 C42.2623792,26.6015861 44.4477097,26.2758319 46.5483051,25.6309661 C47.6146388,25.8111264 48.6940153,25.9027884 49.7754237,25.9050169 C51.1354937,25.9025977 52.4918318,25.7624551 53.8237288,25.4867288 C54.6984719,26.3778403 55.7101618,27.1228916 56.820339,27.6935593 C58.043102,28.3260494 59.362581,28.7501443 60.7245763,28.9484237 L60.8686441,28.9484237 C61.2295011,28.9445501 61.5646053,28.7605672 61.7618644,28.4580169 C61.9848786,28.1110048 61.9848786,27.6655545 61.7618644,27.3185424 C61.1909657,26.3945397 60.8135561,25.36403 60.6525424,24.2895593 C60.5803748,23.6762676 60.5803748,23.0566138 60.6525424,22.443322 C63.3863254,20.548169 65.0554628,17.4630594 65.1474576,14.1352542 C65.1474576,7.659 58.2610169,2.39433898 49.8042373,2.39433898 L49.6745763,2.39433898 C46.6997632,0.910540578 43.4175369,0.149551821 40.0940678,0.173084746 C30.5567797,0.173084746 22.8059322,6.10123729 22.8059322,13.3707966 C22.8877002,17.1251125 24.7560961,20.6143867 27.8338983,22.7606441 Z M62.9576271,14.1064068 C62.8324623,16.9041782 61.3471794,19.4633789 58.9813559,20.957678 C58.743483,21.1275306 58.5869062,21.388799 58.5491525,21.6788644 C58.3134389,23.2218 58.4467511,24.7987119 58.9381356,26.2800339 C58.5347458,26.116565 58.1457627,25.9434802 57.7711864,25.7607797 C56.6830717,25.2154742 55.70595,24.471988 54.8898305,23.5683729 C54.6901095,23.3392566 54.4012,23.2077797 54.0974576,23.2077797 C54.0116035,23.1935221 53.9239897,23.1935221 53.8381356,23.2077797 C52.8073061,23.4562366 51.7561205,23.6107206 50.6974576,23.669339 C54.7025424,21.2461525 57.2669492,17.5104068 57.2669492,13.3131017 C57.1826143,10.0778737 55.7451233,7.0268075 53.3050847,4.9040678 C58.8372881,6.02911864 62.9576271,9.75044068 62.9576271,14.1641017 L62.9576271,14.1064068 Z M40.0364407,2.33664407 C48.3923729,2.33664407 55.1923729,7.29840678 55.1923729,13.3996441 C55.1923729,19.5008814 48.3923729,24.520339 40.0364407,24.520339 C38.4350089,24.5224578 36.8390238,24.3336195 35.2822034,23.9578136 C34.8970999,23.8572427 34.4884765,23.9861385 34.2305085,24.2895593 C32.901502,25.7363818 31.2179155,26.8103715 29.3466102,27.4050847 C29.6062022,26.6947913 29.7944211,25.9603575 29.9084746,25.212678 C30.0596529,24.1361925 30.0596529,23.0438244 29.9084746,21.967339 C29.8644074,21.6795139 29.7091985,21.4205282 29.4762712,21.2461525 C26.743395,19.5263777 25.0303096,16.5707951 24.8949153,13.3419492 C24.8805085,7.29840678 31.6949153,2.33664407 40.0364407,2.33664407 Z" id="Shape" stroke="#064658" stroke-width="0.5" fill="#064658" fill-rule="nonzero"></path>
                                <path d="M33.9711864,15.4910847 C34.8623306,15.4910847 35.5847458,14.7678197 35.5847458,13.8756271 C35.5847458,12.9834345 34.8623306,12.2601695 33.9711864,12.2601695 C33.0800422,12.2601695 32.3576271,12.9834345 32.3576271,13.8756271 C32.3576271,14.3040731 32.5276266,14.7149711 32.8302277,15.0179282 C33.1328288,15.3208852 33.5432439,15.4910847 33.9711864,15.4910847 Z" id="Path" stroke="#064658" stroke-width="0.5" fill="#064658"></path>
                                <path d="M40.1949153,15.4910847 C41.0860595,15.4910847 41.8084746,14.7678197 41.8084746,13.8756271 C41.8084746,12.9834345 41.0860595,12.2601695 40.1949153,12.2601695 C39.303771,12.2601695 38.5813559,12.9834345 38.5813559,13.8756271 C38.5813559,14.7678197 39.303771,15.4910847 40.1949153,15.4910847 Z" id="Path" stroke="#064658" stroke-width="0.5" fill="#064658"></path>
                                <path d="M46.2601695,15.4910847 C46.9140727,15.4969303 47.5068421,15.1070645 47.7611361,14.5038957 C48.01543,13.900727 47.8809595,13.2035374 47.4206399,12.7385243 C46.9603202,12.2735112 46.265184,12.1326352 45.6604676,12.3818087 C45.0557512,12.6309821 44.661043,13.2209285 44.6610169,13.8756271 C44.6609817,14.7622171 45.3746566,15.4831688 46.2601695,15.4910847 Z" id="Path" stroke="#064658" stroke-width="0.5" fill="#064658"></path>
                                <path d="M52.2101695,48.507 L56.9211864,44.0067966 L52.5991525,39.8094915 L48.8389831,43.4154237 C46.4263064,39.9224085 44.6103174,36.0521898 43.4652542,31.9629831 C42.2961782,36.0535224 40.4610883,39.9229537 38.0338983,43.4154237 L34.2737288,39.8094915 L29.9516949,44.0067966 L34.5762712,48.507 C34.347315,48.9143853 34.1498454,49.3387212 33.9855932,49.7762881 L27.3728814,49.7762881 L27.3728814,55.6900169 L33.9135593,55.6900169 C34.0692086,56.1542405 34.2669241,56.6032449 34.5042373,57.0314237 L29.879661,61.4595085 L34.2016949,65.6568136 L38.8983051,61.2287288 C39.3659527,61.4470506 39.8471774,61.634949 40.3389831,61.7912542 L40.3389831,68.0367288 L46.5338983,68.0367288 L46.5338983,61.7912542 C47.0257039,61.634949 47.5069287,61.4470506 47.9745763,61.2287288 L52.5991525,65.6568136 L56.9211864,61.4595085 L52.2966102,57.0314237 C52.52919,56.6028339 52.7220856,56.1538241 52.8728814,55.6900169 L59.4279661,55.6900169 L59.4279661,49.7762881 L52.8008475,49.7762881 C52.6365953,49.3387212 52.4391257,48.9143853 52.2101695,48.507 Z M43.4076271,58.026661 C41.1109905,57.9328722 39.3213724,55.9993576 39.4025424,53.6995424 C39.4025424,52.5744915 39.95,51.6081017 41.4915254,49.1416441 C42.0822034,48.2185254 42.7305085,47.1800169 43.4076271,45.9972712 C44.0847458,47.1800169 44.7330508,48.2185254 45.309322,49.1416441 C46.8652542,51.6081017 47.4127119,52.5744915 47.4127119,53.6995424 C47.4938818,55.9993576 45.7042638,57.9328722 43.4076271,58.026661 Z" id="Shape" fill="#24A5C2"></path>
                            </g>
                        </g>
                    </g>
                </g>
            </g>
        </g>
    </g>
</svg>