<?xml version="1.0" encoding="UTF-8"?>
<svg width="84px" height="76px" viewBox="0 0 84 76" version="1.1" xmlns="http://www.w3.org/2000/svg" xmlns:xlink="http://www.w3.org/1999/xlink">
    <!-- Generator: sketchtool 52.5 (67469) - http://www.bohemiancoding.com/sketch -->
    <title>50D87E40-C8BD-40A1-AD87-DEF5D1CCCA35</title>
    <desc>Created with sketchtool.</desc>
    <g id="Website" stroke="none" stroke-width="1" fill="none" fill-rule="evenodd">
        <g id="Careers" transform="translate(-193.000000, -2301.000000)">
            <g id="Benefits" transform="translate(0.000000, 2066.000000)">
                <g id="Top" transform="translate(135.000000, 230.000000)">
                    <g id="1">
                        <g id="Careers-/-icon-benefits-health" transform="translate(58.000000, 0.000000)">
                            <rect id="Background" x="0" y="0" width="85" height="85.1"></rect>
                            <g id="benefits-health" transform="translate(0.000000, 4.558929)">
                                <ellipse id="Oval" fill="#064658" cx="23.7860656" cy="48.1442787" rx="1.6442623" ry="1.64619672"></ellipse>
                                <ellipse id="Oval" fill="#064658" cx="23.7860656" cy="66.2663934" rx="1.6442623" ry="1.64619672"></ellipse>
                                <ellipse id="Oval" fill="#064658" cx="23.7860656" cy="57.2123115" rx="1.6442623" ry="1.64619672"></ellipse>
                                <path d="M27.8688525,34.5701311 C33.7099427,34.5701311 38.445082,29.8294212 38.445082,23.981459 L38.445082,22.3213115 C42.584335,21.3793642 45.5149166,17.6857252 45.4948467,13.4359471 C45.4747768,9.18616895 42.50944,5.52043947 38.3614754,4.61772131 C37.9825107,2.73180279 36.3255376,1.37662673 34.4040984,1.38113115 L21.2778689,1.38113115 C19.0460952,1.38113115 17.2368852,3.19246962 17.2368852,5.42686885 L17.2368852,16.0015902 C17.2368852,16.8414161 17.9168987,17.5222295 18.7557377,17.5222295 L28.245082,17.5222295 C29.613587,20.2783985 32.2832836,22.1530605 35.3377049,22.5026721 L35.3377049,24.0512131 C35.3377049,28.2118186 31.9688312,31.5846557 27.8131148,31.5846557 C23.6573984,31.5846557 20.2885246,28.2118186 20.2885246,24.0512131 L20.2885246,20.3263443 C20.2132879,19.5390223 19.5526925,18.9379052 18.7627049,18.9379052 C17.9727173,18.9379052 17.312122,19.5390223 17.2368852,20.3263443 L17.2368852,23.981459 C17.2368462,26.7994448 18.3587722,29.5012064 20.3542714,31.4885796 C22.3497705,33.4759527 25.0542171,34.5849822 27.8688525,34.5701311 Z M27.4090164,14.3972459 L20.2885246,14.3972459 L20.2885246,5.35711475 C20.2885246,4.81007218 20.7314691,4.36660656 21.2778689,4.36660656 L34.3483607,4.36660656 C34.5165826,4.35704865 34.6844556,4.39066274 34.8360656,4.4642623 C30.5070294,5.23964898 27.3514286,9.00381209 27.3393443,13.4067377 C27.3227899,13.736865 27.3274443,14.0677163 27.3532787,14.3972459 L27.4090164,14.3972459 Z M35.9786885,7.42183607 L36.4245902,7.42183607 C36.8942027,7.41966367 37.3622665,7.47589741 37.8180328,7.5892459 C40.5225932,8.24112709 42.4287422,10.6634839 42.4287422,13.4485902 C42.4287422,16.2336965 40.5225932,18.6560532 37.8180328,19.3079344 C37.2135293,19.4644934 36.5867345,19.5163946 35.9647541,19.4613934 C34.0819392,19.2980076 32.3822936,18.2667075 31.3663934,16.6712295 C30.7356002,15.7057507 30.4057789,14.574298 30.4188525,13.4206885 C30.4212296,10.2917216 32.8097182,7.68248198 35.9229508,7.40788525 L35.9786885,7.42183607 Z" id="Shape" fill="#064658" fill-rule="nonzero"></path>
                                <path d="M4.68196721,71.1491803 C5.08479193,71.1491803 5.471118,70.9889706 5.75595809,70.7037954 C6.04079818,70.4186202 6.20081967,70.0318396 6.20081967,69.628541 L6.20081967,57.323918 C6.24189345,48.5700749 11.9325032,40.8476888 20.2745902,38.2252459 C22.1354046,39.2467618 24.1826781,39.8825428 26.2942623,40.0946557 L26.2942623,69.2937213 C26.2942623,70.1335472 26.9742757,70.8143607 27.8131148,70.8143607 C28.6519538,70.8143607 29.3319672,70.1335472 29.3319672,69.2937213 L29.3319672,40.0946557 C31.4430961,39.8803018 33.4899335,39.2446562 35.3516393,38.2252459 L35.8672131,38.3926557 C36.6656323,38.6365237 37.5153929,38.2142038 37.8040984,37.4300492 C37.9302807,37.0481955 37.9002184,36.6318449 37.7204918,36.2721311 C37.5538691,35.9002596 37.2331482,35.6199357 36.842623,35.5048361 C36.4385246,35.351377 36.0065574,35.2258197 35.5467213,35.1002623 L35.3934426,35.1002623 C35.2294602,35.0537229 35.0557858,35.0537229 34.8918033,35.1002623 L34.6131148,35.1839672 L34.3762295,35.281623 C30.3248706,37.702399 25.27349,37.702399 21.2221311,35.281623 L21.0827869,35.2118689 L20.497541,35.0723607 L20.3721311,35.0723607 L20.0516393,35.0723607 C10.071384,37.8531895 3.1654188,46.9521774 3.16311475,57.323918 L3.16311475,69.5866885 C3.15182555,69.9971889 3.30684932,70.3948093 3.59292217,70.6891016 C3.87899503,70.9833938 4.27179389,71.1493359 4.68196721,71.1491803 Z" id="Path" fill="#064658"></path>
                                <path d="M82.1155738,73.186 L1.65819672,73.186 C0.819357671,73.186 0.139344262,73.8668134 0.139344262,74.7066393 C0.139344262,75.5464653 0.819357671,76.2272787 1.65819672,76.2272787 L82.1155738,76.2272787 C82.9544128,76.2272787 83.6344262,75.5464653 83.6344262,74.7066393 C83.6344262,73.8668134 82.9544128,73.186 82.1155738,73.186 Z" id="Path" fill="#064658"></path>
                                <path d="M36.3688525,16.4480164 C38.0465306,16.4480164 39.4065574,15.0863895 39.4065574,13.4067377 C39.4065574,11.7270859 38.0465306,10.365459 36.3688525,10.365459 C34.6911744,10.365459 33.3311475,11.7270859 33.3311475,13.4067377 C33.3311475,15.0863895 34.6911744,16.4480164 36.3688525,16.4480164 Z" id="Path" fill="#064658"></path>
                                <path d="M13.2098361,54.1849836 L13.2098361,69.2937213 C13.2850728,70.0810433 13.9456681,70.6821604 14.7356557,70.6821604 C15.5256434,70.6821604 16.1862387,70.0810433 16.2614754,69.2937213 L16.2614754,54.1849836 C16.1862387,53.3976617 15.5256434,52.7965445 14.7356557,52.7965445 C13.9456681,52.7965445 13.2850728,53.3976617 13.2098361,54.1849836 Z" id="Path" fill="#064658"></path>
                                <path d="M39.3647541,60.8534754 L39.3647541,69.2937213 C39.4399908,70.0810433 40.1005861,70.6821604 40.8905738,70.6821604 C41.6805614,70.6821604 42.3411567,70.0810433 42.4163934,69.2937213 L42.4163934,60.8534754 C42.3411567,60.0661535 41.6805614,59.4650363 40.8905738,59.4650363 C40.1005861,59.4650363 39.4399908,60.0661535 39.3647541,60.8534754 Z" id="Path" fill="#064658"></path>
                                <path d="M37.4557377,45.5912787 C37.4541511,46.976886 37.6608368,48.3548441 38.0688525,49.6788689 C38.152459,49.9997377 38.2639344,50.3345574 38.3754098,50.669377 C38.6540175,51.4777409 38.9989083,52.2616574 39.4065574,53.0131148 C43.7959016,61.1045902 56.1278689,69.0147049 57.5213115,69.8936066 C58.0362565,70.2125374 58.6297327,70.3816114 59.2352459,70.3818852 C59.8451888,70.3819995 60.4432478,70.212994 60.9631148,69.8936066 C62.5237705,68.9030984 76.3745902,60.030377 79.8442623,51.366918 C80.1669923,50.4519424 80.4414153,49.5206005 80.6663934,48.5767541 C80.9014451,47.5941271 81.0230065,46.5877253 81.0286885,45.5773279 C81.0239203,40.5759494 78.3080998,35.9712511 73.9360656,33.5517213 C69.2558727,31.0520064 63.5677731,31.4082683 59.2352459,34.4724754 C54.9139818,31.4321871 49.2526825,31.0816473 44.5901639,33.5656721 C40.1998265,35.9719929 37.4659062,40.580219 37.4557377,45.5912787 Z M40.4934426,45.5912787 C40.5343407,41.4052869 43.0096614,37.6275981 46.8285765,35.9229704 C50.6474916,34.2183427 55.108572,34.899869 58.2459016,37.6672131 C58.8263501,38.1684741 59.685945,38.1684741 60.2663934,37.6672131 C63.7758497,34.5014851 68.9522191,34.0376342 72.9674204,36.5290829 C76.9826216,39.0205316 78.8709876,43.8680795 77.6008197,48.4232951 C77.4435836,49.2745731 77.1717047,50.1005555 76.792623,50.8786393 C73.852459,57.017 64.0983607,64.3132787 59.3467213,67.2987541 C59.2884315,67.3406662 59.2099291,67.3406662 59.1516393,67.2987541 C54.6090164,64.4248852 45.147541,57.3936721 41.9286885,51.2274098 C41.7429422,50.9133446 41.5889032,50.5815374 41.4688525,50.2369016 C41.4688525,50.2369016 41.092623,49.1347869 41.0090164,48.8418197 C40.6898586,47.7869254 40.5163914,46.6932658 40.4934426,45.5912787 Z" id="Shape" fill="#064658" fill-rule="nonzero"></path>
                                <path d="M63.8196721,49.9439344 L66.4114754,47.4327869 L64.0008197,45.1309016 L61.9385246,47.111918 C60.610302,45.1942264 59.6118259,43.067611 58.9844262,40.8200984 C58.345589,43.0633363 57.3479652,45.1881366 56.0303279,47.111918 L53.9540984,45.1309016 L51.557377,47.4327869 L54.1491803,49.9160328 C54.0226618,50.1389631 53.9154397,50.372329 53.8286885,50.6135738 L50.1639344,50.6135738 L50.1639344,53.8641148 L53.7729508,53.8641148 C53.8568584,54.1199163 53.964143,54.3674282 54.0934426,54.6035082 L51.557377,57.0728033 L53.9680328,59.3746885 L56.5180328,56.9472459 C56.7675242,57.0639111 57.0233958,57.1663802 57.2844262,57.2541639 L57.2844262,60.6860656 L60.6983607,60.6860656 L60.6983607,57.1983607 C60.9602809,57.1130181 61.2162999,57.01049 61.4647541,56.8914426 L64.0147541,59.3188852 L66.4254098,57.017 L63.8893443,54.5756066 C64.0128815,54.336743 64.1199619,54.0897024 64.2098361,53.8362131 L67.804918,53.8362131 L67.804918,50.6414754 L64.0983607,50.6414754 C64.0191799,50.4037015 63.9261237,50.1707871 63.8196721,49.9439344 Z M58.9844262,55.1754918 C58.3756879,55.153753 57.8008089,54.8896011 57.3874339,54.441688 C56.974059,53.9937748 56.7564005,53.3991713 56.7827869,52.7899016 C56.7827869,52.1760656 57.0754098,51.6459344 57.9254098,50.2927049 C58.2459016,49.7765246 58.6081967,49.2184918 58.9844262,48.5628033 C59.3467213,49.2184918 59.7090164,49.7765246 60.0295082,50.2927049 C60.8795082,51.6877869 61.1860656,52.1760656 61.1860656,52.7899016 C61.233196,54.056276 60.2490876,55.1226083 58.9844262,55.1754918 Z" id="Shape" fill="#24A5C2"></path>
                            </g>
                        </g>
                    </g>
                </g>
            </g>
        </g>
    </g>
</svg>