<?xml version="1.0" encoding="UTF-8"?>
<svg width="84px" height="83px" viewBox="0 0 84 83" version="1.1" xmlns="http://www.w3.org/2000/svg" xmlns:xlink="http://www.w3.org/1999/xlink">
    <!-- Generator: sketchtool 52.5 (67469) - http://www.bohemiancoding.com/sketch -->
    <title>A935885C-4071-432C-85A8-3B10116FAEF6</title>
    <desc>Created with sketchtool.</desc>
    <g id="Website" stroke="none" stroke-width="1" fill="none" fill-rule="evenodd">
        <g id="Careers" transform="translate(-194.000000, -2544.000000)">
            <g id="Benefits" transform="translate(0.000000, 2066.000000)">
                <g id="Bottom" transform="translate(135.000000, 476.000000)">
                    <g id="6">
                        <g id="Careers-/-icon-benefits-food" transform="translate(58.000000, 0.000000)">
                            <rect id="Background" x="0" y="0" width="85" height="85.1"></rect>
                            <g id="benefits-food" transform="translate(0.000000, 1.519643)">
                                <path d="M43.52,82.84485 L39.1708333,82.84485 L38.9441667,82.84485 C36.6870906,82.4520361 34.544283,81.5658169 32.6683333,80.2493 C30.7992965,81.5688663 28.660377,82.4554789 26.4066667,82.84485 L26.1658333,82.84485 L21.6041667,82.84485 C13.6566667,81.5825333 6.94166667,74.4766833 4.08,68.3920333 C-0.17,59.35725 -0.269166667,43.4861 10.6533333,37.1887 C19.5641667,32.0543333 29.8208333,36.8341167 32.6683333,38.3659167 C35.5016667,36.8341167 45.7725,32.0543333 54.6975,37.1887 C65.6058333,43.4719167 65.5208333,59.3430667 61.2708333,68.3920333 C58.4375,74.4766833 51.68,81.5825333 43.7325,82.8306667 L43.52,82.84485 Z M39.27,80.0081833 L43.3783333,80.0081833 C50.2491667,78.8877 56.1283333,72.6044833 58.65,67.2431833 C62.4608333,59.1303167 62.6875,45.1171833 53.2666667,39.7133333 C44.4691667,34.6498833 33.5183333,41.2025833 33.4333333,41.2735 C32.968716,41.5420625 32.396284,41.5420625 31.9316667,41.2735 C31.8325,41.2025833 20.8816667,34.6498833 12.0983333,39.7133333 C2.66333333,45.1171833 2.83333333,59.1303167 6.6725,67.1722667 C9.20833333,72.5619333 15.0733333,78.84515 21.9441667,79.9372667 L26.0383333,79.9372667 C28.1425919,79.5350171 30.116963,78.6245694 31.79,77.2849833 C32.3048801,76.8776414 33.0317866,76.8776414 33.5466667,77.2849833 C35.2201832,78.6294016 37.1934014,79.5490494 39.2983333,79.9656333 L39.27,80.0081833 Z" id="Shape" fill="#064658" fill-rule="nonzero"></path>
                                <path d="M32.6683333,41.3727833 L32.3425,41.3727833 C31.9698551,41.2887769 31.6468842,41.0576718 31.446841,40.7318855 C31.2467979,40.4060991 31.1866357,40.0132412 31.28,39.6424167 C32.0144086,36.8322511 31.7695402,33.8553506 30.5858333,31.2033333 C29.4104188,28.3438692 27.3883194,25.9135052 24.7916667,24.2393167 C24.3614593,23.9631534 24.1110896,23.478185 24.1348694,22.9670946 C24.1586491,22.4560041 24.4529656,21.9964383 24.9069527,21.7615112 C25.3609398,21.5265841 25.905626,21.5519866 26.3358333,21.82815 C29.4318568,23.8191694 31.840657,26.7161014 33.235,30.1254 C34.6175512,33.30239 34.9114314,36.8480622 34.0708333,40.20975 C33.9471072,40.8867638 33.3557636,41.3771398 32.6683333,41.3727833 Z" id="Path" fill="#064658"></path>
                                <path d="M41.3808333,82.9441333 C40.6214586,82.9462022 39.8632474,82.8845251 39.1141667,82.75975 C36.7934942,82.3812932 34.589249,81.4791571 32.6683333,80.12165 C30.7525454,81.4789319 28.5529417,82.3811513 26.2366667,82.75975 C16.9716667,84.1780833 7.905,76.4056167 4.08,68.29275 C-0.17,59.2579667 -0.269166667,43.3868167 10.6533333,37.0894167 C19.5925,31.95505 29.835,36.7348333 32.6683333,38.2666333 C35.5016667,36.7348333 45.7583333,31.95505 54.6975,37.0894167 C65.62,43.3726333 65.535,59.2437833 61.2708333,68.29275 C57.7575,75.739 49.8241667,82.9441333 41.3808333,82.9441333 Z M32.6683333,76.9162167 C32.9861961,76.9140326 33.2955566,77.0189393 33.5466667,77.2140667 C35.2841366,78.6171611 37.352433,79.5499662 39.5533333,79.9230833 C47.1608333,81.1286667 55.25,74.33485 58.6783333,67.0729833 C62.4608333,59.0310333 62.6875,45.0179 53.2666667,39.5998667 C44.455,34.5222333 33.5325,41.0182 33.4333333,41.1600333 C32.9739497,41.4474867 32.3910503,41.4474867 31.9316667,41.1600333 C31.8325,41.0891167 20.91,34.5222333 12.0983333,39.5998667 C2.64916667,45.0179 2.83333333,59.0310333 6.6725,67.0729833 C10.1008333,74.33485 18.1758333,81.1286667 25.7975,79.9230833 C27.9941668,79.5500991 30.0579123,78.6171461 31.79,77.2140667 C32.04111,77.0189393 32.3504705,76.9140326 32.6683333,76.9162167 Z" id="Shape" fill="#064658" fill-rule="nonzero"></path>
                                <path d="M41.0833333,30.9905833 L40.6441667,30.9905833 C39.6008613,30.9869528 38.6057496,30.5504373 37.8958333,29.785 C37.2491073,28.9477559 36.9773218,27.8798714 37.145,26.8348667 C37.7737877,23.4194245 39.6216664,20.3494462 42.3441667,18.1972167 C47.175,14.3109833 53.2241667,15.19035 54.9808333,15.5591167 C55.3490798,15.6342806 55.6724044,15.8528599 55.8796448,16.1667463 C56.0868852,16.4806327 56.1610563,16.8641004 56.0858333,17.23275 C54.8103051,24.7108789 48.6356718,30.3732402 41.0833333,30.9905833 Z M51.4391667,18.0553833 C48.814702,17.9852769 46.2452452,18.8160777 44.1575,20.4098167 C42.0548238,22.0987491 40.590568,24.4553221 40.0066667,27.0901667 C39.9632912,27.3671184 39.9925827,27.6506027 40.0916667,27.9128 C40.3156093,28.0546812 40.5777858,28.1240168 40.8425,28.1113667 C46.5597853,27.6793358 51.3955678,23.7109164 52.9408333,18.1830333 C52.4387785,18.1082759 51.9324739,18.0656394 51.425,18.0553833 L51.4391667,18.0553833 Z" id="Shape" fill="#064658" fill-rule="nonzero"></path>
                                <path d="M36.8333333,4.66631667 C37.4566667,4.66631667 38.08,4.55285 38.7033333,4.52448333 C39.1326718,4.51876203 39.5398503,4.33268388 39.8254468,4.01168418 C40.1110433,3.69068449 40.2487708,3.26430881 40.205,2.83666667 C40.2091606,2.41792889 40.0419109,2.01574168 39.7421647,1.72368117 C39.4424185,1.43162066 39.036312,1.27515304 38.6183333,1.29068333 L38.5191667,1.29068333 C37.8391667,1.29068333 37.1025,1.37578333 36.4933333,1.4467 C35.91888,1.5075066 35.4204651,1.87052196 35.1858367,2.39900169 C34.9512082,2.92748142 35.0160118,3.54113689 35.3558367,4.00881002 C35.6956615,4.47648315 36.25888,4.72712327 36.8333333,4.66631667 Z" id="Path" fill="#064658"></path>
                                <path d="M48.9458333,5.37548333 L50.7591667,5.81516667 C51.1730425,5.95391629 51.6265709,5.90732333 52.0036763,5.68731275 C52.3807816,5.46730218 52.6448636,5.09522729 52.7283333,4.66631667 C52.8670842,4.25398838 52.8223943,3.80186913 52.6056118,3.42476641 C52.3888293,3.0476637 52.0208079,2.78185344 51.595,2.69483333 C51,2.52463333 50.2916667,2.35443333 49.5833333,2.2126 C49.470411,2.19893463 49.3562557,2.19893463 49.2433333,2.2126 C48.932213,2.21198821 48.6274231,2.30057969 48.365,2.4679 C48.0086005,2.70016966 47.7550045,3.06069968 47.6566667,3.47491667 C47.565594,3.89548336 47.6472776,4.33504934 47.8833333,4.69468333 C48.1245426,5.062707 48.5110102,5.31033727 48.9458333,5.37548333 Z" id="Path" fill="#064658"></path>
                                <path d="M60.2933333,9.74395 L61.9083333,10.7084167 C62.35506,11.04941 62.9608329,11.0939227 63.4525,10.8218833 C63.9833162,10.5349269 64.3384899,10.0041934 64.4016667,9.40355 C64.4392488,8.8230578 64.1421003,8.27213542 63.6366667,7.98521667 C63.0558333,7.63063333 62.475,7.27605 61.8941667,6.94983333 C61.3880404,6.66353554 60.7678019,6.66931829 60.267089,6.96500328 C59.766376,7.26068826 59.4612589,7.80135389 59.4666723,8.38333665 C59.4720856,8.9653194 59.7872071,9.50020226 60.2933333,9.7865 L60.2933333,9.74395 Z" id="Path" fill="#064658"></path>
                                <path d="M6.61583333,25.40235 C7.57916667,25.40235 7.89083333,24.8633833 8.5,23.6578 C8.6275,23.4025 8.76916667,23.1188333 8.93916667,22.8351667 C9.1713689,22.4671046 9.23451645,22.0169317 9.11255842,21.5990732 C8.99060039,21.1812147 8.69528169,20.8359116 8.30166667,20.6509333 C8.03982951,20.4958113 7.74173195,20.4126372 7.4375,20.4098167 C6.86739831,20.4145463 6.35015145,20.7450923 6.10583333,21.2608167 C5.78,21.8565167 5.46833333,22.4522167 5.17083333,23.0621 C4.9225019,23.5589294 4.94633354,24.1486095 5.23394578,24.623728 C5.52155802,25.0988465 6.03266821,25.3928588 6.5875,25.40235 L6.61583333,25.40235 Z" id="Path" fill="#064658"></path>
                                <path d="M77.2508333,28.04045 C77.8033333,29.2744 78.1433333,29.91265 79.1633333,29.91265 C79.7324088,29.9340647 80.2706861,29.6538311 80.58,29.1751167 C80.8782203,28.7179518 80.9210195,28.1394834 80.6933333,27.6433167 C80.4241667,27.01925 80.1408333,26.4093667 79.8291667,25.7994833 C79.5863749,25.235682 79.0255547,24.8763348 78.4125,24.89175 C78.1369103,24.900343 77.866373,24.9680569 77.6191667,25.0903167 C77.2197676,25.2605667 76.911403,25.5926603 76.7708925,26.0038666 C76.630382,26.4150728 76.6709535,26.8666797 76.8825,27.2461833 C77.0241667,27.5156667 77.1375,27.78515 77.2508333,28.04045 Z" id="Path" fill="#064658"></path>
                                <path d="M25.1316667,7.8292 C25.6841667,7.5739 26.265,7.3186 26.8458333,7.09166667 C27.3831869,6.92665059 27.7722796,6.45918994 27.8375,5.90026667 C27.9234376,5.27837783 27.6823488,4.65617355 27.2,4.255 C26.9443056,4.05659151 26.6309757,3.947046 26.3075,3.94296667 C26.0786024,3.94773779 25.8526777,3.99586343 25.6416667,4.0848 C25.0183333,4.3401 24.395,4.60958333 23.7716667,4.89325 C22.9618792,5.28491194 22.6225483,6.25965146 23.01375,7.07039167 C23.4049517,7.88113187 24.3785458,8.22086194 25.1883333,7.8292 L25.1316667,7.8292 Z" id="Path" fill="#064658"></path>
                                <path d="M14.0108333,15.1478 C14.4366073,15.1457188 14.8461005,14.9837534 15.1583333,14.6939333 C15.6116667,14.25425 16.065,13.82875 16.575,13.4174333 C16.913727,13.1476257 17.1224535,12.7467976 17.1494541,12.31428 C17.1764546,11.8817624 17.0192024,11.4580337 16.7166667,11.1481 C16.4084402,10.783996 15.960648,10.5675661 15.4841667,10.5524 C15.0921892,10.5629745 14.7182999,10.7197881 14.4358333,10.9920833 C13.94,11.4317667 13.43,11.8998167 12.9483333,12.4104167 C12.3256826,13.0494702 12.3256826,14.0690631 12.9483333,14.7081167 C13.2335808,14.9849013 13.6136377,15.1421763 14.0108333,15.1478 Z" id="Path" fill="#064658"></path>
                                <path d="M3.2725,32.38055 C3.07444585,32.3777038 2.87755835,32.4113583 2.69166667,32.4798333 C2.1567105,32.6582533 1.77837072,33.1373048 1.72833333,33.6996 C1.615,34.3662167 1.50166667,35.0470167 1.43083333,35.7136333 C1.37457631,36.1739507 1.5132785,36.6368353 1.81333333,36.9901333 C2.1263071,37.3324399 2.56814781,37.5279015 3.03166667,37.5291 C4.36333333,37.5291 4.59,36.5646333 4.8025,34.9619167 C4.8025,34.7208 4.8025,34.4796833 4.91583333,34.2669333 C5.03975014,33.716842 4.8488004,33.1433188 4.42,32.7776833 C4.09333292,32.5192517 3.68884094,32.3792628 3.2725,32.38055 Z" id="Path" fill="#064658"></path>
                                <path d="M78.9791667,61.8393333 C78.6086086,61.6124329 78.1591853,61.5539182 77.742987,61.6783834 C77.3267888,61.8028486 76.9830492,62.0985608 76.7975,62.4917667 C76.5,63.0307333 76.1883333,63.5697 75.8766667,64.1086667 C75.5389772,64.5648108 75.5055359,65.1786226 75.7916667,65.6688333 C76.1030171,66.2098015 76.6701744,66.552639 77.2933333,66.5765667 C77.860393,66.6057618 78.39008,66.293158 78.6391667,65.7823 C78.9933333,65.2007833 79.3191667,64.6192667 79.645,64.0093833 C79.8703788,63.6387695 79.9265296,63.1892966 79.7992657,62.7745249 C79.6720019,62.3597532 79.3734962,62.0193553 78.9791667,61.8393333 Z" id="Path" fill="#064658"></path>
                                <path d="M72.25,15.0485167 C71.9665556,14.7149089 71.5540331,14.5187302 71.1166667,14.50955 C71.0034993,14.5008647 70.889834,14.5008647 70.7766667,14.50955 C70.1695124,14.6679207 69.6872716,15.1292707 69.5016667,15.7293167 C69.3266465,16.2676382 69.4881359,16.8586039 69.9125,17.23275 C70.3375,17.6866167 70.7625,18.1546667 71.1733333,18.6510833 C71.4983342,19.0950722 72.050574,19.3106991 72.59,19.2042333 C73.2007816,19.0742082 73.7029731,18.6409595 73.9216667,18.0553833 C74.0918809,17.5228176 73.9557953,16.939686 73.5675,16.5377667 C73.1425,16.04135 72.6891667,15.6016667 72.25,15.0485167 Z" id="Path" fill="#064658"></path>
                                <path d="M80.6508333,51.06 C80.5516667,51.6840667 80.4383333,52.29395 80.3108333,52.9180167 C80.178583,53.4358747 80.3483617,53.9841922 80.75,54.33635 C81.2188596,54.7485517 81.8675648,54.8881069 82.4641667,54.7051167 C82.995107,54.5268221 83.3828417,54.067554 83.47,53.5137167 C83.6116667,52.8471 83.725,52.1804833 83.8383333,51.4996833 C83.9385106,51.0729948 83.8495296,50.6237807 83.5942921,50.2676589 C83.3390547,49.9115372 82.9424905,49.6832912 82.5066667,49.6416667 L82.1666667,49.6416667 C81.3639495,49.6327987 80.6962241,50.2575754 80.6508333,51.06 Z" id="Path" fill="#064658"></path>
                                <path d="M70.5075,71.61165 L70.4366667,71.61165 C70.0326989,71.6119034 69.6434938,71.7637201 69.3458333,72.03715 C68.8783333,72.46265 68.4108333,72.8597833 67.9291667,73.2569167 C67.4261414,73.6947356 67.2434435,74.3969718 67.4692121,75.0248445 C67.6949806,75.6527171 68.2828313,76.0772294 68.9491667,76.0935833 C69.6858333,76.0935833 70.1816667,75.6397167 71.0883333,74.8029 L71.5275,74.4057667 C72.1843487,73.8024346 72.2287336,72.7803819 71.6266667,72.12225 C71.341368,71.8028171 70.9354688,71.6176328 70.5075,71.61165 Z" id="Path" fill="#064658"></path>
                                <path d="M81.7558333,41.9826667 C82.3313424,42.2264014 82.9922557,42.151087 83.4983333,41.7841 C83.9524332,41.4658097 84.1793929,40.9115981 84.0791667,40.3657667 C84.0083333,39.69915 83.9233333,39.0325333 83.81,38.3517333 C83.741654,37.9287272 83.5069633,37.5507372 83.1583333,37.3021667 C82.8125099,37.0468762 82.3774077,36.9443788 81.9541667,37.0185 C81.5325954,37.0846548 81.1548526,37.3165819 80.9048189,37.66278 C80.6547852,38.0089781 80.5531564,38.4407917 80.6225,38.8623333 C80.7263889,39.4864 80.8113889,40.1104667 80.8775,40.7345333 C80.9025525,41.2863141 81.2452835,41.7733433 81.7558333,41.9826667 Z" id="Path" fill="#064658"></path>
                                <path d="M60.3783333,78.50475 C60.1858,78.4219931 59.9786887,78.3785932 59.7691667,78.3771 C59.5549116,78.3770782 59.3428715,78.4205011 59.1458333,78.50475 C58.5697222,78.7505944 57.9888889,78.9775278 57.4033333,79.18555 C56.6477563,79.4238416 56.1948482,80.1959167 56.355,80.97265 C56.4887271,81.7386271 57.1654166,82.2890841 57.9416667,82.2633333 C58.7526326,82.0936766 59.5416216,81.831957 60.2933333,81.48325 L60.3783333,81.48325 C60.7764983,81.3190823 61.0926919,81.0025167 61.2566667,80.6038833 C61.4260356,80.2100431 61.4260356,79.7637736 61.2566667,79.3699333 C61.085814,78.9792533 60.7712806,78.6694289 60.3783333,78.50475 Z" id="Path" fill="#064658"></path>
                                <path d="M39.4541667,58.5771667 L42.9816667,55.18735 L39.6666667,52.0528333 L36.8333333,54.7476667 C35.0299401,52.1283809 33.6705719,49.229137 32.81,46.16675 C31.9455419,49.2302181 30.581327,52.1295899 28.7725,54.7476667 L25.9391667,52.0528333 L22.6666667,55.18735 L26.2083333,58.5771667 C26.040136,58.8806126 25.8887948,59.1931211 25.755,59.5132667 L20.7966667,59.5132667 L20.7966667,63.9668333 L25.6983333,63.9668333 C25.8241468,64.3111284 25.9708077,64.6474244 26.1375,64.97385 L22.6666667,68.29275 L25.9533333,71.4272667 L29.4666667,68.08 C29.8085063,68.2509274 30.1638852,68.3932462 30.5291667,68.5055 L30.5291667,73.2001833 L35.1758333,73.2001833 L35.1758333,68.5338667 C35.5356353,68.4190915 35.8861088,68.2768405 36.2241667,68.1083667 L39.6666667,71.4272667 L42.9533333,68.29275 L39.4825,64.97385 C39.6550467,64.650231 39.8018888,64.3135194 39.9216667,63.9668333 L44.8233333,63.9668333 L44.8233333,59.57 L39.865,59.57 C39.7473648,59.2313734 39.6101895,58.8998711 39.4541667,58.5771667 Z M32.8525,65.6688333 C32.0219124,65.6356594 31.2385964,65.2731534 30.6752189,64.6612229 C30.1118414,64.0492923 29.8146543,63.2381753 29.8491667,62.4066667 C29.8491667,61.56985 30.2458333,60.8465 31.4216667,58.9884833 C31.8608333,58.2935 32.3425,57.57015 32.8383333,56.63405 C33.3341667,57.5276 33.83,58.2935 34.255,58.9884833 C35.4166667,60.8465 35.8275,61.56985 35.8275,62.4066667 C35.8737711,63.240638 35.5856679,64.0586077 35.0271263,64.679052 C34.4685847,65.2994963 33.6858044,65.6710951 32.8525,65.7113833 L32.8525,65.6688333 Z" id="Shape" fill="#24A5C2"></path>
                            </g>
                        </g>
                    </g>
                </g>
            </g>
        </g>
    </g>
</svg>