<svg xmlns="http://www.w3.org/2000/svg" width="154" height="185" viewBox="0 0 154 185">
  <path id="intro-icon" d="M91.9,185H62.1V152.923a46.544,46.544,0,0,1-6.753-2.872l-22.257,22.7L12.015,151.255l22.257-22.691a49,49,0,0,1-2.82-6.884H0V91.291H31.816a58.656,58.656,0,0,1,2.87-6.468L12.019,61.708l21.07-21.487,18.1,18.452A204.536,204.536,0,0,0,77,0a204.5,204.5,0,0,0,25.815,58.674l18.1-18.452,21.07,21.487L119.314,84.828a58.191,58.191,0,0,1,2.87,6.464H154V121.68H122.548a49.1,49.1,0,0,1-2.819,6.884l22.256,22.691-21.074,21.491-22.257-22.7a47.039,47.039,0,0,1-6.753,2.872V185ZM77.5,67c-3.593,5.967-7.093,11.226-10.181,15.865l-.066.1C58.917,95.49,56,100.379,56,106.045a21.5,21.5,0,1,0,43,0c0-5.666-2.917-10.555-11.253-23.081l-.041-.061C84.611,78.253,81.1,72.982,77.5,67Z" fill="#fff" opacity="0.1"/>
</svg>
