<?xml version="1.0" encoding="utf-8"?>
<!-- Generator: Adobe Illustrator 22.1.0, SVG Export Plug-In . SVG Version: 6.00 Build 0)  -->
<svg version="1.1" id="Layer_1" xmlns="http://www.w3.org/2000/svg" xmlns:xlink="http://www.w3.org/1999/xlink" x="0px" y="0px"
	 viewBox="0 0 316.9 89" style="enable-background:new 0 0 316.9 89;" xml:space="preserve">
<style type="text/css">
	.st0{fill:#24A5C2;}
	.st1{fill:#FFFFFF;}
</style>
<title>Artboard 16</title>
<path class="st0" d="M75.1,58.5V43.9H59.7c-0.4-1.1-0.9-2.1-1.4-3.1l10.9-11.1L59.1,19.3l-8.7,8.9C44.7,19.5,40.5,10,37.9,0
	C35.2,10,31,19.5,25.4,28.2l-8.8-8.9L6.5,29.7l10.9,11.1c-0.5,1-1,2-1.4,3.1H0.7v14.6h15.2c0.4,1.1,0.8,2.3,1.4,3.3L6.5,72.8
	l10.1,10.3l10.7-10.9c1,0.5,2.1,1,3.3,1.4V89H45V73.7c1.1-0.4,2.2-0.8,3.2-1.4L59,83.2l10.2-10.3l-10.8-11c0.5-1.1,1-2.2,1.4-3.3
	H75.1z M37.9,32.5c1.8,2.9,3.4,5.4,4.9,7.6c4,6,5.4,8.3,5.4,11c0,5.7-4.6,10.4-10.4,10.4c-5.7,0-10.4-4.6-10.4-10.4
	c0-2.7,1.4-5.1,5.4-11C34.5,37.8,36.1,35.4,37.9,32.5z"/>
<path class="st1" d="M193.1,60.9c-2.3,0.6-4.8,0.9-7.2,0.9c-13,0-14.7-6-14.7-11.9c0-8,4.9-11.9,14.7-11.9c3.6-0.2,7.3,0.7,10.4,2.6
	l5-7.5c-4.6-2.9-10-4.4-15.4-4.2c-14.6,0-23.6,8.1-23.6,21c0.1,7.9,3.1,21,23.6,21c4.7,0.2,9.4-0.8,13.7-2.8l2.4-1.3V48.9h-8.8V60.9
	z M244.6,50.2c0,8.2-3.4,11.6-11.7,11.6c-8.3,0-11.7-3.3-11.7-11.6V29.6h-8.9v20.6c0,13.3,7.3,20.6,20.6,20.6s20.6-7.3,20.6-20.6
	V29.6h-8.9V50.2z M143.7,70.1h8.9V29.6h-8.9V70.1z M281.6,29.7h-18.1V70h8.9V56.3h9.3c15.4,0,17.7-8.3,17.7-13.3
	C299.3,36.5,294.7,29.6,281.6,29.7L281.6,29.7z M281.6,47.4h-9.3v-8.7h9.3c3.3,0,8.8,0.6,8.8,4.3C290.4,44.4,290.4,47.3,281.6,47.4
	L281.6,47.4z M129.5,43c0-6.4-4.7-13.3-17.7-13.3H93.6V70h8.9V56.3h10.7l11,13.8h11.4l-12.8-15.9C127.1,52,129.7,47.7,129.5,43z
	 M111.8,47.3h-9.3v-8.6h9.3c3.3,0,8.8,0.6,8.8,4.3C120.6,44.4,120.6,47.3,111.8,47.3z"/>
<g>
	<g>
		<path class="st1" d="M312.1,35.9c0.5-0.3,0.9-0.8,0.8-1.4c0-0.8-0.6-1.7-2.2-1.7h-2.3v5.1h1.1v-1.7h1.3l1.4,1.7h1.4L312.1,35.9z
			 M310.7,35h-1.2v-1.1h1.2c0.4,0,1.1,0.1,1.1,0.5C311.8,34.7,311.8,35,310.7,35z"/>
	</g>
	<g>
		<path class="st1" d="M310.5,41.1c-3.1,0-5.7-2.6-5.7-5.7s2.6-5.7,5.7-5.7c3.1,0,5.7,2.6,5.7,5.7S313.7,41.1,310.5,41.1z
			 M310.5,30.7c-2.5,0-4.6,2.1-4.6,4.6s2.1,4.6,4.6,4.6s4.6-2.1,4.6-4.6S313.1,30.7,310.5,30.7z"/>
	</g>
</g>
</svg>
