<?xml version="1.0" encoding="UTF-8"?>
<svg width="85px" height="84px" viewBox="0 0 85 84" version="1.1" xmlns="http://www.w3.org/2000/svg" xmlns:xlink="http://www.w3.org/1999/xlink">
    <!-- Generator: sketchtool 52.5 (67469) - http://www.bohemiancoding.com/sketch -->
    <title>E8701566-1E9B-4A5A-BDA0-A2B811A60178</title>
    <desc>Created with sketchtool.</desc>
    <g id="Website" stroke="none" stroke-width="1" fill="none" fill-rule="evenodd">
        <g id="Audience-/-Operators" transform="translate(-276.000000, -679.000000)">
            <g id="Hero" transform="translate(0.000000, 80.000000)">
                <g id="1" transform="translate(135.000000, 549.000000)">
                    <g id="Icon-/-operators-right-people" transform="translate(141.000000, 50.000000)">
                        <rect id="Background" x="0" y="0" width="84" height="84"></rect>
                        <g id="operators-right-people">
                            <path d="M10.598,33.6 L14.308,39.2 L14.784,39.928 C14.9841585,40.2355762 15.3270372,40.4202032 15.694,40.418 C15.901894,40.418376 16.1056849,40.3601501 16.282,40.25 C16.5245102,40.0950349 16.6949876,39.8495332 16.7554684,39.5681661 C16.8159492,39.286799 16.7614113,38.9929296 16.604,38.752 L12.894,33.096 L12.418,32.354 C11.6897317,31.186838 10.4778654,30.4063139 9.114,30.226 C6.88333412,29.9575868 4.88762534,28.7109101 3.668,26.824 C2.58140845,25.1736819 2.19373021,23.1597689 2.59,21.224 L4.62,24.332 C4.97498368,24.8781549 5.56613389,25.2255853 6.216,25.27 L10.416,25.55 C11.3421639,25.5996795 12.1885221,25.0278159 12.488,24.15 L13.888,20.202 C14.1092344,19.5915325 14.0315007,18.9126582 13.678,18.368 L11.676,15.302 C13.7416597,15.7558559 15.522761,17.0542308 16.5869247,18.8819318 C17.6510883,20.7096328 17.9010031,22.8995282 17.276,24.92 C16.8920516,26.2443681 17.1178384,27.6709299 17.892,28.812 L22.19,35.448 C22.5410766,35.889027 23.1701503,35.9903524 23.6419515,35.681867 C24.1137527,35.3733816 24.2732137,34.7564759 24.01,34.258 L19.698,27.636 C19.2869635,27.0285352 19.1593007,26.2727715 19.348,25.564 C20.2336768,22.7177444 19.7658115,19.6225543 18.0784528,17.1652358 C16.391094,14.7079172 13.6704444,13.159639 10.696,12.964 C10.0946066,12.9504243 9.53497177,13.2703891 9.24159022,13.795542 C8.94820868,14.320695 8.96914473,14.965001 9.296,15.47 L11.858,19.6 L10.458,23.422 L6.398,23.142 L3.738,19.068 C3.40312718,18.5535392 2.80679695,18.2718565 2.19673934,18.3399698 C1.58668173,18.408083 1.06716153,18.8143509 0.854,19.39 C-0.14536681,22.1863589 0.177121167,25.2850364 1.73088434,27.8156839 C3.28464751,30.3463315 5.90207849,32.0359633 8.848,32.41 C9.58064807,32.5232079 10.2233868,32.9602702 10.598,33.6 Z" id="Path" stroke="#064658" stroke-width="0.5" fill="#064658"></path>
                            <path d="M83.776,24.458 C83.7028052,24.1879961 83.5335388,23.9540103 83.3,23.8 L68.488,14.14 C68.1414939,13.9217829 67.7005061,13.9217829 67.354,14.14 L57.4,20.006 C57.0763422,20.1960375 56.8748253,20.5407374 56.868,20.916 C56.8554018,21.2892205 57.0419772,21.6410483 57.358,21.84 L62.958,25.452 L58.52,32.102 L57.316,33.852 C57.1585887,34.0929296 57.1040508,34.386799 57.1645316,34.6681661 C57.2250124,34.9495332 57.3954898,35.1950349 57.638,35.35 C57.8102304,35.470489 58.0158182,35.5341233 58.226,35.532 C58.5910683,35.5267543 58.9306656,35.3438943 59.136,35.042 L63.336,28.63 L64.652,26.6 L70.112,30.142 L68.208,33.068 L64.596,38.542 C64.4334386,38.7800696 64.3744351,39.0739121 64.4324924,39.3562819 C64.4905498,39.6386518 64.6606984,39.8853788 64.904,40.04 C65.0809175,40.1487887 65.2843137,40.2069019 65.492,40.208 C65.8596178,40.2128548 66.2036946,40.0275826 66.402,39.718 L68.208,37.044 L71.932,31.332 L76.454,34.272 C76.6270356,34.3908354 76.832088,34.454304 77.042,34.454 C77.4123801,34.4558395 77.7570653,34.2649369 77.952,33.95 L83.552,25.242 C83.7237882,25.0187311 83.8039045,24.7383239 83.776,24.458 Z M76.776,31.892 L59.948,21 L67.872,16.338 L81.2,25.004 L76.776,31.892 Z" id="Shape" stroke="#064658" stroke-width="0.5" fill="#064658" fill-rule="nonzero"></path>
                            <path d="M51.394,18.69 C51.4414514,18.2729383 51.245648,17.8655924 50.8903145,17.6421417 C50.534981,17.418691 50.083019,17.418691 49.7276855,17.6421417 C49.372352,17.8655924 49.1765486,18.2729383 49.224,18.69 L49.224,24.108 C49.224,28.8940996 45.3440996,32.774 40.558,32.774 C35.7719004,32.774 31.892,28.8940996 31.892,24.108 L31.892,18.69 C31.9394514,18.2729383 31.743648,17.8655924 31.3883145,17.6421417 C31.032981,17.418691 30.581019,17.418691 30.2256855,17.6421417 C29.870352,17.8655924 29.6745486,18.2729383 29.722,18.69 L29.722,24.108 C29.7184702,25.8239138 30.1316395,27.5150253 30.926,29.036 C30.848083,29.1879307 30.8050378,29.3553289 30.8,29.526 L30.8,33.6 C30.8627779,34.1517706 31.3296696,34.5685537 31.885,34.5685537 C32.4403304,34.5685537 32.9072221,34.1517706 32.97,33.6 L32.97,31.836 C37.181125,35.9772224 43.934875,35.9772224 48.146,31.836 L48.146,33.6 C48.146,34.195363 48.628637,34.678 49.224,34.678 C49.819363,34.678 50.302,34.195363 50.302,33.6 L50.302,29.526 C50.3013207,29.3563987 50.2630707,29.1890547 50.19,29.036 C50.9843605,27.5150253 51.3975298,25.8239138 51.394,24.108 L51.394,18.69 Z" id="Path" stroke="#064658" stroke-width="0.5" fill="#064658"></path>
                            <path d="M54.6,14.35 L52.738,14.35 L52.738,12.446 C52.738,5.71917175 47.2848283,0.266 40.558,0.266 C33.8311717,0.266 28.378,5.71917175 28.378,12.446 L28.378,14.35 L26.474,14.35 C26.0569383,14.3025486 25.6495924,14.498352 25.4261417,14.8536855 C25.202691,15.209019 25.202691,15.660981 25.4261417,16.0163145 C25.6495924,16.371648 26.0569383,16.5674514 26.474,16.52 L35.812,16.52 C35.2102629,15.8933212 34.7349296,15.1565546 34.412,14.35 L30.548,14.35 L30.548,12.446 C30.548,6.91762965 35.0296297,2.436 40.558,2.436 C46.0863703,2.436 50.568,6.91762965 50.568,12.446 L50.568,14.35 L47.18,14.35 C46.8362176,15.1622842 46.3368382,15.8994633 45.71,16.52 L54.6,16.52 C55.1517706,16.4572221 55.5685537,15.9903304 55.5685537,15.435 C55.5685537,14.8796696 55.1517706,14.4127779 54.6,14.35 Z" id="Path" stroke="#064658" stroke-width="0.5" fill="#064658"></path>
                            <path d="M65.478,53.368 L65.478,76.426 C65.4305486,76.8430617 65.626352,77.2504076 65.9816855,77.4738583 C66.337019,77.697309 66.788981,77.697309 67.1443145,77.4738583 C67.499648,77.2504076 67.6954514,76.8430617 67.648,76.426 L67.648,53.368 C67.630042,46.1755593 62.8950165,39.8470157 56,37.8 C54.5215252,37.3707521 52.9895249,37.1539151 51.45,37.156 L50.05,37.156 L49.952,37.156 L49.854,37.156 L49.77,37.156 L49.672,37.226 C49.672,37.226 49.672,37.226 49.672,37.226 L48.832,37.8 C43.8380861,41.07637 37.3759139,41.07637 32.382,37.8 C32.0968531,37.6282346 31.8211238,37.4412995 31.556,37.24 L31.458,37.17 L31.374,37.17 L31.276,37.17 L31.164,37.17 L29.764,37.17 C28.2204577,37.1620357 26.6836628,37.3741699 25.2,37.8 C18.2717093,39.8163801 13.4969697,46.1523114 13.468,53.368 L13.468,74.942 C13.468,79.3569643 17.0470357,82.936 21.462,82.936 L43.862,82.936 C44.3398198,82.9373011 44.7614813,82.623904 44.898,82.166 C45.8947315,82.6616861 46.9908709,82.924951 48.104,82.936 L54.768,82.936 C55.7585891,82.9404545 56.6848219,82.445762 57.232,81.62 L58.044,80.402 C58.5730521,79.6215404 58.9001608,78.7219916 58.996,77.784 C59.0106217,77.6959361 59.0106217,77.6060639 58.996,77.518 C58.996,77.518 58.996,77.518 58.996,77.42 C58.996,77.322 58.996,77.238 58.996,77.154 L58.996,72.212 C58.9603828,71.0161679 58.0072814,70.0508472 56.812,70 L56.812,40.362 C62.056749,42.5559678 65.4728351,47.6828562 65.478,53.368 Z M40.6,42.532 C43.6480337,42.5307125 46.640194,41.7137899 49.266,40.166 L49.266,56.07 C49.266,56.3715475 49.0215475,56.616 48.72,56.616 L32.424,56.616 C32.1279337,56.6084061 31.8919026,56.3661637 31.892,56.07 L31.892,40.166 C34.5306182,41.7197627 37.5378992,42.5368535 40.6,42.532 Z M15.638,74.942 L15.638,53.368 C15.6431649,47.6828562 19.059251,42.5559678 24.304,40.362 L24.304,69.16 C24.304,70.7837172 25.6202828,72.1 27.244,72.1 L42.084,72.1 C42.3150482,72.0972457 42.5397416,72.0239761 42.728,71.89 L42.728,80.766 L21.462,80.766 C18.248687,80.7583034 15.6456966,78.155313 15.638,74.942 Z M55.384,80.416 C55.2314973,80.6364295 54.9800378,80.7673979 54.712,80.766 L48.048,80.766 C46.910764,80.7351459 45.8087993,80.3645737 44.884,79.702 L44.884,71.722 C46.48,70.602 47.502,67.172 48.118,64.19 C48.1256784,64.1155307 48.1256784,64.0404693 48.118,63.966 C48.1607619,63.701527 48.3890922,63.5071493 48.657,63.5071493 C48.9249078,63.5071493 49.1532381,63.701527 49.196,63.966 L49.196,69.916 C49.196,71.1221899 50.1738101,72.1 51.38,72.1 L56.7,72.1 C56.7309396,72.0951479 56.7623348,72.1053752 56.7844798,72.1275202 C56.8066248,72.1496652 56.8168521,72.1810604 56.812,72.212 L56.812,73.178 L55.72,73.178 C55.1682294,73.2407779 54.7514463,73.7076696 54.7514463,74.263 C54.7514463,74.8183304 55.1682294,75.2852221 55.72,75.348 L56.812,75.348 L56.812,76.426 L55.72,76.426 C55.1223795,76.4336624 54.6419509,76.9203304 54.642,77.518 C54.642,77.8039034 54.7555747,78.0780969 54.9577389,78.2802611 C55.1599031,78.4824253 55.4340966,78.596 55.72,78.596 L56.504,78.596 C56.4239493,78.807456 56.3206487,79.0093616 56.196,79.198 L55.384,80.416 Z M54.6,70 L51.394,70 L51.394,63.966 C51.3301743,62.5389955 50.1719034,61.4053018 48.7438583,61.3720915 C47.3158133,61.3388811 46.1060931,62.4175052 45.976,63.84 C45.388,66.64 44.324,69.44 43.708,69.93 L43.624,69.93 L43.4,70 L43.302,70 L43.218,70 L43.134,70 L43.064,70 L42.994,70.084 C42.7957551,69.8103405 42.4779188,69.6488171 42.14,69.65 L27.244,69.65 C27.0386303,69.6538397 26.8405389,69.5739485 26.6952952,69.4287048 C26.5500515,69.2834611 26.4701603,69.0853697 26.474,68.88 L26.474,39.662 C27.5372288,39.402652 28.627598,39.2710557 29.722,39.27 L29.722,56.07 C29.7182774,56.7903309 30.0008625,57.4826366 30.5075879,57.994613 C31.0143132,58.5065894 31.703669,58.7962965 32.424,58.8 L48.678,58.8 C50.1780054,58.8 51.394,57.5840054 51.394,56.084 L51.394,39.284 C52.4883537,39.2858504 53.5786291,39.4174354 54.642,39.676 L54.6,70 Z" id="Shape" stroke="#064658" stroke-width="0.5" fill="#064658" fill-rule="nonzero"></path>
                            <circle id="Oval" stroke="#064658" stroke-width="0.5" fill="#064658" cx="66.556" cy="81.088" r="1.218"></circle>
                            <path d="M43.82,9.548 L45.514,7.938 L43.946,6.44 L42.546,7.728 C41.686778,6.4746798 41.0388513,5.08896797 40.628,3.626 C40.2171487,5.08896797 39.569222,6.4746798 38.71,7.728 L37.31,6.44 L35.826,7.938 L37.52,9.548 C37.4386135,9.69172635 37.3684063,9.84150172 37.31,9.996 L35,9.996 L35,12.124 L37.352,12.124 C37.4075873,12.2886419 37.4778704,12.4479503 37.562,12.6 L35.896,14.182 L37.464,15.68 L39.13,14.098 C39.2882884,14.1859845 39.4578568,14.2519277 39.634,14.294 L39.634,16.534 L41.846,16.534 L41.846,14.294 C42.0221432,14.2519277 42.1917116,14.1859845 42.35,14.098 L44.016,15.68 L45.584,14.182 L43.848,12.6 C43.9321296,12.4479503 44.0024127,12.2886419 44.058,12.124 L46.466,12.124 L46.466,9.996 L44.03,9.996 C43.9715937,9.84150172 43.9013865,9.69172635 43.82,9.548 Z M40.67,12.95 C39.8612506,12.9047758 39.23817,12.2193872 39.27,11.41 C39.27,11.004 39.452,10.654 40.012,9.772 C40.222,9.45 40.46,9.072 40.698,8.652 C40.936,9.072 41.174,9.45 41.384,9.772 C41.944,10.654 42.126,11.004 42.126,11.41 C42.1411096,11.8083778 41.9952967,12.1960813 41.7214099,12.4857693 C41.447523,12.7754574 41.0685986,12.9427645 40.67,12.95 Z" id="Shape" fill="#24A5C2"></path>
                        </g>
                    </g>
                </g>
            </g>
        </g>
    </g>
</svg>