<?xml version="1.0" encoding="UTF-8"?>
<svg width="69px" height="83px" viewBox="0 0 69 83" version="1.1" xmlns="http://www.w3.org/2000/svg" xmlns:xlink="http://www.w3.org/1999/xlink">
    <!-- Generator: sketchtool 52.5 (67469) - http://www.bohemiancoding.com/sketch -->
    <title>356DCD0A-8C0A-4C69-AB51-C7D632C284A8</title>
    <desc>Created with sketchtool.</desc>
    <g id="Website" stroke="none" stroke-width="1" fill="none" fill-rule="evenodd">
        <g id="Audience-/-Operators" transform="translate(-1084.000000, -680.000000)">
            <g id="Hero" transform="translate(0.000000, 80.000000)">
                <g id="3" transform="translate(935.000000, 549.000000)">
                    <g id="Icon-/-operators-right-support" transform="translate(141.000000, 50.000000)">
                        <rect id="Background" x="0" y="0" width="84" height="84"></rect>
                        <g id="support" transform="translate(7.500000, 0.000000)">
                            <path d="M58.5864407,21.939661 L64.4949153,16.2447458 L58.999322,11.0481356 L54.2725424,15.5471186 C51.2506009,11.1733112 48.9749799,6.32859577 47.5383051,1.21016949 C46.0959839,6.32649189 43.8207848,11.1703089 40.8040678,15.5471186 L36.0772881,11.0481356 L30.5816949,16.3016949 L36.4901695,21.9966102 C36.208645,22.5064033 35.9613201,23.0343469 35.7498305,23.5769492 L27.4352542,23.5769492 L27.4352542,31.0088136 L35.5932203,31.0088136 C35.7898903,31.5895829 36.0376389,32.1517817 36.3335593,32.6888136 L30.5247458,38.2413559 L36.020339,43.4949153 L41.8291525,37.9423729 C42.4016857,38.217426 42.9913879,38.4552091 43.5945763,38.6542373 L43.5945763,46.4847458 L51.3681356,46.4847458 L51.3681356,38.6542373 C51.9713239,38.4552091 52.5610262,38.217426 53.1335593,37.9423729 L58.9423729,43.4949153 L64.4379661,38.2413559 L58.6291525,32.6888136 C58.9192294,32.1489105 59.1667595,31.5872076 59.3694915,31.0088136 L67.5844068,31.0088136 L67.5844068,23.52 L59.3267797,23.52 C59.1093766,22.9799514 58.8622181,22.4523631 58.5864407,21.939661 Z M47.5383051,33.8705085 C44.666648,33.7547171 42.4243015,31.3472119 42.5125424,28.4745763 C42.5125424,27.0508475 43.1959322,25.8691525 45.1464407,22.779661 C45.8725424,21.6122034 46.6983051,20.3166102 47.5383051,18.8359322 C48.3783051,20.259661 49.1898305,21.6833898 49.9301695,22.779661 C51.880678,25.8833898 52.5640678,27.0508475 52.5640678,28.4745763 C52.6523087,31.3472119 50.4099621,33.7547171 47.5383051,33.8705085 Z" id="Shape" fill="#24A5C2"></path>
                            <path d="M68.3389831,60.8074576 C67.7392634,59.6653115 66.7177221,58.8021091 65.4915254,58.4013559 C64.1184898,57.9234829 62.6741423,57.6827583 61.220339,57.6894915 C57.9555903,57.8831598 54.7572801,58.6948155 51.7952542,60.0813559 C51.0549153,60.380339 50.3715254,60.6650847 49.6311864,60.9213559 C50.0018755,59.7881893 50.0018755,58.566387 49.6311864,57.4332203 C49.1777251,55.9660058 48.1509261,54.744115 46.7837288,54.0447458 C45.36,53.2759322 43.6088136,52.3362712 41.8433898,51.3823729 C34.0271186,47.1111864 30.1545763,45.1179661 28.3891525,45.0183051 C25.9735726,44.8925619 23.5524275,45.1131019 21.199322,45.6732203 C19.320129,46.2879745 17.5188611,47.1193289 15.8318644,48.1505085 C14.0379661,49.1186441 12.0162712,50.200678 10.1369492,50.9979661 C10.0391239,50.5325275 9.76321573,50.1237746 9.36813559,49.8589831 C8.97369712,49.5993974 8.4922648,49.5072082 8.02983051,49.6027119 L2.10711864,50.8413559 C1.63645808,50.9273518 1.22024825,51.1992377 0.952383148,51.595678 C0.684518051,51.9921184 0.587562805,52.4797168 0.683389831,52.9484746 C0.876828308,53.9268942 1.82598585,54.5639127 2.80474576,54.3722034 L6.93355932,53.5179661 C6.92650731,53.6317553 6.92650731,53.7458719 6.93355932,53.859661 L11.9023729,77.4650847 L2.09288136,79.4583051 C1.17780519,79.6225427 0.543336895,80.4634632 0.636583865,81.3884731 C0.729830834,82.3134831 1.51936888,83.0108545 2.44881356,82.9891525 L2.81898305,82.9891525 L14.4366102,80.5830508 C14.9083865,80.4936715 15.3246383,80.2188885 15.5922215,79.8201896 C15.8598046,79.4214907 15.9563807,78.9321602 15.860339,78.4616949 L14.8922034,73.7776271 C17.0135593,73.5071186 20.6867797,73.0657627 22.2386441,73.0088136 C24.5735593,72.9091525 29.0583051,73.9342373 34.7532203,75.2298305 L37.4298305,75.8420339 C40.159887,76.5432457 42.9564673,76.9536654 45.7728814,77.0664407 C47.1217916,77.0947207 48.4627145,76.8526769 49.7166102,76.3545763 C51.8468569,75.1797637 53.9010836,73.8720962 55.8671186,72.439322 C57.6467797,71.2576271 59.5972881,69.9477966 61.4054237,68.7661017 C62.436502,68.095636 63.50092,67.4778934 64.5945763,66.9152542 C66.3315254,66.0467797 67.840678,65.3064407 68.3959322,63.740339 C68.7685221,62.7941811 68.7480222,61.7384383 68.3389831,60.8074576 Z M45.2745763,65.3918644 L45.7871186,65.3918644 L46.1430508,65.3918644 L46.7979661,65.3918644 C47.0609456,65.3688975 47.3223917,65.330869 47.5810169,65.2779661 C49.4664349,64.8521905 51.3067111,64.246711 53.0766102,63.4698305 C55.6280019,62.2209469 58.3896547,61.4581127 61.220339,61.220339 C62.2676219,61.2085789 63.3087343,61.3820976 64.2955932,61.7328814 C64.6182412,61.8187541 64.9004466,62.01529 65.0928814,62.2881356 C65.1156802,62.3526204 65.1156802,62.4229728 65.0928814,62.4874576 C64.4624708,62.9821019 63.7680373,63.3891836 63.0284746,63.6976271 C61.8109003,64.290855 60.6273668,64.9515424 59.4833898,65.6766102 C57.6467797,66.8583051 55.6820339,68.1823729 53.7884746,69.4067797 C51.8949153,70.6311864 48.8054237,72.7525424 48.3498305,72.9376271 C47.5144749,73.2770316 46.6171179,73.4371007 45.7159322,73.4074576 C43.1685504,73.2847793 40.6402685,72.9031518 38.1701695,72.2684746 L35.4650847,71.6420339 C29.7701695,70.3464407 25.3281356,69.3355932 22.4949153,69.3355932 L22.039322,69.3355932 C20.2454237,69.3355932 16.3444068,69.8908475 14.1091525,70.1755932 L10.8630508,54.5145763 C13.1353237,53.5459321 15.354703,52.4576284 17.5118644,51.2542373 C18.9142513,50.430566 20.3806849,49.721155 21.8969492,49.1328814 C23.9572647,48.6468582 26.0752703,48.4503916 28.1898305,48.5491525 C29.3430508,48.5491525 36.6183051,52.5783051 40.120678,54.4861017 C41.900339,55.4542373 43.6230508,56.3938983 45.1037288,57.1769492 C46.1675012,57.7326933 46.5813263,59.0442005 46.0291525,60.1098305 C45.761286,60.6425359 45.2842111,61.0400658 44.7119213,61.2074336 C44.1396316,61.3748014 43.5235366,61.2969721 43.0108475,60.9925424 C40.169894,59.565841 37.2568251,58.2875123 34.2833898,57.1627119 C33.828446,56.9696616 33.3146048,56.9696616 32.859661,57.1627119 C32.4196868,57.3517904 32.0754003,57.7114927 31.9057627,58.159322 C31.7041404,58.6124836 31.7041404,59.1298892 31.9057627,59.5830508 C32.0942126,60.0184011 32.4474322,60.3613824 32.8881356,60.5369492 C35.759344,61.5970469 38.5643809,62.8284106 41.2881356,64.2244068 L41.6725424,64.4094915 C42.7082967,64.9986859 43.8703304,65.3306955 45.0610169,65.3776271 L45.2176271,65.3776271 L45.2745763,65.3918644 Z" id="Shape" fill="#064658" fill-rule="nonzero"></path>
                            <path d="M7.8020339,73.6067797 C7.83098609,72.4490518 7.15588256,71.3891183 6.09448136,70.9258693 C5.03308017,70.4626203 3.79684818,70.6883506 2.96765568,71.4968133 C2.13846318,72.305276 1.88151324,73.5353981 2.31774719,74.6081852 C2.75398113,75.6809722 3.79648647,76.3826889 4.95457627,76.3830508 C6.49979797,76.3835338 7.76340343,75.1515185 7.8020339,73.6067797 Z" id="Path" fill="#064658"></path>
                            <path d="M64.2813559,70.9159322 C63.8189216,70.8204286 63.3374893,70.9126177 62.9430508,71.1722034 C61.1918644,72.2969492 59.3125424,73.5640678 57.5898305,74.7172881 L57.4474576,74.8169492 C55.328039,76.4220657 53.0804996,77.8505865 50.7274576,79.0881356 C49.1395498,79.7249637 47.4408203,80.0395432 45.7301695,80.0135593 C42.6973243,79.8999611 39.6854628,79.4608308 36.7464407,78.7037288 C36.0401852,78.5470832 35.3089527,78.8299792 34.8920136,79.4211614 C34.4750746,80.0123437 34.45403,80.7961092 34.8386441,81.4088136 C35.093995,81.8095104 35.4989754,82.0914587 35.9633898,82.1918644 C39.1579743,83.0179575 42.4326955,83.4953221 45.7301695,83.6155932 C47.8848802,83.6525998 50.025,83.255564 52.0230508,82.4481356 C53.3613559,81.9213559 54.5288136,81.1667797 59.440678,77.8922034 L59.5830508,77.7925424 C61.2772881,76.6535593 63.1566102,75.400678 64.879322,74.2759322 C65.3164376,74.0281667 65.6307459,73.6096885 65.7468806,73.1208424 C65.8630153,72.6319963 65.7705025,72.11687 65.4915254,71.6989831 C65.2116952,71.2839629 64.7745974,71.001135 64.2813559,70.9159322 Z" id="Path" fill="#064658"></path>
                        </g>
                    </g>
                </g>
            </g>
        </g>
    </g>
</svg>