<?xml version="1.0" encoding="UTF-8"?>
<svg width="84px" height="84px" viewBox="0 0 84 84" version="1.1" xmlns="http://www.w3.org/2000/svg" xmlns:xlink="http://www.w3.org/1999/xlink">
    <!-- Generator: sketchtool 52.5 (67469) - http://www.bohemiancoding.com/sketch -->
    <title>50833302-F8D9-4FC5-BC4C-5F399A6E6681</title>
    <desc>Created with sketchtool.</desc>
    <g id="Website" stroke="none" stroke-width="1" fill="none" fill-rule="evenodd">
        <g id="Audience-/-Service-Providers" transform="translate(-276.000000, -679.000000)">
            <g id="Hero" transform="translate(0.000000, 80.000000)">
                <g id="1" transform="translate(135.000000, 549.000000)">
                    <g id="Icon-/-servive-prov-more-work" transform="translate(141.000000, 50.000000)">
                        <rect id="Background" x="0" y="0" width="84" height="84"></rect>
                        <g id="service-prov-better-jobs">
                            <path d="M20.846,30.506 L24.78,26.754 L21.126,23.268 L17.99,26.264 C15.9922764,23.3737577 14.479097,20.1771661 13.51,16.8 C12.5601599,20.2061041 11.0458246,23.428799 9.03,26.334 L5.894,23.268 L2.24,26.754 L6.174,30.506 C5.992,30.856 5.824,31.206 5.684,31.556 L0.168,31.556 L0.168,36.484 L5.6,36.484 C5.72587873,36.8726244 5.89001649,37.2477964 6.09,37.604 L2.24,41.286 L5.894,44.8 L9.8,41.09 C10.1770681,41.2833155 10.5706274,41.4426133 10.976,41.566 L10.976,46.774 L16.1,46.774 L16.1,41.566 C16.498667,41.4365473 16.8870853,41.2774362 17.262,41.09 L21.126,44.8 L24.78,41.3 L20.916,37.618 C21.1159835,37.2617964 21.2801213,36.8866244 21.406,36.498 L27.006,36.498 L27.006,31.556 L21.406,31.556 C21.2428074,31.1939772 21.0557283,30.8432038 20.846,30.506 Z M13.51,38.43 C11.5952599,38.3466518 10.1069138,36.7332346 10.178,34.818 C10.178,33.894 10.626,33.096 11.914,31.038 C12.404,30.254 12.95,29.4 13.51,28.42 C14.07,29.4 14.616,30.254 15.106,31.038 C16.394,33.096 16.842,33.838 16.842,34.818 C16.9130862,36.7332346 15.4247401,38.3466518 13.51,38.43 Z" id="Shape" fill="#24A5C2"></path>
                            <circle id="Oval" fill="#064658" cx="11.592" cy="82.068" r="1.414"></circle>
                            <path d="M76.468,80.556 L15.848,80.556 C15.0748014,80.556 14.448,81.1828014 14.448,81.956 C14.448,82.7291986 15.0748014,83.356 15.848,83.356 L76.468,83.356 C77.2411986,83.356 77.868,82.7291986 77.868,81.956 C77.868,81.1828014 77.2411986,80.556 76.468,80.556 Z" id="Path" fill="#064658"></path>
                            <path d="M33.25,38.584 L37.338,38.584 C38.1111986,38.584 38.738,37.9571986 38.738,37.184 C38.738,36.4108014 38.1111986,35.784 37.338,35.784 L33.25,35.784 C32.4768014,35.784 31.85,36.4108014 31.85,37.184 C31.85,37.9571986 32.4768014,38.584 33.25,38.584 Z" id="Path" fill="#064658"></path>
                            <path d="M42.448,38.584 L46.536,38.584 C47.3091986,38.584 47.936,37.9571986 47.936,37.184 C47.936,36.4108014 47.3091986,35.784 46.536,35.784 L42.448,35.784 C41.6748014,35.784 41.048,36.4108014 41.048,37.184 C41.048,37.9571986 41.6748014,38.584 42.448,38.584 Z" id="Path" fill="#064658"></path>
                            <path d="M51.646,38.584 L55.734,38.584 C56.5071986,38.584 57.134,37.9571986 57.134,37.184 C57.134,36.4108014 56.5071986,35.784 55.734,35.784 L51.646,35.784 C50.8728014,35.784 50.246,36.4108014 50.246,37.184 C50.246,37.9571986 50.8728014,38.584 51.646,38.584 Z" id="Path" fill="#064658"></path>
                            <path d="M33.25,44.8 L37.338,44.8 C38.1111986,44.8 38.738,44.1731986 38.738,43.4 C38.738,42.6268014 38.1111986,42 37.338,42 L33.25,42 C32.4768014,42 31.85,42.6268014 31.85,43.4 C31.85,44.1731986 32.4768014,44.8 33.25,44.8 Z" id="Path" fill="#064658"></path>
                            <path d="M42.448,44.8 L46.536,44.8 C47.3091986,44.8 47.936,44.1731986 47.936,43.4 C47.936,42.6268014 47.3091986,42 46.536,42 L42.448,42 C41.6748014,42 41.048,42.6268014 41.048,43.4 C41.048,44.1731986 41.6748014,44.8 42.448,44.8 Z" id="Path" fill="#064658"></path>
                            <path d="M51.646,44.8 L55.734,44.8 C56.5071986,44.8 57.134,44.1731986 57.134,43.4 C57.134,42.6268014 56.5071986,42 55.734,42 L51.646,42 C50.8728014,42 50.246,42.6268014 50.246,43.4 C50.246,44.1731986 50.8728014,44.8 51.646,44.8 Z" id="Path" fill="#064658"></path>
                            <path d="M17.878,21.896 C18.6511986,21.896 19.278,21.2691986 19.278,20.496 L19.278,8.4 L22.596,8.4 C23.3691986,8.4 23.996,7.77319865 23.996,7 C23.996,6.22680135 23.3691986,5.6 22.596,5.6 L17.878,5.6 C17.1048014,5.6 16.478,6.22680135 16.478,7 L16.478,20.468 C16.4704759,20.8441305 16.6146471,21.2074617 16.878018,21.4761 C17.1413889,21.7447383 17.5017943,21.8960752 17.878,21.896 Z" id="Path" fill="#064658"></path>
                            <path d="M82.026,74.746 L80.948,74.746 L80.948,50.12 C80.948,49.3468014 80.3211986,48.72 79.548,48.72 L76.566,48.72 L75.6,44.366 C75.4476634,43.7203654 74.8631261,43.2702716 74.2,43.288 L67.872,43.288 C67.2088739,43.2702716 66.6243366,43.7203654 66.472,44.366 L65.52,48.72 L64.848,48.72 L64.848,22.4 C64.8473049,21.850489 64.5252005,21.3521975 64.0244285,21.125945 C63.5236564,20.8996926 62.9368286,20.987322 62.524,21.35 L57.666,25.55 L57.666,22.4 C57.6606187,21.8560379 57.3406217,21.3644403 56.8453926,21.1393362 C56.3501636,20.9142321 55.7693728,20.9963807 55.356,21.35 L50.498,25.55 L50.498,22.4 C50.499353,21.8532006 50.1822359,21.3556548 49.686,21.126 C49.1821095,20.8946752 48.5891782,20.9825169 48.174,21.35 L43.4,25.62 L43.4,22.4 C43.3946187,21.8560379 43.0746217,21.3644403 42.5793926,21.1393362 C42.0841636,20.9142321 41.5033728,20.9963807 41.09,21.35 L36.232,25.55 L36.232,16.898 L47.852,16.898 L47.852,18.018 C47.852,18.7911986 48.4788014,19.418 49.252,19.418 C50.0251986,19.418 50.652,18.7911986 50.652,18.018 L50.652,7.14 C50.652,6.36680135 50.0251986,5.74 49.252,5.74 L36.232,5.74 L36.232,1.4 C36.232,0.62680135 35.6051986,4.73447626e-17 34.832,0 L26.6,0 C25.8268014,-4.73447626e-17 25.2,0.62680135 25.2,1.4 L25.2,22.96 C25.2,23.7331986 25.8268014,24.36 26.6,24.36 C27.3731986,24.36 28,23.7331986 28,22.96 L28,2.8 L33.334,2.8 L33.334,29.246 C33.3030721,30.0191986 33.9048014,30.671072 34.678,30.7019999 C35.4511986,30.7329279 36.103072,30.1311986 36.134,29.358 L40.6,25.508 L40.6,28.714 C40.6006951,29.263511 40.9227995,29.7618025 41.4235715,29.988055 C41.9243436,30.2143074 42.5111714,30.126678 42.924,29.764 L47.768,25.564 L47.768,28.77 C47.7686951,29.319511 48.0907995,29.8178025 48.5915715,30.044055 C49.0923436,30.2703074 49.6791714,30.182678 50.092,29.82 L54.936,25.62 L54.936,28.826 C54.9366951,29.375511 55.2587995,29.8738025 55.7595715,30.100055 C56.2603436,30.3263074 56.8471714,30.238678 57.26,29.876 L62.118,25.676 L62.118,49.84 C62.1091753,49.9331247 62.1091753,50.0268753 62.118,50.12 C62.0978467,50.1980534 62.0978467,50.2799466 62.118,50.358 L62.118,74.746 L56.98,74.746 L56.98,50.484 C56.98,49.7108014 56.3531986,49.084 55.58,49.084 L6.09,49.084 C5.31680135,49.084 4.69,49.7108014 4.69,50.484 L4.69,76.146 C4.69,76.9191986 5.31680135,77.546 6.09,77.546 L82.026,77.546 C82.7991986,77.546 83.426,76.9191986 83.426,76.146 C83.426,75.3728014 82.7991986,74.746 82.026,74.746 Z M68.432,48.524 L68.992,46.088 L73.094,46.088 L73.654,48.524 L68.432,48.524 Z M76.02,66.542 C76.02,65.7688014 75.3931986,65.142 74.62,65.142 L64.82,65.142 L64.82,62.65 C64.82,62.412 64.82,61.866 64.82,60.55 L64.82,59.85 L74.2,59.85 C74.9731986,59.85 75.6,59.2231986 75.6,58.45 C75.6,57.6768014 74.9731986,57.05 74.2,57.05 L64.848,57.05 L64.848,51.45 L78.162,51.45 L78.162,74.508 L64.848,74.508 L64.848,67.942 L74.648,67.942 C75.4102422,67.9267521 76.0201525,67.3043947 76.02,66.542 Z M36.162,14.112 L36.162,8.512 L47.782,8.512 L47.782,14.112 L36.162,14.112 Z M11.816,74.746 L7.49,74.746 L7.49,70.392 C9.63027361,70.9245329 11.2972862,72.6023353 11.816,74.746 Z M7.49,56.238 L7.49,51.884 L11.816,51.884 C11.3030505,54.030882 9.633528,55.7112105 7.49,56.238 Z M15.638,63.238 C15.6204454,67.549879 17.3652407,71.6817566 20.468,74.676 L14.588,74.676 C13.9644045,71.0532817 11.1163554,68.2220849 7.49,67.62 L7.49,59.01 C11.1416757,58.4071344 13.9995157,55.5380208 14.588,51.884 L20.482,51.884 C17.3721062,54.8687127 15.6213832,58.9975855 15.638,63.308 L15.638,63.238 Z M43.288,63.238 C43.3266814,67.9644362 40.7817346,72.3348723 36.652,74.634 L24.99,74.634 C20.8880723,72.3099182 18.3528117,67.9595697 18.3528117,63.245 C18.3528117,58.5304303 20.8880723,54.1800818 24.99,51.856 L36.652,51.856 C40.7995014,54.1647419 43.3473001,58.561576 43.288,63.308 L43.288,63.238 Z M54.18,56.238 C52.0202666,55.7210271 50.336037,54.0313819 49.826,51.87 L54.18,51.87 L54.18,56.238 Z M46.004,63.238 C46.0206168,58.9275855 44.2698938,54.7987127 41.16,51.814 L47.054,51.814 C47.6445297,55.4799108 50.5152552,58.3562763 54.18,58.954 L54.18,67.62 C50.5174463,68.2119354 47.6459354,71.0834463 47.054,74.746 L41.174,74.746 C44.2767593,71.7517566 46.0215546,67.619879 46.004,63.308 L46.004,63.238 Z M54.18,70.322 L54.18,74.676 L49.826,74.676 C50.3664539,72.5486915 52.0442121,70.8979069 54.18,70.392 L54.18,70.322 Z" id="Shape" fill="#064658" fill-rule="nonzero"></path>
                            <path d="M29.848,71.246 L29.848,70.616 C28.3833816,70.3934075 27.0367315,69.6830866 26.026,68.6 C25.6394007,68.1902047 25.6582048,67.5445994 26.0680001,67.1580001 C26.4777953,66.7714008 27.1234007,66.7902048 27.51,67.2 C30.422,70.378 35.756,67.816 33.222,64.764 C31.822,63.028 28.476,64.428 26.642,61.964 C25.7223011,60.7311635 25.5753201,59.0854552 26.2619923,57.709151 C26.9486645,56.3328468 28.3519205,55.46059 29.89,55.454 L29.89,54.95 C29.8442841,54.5641109 30.0244536,54.1863065 30.3530854,53.9789385 C30.6817172,53.7715705 31.1002828,53.7715705 31.4289146,53.9789385 C31.7575464,54.1863065 31.9377159,54.5641109 31.892,54.95 L31.892,55.594 C33.488,56.042 35.868,57.862 34.552,58.912 C34.1209208,59.2492827 33.4994567,59.1809216 33.152,58.758 C30.87,55.958 26.362,58.114 28.28,60.76 C29.414,62.314 32.718,61.026 34.79,63.56 C36.862,66.094 36.19,69.818 31.878,70.644 L31.878,71.344 C31.850938,71.904569 31.374569,72.3370619 30.814,72.31 C30.253431,72.282938 29.8209381,71.806569 29.848,71.246 Z" id="Path" stroke="#064658" stroke-width="0.5" fill="#064658"></path>
                        </g>
                    </g>
                </g>
            </g>
        </g>
    </g>
</svg>