<?xml version="1.0" encoding="UTF-8"?>
<svg width="85px" height="80px" viewBox="0 0 85 80" version="1.1" xmlns="http://www.w3.org/2000/svg" xmlns:xlink="http://www.w3.org/1999/xlink">
    <!-- Generator: sketchtool 59.1 (101010) - https://sketch.com -->
    <title>6C0A3489-C85F-409E-B22C-EA1A9039D123</title>
    <desc>Created with sketchtool.</desc>
    <g id="Homepage" stroke="none" stroke-width="1" fill="none" fill-rule="evenodd">
        <g id="Home-Page" transform="translate(-679.000000, -3197.000000)" fill-rule="nonzero">
            <g id="Solutions" transform="translate(-5.000000, 2905.000000)">
                <g id="2" transform="translate(542.000000, 251.000000)">
                    <g id="Asset-663" transform="translate(143.000000, 40.000000)">
                        <g transform="translate(0.000000, 2.000000)">
                            <path d="M71.3784369,28.8536462 C66.3384706,28.8937389 61.8191058,31.9663977 59.9283268,36.6384309 C58.0375479,41.3104641 59.1478455,46.6614634 62.7413394,50.1955418 C66.3348332,53.7296203 71.7035914,54.7505511 76.3434436,52.7821376 C80.9832959,50.8137242 83.9801737,46.2437513 83.9362321,41.2038089 C83.8762734,34.3267705 78.2555078,28.7989396 71.3784369,28.8536462 L71.3784369,28.8536462 Z M76.4918839,46.0213586 C75.9208391,47.7916005 74.1038782,48.6533605 72.5412919,48.9025441 L72.5412919,49.6085644 C72.5412919,50.1819823 72.0764456,50.6468294 71.5030285,50.6468294 C70.9296115,50.6468294 70.4647652,50.1819823 70.4647652,49.6085644 L70.4647652,48.8506309 C69.224894,48.5635864 68.0955791,47.9213552 67.2150009,47.0025191 C66.9609099,46.7317356 66.8705812,46.3459651 66.9780408,45.9905237 C67.0855003,45.6350823 67.3744225,45.36397 67.735973,45.2793121 C68.0975236,45.1946543 68.4767744,45.3093125 68.7308654,45.580096 C69.4568612,46.3421116 70.4383034,46.8097299 71.4874546,46.8935013 L71.5186025,46.8935013 C71.6380028,46.8935013 71.7574031,46.8935013 71.887186,46.8935013 C72.7697098,46.8208227 74.2025132,46.3743688 74.5191836,45.3776343 C74.6947661,44.6422185 74.5010551,43.8673733 74.0000519,43.3011042 C73.3978591,42.595084 72.4893787,42.4860662 71.4355414,42.3562831 C70.1636688,42.2057346 68.7204828,42.0292296 67.7289413,40.7002503 C66.9152629,39.5789352 66.7201706,38.1235446 67.2098096,36.8275217 C67.80934,35.5172711 69.0372957,34.6046263 70.4647652,34.4083642 L70.4647652,34.0345888 C70.4647652,33.4611708 70.9296115,32.9963237 71.5030285,32.9963237 C72.0764456,32.9963237 72.5412919,33.4611708 72.5412919,34.0345888 L72.5412919,34.4187469 L72.5049527,34.4187469 C73.6711061,34.6883129 74.7152256,35.3363252 75.4743858,36.2616673 C75.8399392,36.7046327 75.7771849,37.3600671 75.3342203,37.725621 C74.8912556,38.0911749 74.2358223,38.0284206 73.870269,37.5854552 C73.3206942,36.9071304 72.522378,36.4771233 71.6535767,36.3914504 C70.6931831,36.3343458 69.4680324,36.7756085 69.1357881,37.6010292 C68.9153848,38.2242097 69.0122292,38.9156797 69.395354,39.4543323 C69.8366159,40.0461434 70.5582089,40.1603525 71.6899159,40.295327 C72.9254493,40.4458754 74.4568878,40.6327631 75.5834035,41.9513597 C76.559995,43.0645766 76.9023926,44.5985206 76.4918839,46.0213586 L76.4918839,46.0213586 Z" id="Shape" fill="#00B7D6"></path>
                            <path d="M60.0679736,31.4560105 C60.3475681,31.4562243 60.6156831,31.3486789 60.8127972,31.1572493 C63.5356473,28.4707714 67.2579421,26.9465869 71.1511581,26.9239551 L71.282289,26.9239551 C74.7728582,26.9260316 78.1476195,28.1329618 80.7971479,30.3267944 C81.0688408,30.6175818 81.4898394,30.7310928 81.8782881,30.6182949 C82.2667367,30.5054971 82.5530131,30.1866074 82.6134565,29.7993742 C82.6738999,29.412141 82.4976769,29.0259689 82.1609093,28.8076697 C79.1287184,26.3043622 75.272016,24.9256434 71.282289,24.9187104 L71.1459129,24.9187104 C66.69239,24.9405641 62.4331114,26.6819699 59.3179048,29.7545908 C59.0221162,30.0459141 58.9362527,30.4801232 59.1000744,30.8561524 C59.2638962,31.2321816 59.6454188,31.4766153 60.0679736,31.4762658 L60.0679736,31.4560105 Z" id="Path" fill="#00B7D6"></path>
                            <path d="M83.6871414,30.7265677 C83.2733708,30.130149 82.4595949,29.9856908 81.8695221,30.4039112 C81.2794492,30.8221316 81.136528,31.6446591 81.5502986,32.2410778 C81.7489554,32.5303817 82.0539709,32.7272166 82.397218,32.7876184 L82.61872,32.7876184 C83.257932,32.7975761 83.8098735,32.3373273 83.921673,31.701122 C83.97373,31.3577195 83.8894326,31.0074364 83.6871414,30.7265677 Z" id="Path" fill="#00B7D6"></path>
                            <path d="M43.1199726,56.1574345 C43.5149531,56.1533041 43.8874425,55.975309 44.1357515,55.6720416 C44.3840606,55.3687742 44.4822592,54.9719037 44.4035392,54.5897754 L43.8962006,52.2007231 C43.7709834,51.5902666 43.2283273,51.1508126 42.5974138,51.148932 L38.7213471,51.148932 C38.0890134,51.1468917 37.5441603,51.5881249 37.4225604,52.2007231 L36.9152218,54.5897754 C36.8379393,54.9742053 36.9387641,55.3726139 37.1901094,55.6759922 C37.4414546,55.9793705 37.8170061,56.1559566 38.2140085,56.1574345 L38.4981181,56.1574345 L36.7275065,77.1580557 C36.6933322,77.5529984 36.8288395,77.9439413 37.1009398,78.2354226 C37.37304,78.5269038 37.7566873,78.6920936 38.1582013,78.6906646 L43.1605597,78.6906646 C43.5611916,78.6906646 43.9434827,78.5248864 44.2144615,78.2335734 C44.4854403,77.9422605 44.6202774,77.5521284 44.5861811,77.1580557 L42.8206428,56.1574345 L43.1199726,56.1574345 Z" id="Path" fill="#00B7D6"></path>
                            <path d="M72.1309392,66.1968758 C71.4723845,54.7612417 63.1436474,45.2912342 52.0244493,43.3352333 C51.9873459,43.3298682 51.9496806,43.3298682 51.9125771,43.3352333 L51.9125771,43.3352333 C51.7956198,43.3352333 51.6786625,43.2939389 51.55662,43.2836153 C51.55662,43.2836153 51.5159392,43.2836153 51.4905137,43.2836153 C51.2145619,43.2596852 50.940931,43.3510285 50.7328337,43.5365438 C44.9746397,48.7882816 36.2421549,48.7882816 30.483961,43.5365438 L30.4381951,43.5365438 C30.3728339,43.4884636 30.3030066,43.4469725 30.2297059,43.4126604 C30.1853525,43.3889274 30.1394841,43.3682339 30.0924082,43.3507187 C30.0208448,43.3323714 29.9475265,43.3219866 29.8737488,43.3197479 C29.8145366,43.3144684 29.7549825,43.3144684 29.6957703,43.3197479 C29.6957703,43.3197479 29.6500044,43.3197479 29.629664,43.3197479 L29.2940473,43.3816896 C18.1738063,45.3373083 9.84336601,54.8068575 9.18247234,66.2433321 C9.16354935,66.5578223 9.28714468,66.8638679 9.51808901,67.074383 C16.4645084,73.3870897 25.1254526,77.4257879 34.3689782,78.6626394 L34.506276,78.6626394 C35.0679607,78.6996995 35.5528929,78.2675389 35.5894024,77.6973815 C35.6259119,77.1272241 35.2001733,76.6349769 34.6384886,76.5979166 C30.7469847,76.0784042 26.9406114,75.0369513 23.3190535,73.5008325 L23.3190535,62.9449375 C23.3190535,62.3747801 22.863718,61.9125762 22.3020332,61.9125762 C21.7403485,61.9125762 21.285013,62.3747801 21.285013,62.9449375 L21.285013,72.5510601 C17.6560147,70.7843706 14.279352,68.5270874 11.2470234,65.8407112 C12.0254939,56.0140672 18.9895379,47.8336399 28.4550056,45.6270756 L28.4550056,53.6485234 C28.4517238,54.0206563 28.6460071,54.3657806 28.9635157,54.5518396 C29.119425,54.6381161 29.2944615,54.6825353 29.4720258,54.6808848 C29.6511091,54.6789968 29.8265257,54.6291393 29.9805359,54.5363542 L38.4268889,49.3745473 C39.8621944,49.5809855 41.3190045,49.5809855 42.75431,49.3745473 L51.200663,54.5363542 C51.3546732,54.6291393 51.5300898,54.6789968 51.7091731,54.6808848 C51.8868725,54.6837091 52.0621989,54.6392163 52.2176832,54.5518396 C52.5351919,54.3657806 52.7294751,54.0206563 52.7261933,53.6485234 L52.7261933,45.6270756 C62.2254504,47.7993849 69.2300338,55.9887122 70.0155371,65.8407112 C67.2421542,68.304116 64.1798016,70.4105766 60.8979508,72.1123065 L60.8979508,62.9449375 C60.8979508,62.3747801 60.4426153,61.9125762 59.8809306,61.9125762 C59.3192458,61.9125762 58.8639104,62.3747801 58.8639104,62.9449375 L58.8639104,73.087888 C54.9418128,74.8657872 50.7863991,76.0567994 46.527455,76.6237257 C45.9657703,76.6607859 45.5400317,77.1530331 45.5765412,77.7231905 C45.6130507,78.2933479 46.0979829,78.7255086 46.6596676,78.6884484 L46.7918803,78.6884484 C56.096549,77.4534256 64.8150144,73.388338 71.8004076,67.0279267 C72.0294731,66.8164312 72.1511403,66.510525 72.1309392,66.1968758 Z M30.4890461,51.8212438 L30.4890461,46.1432562 C32.0220319,47.2808445 33.7299914,48.1529386 35.5436366,48.7241597 L30.4890461,51.8212438 Z M45.673158,48.7241597 C47.4859655,48.1508326 49.1935964,47.2789063 50.7277485,46.1432562 L50.7277485,51.8212438 L45.673158,48.7241597 Z" id="Shape" stroke="#064658" stroke-width="0.5" fill="#064658"></path>
                            <circle id="Oval" fill="#064658" cx="5.2460443" cy="64.2640427" r="1.31151108"></circle>
                            <path d="M4.94758537,33.2392323 L4.94758537,61.9279351 C4.94758537,62.4938042 5.39865515,62.9525316 5.95507793,62.9525316 C6.51150071,62.9525316 6.9625705,62.4938042 6.9625705,61.9279351 L6.9625705,33.2392323 C6.95980112,32.0633933 6.02319629,31.110888 4.86698596,31.1080716 L2.0963814,31.1080716 L2.01578199,30.990243 L10.4233075,20.4061608 L10.5794688,20.4061608 L18.961807,30.990243 L19.7426137,30.3447472 L18.8912825,31.1080716 L16.0300036,31.1080716 C14.8726442,31.1080716 13.9344191,32.0622248 13.9344191,33.2392323 L13.9344191,47.5477229 C13.9344191,48.1135919 14.3854889,48.5723194 14.9419116,48.5723194 C15.4983344,48.5723194 15.9494042,48.1135919 15.9494042,47.5477229 L15.9494042,33.2392323 C15.9494042,33.1939628 15.9854898,33.1572646 16.0300036,33.1572646 L18.8912825,33.1572646 C19.6953312,33.1562076 20.4278896,32.6873851 20.7766988,31.9506365 C21.125508,31.2138878 21.0290567,30.3391361 20.5284579,29.6992513 L12.1410823,19.1305382 C11.7295593,18.6422078 11.128745,18.3611551 10.4963507,18.3611551 C9.86395639,18.3611551 9.26314208,18.6422078 8.85161907,19.1305382 L0.44913105,29.7402352 C-0.047568191,30.3806778 -0.140182527,31.253657 0.2107607,31.9871051 C0.561703927,32.7205533 1.29432654,33.185149 2.0963814,33.1828795 L4.86698596,33.1828795 C4.90327029,33.1810442 4.93627735,33.2041218 4.94758537,33.2392323 Z" id="Path" stroke="#064658" stroke-width="0.5" fill="#064658"></path>
                            <path d="M55.0834652,20.3485988 L54.8458557,17.9576132 C54.83472,17.9008854 54.8004613,17.8526663 54.7526755,17.8264621 C54.1106155,17.490636 53.7018305,16.7875863 53.6997395,16.0155679 L53.6997395,15.8945054 C53.6997395,15.8440627 53.6997395,15.7936199 53.6997395,15.7381329 C53.6862225,17.5698258 53.2608663,19.3703939 52.460443,20.9841772 L55.0834652,20.3485988 Z" id="Path" fill="#A2AAAA"></path>
                            <path d="M29.2143844,17.4355501 C29.1731695,17.4552352 29.1405213,17.4943704 29.1240992,17.5437747 L28.8532437,20.3006535 L31.4762658,20.9841772 C30.7600383,19.3610539 30.3450653,17.5714828 30.2597918,15.7381329 C30.1640346,16.474907 29.7735764,17.1088899 29.2143844,17.4355501 Z" id="Path" fill="#A2AAAA"></path>
                            <path d="M30.1647547,14.209456 C30.1647547,14.3372006 30.1647547,14.470055 30.1647547,14.5977996 C30.1647547,14.5977996 30.1647547,14.6284583 30.1647547,14.6437876 C30.1647547,14.4956039 30.1647547,14.35253 30.1647547,14.209456 Z" id="Path" fill="#A2AAAA"></path>
                            <path d="M53.7719541,15.7381329 L53.7719541,15.685612 C53.7644987,9.2876473 48.6262932,4.06848098 42.2056513,3.93706316 C35.7850094,3.80564535 30.4359707,8.81015857 30.1647547,15.2024194 L53.7508668,15.2024194 C53.7614105,15.3809906 53.7666823,15.5595617 53.7719541,15.7381329 Z" id="Path" fill="#A2AAAA"></path>
                            <path d="M30.1852965,15.1070298 C30.1637195,14.882239 30.1499944,14.6549293 30.144213,14.4266218 C30.144213,14.4266218 30.144213,14.4759268 30.144213,14.4956487 C30.144213,14.9098101 30.144213,15.3239715 30.144213,15.7381329 C30.1606224,15.5391479 30.1692058,15.3380728 30.1698902,15.1366128 L30.1852965,15.1070298 Z" id="Path" fill="#A2AAAA"></path>
                            <path d="M33.6283389,22.4906435 L33.7759498,22.6684075 C34.956837,24.0959063 37.123554,23.4710389 38.973962,23.4710389 L44.9996496,23.4710389 C46.8500576,23.4710389 48.5950292,23.51952 49.7811882,22.0920212 L49.9235272,21.9196439 C50.4573272,21.2832214 51.178772,20.8409144 51.9795361,20.6591356 L52.3960097,20.5675602 C53.2925496,18.8418114 53.7647746,16.9191122 53.7719541,14.9653006 C53.7719541,14.7821498 53.7719541,14.5989991 53.7719541,14.4266218 L30.1647547,14.4266218 C30.1647547,14.5774519 30.1647547,14.728282 30.1647547,14.8844988 C30.1706897,15.009217 30.1847793,15.1333901 30.2069293,15.2561872 L30.2069293,15.2561872 C30.2062267,15.3662393 30.1974154,15.4760812 30.1805702,15.5847813 C30.2751747,17.3185969 30.7355556,19.0110105 31.5301555,20.546013 L31.5881455,21.2301351 C32.3846379,21.4114735 33.101169,21.8541734 33.6283389,22.4906435 Z" id="Path" fill="#A2AAAA"></path>
                            <path d="M39.9878134,44.5913766 C30.3291761,44.5913766 27.5474886,33.2802062 27.1096304,31.0793902 C25.7554714,29.7097341 24.9748773,27.8805387 24.9254905,25.9612136 C24.8514856,24.7387055 25.3868558,23.5581261 26.3575445,22.8032986 C27.1763135,22.2524531 28.2174604,22.1430578 29.1340807,22.5115625 C29.6337195,22.7305463 29.8745893,23.2988383 29.6831438,23.8069853 C29.4916983,24.3151323 28.9344532,24.5865842 28.4129025,24.4257606 C28.1322439,24.2977066 27.8058383,24.3168964 27.5423373,24.4769423 C27.1379277,24.8542664 26.9340578,25.3975818 26.9911511,25.945859 C27.0270609,27.4007731 27.6531011,28.7795488 28.7271301,29.769137 L29.0207527,30.0148095 L29.0774167,30.3935545 C29.0774167,30.5112726 31.137926,42.5441059 40.0032672,42.5441059 C48.8686084,42.5441059 50.9136638,30.5163908 50.9291177,30.3935545 L50.9909329,30.0148095 L51.2794042,29.769137 C52.3534332,28.7795488 52.9794734,27.4007731 53.0153833,25.945859 C53.0724766,25.3975818 52.8686067,24.8542664 52.4641971,24.4769423 C52.2034602,24.3141348 51.8771173,24.2948344 51.5987832,24.4257606 C51.2491295,24.5790083 50.8428261,24.5273627 50.5432623,24.2915924 C50.2436986,24.0558221 50.1000981,23.6746682 50.1702077,23.3014066 C50.2403174,22.928145 50.5126169,22.624109 50.8776049,22.5115625 C51.790177,22.1433725 52.8273584,22.250838 53.6438386,22.7981804 C54.6181573,23.5501743 55.1544387,24.732763 55.0758926,25.9560954 C55.0309712,27.8753735 54.2517993,29.7055526 52.896904,31.074272 C52.4332894,33.2802062 49.6516019,44.5913766 39.9878134,44.5913766 Z" id="Path" stroke="#064658" stroke-width="0.5" fill="#064658"></path>
                            <path d="M44.8759943,6.55755538 C44.3088851,6.55755538 43.8491523,6.09738022 43.8491523,5.52972538 L43.8491523,2.68777544 C42.5726563,2.31609214 41.2551545,2.10377714 39.9266161,2.05565999 C38.6469674,2.09673678 37.3782446,2.30580233 36.1529719,2.67749714 L36.1529719,5.52972538 C36.1529719,6.09738022 35.6932391,6.55755538 35.1261299,6.55755538 C34.5590208,6.55755538 34.099288,6.09738022 34.099288,5.52972538 L34.099288,1.93232039 C34.1002503,1.49824723 34.373538,1.111574 34.7821379,0.966160197 C36.439426,0.38983686 38.1733332,0.0641999264 39.9266161,0 C41.720862,0.0721192403 43.4967414,0.39028678 45.2045837,0.945603597 C45.6228285,1.08700435 45.9039758,1.48016162 45.9028877,1.92204209 L45.9028877,5.51944708 C45.9055775,5.79382104 45.798604,6.05790189 45.6057359,6.25288615 C45.4128677,6.4478704 45.1501182,6.55755538 44.8759943,6.55755538 Z" id="Path" stroke="#064658" stroke-width="0.5" fill="#064658"></path>
                            <path d="M39.9107635,24.9187104 C37.579006,24.9244856 35.2494613,24.7744869 32.9377259,24.4695486 C32.7461818,24.4359698 32.5675975,24.3502587 32.4215869,24.2218289 L30.212512,22.2710365 L25.7324257,21.305962 C25.208603,21.1924454 24.858809,20.6969581 24.9272489,20.1654194 L25.4433879,16.2431914 C25.479638,15.9140674 25.6716027,15.6223129 25.9595268,15.4587458 L26.4756658,15.185222 C26.4756658,9.38961406 29.6808889,4.52295484 34.7338895,2.68570067 C35.2697942,2.49045884 35.8625229,2.76657323 36.057786,3.30241941 C36.2530491,3.8382656 35.9769046,4.43092953 35.4409999,4.62617136 C31.0022047,6.24151 28.3647345,10.5146742 28.5608673,15.7683954 C28.5745023,16.1647244 28.3598418,16.5338199 28.0085986,16.7179874 L27.404716,17.0379587 L27.0898712,19.4841903 L30.9041383,20.3099225 C31.0776973,20.3467361 31.2392118,20.4265971 31.3738247,20.5421597 L33.5467699,22.4671479 C35.6598587,22.726815 37.7869386,22.8560804 39.9159249,22.8542099 C42.0945123,22.850845 44.2710851,22.7216089 46.4347602,22.4671479 L48.6077053,20.5421597 C48.7410865,20.4277226 48.900642,20.3479535 49.0722304,20.3099225 L52.8864975,19.4841903 L52.5716527,17.0379587 L51.9677701,16.7179874 C51.6165269,16.5338199 51.4018664,16.1647244 51.4155014,15.7683954 C51.6116342,10.5146742 48.9793254,6.24151 44.5353688,4.62617136 C44.0155278,4.42136057 43.7530221,3.84015846 43.94307,3.31478931 C44.1331179,2.78942016 44.7067261,2.51060924 45.2373178,2.68570067 C50.2799956,4.52295484 53.4645731,9.39477488 53.4955415,15.185222 L54.0116805,15.4587458 C54.3115082,15.6148795 54.5158802,15.9079092 54.5587878,16.2431914 L55.0749268,20.1654194 C55.1433666,20.6969581 54.7935727,21.1924454 54.26975,21.305962 L49.7535339,22.2710365 L47.544459,24.2218289 C47.3981548,24.3498143 47.219701,24.4354627 47.02832,24.4695486 C44.6680336,24.7732225 42.2905047,24.9232025 39.9107635,24.9187104 L39.9107635,24.9187104 Z" id="Path" stroke="#064658" stroke-width="0.5" fill="#064658"></path>
                            <path d="M37.01319,28.8532437 L33.8084081,28.8532437 C33.244729,28.8532437 32.7877769,28.2660602 32.7877769,27.5417326 C32.7877769,26.817405 33.244729,26.2302215 33.8084081,26.2302215 L37.01319,26.2302215 C37.5768691,26.2302215 38.0338212,26.817405 38.0338212,27.5417326 C38.0338212,28.2660602 37.5768691,28.8532437 37.01319,28.8532437 L37.01319,28.8532437 Z" id="Path" stroke="#064658" stroke-width="0.5" fill="#064658"></path>
                            <path d="M46.1927737,28.8532437 L42.9899794,28.8532437 C42.4257515,28.8532437 41.9683544,28.2660602 41.9683544,27.5417326 C41.9683544,26.817405 42.4257515,26.2302215 42.9899794,26.2302215 L46.1927737,26.2302215 C46.7570016,26.2302215 47.2143987,26.817405 47.2143987,27.5417326 C47.2143987,28.2660602 46.7570016,28.8532437 46.1927737,28.8532437 Z" id="Path" stroke="#064658" stroke-width="0.5" fill="#064658"></path>
                            <path d="M40.0843431,38.0336829 C38.5493028,38.0422614 37.0532039,37.6514593 35.8261125,36.921373 C35.3601708,36.6374865 35.2731879,36.1083634 35.6318307,35.7395437 C35.9904734,35.3707239 36.6589312,35.3018719 37.1248728,35.5857584 C38.8287735,36.5842764 41.1467985,36.6130783 42.8894526,35.6573844 C43.2017996,35.4725771 43.6168031,35.4377428 43.9711684,35.566588 C44.3255338,35.6954333 44.5625391,35.9673343 44.5889281,36.2753041 C44.6153171,36.5832739 44.4268658,36.878017 44.0977255,37.0435585 C42.9186371,37.6895891 41.5183404,38.0350503 40.0843431,38.0336829 L40.0843431,38.0336829 Z" id="Path" stroke="#064658" stroke-width="0.5" fill="#064658"></path>
                            <path d="M39.6236427,19.670594 C36.6722442,19.7099999 33.7341173,19.1871356 30.9171679,18.1212038 C30.5551228,18.0090133 30.2749313,17.6621541 30.1905967,17.2217552 C30.1062621,16.7813563 30.2318397,16.3208144 30.5162348,16.0275135 C30.80063,15.7342126 31.1964454,15.657034 31.5426331,15.82738 C34.1585224,16.8081853 36.8851413,17.2880817 39.6236427,17.2496718 C42.21766,17.2788733 44.8014627,16.8527932 47.2943472,15.9847399 C47.8086298,15.8374312 48.3289582,16.1992287 48.4825228,16.8109086 C48.6360873,17.4225885 48.3699429,18.0732584 47.8747789,18.2967207 C45.1942586,19.2375111 42.4146191,19.700341 39.6236427,19.670594 Z" id="Path" stroke="#064658" stroke-width="0.5" fill="#064658"></path>
                            <path d="M40.0035467,7.86906646 L38.2973269,11.147843 C37.9457275,11.8246464 37.9460035,12.6585754 38.2980509,13.3350911 C38.6500982,14.0116069 39.3003501,14.4277723 40.0035467,14.4266218 L40.0035467,14.4266218 C40.7058649,14.4258193 41.3545068,14.0088824 41.7053541,13.3327241 C42.0562014,12.6565658 42.0560091,11.8238009 41.7048494,11.147843 L40.0035467,7.86906646 Z" id="Path" fill="#064658"></path>
                        </g>
                    </g>
                </g>
            </g>
        </g>
    </g>
</svg>