<?xml version="1.0" encoding="UTF-8"?>
<svg width="84px" height="65px" viewBox="0 0 84 65" version="1.1" xmlns="http://www.w3.org/2000/svg" xmlns:xlink="http://www.w3.org/1999/xlink">
    <!-- Generator: sketchtool 52.4 (67378) - http://www.bohemiancoding.com/sketch -->
    <title>1E319612-A65A-455B-B741-505FD23B116A</title>
    <desc>Created with sketchtool.</desc>
    <g id="Website" stroke="none" stroke-width="1" fill="none" fill-rule="evenodd">
        <g id="Audience-/-Contractor" transform="translate(-676.000000, -689.000000)">
            <g id="Hero" transform="translate(0.000000, 80.000000)">
                <g id="2" transform="translate(535.000000, 549.000000)">
                    <g id="Icon-/-money" transform="translate(141.000000, 50.000000)">
                        <rect id="Background" x="0" y="0" width="84" height="84"></rect>
                        <g id="money" transform="translate(0.000000, 10.500000)">
                            <path d="M82.166,43.666 L1.82,43.666 C1.38068027,43.6660642 0.959748408,43.4896514 0.651746099,43.1763841 C0.343743791,42.8631168 0.174490256,42.4392555 0.182,42 L0.182,1.862 C0.182,0.95735758 0.91535758,0.224 1.82,0.224 L82.166,0.224 C83.0706424,0.224 83.804,0.95735758 83.804,1.862 L83.804,42 C83.8115097,42.4392555 83.6422562,42.8631168 83.3342539,43.1763841 C83.0262516,43.4896514 82.6053197,43.6660642 82.166,43.666 Z M3.458,40.39 L80.528,40.39 L80.528,3.5 L3.528,3.5 L3.458,40.39 Z" id="Shape" fill="#064658" fill-rule="nonzero"></path>
                            <path d="M82.166,53.508 L1.82,53.508 C0.91535758,53.508 0.182,52.7746424 0.182,51.87 C0.182,50.9653576 0.91535758,50.232 1.82,50.232 L82.166,50.232 C83.0706424,50.232 83.804,50.9653576 83.804,51.87 C83.804,52.7746424 83.0706424,53.508 82.166,53.508 Z" id="Path" fill="#064658"></path>
                            <path d="M82.166,63.77 L1.82,63.77 C0.91535758,63.77 0.182,63.0366424 0.182,62.132 C0.182,61.2273576 0.91535758,60.494 1.82,60.494 L82.166,60.494 C83.0706424,60.494 83.804,61.2273576 83.804,62.132 C83.804,63.0366424 83.0706424,63.77 82.166,63.77 Z" id="Path" fill="#064658"></path>
                            <path d="M1.82,15.302 C0.918527625,15.2943922 0.189607767,14.5654724 0.182,13.664 L0.182,1.862 C0.182,0.95735758 0.91535758,0.224 1.82,0.224 L13.622,0.224 C14.5266424,0.224 15.26,0.95735758 15.26,1.862 C15.2522834,9.28150837 9.23950837,15.2942834 1.82,15.302 Z M3.458,3.5 L3.458,11.9 C7.7710953,11.1939257 11.1519257,7.8130953 11.858,3.5 L3.458,3.5 Z" id="Shape" fill="#064658" fill-rule="nonzero"></path>
                            <path d="M82.166,15.302 C74.7496823,15.2865974 68.7414026,9.27831771 68.726,1.862 C68.726,0.95735758 69.4593576,0.224 70.364,0.224 L82.166,0.224 C83.0706424,0.224 83.804,0.95735758 83.804,1.862 L83.804,13.664 C83.804,14.5686424 83.0706424,15.302 82.166,15.302 Z M72.142,3.5 C72.8480743,7.8130953 76.2289047,11.1939257 80.542,11.9 L80.542,3.5 L72.142,3.5 Z" id="Shape" fill="#064658" fill-rule="nonzero"></path>
                            <path d="M82.166,43.666 L70.364,43.666 C69.9246803,43.6660642 69.5037484,43.4896514 69.1957461,43.1763841 C68.8877438,42.8631168 68.7184903,42.4392555 68.726,42 C68.7414026,34.5836823 74.7496823,28.5754026 82.166,28.56 C83.0706424,28.56 83.804,29.2933576 83.804,30.198 L83.804,42 C83.8115097,42.4392555 83.6422562,42.8631168 83.3342539,43.1763841 C83.0262516,43.4896514 82.6053197,43.6660642 82.166,43.666 Z M72.142,40.39 L80.542,40.39 L80.542,31.99 C76.2330345,32.7041182 72.8561182,36.0810345 72.142,40.39 Z" id="Shape" fill="#064658" fill-rule="nonzero"></path>
                            <path d="M13.622,43.666 L1.82,43.666 C1.38068027,43.6660642 0.959748408,43.4896514 0.651746099,43.1763841 C0.343743791,42.8631168 0.174490256,42.4392555 0.182,42 L0.182,30.226 C0.189607767,29.3245276 0.918527625,28.5956078 1.82,28.588 C9.22860346,28.5956732 15.2368762,34.5914287 15.26,42 C15.2675097,42.4392555 15.0982562,42.8631168 14.7902539,43.1763841 C14.4822516,43.4896514 14.0613197,43.6660642 13.622,43.666 Z M3.458,40.39 L11.858,40.39 C11.1438818,36.0810345 7.76696545,32.7041182 3.458,31.99 L3.458,40.39 Z" id="Shape" fill="#064658" fill-rule="nonzero"></path>
                            <path d="M51.996,43.666 L32.004,43.666 C31.7516316,43.6668299 31.5024844,43.6093344 31.276,43.498 C23.0922767,39.4325153 17.9170326,31.0829151 17.9170326,21.945 C17.9170326,12.8070849 23.0922767,4.45748469 31.276,0.392 C31.5024844,0.280665571 31.7516316,0.223170067 32.004,0.224 L51.996,0.224 C52.2483684,0.223170067 52.4975156,0.280665571 52.724,0.392 C60.9077233,4.45748469 66.0829674,12.8070849 66.0829674,21.945 C66.0829674,31.0829151 60.9077233,39.4325153 52.724,43.498 C52.4975156,43.6093344 52.2483684,43.6668299 51.996,43.666 Z M32.396,40.39 L51.604,40.39 C58.4849452,36.8116922 62.8020203,29.7007523 62.8020203,21.945 C62.8020203,14.1892477 58.4849452,7.07830779 51.604,3.5 L32.396,3.5 C25.5150548,7.07830779 21.1979797,14.1892477 21.1979797,21.945 C21.1979797,29.7007523 25.5150548,36.8116922 32.396,40.39 Z" id="Shape" fill="#064658" fill-rule="nonzero"></path>
                            <path d="M48.692,20.538 L52.22,17.15 L49,14 L46.2,16.702 C44.38811,14.0854556 43.025407,11.1849801 42.168,8.12 C41.3045194,11.1827183 39.9422718,14.0822245 38.136,16.702 L35.336,14 L32.046,17.136 L35.588,20.524 C35.4189886,20.8268821 35.2693549,21.1401775 35.14,21.462 L30.058,21.462 L30.058,25.914 L35,25.914 C35.1243333,26.2538448 35.2692688,26.5857938 35.434,26.908 L31.934,30.24 L35.224,33.39 L38.696,30.072 C39.0396578,30.2384262 39.3953237,30.3788206 39.76,30.492 L39.76,35.182 L44.408,35.182 L44.408,30.492 C44.7667985,30.3750858 45.11755,30.2347853 45.458,30.072 L49,33.39 L52.22,30.24 L48.748,26.922 C48.9229491,26.6028181 49.0727366,26.2704769 49.196,25.928 L54.096,25.928 L54.096,21.476 L49.14,21.476 C49.0106451,21.1541775 48.8610114,20.8408821 48.692,20.538 Z M42.084,27.664 C40.3605426,27.5882156 39.0186641,26.140235 39.074,24.416 C39.074,23.59 39.48,22.862 40.656,21.014 C41.09,20.314 41.58,19.544 42.056,18.648 C42.56,19.544 43.05,20.314 43.456,21.014 C44.618,22.862 45.038,23.59 45.038,24.416 C45.094274,26.1195722 43.7852563,27.5588713 42.084,27.664 Z" id="Shape" fill="#24A5C2"></path>
                        </g>
                    </g>
                </g>
            </g>
        </g>
    </g>
</svg>