<?xml version="1.0" encoding="UTF-8"?>
<svg width="85px" height="76px" viewBox="0 0 85 76" version="1.1" xmlns="http://www.w3.org/2000/svg" xmlns:xlink="http://www.w3.org/1999/xlink">
    <!-- Generator: sketchtool 52.5 (67469) - http://www.bohemiancoding.com/sketch -->
    <title>D4FB2A9A-7B21-4D44-BD59-AA0DE0BF06AE</title>
    <desc>Created with sketchtool.</desc>
    <g id="Website" stroke="none" stroke-width="1" fill="none" fill-rule="evenodd">
        <g id="Careers" transform="translate(-433.000000, -2547.000000)">
            <g id="Benefits" transform="translate(0.000000, 2066.000000)">
                <g id="Bottom" transform="translate(135.000000, 476.000000)">
                    <g id="6" transform="translate(241.000000, 0.000000)">
                        <g id="Careers-/-icon-benefits-gym" transform="translate(57.000000, 0.000000)">
                            <rect id="Background" x="0" y="0" width="85" height="85.1"></rect>
                            <g id="benefits-gym" transform="translate(0.000000, 4.558929)">
                                <path d="M84.8016667,61.9669833 C84.8016667,61.1869 84.8866667,55.7263167 84.8016667,14.2400667 L84.8016667,13.9564 C84.7791086,7.29299339 79.5763598,1.80020718 72.9313418,1.42434076 C66.2863238,1.04847434 60.4987309,5.91960678 59.7266667,12.5380667 L55.7741667,12.5380667 C55.3475948,12.5217845 54.9364321,12.6989488 54.655,13.0203 C54.4118024,13.3042574 54.2807882,13.6674926 54.2866667,14.0415 C54.2632105,14.4321805 54.4020453,14.8152002 54.6703066,15.0998916 C54.9385678,15.384583 55.3124083,15.5456385 55.7033333,15.5449333 L59.6275,15.5449333 C59.6275,28.3099333 59.6275,37.5858333 59.6275,44.252 C59.6275,59.8536667 59.6275,61.5131167 59.7125,61.82515 C59.2645006,65.984611 60.9039755,70.0960883 64.09,72.80305 L3.1025,72.80305 L3.1025,70.25005 L54.57,70.25005 C55.3468311,70.1745979 55.9394635,69.5209214 55.9394635,68.739525 C55.9394635,67.9581286 55.3468311,67.3044521 54.57,67.229 L3.1025,67.229 L3.1025,15.5165667 L6.205,15.5165667 C7.0343476,15.5165667 7.70666667,14.8434566 7.70666667,14.0131333 C7.70666667,13.18281 7.0343476,12.5097 6.205,12.5097 L1.58666667,12.5097 C0.760523467,12.5173946 0.0926855503,13.1860182 0.085,14.0131333 L0.085,74.2781167 C0.0849636786,75.1107654 0.75503272,75.7879516 1.58666667,75.7957333 L31.9741667,75.7957333 C72.0375,75.7957333 72.1366667,75.7957333 72.1225,75.7957333 L72.25,75.7957333 C79.1977422,75.7957333 84.83,70.1568493 84.83,63.2009333 C84.8515003,62.7993605 84.8515003,62.3969229 84.83,61.99535 L84.8016667,61.9669833 Z M72.25,53.5846333 C77.539047,53.5846333 81.8266667,57.8772973 81.8266667,63.1725667 C81.8266667,68.467836 77.539047,72.7605 72.25,72.7605 C66.960953,72.7605 62.6733333,68.467836 62.6733333,63.1725667 C62.6733333,57.8772973 66.960953,53.5846333 72.25,53.5846333 Z M72.25,50.5777667 C68.5606227,50.5596442 65.0531548,52.1803801 62.6733333,55.0029667 L62.6733333,13.9564 C62.6733333,8.66113064 66.960953,4.36846667 72.25,4.36846667 C77.539047,4.36846667 81.8266667,8.66113064 81.8266667,13.9564 L81.8266667,55.0029667 C79.4468452,52.1803801 75.9393773,50.5596442 72.25,50.5777667 Z" id="Shape" fill="#064658" fill-rule="nonzero"></path>
                                <path d="M72.25,69.1579333 C75.5517423,69.1579333 78.2283333,66.4781934 78.2283333,63.1725667 C78.2283333,59.8669399 75.5517423,57.1872 72.25,57.1872 C68.9482577,57.1872 66.2716667,59.8669399 66.2716667,63.1725667 C66.2716667,66.4781934 68.9482577,69.1579333 72.25,69.1579333 Z M68.9775,63.1725667 C68.9775,61.3630885 70.4426482,59.8962167 72.25,59.8962167 C74.0573518,59.8962167 75.5225,61.3630885 75.5225,63.1725667 C75.5225,64.9820448 74.0573518,66.4489167 72.25,66.4489167 C70.4537228,66.4333456 69.005766,64.9710246 69.0058333,63.1725667 L68.9775,63.1725667 Z" id="Shape" fill="#064658" fill-rule="nonzero"></path>
                                <path d="M65.365,13.8571167 L65.365,30.3097833 C65.4403635,31.0875283 66.0932718,31.680858 66.87375,31.680858 C67.6542282,31.680858 68.3071365,31.0875283 68.3825,30.3097833 L68.3825,13.8571167 C68.3071365,13.0793717 67.6542282,12.486042 66.87375,12.486042 C66.0932718,12.486042 65.4403635,13.0793717 65.365,13.8571167 Z" id="Path" fill="#064658"></path>
                                <path d="M15.725,46.805 C21.265191,54.2016952 31.2981267,56.5697341 39.5549435,52.4294987 C47.8117603,48.2892632 51.9265746,38.8270842 49.3283333,29.9552 C51.8386493,27.0638542 53.2440838,23.3752735 53.295,19.5446333 C53.295,10.5382167 46.7641667,0.921916667 37.0316667,0.921916667 L25.1175,0.921916667 C19.0966667,0.921916667 13.5716667,4.82233333 10.6675,11.10555 C7.59896847,17.3098566 8.41184089,24.7339678 12.75,30.1254 C11.0492724,35.843329 12.1526996,42.0297909 15.725,46.805 Z M46.75,28.3666667 C45.9283333,28.97655 46.0983333,29.57225 46.3816667,30.4658 C48.288817,36.4923878 46.492808,43.0786253 41.791433,47.2988837 C37.090058,51.5191422 30.3553105,52.5906636 24.5787879,50.0374748 C18.8022654,47.4842859 15.0553758,41.7799426 15.0025,35.4583333 C14.987504,33.8910443 15.2169317,32.3310146 15.6825,30.8345667 C15.98,29.82755 16.1925,29.1042 15.3566667,28.4943167 L15.0875,28.1681 C12.9837369,25.7739665 11.8295386,22.6908015 11.8433333,19.5020833 C11.8433333,11.95655 17.1841667,3.90041667 25.1175,3.90041667 L37.0316667,3.90041667 C44.965,3.90041667 50.2916667,11.9707333 50.2916667,19.5020833 C50.2326766,22.7909493 48.9728012,25.9443435 46.75,28.3666667 Z" id="Shape" fill="#064658" fill-rule="nonzero"></path>
                                <path d="M36.72,6.90728333 L25.3866667,6.90728333 C21.675,6.90728333 18.4591667,9.20498333 16.5608333,13.23305 C14.6625,17.2611167 14.5775,22.2394667 16.5608333,24.5797167 C16.6182991,24.6793454 16.6898755,24.7701155 16.7733333,24.8492 C17.0548915,25.0978134 17.4179207,25.2341095 17.7933333,25.23215 C18.2150093,25.2441364 18.6200849,25.0673572 18.8983333,24.7499167 C22.0666042,21.3431509 26.5174234,19.4238568 31.1666667,19.4595333 C35.7457548,19.4204342 40.1305876,21.3092113 43.2508333,24.6648167 C43.5681015,25.012045 44.0294623,25.1905078 44.4975,25.14705 C45.0403761,25.0915755 45.5319648,24.801456 45.8433333,24.3527833 C47.6425,21.4452 47.345,16.4526667 45.135,12.4387833 C43.5767216,9.17080849 40.3345996,7.03963817 36.72,6.90728333 Z M43.8883333,21.0906167 C36.5146832,14.8949685 25.7619835,14.8949685 18.3883333,21.0906167 C17.9101915,18.1615168 18.6245591,15.1627516 20.3716667,12.765 C21.506065,11.0697601 23.3787771,10.0164369 25.415,9.92833333 L36.7483333,9.92833333 C38.7699687,10.027458 40.6251182,11.0797708 41.7491667,12.765 C43.525636,15.1523873 44.3031232,18.1388052 43.9166667,21.0906167 L43.8883333,21.0906167 Z" id="Shape" fill="#064658" fill-rule="nonzero"></path>
                                <path d="M36.8333333,34.04 L39.8366667,31.2033333 L37.0033333,28.5226833 L34.595,30.8203833 C33.064149,28.5897316 31.9106602,26.1219075 31.1808333,23.5159667 C30.4471173,26.1229853 29.2887825,28.5909367 27.7525,30.8203833 L25.3441667,28.5226833 L22.6666667,31.2033333 L25.67,34.04 C25.5283359,34.2976813 25.4006507,34.5628216 25.2875,34.8342667 L21.0375,34.8342667 L21.0375,38.6212167 L25.2875,38.6212167 C25.3868738,38.9144723 25.5100631,39.1990898 25.6558333,39.4722167 L22.7091667,42.3088833 L25.5425,44.9895333 L28.5033333,42.1528667 C28.7911692,42.2941211 29.0895748,42.4126754 29.3958333,42.50745 L29.3958333,46.4929667 L33.3483333,46.4929667 L33.3483333,42.55 C33.6545919,42.4552254 33.9529975,42.3366711 34.2408333,42.1954167 L37.2016667,45.0320833 L40.035,42.3514333 L37.0883333,39.5147667 C37.2341035,39.2416398 37.3572928,38.9570223 37.4566667,38.6637667 L41.7066667,38.6637667 L41.7066667,34.8200833 L37.4566667,34.8200833 C37.2649497,34.5475897 37.0567842,34.2870767 36.8333333,34.04 Z M31.1666667,40.1104667 C30.4485723,40.0812648 29.772351,39.7642647 29.2901049,39.2307692 C28.8078588,38.6972737 28.5600796,37.9920775 28.6025,37.2738 C28.6025,36.5646333 28.9566667,35.9405667 30.0191667,34.3662167 C30.3875,33.7705167 30.7983333,33.1180833 31.2375,32.3663667 C31.6625,33.1180833 32.0733333,33.7847 32.4416667,34.3662167 C33.4333333,35.9405667 33.8583333,36.5646333 33.8583333,37.2738 C33.8968672,37.999242 33.6396645,38.709278 33.1456128,39.2413425 C32.6515612,39.7734071 31.9629718,40.0819335 31.2375,40.0962833 L31.1666667,40.1104667 Z" id="Shape" fill="#24A5C2"></path>
                            </g>
                        </g>
                    </g>
                </g>
            </g>
        </g>
    </g>
</svg>