<?xml version="1.0" encoding="UTF-8"?>
<svg width="85px" height="81px" viewBox="0 0 85 81" version="1.1" xmlns="http://www.w3.org/2000/svg" xmlns:xlink="http://www.w3.org/1999/xlink">
    <!-- Generator: sketchtool 52.5 (67469) - http://www.bohemiancoding.com/sketch -->
    <title>408FF821-5CB9-4644-9BB3-0EA487690CE0</title>
    <desc>Created with sketchtool.</desc>
    <g id="Website" stroke="none" stroke-width="1" fill="none" fill-rule="evenodd">
        <g id="Careers" transform="translate(-435.000000, -2298.000000)">
            <g id="Benefits" transform="translate(0.000000, 2066.000000)">
                <g id="Top" transform="translate(135.000000, 230.000000)">
                    <g id="2" transform="translate(242.000000, 0.000000)">
                        <g id="Careers-/-icon-benefits-unlimited-vaca" transform="translate(58.000000, 0.000000)">
                            <rect id="Background" x="0" y="0" width="85" height="85.1"></rect>
                            <g id="benefits-unlimited-vacation" transform="translate(0.000000, 1.519643)">
                                <path d="M18.0483333,32.21035 L20.06,30.2956 L18.19,28.4943167 L16.575,30.0403 C15.5540852,28.5441976 14.783697,26.8914236 14.2941667,25.14705 C13.8007341,26.8924896 13.0255027,28.5453877 11.9991667,30.0403 L10.3841667,28.4943167 L8.5,30.2956 L10.5116667,32.21035 C10.4151708,32.3843245 10.3299936,32.5643545 10.2566667,32.7493167 L7.42333333,32.7493167 L7.42333333,35.2881333 L10.2566667,35.2881333 C10.3270867,35.4834802 10.4123356,35.6731451 10.5116667,35.8554667 L8.5,37.74185 L10.37,39.52895 L12.3533333,37.6425667 C12.5443693,37.7399258 12.7434412,37.8205973 12.9483333,37.8836833 L12.9483333,40.55015 L15.5833333,40.55015 L15.5833333,37.8836833 C15.7882254,37.8205973 15.9872974,37.7399258 16.1783333,37.6425667 L18.1616667,39.52895 L20.0316667,37.74185 L18.0483333,35.8554667 C18.1476644,35.6731451 18.2329133,35.4834802 18.3033333,35.2881333 L21.1366667,35.2881333 L21.1366667,32.7493167 L18.3033333,32.7493167 C18.2300064,32.5643545 18.1448292,32.3843245 18.0483333,32.21035 Z M14.2941667,36.2809667 C13.8206262,36.2625271 13.3738459,36.0563173 13.0522996,35.7077874 C12.7307534,35.3592575 12.5608365,34.8970179 12.58,34.42295 C12.58,33.9549 12.8066667,33.5435833 13.4725,32.4798333 C13.7275,32.0827 13.9966667,31.6430167 14.2941667,31.1466 C14.5775,31.6430167 14.8466667,32.0827 15.1016667,32.4798333 C15.7675,33.5435833 15.9941667,33.8981667 15.9941667,34.42295 C16.0341956,35.4049251 15.2747293,36.2349845 14.2941667,36.2809667 Z" id="Shape" fill="#24A5C2"></path>
                                <path d="M42.8966667,72.7746833 L18.3316667,72.7746833 C18.0483333,72.7746833 17.3966667,72.7746833 15.8808333,72.7746833 L2.83333333,72.7746833 L2.83333333,22.9202667 L70.4225,22.9202667 L70.4225,36.6071833 C70.6065567,37.2004994 71.1548734,37.6048308 71.7754167,37.6048308 C72.3959599,37.6048308 72.9442766,37.2004994 73.1283333,36.6071833 L73.1283333,9.7865 C73.1292783,9.03005533 72.5371114,8.40598834 71.7825,8.36816667 L51.4391667,8.36816667 L51.4391667,6.41086667 C51.3630083,5.31583775 51.9033369,4.26973637 52.8398818,3.6990169 C53.7764267,3.12829743 54.9527399,3.12829743 55.8892848,3.6990169 C56.8258297,4.26973637 57.3661584,5.31583775 57.29,6.41086667 C57.4740567,7.0041827 58.0223734,7.40851411 58.6429167,7.40851411 C59.2634599,7.40851411 59.8117766,7.0041827 59.9958333,6.41086667 C59.9958333,3.27757119 57.4587802,0.737533333 54.3291667,0.737533333 C51.1995531,0.737533333 48.6625,3.27757119 48.6625,6.41086667 L48.6625,8.4249 L19.8333333,8.4249 L19.8333333,6.41086667 C19.757175,5.31583775 20.2975036,4.26973637 21.2340485,3.6990169 C22.1705934,3.12829743 23.3469066,3.12829743 24.2834515,3.6990169 C25.2199964,4.26973637 25.760325,5.31583775 25.6841667,6.41086667 C25.6841667,7.19419054 26.3184299,7.8292 27.1008333,7.8292 C27.5126087,7.84067463 27.9040167,7.65003591 28.1491667,7.3186 C28.3804377,6.97104477 28.4946114,6.55854197 28.475,6.14138333 C28.2877327,3.14735389 25.8046965,0.816768791 22.8083333,0.822633333 C19.6787198,0.822633333 17.1416667,3.36267119 17.1416667,6.49596667 L17.1416667,8.4249 L1.55833333,8.4249 C0.80372197,8.46272167 0.211554993,9.08678866 0.2125,9.84323333 C0.2125,27.9269833 0.2125,49.1310667 0.2125,62.3215667 L0.2125,74.1788333 C0.2125,74.9621572 0.846763271,75.5971667 1.62916667,75.5971667 L8.2875,75.5971667 C17.0991667,75.5971667 18.4025,75.5971667 18.6291667,75.5971667 L42.8966667,75.5971667 C43.4784601,75.7780738 44.1106289,75.5663358 44.4665695,75.0713449 C44.82251,74.576354 44.82251,73.9089627 44.4665695,73.4139718 C44.1106289,72.9189809 43.4784601,72.7072428 42.8966667,72.88815 L42.8966667,72.7746833 Z M17.17,14.4953667 L12.0416667,14.4953667 C11.4598732,14.3144595 10.8277044,14.5261975 10.4717639,15.0211884 C10.1158233,15.5161793 10.1158233,16.1835707 10.4717639,16.6785616 C10.8277044,17.1735525 11.4598732,17.3852905 12.0416667,17.2043833 L25.1741667,17.2043833 C25.5603689,17.2210083 25.9340163,17.0651387 26.1941667,16.7788833 C26.411704,16.5162444 26.5273859,16.1838969 26.52,15.8427833 C26.5319593,15.4818887 26.3940106,15.1321672 26.1389792,14.8768357 C25.8839478,14.6215043 25.5346372,14.4833933 25.1741667,14.4953667 L19.8333333,14.4953667 L19.8333333,11.1339167 L48.7191667,11.1339167 L48.7191667,14.4953667 L44.03,14.4953667 C43.6479538,14.4790125 43.2787478,14.6351986 43.0241667,14.9208667 C42.8047171,15.1777862 42.6841407,15.5047314 42.6841667,15.8427833 C42.6560329,16.2144646 42.7862853,16.5807118 43.042713,16.8509532 C43.2991406,17.1211946 43.6578015,17.2701985 44.03,17.2611167 L57.1625,17.2611167 C57.7551188,17.0768434 58.1589751,16.5278817 58.1589751,15.9066083 C58.1589751,15.285335 57.7551188,14.7363733 57.1625,14.5521 L51.4958333,14.5521 L51.4958333,11.1339167 L70.4791667,11.1339167 L70.4791667,20.21125 L2.83333333,20.21125 L2.83333333,11.1339167 L17.17,11.1339167 L17.17,14.4953667 Z" id="Shape" fill="#064658" fill-rule="nonzero"></path>
                                <path d="M63.6366667,38.67795 C51.9006157,38.67795 42.3866667,48.2030919 42.3866667,59.95295 C42.3866667,71.7028081 51.9006157,81.22795 63.6366667,81.22795 C75.3727176,81.22795 84.8866667,71.7028081 84.8866667,59.95295 C84.8866667,48.2030919 75.3727176,38.67795 63.6366667,38.67795 Z M82.1666667,59.9104 C82.1666547,70.1369145 73.8889261,78.4285969 63.67443,78.4338092 C53.4599339,78.4390215 45.1737673,70.1557913 45.163343,59.9292822 C45.1529187,49.702773 53.4221812,41.4026275 63.6366667,41.3869667 C73.8594484,41.3869547 82.1510355,49.6756034 82.1666667,59.9104 Z" id="Shape" fill="#064658" fill-rule="nonzero"></path>
                                <path d="M63.6366667,43.8265 C54.77068,43.8421138 47.5872621,51.0339828 47.5716667,59.9104 C47.7557234,60.503716 48.3040401,60.9080474 48.9245833,60.9080474 C49.5451266,60.9080474 50.0934433,60.503716 50.2775,59.9104 C50.2853082,52.5268964 56.2618393,46.543334 63.6366667,46.5355167 C69.0313704,46.5469945 73.8909258,49.8024896 75.9594385,54.7907417 C78.0279511,59.7789939 76.9003153,65.5230838 73.1,69.3565 C72.7448383,69.6712591 72.6016035,70.1621397 72.7316667,70.6188167 C72.8601533,71.1200102 73.251062,71.5113789 73.7516667,71.6400167 L74.0775,71.6400167 C74.4317265,71.6343447 74.7687453,71.4860865 75.0125,71.2287 C79.5806286,66.6260343 80.9422028,59.7275633 78.4660268,53.7312664 C75.9898508,47.7349695 70.16004,43.8131787 63.6791667,43.78395 L63.6366667,43.8265 Z" id="Path" fill="#064658"></path>
                                <path d="M53.5925,28.4943167 C52.8378886,28.5321383 52.2457217,29.1562053 52.2466667,29.91265 L52.2466667,37.0043167 C52.2822433,37.7332112 52.864462,38.3161149 53.5925,38.3517333 L60.6758333,38.3517333 C61.4313891,38.3526795 62.0547228,37.7598158 62.0925,37.0043167 L62.0925,29.91265 C62.0925,29.1293261 61.4582367,28.4943167 60.6758333,28.4943167 L53.5925,28.4943167 Z M55.0091667,35.5859833 L55.0091667,31.2033333 L59.4433333,31.2033333 L59.4433333,35.6427167 L55.0091667,35.5859833 Z" id="Shape" fill="#064658" fill-rule="nonzero"></path>
                                <path d="M47.7416667,37.0043167 L47.7416667,29.91265 C47.7416667,29.1293261 47.1074034,28.4943167 46.325,28.4943167 L39.2416667,28.4943167 C38.4592633,28.4943167 37.825,29.1293261 37.825,29.91265 L37.825,37.0043167 C37.8627772,37.7598158 38.4861109,38.3526795 39.2416667,38.3517333 L46.325,38.3517333 C47.0805558,38.3526795 47.7038894,37.7598158 47.7416667,37.0043167 Z M45.0358333,31.2033333 L45.0358333,35.6427167 L40.6016667,35.6427167 L40.6016667,31.2033333 L45.0358333,31.2033333 Z" id="Shape" fill="#064658" fill-rule="nonzero"></path>
                                <path d="M24.905,38.295 L31.9883333,38.295 C32.7438891,38.2959461 33.3672228,37.7030825 33.405,36.9475833 L33.405,29.8559167 C33.405,29.0725928 32.7707367,28.4375833 31.9883333,28.4375833 L24.905,28.4375833 C24.1503886,28.475405 23.5582217,29.099472 23.5591667,29.8559167 L23.5591667,36.9475833 C23.5947433,37.6764779 24.176962,38.2593815 24.905,38.295 Z M26.3216667,35.5859833 L26.3216667,31.2033333 L30.7558333,31.2033333 L30.7558333,35.6427167 L26.3216667,35.5859833 Z" id="Shape" fill="#064658" fill-rule="nonzero"></path>
                                <path d="M17.8216667,56.9319 L10.7383333,56.9319 C9.95592994,56.9319 9.32166667,57.5669095 9.32166667,58.3502333 L9.32166667,65.4419 C9.32166667,66.2252239 9.95592994,66.8602333 10.7383333,66.8602333 L17.8216667,66.8602333 C18.6040701,66.8602333 19.2383333,66.2252239 19.2383333,65.4419 L19.2383333,58.3502333 C19.2383333,57.5669095 18.6040701,56.9319 17.8216667,56.9319 Z M16.4758333,59.6551 L16.4758333,64.0803 L12.0416667,64.0803 L12.0416667,59.6551 L16.4758333,59.6551 Z" id="Shape" fill="#064658" fill-rule="nonzero"></path>
                                <path d="M19.4366667,44.20945 C19.4366667,43.4261261 18.8024034,42.7911167 18.02,42.7911167 L10.9366667,42.7911167 C10.1542633,42.7911167 9.52,43.4261261 9.52,44.20945 L9.52,51.3011167 C9.52,52.0844405 10.1542633,52.71945 10.9366667,52.71945 L18.02,52.71945 C18.8024034,52.71945 19.4366667,52.0844405 19.4366667,51.3011167 L19.4366667,44.20945 Z M16.7308333,45.6277833 L16.7308333,50.0671667 L12.2966667,50.0671667 L12.2966667,45.57105 L16.7308333,45.6277833 Z" id="Shape" fill="#064658" fill-rule="nonzero"></path>
                                <path d="M25.1316667,52.71945 L32.215,52.71945 C32.9974034,52.71945 33.6316667,52.0844405 33.6316667,51.3011167 L33.6316667,44.20945 C33.6316667,43.4261261 32.9974034,42.7911167 32.215,42.7911167 L25.1316667,42.7911167 C24.3770553,42.8289383 23.7848883,43.4530053 23.7858333,44.20945 L23.7858333,51.3011167 C23.7848883,52.0575613 24.3770553,52.6816283 25.1316667,52.71945 Z M26.5483333,50.0104333 L26.5483333,45.57105 L30.9825,45.57105 L30.9825,50.0104333 L26.5483333,50.0104333 Z" id="Shape" fill="#064658" fill-rule="nonzero"></path>
                                <path d="M25.1741667,66.7751333 L32.3283333,66.7751333 C33.0829447,66.7373117 33.6751117,66.1132447 33.6741667,65.3568 L33.6741667,58.2651333 C33.6751117,57.5086887 33.0829447,56.8846217 32.3283333,56.8468 L25.1741667,56.8468 C24.4195553,56.8846217 23.8273883,57.5086887 23.8283333,58.2651333 L23.8283333,65.3568 C23.8273883,66.1132447 24.4195553,66.7373117 25.1741667,66.7751333 Z M26.5908333,64.0661167 L26.5908333,59.57 L31.025,59.57 L31.025,64.0093833 L26.5908333,64.0661167 Z" id="Shape" fill="#064658" fill-rule="nonzero"></path>
                                <path d="M43.095,45.14555 C43.3176442,44.8849312 43.4384316,44.5523749 43.435,44.20945 C43.4677528,43.8366493 43.3390502,43.4677136 43.0815954,43.1963898 C42.8241406,42.9250659 42.4627185,42.7774738 42.0891667,42.7911167 L39.3266667,42.7911167 C38.5442633,42.7911167 37.91,43.4261261 37.91,44.20945 L37.91,51.3011167 C37.900871,51.6893025 38.061229,52.062185 38.3491667,52.3223167 C38.6077778,52.5369096 38.9341343,52.6525254 39.27,52.6485333 C39.6412446,52.6767002 40.0070613,52.5462946 40.2769852,52.2895652 C40.546909,52.0328359 40.6957378,51.6737531 40.6866667,51.3011167 L40.6866667,45.57105 L42.1033333,45.57105 C42.4793997,45.577436 42.8402628,45.4225985 43.095,45.14555 Z" id="Path" fill="#064658"></path>
                                <path d="M38.0091667,58.2651333 L38.0091667,65.3568 C38.185463,65.9619556 38.739537,66.378 39.3691667,66.378 C39.9987963,66.378 40.5528704,65.9619556 40.7291667,65.3568 L40.7291667,58.2651333 C40.5528704,57.6599778 39.9987963,57.2439333 39.3691667,57.2439333 C38.739537,57.2439333 38.185463,57.6599778 38.0091667,58.2651333 Z" id="Path" fill="#064658"></path>
                                <path d="M67.5041667,61.3854667 C67.9445976,60.2935674 67.8982056,59.0653128 67.3766667,58.0098333 C66.8585651,56.9510382 65.9248838,56.1549345 64.7983333,55.8114167 L64.7983333,49.0176 C64.9790279,48.4351221 64.7675387,47.8022096 64.2731295,47.4458503 C63.7787202,47.0894909 63.1121131,47.0894909 62.6177039,47.4458503 C62.1232946,47.8022096 61.9118054,48.4351221 62.0925,49.0176 L62.0925,55.9248833 C60.5992247,56.5483569 59.5890572,57.9666126 59.4868235,59.5832028 C59.3845899,61.199793 60.2080251,62.7342794 61.6108333,63.5413333 C62.9065804,64.2520682 64.4820083,64.2196583 65.7475,63.4562333 L67.5325,65.2433333 C69.5866667,67.3282833 69.6291667,67.35665 70.2241667,67.35665 C70.7733159,67.3651258 71.2701105,67.0316558 71.4708333,66.5198333 C71.6423633,66.0307408 71.5337268,65.4869193 71.1875,65.1015 L67.5041667,61.3854667 Z M65.1666667,59.8394833 C65.0916824,60.6096645 64.4450053,61.1970626 63.6720833,61.1970626 C62.8991613,61.1970626 62.2524842,60.6096645 62.1775,59.8394833 C62.176555,59.0830387 62.768722,58.4589717 63.5233333,58.42115 L63.7358333,58.42115 C64.5056158,58.4563493 65.1238511,59.0691837 65.1666667,59.8394833 Z" id="Shape" fill="#064658" fill-rule="nonzero"></path>
                            </g>
                        </g>
                    </g>
                </g>
            </g>
        </g>
    </g>
</svg>