<?xml version="1.0" encoding="UTF-8"?>
<svg width="84px" height="81px" viewBox="0 0 84 81" version="1.1" xmlns="http://www.w3.org/2000/svg" xmlns:xlink="http://www.w3.org/1999/xlink">
    <!-- Generator: sketchtool 59.1 (101010) - https://sketch.com -->
    <title>E8CCCEAE-594D-415D-8C56-D0E79BD47CCE</title>
    <desc>Created with sketchtool.</desc>
    <g id="Solutions" stroke="none" stroke-width="1" fill="none" fill-rule="evenodd">
        <g id="Workforce-Marketplace-" transform="translate(-925.000000, -3080.000000)" fill-rule="nonzero">
            <g id="Section-/-Other" transform="translate(0.000000, 2902.000000)">
                <g id="Icon-reporting" transform="translate(925.000000, 175.000000)">
                    <g id="Asset-878">
                        <circle id="Oval" fill="#00B7D6" transform="translate(63.493407, 15.809017) rotate(-71.630000) translate(-63.493407, -15.809017) " cx="63.4934068" cy="15.8090172" r="12.1058824"></circle>
                        <path d="M63.4896182,26 L63.4160324,26 C63.0188701,25.9887761 62.6446748,25.8581426 62.3785672,25.6378156 C62.1124596,25.4174886 61.9770656,25.1262015 62.0031843,24.8302154 L62.0546944,24.044867 C62.0953347,23.4382433 62.7871903,22.971066 63.599997,23.0013972 C64.4128037,23.0317284 65.0387682,23.5480823 64.9981279,24.1547059 L64.9466178,24.9455462 C64.9152635,25.5307167 64.2742736,25.9946113 63.4896182,26 Z" id="Path" fill="#FFFFFF"></path>
                        <path d="M63.485739,9 L63.4123218,9 C63.0174275,8.98890383 62.6452809,8.86113546 62.3800033,8.64557606 C62.1147257,8.43001666 61.978714,8.14486551 62.0027126,7.85457911 L62.0614464,7.02793101 C62.1019935,6.43113998 62.792263,5.971535 63.6032064,6.00137455 C64.4141498,6.0312141 65.0386794,6.53919855 64.9981322,7.13598958 L64.9393985,7.96263768 C64.908116,8.53832325 64.2685956,8.99469867 63.485739,9 Z" id="Path" fill="#FFFFFF"></path>
                        <path d="M63.4183709,24 C61.4382478,23.9462109 59.5775752,23.0534306 58.3120226,21.5498928 C57.8358681,20.9857752 57.913366,20.1476228 58.4851191,19.677827 C59.0568722,19.2080313 59.9063691,19.2844943 60.3825236,19.848612 C61.1573984,20.7603185 62.2865728,21.3066306 63.491604,21.3528333 C64.383717,21.3528333 65.8350651,20.9718515 66.1945733,20.0391029 C66.4004729,19.3467952 66.2568239,18.5990437 65.8084348,18.0290954 C65.2824876,17.3722302 64.4769229,17.1817393 63.265247,16.9649738 C62.0535711,16.7482083 60.2826602,16.432913 59.2707112,14.8827111 C58.410458,13.5861714 58.2823518,11.945509 58.9311756,10.5342636 C59.9031793,8.51111876 62.3465038,7.82141031 64.2106205,8.03817582 C65.8180888,8.2517543 67.2641535,9.11256218 68.2051563,10.4160278 C68.6408653,11.0091676 68.5067342,11.8384974 67.9055661,12.2683877 C67.3043981,12.698278 66.4638432,12.5659381 66.0281343,11.9727983 C65.5221514,11.2709025 64.7526352,10.7978559 63.8910576,10.6590679 C62.932369,10.5539695 61.7206931,10.8955394 61.3545274,11.657503 C61.1123365,12.2294988 61.1695435,12.8822748 61.5076512,13.4047644 C61.8871321,13.9762372 62.5728608,14.1273162 63.7579064,14.337513 C65.0894184,14.5739845 66.7804385,14.8761425 67.9654842,16.413207 C68.9937905,17.7193619 69.2773081,19.452211 68.7177884,21.0112634 C67.8722783,23.1526439 65.3890086,23.9540194 63.5648372,23.9934313 L63.4183709,24 Z" id="Path" fill="#FFFFFF"></path>
                        <path d="M3.22503388,82 C2.81731071,81.9991796 2.4366058,81.7984868 2.20902376,81.4643936 C1.98144173,81.1303004 1.93668712,80.7064135 2.08958446,80.333141 L16.525136,45.0867645 C16.7210442,44.6499721 17.158442,44.3675356 17.6421727,44.3654715 C18.1339977,44.3347532 18.5917911,44.6142798 18.7837597,45.0625193 L26.7625934,62.0644258 L37.9084104,28.8546413 C38.0644246,28.3552035 38.5270057,28.0107473 39.0561349,28 L39.0561349,28 C39.5729548,28 40.0342783,28.3200996 40.209997,28.8000897 L50.4413169,56.5365332 L58.5858649,39.8498136 C58.7791257,39.4580289 59.1704576,39.1988406 59.6108381,39.1709496 C60.0537847,39.1410015 60.4785833,39.3496022 60.7217373,39.7164653 L82.7740062,73.0959659 C83.0342827,73.4586787 83.0726484,73.932989 82.8739782,74.3319078 C82.6753081,74.7308266 82.2714759,74.9903528 81.821686,75.0081725 C81.3718961,75.0259922 80.948311,74.7992465 80.7179222,74.4173261 L59.8502031,42.8380275 L51.3865018,60.179366 C51.1724834,60.6183619 50.7131305,60.8881607 50.2203646,60.8642912 C49.7277452,60.8404027 49.2974431,60.5276554 49.1278781,60.0702628 L39.1297857,32.9278253 L28.1435454,65.7011973 C27.9842239,66.1718995 27.5504685,66.4991514 27.0487226,66.5271991 C26.5469767,66.5552469 26.0785981,66.2784246 25.866509,65.8284843 L17.7526488,48.6083715 L4.36662086,81.2423339 C4.17855033,81.7014848 3.72655898,82.0014673 3.22503388,82 Z" id="Path" fill="#A2AAAA"></path>
                        <circle id="Oval" fill="#FFFFFF" cx="16.5" cy="45.5" r="3.5"></circle>
                        <path d="M15.5,51 C13.0147186,51 11,48.9852814 11,46.5 C11,44.0147186 13.0147186,42 15.5,42 C17.9852814,42 20,44.0147186 20,46.5 C20,48.9852814 17.9852814,51 15.5,51 Z M15.5,44.25 C14.2573593,44.25 13.25,45.2573593 13.25,46.5 C13.25,47.7426407 14.2573593,48.75 15.5,48.75 C16.7426407,48.75 17.75,47.7426407 17.75,46.5 C17.75,45.2573593 16.7426407,44.25 15.5,44.25 Z" id="Shape" fill="#00B7D6"></path>
                        <circle id="Oval" fill="#FFFFFF" cx="58.5" cy="40.5" r="3.5"></circle>
                        <path d="M58.5,45 C56.0147186,45 54,42.9852814 54,40.5 C54,38.0147186 56.0147186,36 58.5,36 C60.9852814,36 63,38.0147186 63,40.5 C63,42.9852814 60.9852814,45 58.5,45 Z M58.5,38.25 C57.2573593,38.25 56.25,39.2573593 56.25,40.5 C56.25,41.7426407 57.2573593,42.75 58.5,42.75 C59.7426407,42.75 60.75,41.7426407 60.75,40.5 C60.75,39.2573593 59.7426407,38.25 58.5,38.25 Z" id="Shape" fill="#00B7D6"></path>
                        <circle id="Oval" fill="#FFFFFF" cx="38.5" cy="28.5" r="3.5"></circle>
                        <path d="M37.5,33 C35.0147186,33 33,30.9852814 33,28.5 C33,26.0147186 35.0147186,24 37.5,24 C39.9852814,24 42,26.0147186 42,28.5 C42,30.9852814 39.9852814,33 37.5,33 Z M37.5,26.25 C36.2573593,26.25 35.25,27.2573593 35.25,28.5 C35.25,29.7426407 36.2573593,30.75 37.5,30.75 C38.7426407,30.75 39.75,29.7426407 39.75,28.5 C39.75,27.2573593 38.7426407,26.25 37.5,26.25 Z" id="Shape" fill="#00B7D6"></path>
                        <path d="M82.7564767,84 L1.24352332,84 C0.556744353,84 0,83.4512102 0,82.7742436 L0,6.2257564 C0,5.54878983 0.556744353,5 1.24352332,5 C1.93030228,5 2.48704663,5.54878983 2.48704663,6.2257564 L2.48704663,81.5484872 L82.7564767,81.5484872 C83.4432556,81.5484872 84,82.097277 84,82.7742436 C84,83.4512102 83.4432556,84 82.7564767,84 Z" id="Path" fill="#064658"></path>
                        <path d="M80.9228996,48 C80.4200208,47.9991539 79.9852184,47.6343133 79.8771,47.1224743 L79.2174418,44.0259825 L76.7343381,45.9263566 C76.4266369,46.1777221 76.0120759,46.2346944 75.6523708,46.0750492 C75.2926657,45.9154041 75.0447981,45.5644312 75.0054584,45.1590412 C74.9661188,44.7536512 75.1415389,44.3580627 75.4632893,44.1265906 L79.2764356,41.2145468 C79.5685852,40.9925929 79.9483645,40.9389563 80.2866572,41.0718721 C80.6249499,41.2047879 80.8762338,41.5063704 80.955078,41.8740884 L81.9740623,46.6362022 C82.0363535,46.9260423 81.9854042,47.2298025 81.8324609,47.4804313 C81.6795177,47.7310602 81.4371562,47.9079496 81.1588749,47.9720533 C81.0813185,47.9896166 81.0022597,47.9989796 80.9228996,48 Z" id="Path" fill="#064658"></path>
                        <path d="M30.6820428,8 L17.3179572,8 C16.5900695,8 16,7.32842712 16,6.5 C16,5.67157288 16.5900695,5 17.3179572,5 L30.6820428,5 C31.4099305,5 32,5.67157288 32,6.5 C32,7.32842712 31.4099305,8 30.6820428,8 Z" id="Path" fill="#064658"></path>
                        <path d="M11.044586,8 L9.95541401,8 C9.42775342,8 9,7.32842712 9,6.5 C9,5.67157288 9.42775342,5 9.95541401,5 L11.044586,5 C11.5722466,5 12,5.67157288 12,6.5 C12,7.32842712 11.5722466,8 11.044586,8 Z" id="Path" fill="#064658"></path>
                        <path d="M30.6820428,14 L17.3179572,14 C16.5900695,14 16,13.3284271 16,12.5 C16,11.6715729 16.5900695,11 17.3179572,11 L30.6820428,11 C31.4099305,11 32,11.6715729 32,12.5 C32,13.3284271 31.4099305,14 30.6820428,14 Z" id="Path" fill="#064658"></path>
                        <path d="M11.044586,14 L9.95541401,14 C9.42775342,14 9,13.3284271 9,12.5 C9,11.6715729 9.42775342,11 9.95541401,11 L11.044586,11 C11.5722466,11 12,11.6715729 12,12.5 C12,13.3284271 11.5722466,14 11.044586,14 Z" id="Path" fill="#064658"></path>
                        <path d="M30.6820428,21 L17.3179572,21 C16.5900695,21 16,20.3284271 16,19.5 C16,18.6715729 16.5900695,18 17.3179572,18 L30.6820428,18 C31.4099305,18 32,18.6715729 32,19.5 C32,20.3284271 31.4099305,21 30.6820428,21 Z" id="Path" fill="#064658"></path>
                        <path d="M11.044586,21 L9.95541401,21 C9.42775342,21 9,20.3284271 9,19.5 C9,18.6715729 9.42775342,18 9.95541401,18 L11.044586,18 C11.5722466,18 12,18.6715729 12,19.5 C12,20.3284271 11.5722466,21 11.044586,21 Z" id="Path" fill="#064658"></path>
                        <path d="M5.2467588,84 C4.7116856,84.0026957 4.2351947,83.6585213 4.0647201,83.1461851 C3.89424551,82.633849 4.06821273,82.0688332 4.49628341,81.7445414 L17.7319404,71.7203517 C18.0919455,71.4544309 18.5655616,71.4041973 18.9723956,71.5887843 L30.0372559,76.8013629 L37.4799871,48.6083294 C37.6123202,48.1080121 38.0357159,47.7414743 38.5454343,47.6859613 C39.0551527,47.6304483 39.5461639,47.8973989 39.7810315,48.3577247 L48.8363544,66.2634335 L55.906949,57.3356396 C56.2457388,56.9109316 56.8175909,56.7563859 57.3210679,56.9534673 L68.4851647,61.3390503 L78.6693019,42.6502017 C78.8831323,42.2573781 79.2881867,42.0096271 79.7318848,42 C80.1755829,41.9909213 80.5905166,42.2213874 80.8203842,42.6048582 C81.0502519,42.9883289 81.0601312,43.4665459 80.8463007,43.8593696 L70.1907906,63.4942511 C69.891316,64.0424294 69.2372256,64.2831768 68.6588284,64.0581118 L57.3272702,59.6098776 L49.6240435,69.3270765 C49.3627426,69.6607426 48.9516847,69.8376842 48.5324429,69.7969603 C48.1119274,69.7528884 47.7425876,69.495509 47.5524833,69.1140624 L39.0987811,52.4112564 L32.0778047,78.8939125 C31.9837382,79.2527425 31.7370113,79.5509746 31.4041347,79.7082135 C31.071258,79.8654524 30.6864968,79.8655126 30.353572,79.7083779 L18.6250681,74.1762782 L5.98482964,83.7368491 C5.77336487,83.9027202 5.51444768,83.9950287 5.2467588,84 Z" id="Path" fill="#064658"></path>
                        <path d="M63.9954402,33 C57.9678338,33.0063833 52.3381349,30.0720514 49.0028174,25.1854679 C45.6674998,20.2988844 45.070571,14.1105663 47.4131183,8.70516886 C47.7014746,8.10854609 48.4226438,7.84027108 49.0463532,8.09760527 C49.6700627,8.35493945 49.9734264,9.045923 49.7333823,9.6624788 C46.8690684,16.2875772 49.2212224,23.9592514 55.3474795,27.9731529 C61.4737367,31.9870543 69.6617695,31.2212723 74.8905932,26.1453922 C75.3880087,25.7051436 76.1528255,25.7221411 76.6290758,26.1840287 C77.1053262,26.6459163 77.1254975,27.3902334 76.6749267,27.875914 C73.3205319,31.1626036 68.7552163,33.0075492 63.9954402,33 Z" id="Path" fill="#00B7D6"></path>
                        <circle id="Oval" fill="#00B7D6" cx="51.5" cy="5.5" r="1.5"></circle>
                    </g>
                </g>
            </g>
        </g>
    </g>
</svg>