<?xml version="1.0" encoding="UTF-8"?>
<svg width="32px" height="32px" viewBox="0 0 32 32" version="1.1" xmlns="http://www.w3.org/2000/svg" xmlns:xlink="http://www.w3.org/1999/xlink">
    <!-- Generator: sketchtool 52.5 (67469) - http://www.bohemiancoding.com/sketch -->
    <title>B0435F94-82E7-47AD-8635-E374BC7B430A</title>
    <desc>Created with sketchtool.</desc>
    <g id="Website" stroke="none" stroke-width="1" fill="none" fill-rule="evenodd">
        <g id="About-Us-/-Launch" transform="translate(-229.000000, -4019.000000)">
            <g id="Footer" transform="translate(0.000000, 3772.000000)">
                <g id="FOOTER">
                    <g id="Stacked-Group-3" transform="translate(135.000000, 70.000000)">
                        <g id="Social-Icons" transform="translate(0.000000, 177.000000)">
                            <g id="Icon-/-Social-/-Linkedin" transform="translate(94.000000, 0.000000)">
                                <rect id="Background" x="0" y="0" width="32" height="32"></rect>
                                <path d="M24,23.985 L20.685,23.985 L20.685,18.797 C20.685,17.56 20.663,15.969 18.962,15.969 C17.237,15.969 16.974,17.317 16.974,18.709 L16.974,23.985 L13.662,23.985 L13.662,13.317 L16.84,13.317 L16.84,14.776 L16.886,14.776 C17.328,13.937 18.41,13.052 20.023,13.052 C23.38,13.052 24,15.261 24,18.134 L24,23.985 Z M9.924,11.86 C8.859,11.86 8,10.998 8,9.937 C8,8.876 8.859,8.014 9.924,8.014 C10.984,8.014 11.845,8.876 11.845,9.937 C11.845,10.998 10.984,11.86 9.924,11.86 L9.924,11.86 Z M11.582,23.985 L8.263,23.985 L8.263,13.317 L11.582,13.317 L11.582,23.985 Z M0,32 L32,32 L32,0 L0,0 L0,32 Z" id="linkedin" fill="#D0E6EB"></path>
                            </g>
                        </g>
                    </g>
                </g>
            </g>
        </g>
    </g>
</svg>