<svg id="logo" xmlns="http://www.w3.org/2000/svg" width="194.682" height="29.429"><defs><clipPath id="clip-path"><path id="Clip_2" data-name="Clip 2" d="M0 0h15.212v15.31H0z" transform="translate(.262 .416)" fill="none"/></clipPath><clipPath id="clip-path-2"><path id="Clip_7" data-name="Clip 7" d="M0 29.429h194.681V0H0z" fill="none"/></clipPath></defs><g id="Group_3" data-name="Group 3" transform="translate(179.208 10.338)"><path id="Clip_2-2" data-name="Clip 2" d="M0 0h15.212v15.31H0z" transform="translate(.262 .416)" fill="none"/><g id="Group_3-2" data-name="Group 3" clip-path="url(#clip-path)"><path id="Fill_1" data-name="Fill 1" d="M11.769 11.738l-.1.051a8.346 8.346 0 0 1-2.981.543c-3.546 0-5.154-1.87-5.154-4.677C3.531 4.8 5.19 3 8.685 3a10.642 10.642 0 0 1 4.368 1.035l1.439-2.7A13.144 13.144 0 0 0 8.685 0C2.827 0 0 3.011 0 7.655s2.775 7.655 8.685 7.655a13.887 13.887 0 0 0 5.6-1.021l.926-.46V7.293h-3.442z" transform="translate(.262 .416)" fill="#fefefe"/></g></g><path id="Fill_4" data-name="Fill 4" d="M14.625 10.538c0 3.886-1.717 5.591-4.875 5.591-3.227 0-4.875-1.7-4.875-5.591V0H0v10.5c0 7.364 3.433 9.682 9.75 9.682S19.5 17.8 19.5 10.5V0h-4.875z" transform="translate(92.183 5.745)" fill="#fefefe"/><path id="Clip_7-2" data-name="Clip 7" d="M0 29.429h194.681V0H0z" fill="none"/><g clip-path="url(#clip-path-2)"><path id="Fill_6" data-name="Fill 6" d="M0 19.909h4.757V0H0z" transform="translate(57.789 5.881)" fill="#fefefe"/><path id="Fill_8" data-name="Fill 8" d="M4.581 19.909H0V0h9.558c3.276 0 5.677.728 7.136 2.165a6.077 6.077 0 0 1 1.689 4.517c0 3.111-1.531 6.818-8.824 6.818H4.581v6.408zm0-16.017v5.58H9.9c2.612 0 4.051-.991 4.051-2.79 0-1.273-.7-2.79-4.051-2.79z" transform="translate(116.764 5.882)" fill="#fefefe"/><path id="Fill_9" data-name="Fill 9" d="M4.581 19.91H0V0h9.558c3.276 0 5.677.728 7.136 2.165a6.077 6.077 0 0 1 1.689 4.517 7.028 7.028 0 0 1-.671 3.14 5.753 5.753 0 0 1-2.6 2.577l3.822 7.509h-5.151l-3.063-6.457H4.581v6.458zm0-16.018v5.58h5.171c2.613 0 4.052-.991 4.052-2.79 0-1.273-.7-2.79-4.052-2.79z" transform="translate(34.41 5.882)" fill="#fefefe"/><path id="Fill_10" data-name="Fill 10" d="M15.724 15.682l-.137.068a11.145 11.145 0 0 1-3.982.725c-4.738 0-6.885-2.5-6.885-6.248C4.718 6.409 6.935 4 11.6 4a14.219 14.219 0 0 1 5.84 1.386l1.923-3.614A17.56 17.56 0 0 0 11.6 0C3.776 0 0 4.023 0 10.227s3.708 10.228 11.6 10.228a18.559 18.559 0 0 0 7.484-1.364l1.236-.614V9.745h-4.6z" transform="translate(67.215 5.609)" fill="#fefefe"/><path id="Fill_11" data-name="Fill 11" d="M14.774 29.428H9.983v-5.1a7.588 7.588 0 0 1-1.083-.459L5.319 27.48l-3.388-3.418 3.578-3.61a7.836 7.836 0 0 1-.454-1.1H0v-4.83h5.115a9.336 9.336 0 0 1 .462-1.03L1.932 9.816 5.319 6.4l2.91 2.935A32.35 32.35 0 0 0 12.379 0a32.359 32.359 0 0 0 4.15 9.333L19.437 6.4l3.388 3.418-3.644 3.677a9.406 9.406 0 0 1 .462 1.029h5.115v4.834H19.7a7.666 7.666 0 0 1-.453 1.094l3.577 3.611-3.387 3.417-3.577-3.611a7.59 7.59 0 0 1-1.085.458v5.1zm-2.4-18.675a63.4 63.4 0 0 1-1.643 2.53c-1.337 1.985-1.8 2.759-1.8 3.656a3.448 3.448 0 1 0 6.895 0c0-.9-.468-1.672-1.8-3.656a57.165 57.165 0 0 1-1.647-2.53z" fill="#22a4c1"/><path id="Fill_12" data-name="Fill 12" d="M3.429 14.9H0V0h7.154C9.606 0 11.4.545 12.5 1.62A4.549 4.549 0 0 1 13.759 5a4.535 4.535 0 0 1-2.449 4.28l2.86 5.621h-3.853l-2.294-4.834H3.429V14.9zm0-11.991v4.18H7.3c1.955 0 3.032-.742 3.032-2.088 0-.953-.526-2.089-3.032-2.089z" transform="translate(162.35 10.958)" fill="#fefefe"/><path id="Fill_13" data-name="Fill 13" d="M8.315 15.311a8.764 8.764 0 0 1-6.148-2.086A7.41 7.41 0 0 1 0 7.655a7.41 7.41 0 0 1 2.167-5.569A8.764 8.764 0 0 1 8.315 0a8.764 8.764 0 0 1 6.148 2.086 7.41 7.41 0 0 1 2.167 5.569 7.41 7.41 0 0 1-2.167 5.569 8.764 8.764 0 0 1-6.148 2.087zM8.315 3C5.23 3 3.532 4.651 3.532 7.655s1.7 4.658 4.783 4.658S13.1 10.659 13.1 7.655 11.4 3 8.315 3z" transform="translate(142.032 10.753)" fill="#fefefe"/><path id="Fill_14" data-name="Fill 14" d="M0 4.119h4.148V0H0z" transform="translate(133.793 21.672)" fill="#fefefe"/></g></svg>