<?xml version="1.0" encoding="UTF-8"?>
<svg width="84px" height="73px" viewBox="0 0 84 73" version="1.1" xmlns="http://www.w3.org/2000/svg" xmlns:xlink="http://www.w3.org/1999/xlink">
    <!-- Generator: sketchtool 52.5 (67469) - http://www.bohemiancoding.com/sketch -->
    <title>BA0035AE-1BAB-4498-8CD3-81070D95C4CB</title>
    <desc>Created with sketchtool.</desc>
    <g id="Website" stroke="none" stroke-width="1" fill="none" fill-rule="evenodd">
        <g id="Audience-/-Operators" transform="translate(-676.000000, -684.000000)">
            <g id="Hero" transform="translate(0.000000, 80.000000)">
                <g id="2" transform="translate(535.000000, 549.000000)">
                    <g id="Icon-/-operators-right-work-efficiently" transform="translate(141.000000, 50.000000)">
                        <rect id="Background" x="0" y="0" width="84" height="84"></rect>
                        <g id="operators-work-efficiently" transform="translate(0.000000, 4.500000)">
                            <path d="M57.918,17.234 L43.4,17.234 C42.6268014,17.234 42,17.8608014 42,18.634 C42,19.4071986 42.6268014,20.034 43.4,20.034 L57.918,20.034 C58.6911986,20.034 59.318,19.4071986 59.318,18.634 C59.318,17.8608014 58.6911986,17.234 57.918,17.234 Z" id="Path" fill="#064658"></path>
                            <path d="M67.802,37.31 L67.802,7.252 C67.802,6.47880135 67.1751986,5.852 66.402,5.852 L7,5.852 C6.22680135,5.852 5.6,6.47880135 5.6,7.252 L5.6,48.132 C5.6,48.9051986 6.22680135,49.532 7,49.532 L49.224,49.532 L49.224,46.732 L8.4,46.732 L8.4,8.666 L64.974,8.666 L64.974,37.31 L67.802,37.31 Z" id="Path" fill="#064658"></path>
                            <path d="M57.918,23.128 L43.4,23.128 C42.6268014,23.128 42,23.7548014 42,24.528 C42,25.3011986 42.6268014,25.928 43.4,25.928 L57.918,25.928 C58.6911986,25.928 59.318,25.3011986 59.318,24.528 C59.318,23.7548014 58.6911986,23.128 57.918,23.128 Z" id="Path" fill="#064658"></path>
                            <path d="M59.332,30.954 C59.332,30.1808014 58.7051986,29.554 57.932,29.554 L43.4,29.554 C42.6268014,29.554 42,30.1808014 42,30.954 C42,31.7271986 42.6268014,32.354 43.4,32.354 L57.918,32.354 C58.2917228,32.3577374 58.6514255,32.2118894 58.9170122,31.9489323 C59.1825989,31.6859752 59.3320187,31.3277415 59.332,30.954 Z" id="Path" fill="#064658"></path>
                            <path d="M43.4,35.448 C42.6268014,35.448 42,36.0748014 42,36.848 C42,37.6211986 42.6268014,38.248 43.4,38.248 L46.732,38.248 C47.5051986,38.248 48.132,37.6211986 48.132,36.848 C48.132,36.0748014 47.5051986,35.448 46.732,35.448 L43.4,35.448 Z" id="Path" fill="#064658"></path>
                            <path d="M78.162,62.09 C81.3886607,62.0286969 83.956627,59.3667807 83.902,56.14 L83.902,51.59 C83.956627,48.3632193 81.3886607,45.7013031 78.162,45.64 L76.468,45.64 L76.468,40.852 C76.468,40.0788014 75.8411986,39.452 75.068,39.452 L52.766,39.452 C51.9928014,39.452 51.366,40.0788014 51.366,40.852 L51.366,70.574 L21.966,70.574 L21.966,66.878 L49.224,66.878 L49.224,64.078 L47.936,64.078 C47.1860124,62.7087081 46.791312,61.1732273 46.788,59.612 L46.788,54.488 L49.224,54.488 L49.224,51.688 L3.388,51.688 L3.388,3.71 L70,3.71 L70,37.31 L72.8,37.31 L72.8,2.912 C72.8,1.79086196 71.891138,0.882 70.77,0.882 L2.59,0.882 C1.46886196,0.882 0.56,1.79086196 0.56,2.912 L0.56,52.458 C0.56,53.579138 1.46886196,54.488 2.59,54.488 L26.6,54.488 L26.6,59.584 C26.601579,61.1440941 26.2116737,62.6796472 25.466,64.05 L20.552,64.05 C19.7788014,64.05 19.152,64.6768014 19.152,65.45 L19.152,70.56 L15.596,70.56 L15.596,70.728 L15.694,70.728 L15.694,70.56 L9.1,70.56 L9.1,70.728 L9.1,70.56 L1.68,70.56 C0.90680135,70.56 0.28,71.1868014 0.28,71.96 C0.28,72.7331986 0.90680135,73.36 1.68,73.36 L82.488,73.36 C83.2611986,73.36 83.888,72.7331986 83.888,71.96 C83.888,71.1868014 83.2611986,70.56 82.488,70.56 L76.468,70.56 L76.468,62.09 L78.162,62.09 Z M76.468,59.29 L76.468,48.468 L78.162,48.468 C79.8269637,48.528795 81.1291027,49.9248382 81.074,51.59 L81.074,56.14 C81.1291027,57.8051618 79.8269637,59.201205 78.162,59.262 L76.468,59.29 Z M73.668,42.294 L73.668,70.574 L54.18,70.574 L54.18,42.266 L73.668,42.294 Z M36.694,61.894 C38.838062,61.9017679 40.5845891,60.1740207 40.6,58.03 L40.6,54.488 L44.016,54.488 L44.016,59.584 C44.0130198,61.1122116 44.2979901,62.6273038 44.856,64.05 L28.504,64.05 C29.0808468,62.6309219 29.384828,61.1157652 29.4,59.584 L29.4,54.488 L32.816,54.488 L32.816,58.03 C32.808232,60.1663301 34.5297113,61.9065893 36.666,61.922 L36.694,61.894 Z M37.8,58.03 C37.8,58.617631 37.323631,59.094 36.736,59.094 C36.148369,59.094 35.672,58.617631 35.672,58.03 L35.672,54.488 L37.8,54.488 L37.8,58.03 Z" id="Shape" fill="#064658" fill-rule="nonzero"></path>
                            <path d="M70.112,63.322 C70.8851986,63.322 71.512,62.6951986 71.512,61.922 L71.512,49.532 C71.512,48.7588014 70.8851986,48.132 70.112,48.132 C69.3388014,48.132 68.712,48.7588014 68.712,49.532 L68.712,61.908 C68.7082626,62.2817228 68.8541106,62.6414255 69.1170677,62.9070122 C69.3800248,63.1725989 69.7382585,63.3220187 70.112,63.322 Z" id="Path" fill="#064658"></path>
                            <path d="M69.216,66.934 L69.398,67.032 C69.6189953,67.1446893 69.8639428,67.2023241 70.112,67.2 C70.7536537,67.1907185 71.3248891,66.7913887 71.5539904,66.1919571 C71.7830918,65.5925256 71.6238122,64.9139946 71.1519152,64.4791167 C70.6800182,64.0442387 69.9907618,63.940799 69.412,64.218 L69.216,64.344 C69.1536158,64.3767354 69.0968935,64.419277 69.048,64.47 C68.7255099,64.7702445 68.5428483,65.1913808 68.544,65.632 C68.5461869,66.0719243 68.7282985,66.4917928 69.048,66.794 L69.216,66.934 Z" id="Path" fill="#064658"></path>
                            <path d="M31.976,26.208 L35.756,22.596 L32.2,19.236 L29.218,22.12 C27.2905657,19.3257017 25.8383212,16.2319951 24.92,12.964 C24.0016788,16.2319951 22.5494343,19.3257017 20.622,22.12 L17.598,19.236 L14.084,22.596 L17.864,26.208 C17.6826245,26.5327995 17.5235896,26.8695794 17.388,27.216 L12.082,27.216 L12.082,31.962 L17.318,31.962 C17.4537433,32.3310245 17.6127284,32.6910789 17.794,33.04 L14.084,36.582 L17.598,39.942 L21.308,36.4 C21.6736773,36.5826667 22.0527814,36.7371165 22.442,36.862 L22.442,41.86 L27.398,41.86 L27.398,36.848 C27.7872186,36.7231165 28.1663227,36.5686667 28.532,36.386 L32.2,39.942 L35.714,36.582 L32.046,33.04 C32.2272716,32.6910789 32.3862567,32.3310245 32.522,31.962 L37.8,31.962 L37.8,27.216 L32.452,27.216 C32.3164104,26.8695794 32.1573755,26.5327995 31.976,26.208 Z M24.976,33.824 C23.1330099,33.7481899 21.6989815,32.1951809 21.77,30.352 C21.77,29.47 22.204,28.7 23.45,26.712 C23.912,25.97 24.43,25.144 24.976,24.192 C25.522,25.144 26.04,25.97 26.502,26.712 C27.748,28.7 28.182,29.512 28.182,30.352 C28.21598,31.2466429 27.8900119,32.1175881 27.2769878,32.7700773 C26.6639638,33.4225664 25.8150218,33.8021692 24.92,33.824 L24.976,33.824 Z" id="Shape" fill="#24A5C2"></path>
                        </g>
                    </g>
                </g>
            </g>
        </g>
    </g>
</svg>