<?xml version="1.0" encoding="UTF-8"?>
<svg width="32px" height="32px" viewBox="0 0 32 32" version="1.1" xmlns="http://www.w3.org/2000/svg" xmlns:xlink="http://www.w3.org/1999/xlink">
    <!-- Generator: sketchtool 52.5 (67469) - http://www.bohemiancoding.com/sketch -->
    <title>28896644-30E6-4576-A116-0875906E4C18</title>
    <desc>Created with sketchtool.</desc>
    <g id="Website" stroke="none" stroke-width="1" fill="none" fill-rule="evenodd">
        <g id="About-Us-/-Launch" transform="translate(-135.000000, -4019.000000)">
            <g id="Footer" transform="translate(0.000000, 3772.000000)">
                <g id="FOOTER">
                    <g id="Stacked-Group-3" transform="translate(135.000000, 70.000000)">
                        <g id="Social-Icons" transform="translate(0.000000, 177.000000)">
                            <g id="Icon-/-Social-/-Facebook">
                                <rect id="Background" x="0" y="0" width="32" height="32"></rect>
                                <path d="M20.155,10.656 L18.649,10.657 C17.468,10.657 17.239,11.218 17.239,12.041 L17.239,13.857 L20.056,13.857 L19.689,16.702 L17.239,16.702 L17.239,24 L14.302,24 L14.302,16.702 L11.846,16.702 L11.846,13.857 L14.302,13.857 L14.302,11.76 C14.302,9.325 15.789,8 17.96,8 C19,8 19.894,8.077 20.155,8.112 L20.155,10.656 Z M0,32 L32,32 L32,0 L0,0 L0,32 Z" id="facebook" fill="#D0E6EB"></path>
                            </g>
                        </g>
                    </g>
                </g>
            </g>
        </g>
    </g>
</svg>