<?xml version="1.0" encoding="UTF-8"?>
<svg width="80px" height="84px" viewBox="0 0 80 84" version="1.1" xmlns="http://www.w3.org/2000/svg" xmlns:xlink="http://www.w3.org/1999/xlink">
    <!-- Generator: sketchtool 52.5 (67469) - http://www.bohemiancoding.com/sketch -->
    <title>5654D7A2-2872-4DA3-A0C2-45134A383322</title>
    <desc>Created with sketchtool.</desc>
    <g id="Website" stroke="none" stroke-width="1" fill="none" fill-rule="evenodd">
        <g id="Careers" transform="translate(-671.000000, -2296.000000)">
            <g id="Benefits" transform="translate(0.000000, 2066.000000)">
                <g id="Top" transform="translate(135.000000, 230.000000)">
                    <g id="3" transform="translate(484.000000, 0.000000)">
                        <g id="Careers-/-icon-benefits-vaca-stipend" transform="translate(50.000000, 0.000000)">
                            <rect id="Background" x="0" y="0" width="85" height="85.1"></rect>
                            <g id="benefits-vacation-stipend" transform="translate(1.517857, 0.000000)">
                                <path d="M72.2778689,64.1737705 L22.9221311,64.1737705 L10.8688525,54.4081967 C8.05141357,52.1584612 3.9577101,52.5602769 1.63032787,55.315 L1.46311475,55.4963607 C1.21639848,55.8027319 1.09667543,56.1922896 1.12868852,56.5845246 C1.16217548,56.9766585 1.35954177,57.336389 1.67213115,57.5750328 L19.4245902,71.874623 C19.6770009,72.090729 19.9982085,72.2094682 20.3303279,72.2094426 L77.4614754,72.2094426 C78.2310525,72.2094426 78.854918,71.5848432 78.854918,70.8143607 C78.8550466,67.1685464 75.9192703,64.2044076 72.2778689,64.1737705 Z M75.6778689,69.3495246 L20.9016393,69.3495246 L4.8352459,56.319459 C6.1600617,55.5553746 7.81626617,55.6769725 9.01557377,56.626377 L21.4729508,66.7128197 C21.7344591,66.9207956 22.0586485,67.0339036 22.392623,67.0336885 L72.2778689,67.0336885 C73.7562791,67.039554 75.0909414,67.9212484 75.6778689,69.2797705 L75.6778689,69.3495246 Z" id="Shape" fill="#064658" fill-rule="nonzero"></path>
                                <path d="M57.6467213,23.4652787 L57.6467213,21.3029016 C57.6467213,20.5940577 57.072765,20.0194262 56.3647541,20.0194262 C55.6567432,20.0194262 55.0827869,20.5940577 55.0827869,21.3029016 L55.0827869,23.4652787 C42.4537156,24.083328 32.535741,34.5226557 32.5508197,47.1816721 C32.5508197,47.522071 32.6858837,47.848528 32.9262992,48.0892263 C33.1667147,48.3299246 33.492788,48.4651475 33.8327869,48.4651475 L34.752459,48.4651475 C35.4094403,48.4690435 35.9630255,47.9750501 36.0344262,47.3211803 C36.3461679,44.2638106 38.9010296,41.9281053 41.9704918,41.8943115 C44.9521243,41.8467344 47.4972845,44.0411451 47.892623,47.0003115 C47.9828203,47.6399876 48.5293308,48.1157733 49.1745902,48.116377 C49.8168309,48.1148809 50.3588539,47.6378165 50.442623,47.0003115 C50.7861538,44.5100485 52.6342353,42.4931031 55.0827869,41.9361639 L55.0827869,81.9750164 C54.9417182,82.5385493 55.1642378,83.1306193 55.6413687,83.4612652 C56.1184996,83.7919111 56.7503528,83.7919111 57.2274837,83.4612652 C57.7046147,83.1306193 57.9271343,82.5385493 57.7860656,81.9750164 L57.7860656,42.0477705 C60.1588516,42.6272926 61.9408677,44.593683 62.2868852,47.0142623 C62.3706543,47.6517673 62.9126773,48.1288317 63.554918,48.1303279 C64.2001774,48.1297241 64.7466879,47.6539384 64.8368852,47.0142623 C65.251979,44.0740986 67.7936716,41.9066276 70.7590164,41.9640656 C73.821507,42.028259 76.3499701,44.3797366 76.6393443,47.4327869 C76.710745,48.0866566 77.2643302,48.58065 77.9213115,48.5767541 L78.7713115,48.5767541 C79.1113103,48.5767541 79.4373837,48.4415312 79.6777992,48.2008329 C79.9182147,47.9601345 80.0532787,47.6336775 80.0532787,47.2932787 C80.1312794,34.6372918 70.2695649,24.149963 57.6467213,23.4652787 Z M41.9704918,39.3831639 C39.589799,39.3906037 37.3228506,40.4038249 35.7278689,42.1733279 C37.7216634,33.9770333 44.3727127,27.7398149 52.6721311,26.2833443 C52.0337973,26.8393651 51.4715642,27.4773122 51,28.1806557 C48.7704918,31.4590984 47.4745902,37.0673279 47.3770492,41.2944262 C45.8447277,40.0597235 43.9374473,39.3854842 41.9704918,39.3831639 Z M56.4622951,39.2855082 L56.3647541,39.2855082 C53.8638832,39.3027259 51.4940241,40.4075852 49.8713115,42.3128361 C49.8713115,38.7274754 50.9163934,32.9099836 53.1319672,29.631541 C53.7636069,28.4068212 54.9570554,27.5719897 56.3229508,27.3994098 C57.4382571,27.4854725 58.4465828,28.0963566 59.0401639,29.0456066 C61.3114754,32.0868852 62.5098361,38.0159836 62.5795082,41.9919672 C60.9879061,40.301553 58.7822893,39.3257146 56.4622951,39.2855082 Z M70.7590164,39.3971148 C68.6910637,39.3834395 66.6874751,40.1164765 65.1155738,41.4618361 C64.9483607,37.0115246 63.7221311,30.8452623 61.0745902,27.5110164 C60.7483107,27.0926777 60.3845005,26.7050909 59.9877049,26.3530984 C68.2371763,27.8103706 74.8617716,33.9838463 76.9040984,42.1175246 C75.3258157,40.3903134 73.0972174,39.4037195 70.7590164,39.3971148 Z" id="Shape" fill="#064658" fill-rule="nonzero"></path>
                                <path d="M78.2557377,75.4878852 L74.5770492,75.4878852 L74.5770492,71.0515246 C74.5770492,70.242518 73.9219904,69.5866885 73.1139344,69.5866885 C72.3058785,69.5866885 71.6508197,70.242518 71.6508197,71.0515246 L71.6508197,75.4878852 L69.9508197,75.4878852 L69.9508197,71.0515246 C69.9508197,70.242518 69.2957609,69.5866885 68.4877049,69.5866885 C67.679649,69.5866885 67.0245902,70.242518 67.0245902,71.0515246 L67.0245902,75.4878852 L31.3245902,75.4878852 L31.3245902,71.0515246 C31.3750846,70.5739298 31.1490365,70.1093371 30.7422916,69.8547363 C30.3355467,69.6001355 29.8193713,69.6001355 29.4126264,69.8547363 C29.0058815,70.1093371 28.7798335,70.5739298 28.8303279,71.0515246 L28.8303279,75.4878852 L26.7122951,75.4878852 L26.7122951,71.0515246 C26.7122951,70.3580903 26.1508161,69.7959508 25.4581967,69.7959508 C24.7655773,69.7959508 24.2040984,70.3580903 24.2040984,71.0515246 L24.2040984,75.4878852 L11.147541,75.4878852 C10.339485,75.4878852 9.68442623,76.1437147 9.68442623,76.9527213 C9.68442623,77.7617279 10.339485,78.4175574 11.147541,78.4175574 L78.3114754,78.4175574 C79.1195314,78.4175574 79.7745902,77.7617279 79.7745902,76.9527213 C79.7745902,76.1437147 79.1195314,75.4878852 78.3114754,75.4878852 L78.2557377,75.4878852 Z" id="Path" fill="#064658"></path>
                                <path d="M26.4754098,6.04070492 C26.6343822,6.10663264 26.8049844,6.13984432 26.9770492,6.13836066 C27.597791,6.17289437 28.1662886,5.79155288 28.3704918,5.20365574 L29.4991803,2.19027869 C29.642405,1.83578612 29.6340107,1.43797355 29.4759601,1.0898532 C29.3179095,0.741732853 29.0240595,0.473825555 28.6631148,0.348770492 C28.3142594,0.209047654 27.9250848,0.209047654 27.5762295,0.348770492 C27.232895,0.503108201 26.9665173,0.789926919 26.8377049,1.14396721 L25.6672131,4.1852459 C25.5276545,4.53451165 25.5276545,4.92414408 25.6672131,5.27340984 C25.8183617,5.63053478 26.1111871,5.90854067 26.4754098,6.04070492 Z" id="Path" fill="#064658"></path>
                                <path d="M39.7688525,10.3794098 C39.6224969,10.0274493 39.338647,9.75078815 38.983301,9.61375314 C38.6279551,9.47671813 38.2320742,9.49124902 37.8877049,9.65396721 L34.9336066,10.9653443 C34.5845447,11.1145587 34.3113826,11.3998722 34.1772501,11.7553467 C34.0431176,12.1108211 34.0596226,12.5056932 34.2229508,12.8487049 C34.2944483,13.0013648 34.3883871,13.1424388 34.5016393,13.2672295 C34.769056,13.5404648 35.1368084,13.6917737 35.5188525,13.6857541 C35.7196896,13.691228 35.9193341,13.6531558 36.1040984,13.5741475 L39.0442623,12.1790656 C39.3901236,12.0310051 39.6615052,11.7492413 39.7967213,11.3978197 C39.9159983,11.0669709 39.9060443,10.7032238 39.7688525,10.3794098 Z" id="Path" fill="#064658"></path>
                                <path d="M14.6032787,5.67798361 C14.8275965,6.1927034 15.3383098,6.52258348 15.8991803,6.51503279 C16.1054314,6.51512255 16.3094578,6.4723691 16.4983607,6.38947541 C16.848617,6.23782254 17.1214252,5.9489908 17.2531047,5.5904011 C17.3847842,5.2318114 17.3638114,4.83484488 17.195082,4.49216393 L15.8713115,1.5624918 C15.7235452,1.19805455 15.4289867,0.912998679 15.0601702,0.777518308 C14.6913537,0.642037937 14.2825501,0.668722134 13.9344262,0.851 C13.5802344,1.00980517 13.3082381,1.30929981 13.1839284,1.67737177 C13.0596186,2.04544373 13.0942588,2.44874319 13.2795082,2.79016393 L14.6032787,5.67798361 Z" id="Path" fill="#064658"></path>
                                <path d="M7.60819672,14.5507049 C8.34699075,14.8242262 9.1673739,14.4463435 9.44057377,13.7066803 C9.71377364,12.9670171 9.33633501,12.1456688 8.59754098,11.8721475 L5.57377049,10.7421311 C5.21969449,10.598738 4.82234938,10.6071422 4.4746381,10.7653787 C4.12692682,10.9236152 3.85933434,11.217811 3.73442623,11.5791803 C3.59486758,11.9284461 3.59486758,12.3180785 3.73442623,12.6673443 C3.88858258,13.0110827 4.17506426,13.2777738 4.52868852,13.4067377 L7.60819672,14.5507049 Z" id="Path" fill="#064658"></path>
                                <path d="M7.88688525,23.0188525 L4.96065574,24.4139344 C4.60792391,24.5629049 4.33194651,24.8506065 4.19752546,25.2094843 C4.06310441,25.5683622 4.08208123,25.9668018 4.25,26.3112459 C4.40169311,26.6582362 4.68779012,26.928559 5.04256453,27.0601115 C5.39733894,27.191664 5.79029161,27.173137 6.13114754,27.0087869 L9.07131148,25.6137049 C9.39353623,25.4476224 9.63845233,25.1623848 9.75409836,24.8185082 C9.90518262,24.4667068 9.90518262,24.0681948 9.75409836,23.7163934 C9.6022338,23.3730377 9.31852567,23.1054741 8.96711959,22.9741982 C8.6157135,22.8429223 8.22628589,22.8590202 7.88688525,23.0188525 Z" id="Path" fill="#064658"></path>
                                <path d="M17.097541,30.5801967 C16.7501814,30.4329037 16.3580153,30.4329037 16.0106557,30.5801967 C15.6620397,30.7314694 15.3902407,31.0187058 15.2581967,31.3753934 L14.1295082,34.3887705 C13.9784239,34.7405719 13.9784239,35.1390839 14.1295082,35.4908852 C14.2836645,35.8346237 14.5701462,36.1013148 14.9237705,36.2302787 C15.0853487,36.2852095 15.2547711,36.3134798 15.4254098,36.3139836 C16.0424599,36.3504635 16.6097648,35.9756018 16.8188525,35.3932295 L17.947541,32.3659016 C18.0946609,32.0181334 18.0946609,31.6255059 17.947541,31.2777377 C17.7716303,30.9384508 17.4643638,30.6862968 17.097541,30.5801967 Z" id="Path" fill="#064658"></path>
                                <path d="M28.9836066,30.942918 C28.8319134,30.5959277 28.5458164,30.325605 28.191042,30.1940524 C27.8362676,30.0624999 27.4433149,30.0810269 27.102459,30.245377 C26.7591245,30.3997148 26.4927468,30.6865335 26.3639344,31.0405738 C26.2168145,31.388342 26.2168145,31.7809695 26.3639344,32.1287377 L27.757377,35.0584098 C27.9816948,35.5731296 28.4924081,35.9030097 29.0532787,35.895459 C29.2551417,35.8965423 29.4548296,35.8537017 29.6385246,35.7699016 C29.9875864,35.6206872 30.2607485,35.3353737 30.3948811,34.9798992 C30.5290136,34.6244248 30.5125085,34.2295527 30.3491803,33.886541 L28.9836066,30.942918 Z" id="Path" fill="#064658"></path>
                                <path d="M38.7934426,23.2141639 L35.7696721,22.0841475 C35.2942453,21.9171786 34.7659606,22.0168285 34.3838178,22.3455601 C34.001675,22.6742917 33.8237306,23.1821628 33.9170145,23.6778634 C34.0102985,24.1735639 34.3606388,24.5817852 34.8360656,24.7487541 L37.8459016,25.8787705 C38.0068204,25.9379787 38.1761867,25.9709498 38.347541,25.9764262 C38.9682828,26.0109599 39.5367804,25.6296184 39.7409836,25.0417213 C39.8755935,24.6739894 39.8496114,24.2665439 39.6693856,23.9189357 C39.4891598,23.5713275 39.1712906,23.3155743 38.7934426,23.2141639 Z" id="Path" fill="#064658"></path>
                                <path d="M21.6819672,6.97540984 C15.4791757,6.97540984 10.4508197,12.0096816 10.4508197,18.2197705 C10.4508197,24.4298594 15.4791757,29.4641311 21.6819672,29.4641311 C27.8847587,29.4641311 32.9131148,24.4298594 32.9131148,18.2197705 C32.9054372,12.0128683 27.8815758,6.98309641 21.6819672,6.97540984 Z M21.6819672,26.381 C17.1799411,26.381 13.5303279,22.7270931 13.5303279,18.2197705 C13.5303279,13.7124479 17.1799411,10.058541 21.6819672,10.058541 C26.1839933,10.058541 29.8336066,13.7124479 29.8336066,18.2197705 C29.8672043,20.4059353 29.0232284,22.5141781 27.4908428,24.0719694 C25.9584572,25.6297608 23.8658215,26.5068161 21.6819672,26.5065574 L21.6819672,26.381 Z" id="Shape" fill="#064658" fill-rule="nonzero"></path>
                                <path d="M24.6778689,17.2292623 L26.3360656,15.6388689 L24.8032787,14.160082 L23.4795082,15.4296066 C22.6336456,14.2024946 21.9935344,12.8453702 21.5844262,11.4117705 C21.1853785,12.8466382 20.5495679,14.2046299 19.7032787,15.4296066 L18.3098361,14.160082 L16.7631148,15.6388689 L18.4213115,17.2292623 C18.3404592,17.3677313 18.270573,17.5123327 18.2122951,17.6617377 L15.954918,17.6617377 L15.954918,19.7543607 L18.2540984,19.7543607 C18.3094253,19.9184242 18.3793792,20.077173 18.4631148,20.2286885 L16.8327869,21.7772295 L18.3795082,23.2560164 L20.0098361,21.6935246 C20.1636175,21.7787685 20.3274622,21.8443835 20.497541,21.8888361 L20.497541,24.0930656 L22.6852459,24.0930656 L22.6852459,21.8888361 C22.8553247,21.8443835 23.0191694,21.7787685 23.1729508,21.6935246 L24.8032787,23.2560164 L26.3360656,21.7772295 L24.7196721,20.2286885 C24.7930748,20.0741634 24.8581946,19.9158293 24.9147541,19.7543607 L27.2278689,19.7543607 L27.2278689,17.6617377 L24.8868852,17.6617377 C24.8286073,17.5123327 24.7587211,17.3677313 24.6778689,17.2292623 Z M21.5844262,20.5635082 C20.7816287,20.5258109 20.1594847,19.8468762 20.1909836,19.0428689 C20.1909836,18.6522459 20.3860656,18.3174262 20.9295082,17.4524754 C21.1385246,17.1176557 21.3614754,16.7549344 21.5983607,16.3364098 C21.8352459,16.7549344 22.0721311,17.1176557 22.2672131,17.4524754 C22.8245902,18.3174262 23.0057377,18.6522459 23.0057377,19.0428689 C23.0416089,19.4390001 22.9068839,19.831625 22.6354277,20.1220519 C22.3639715,20.4124787 21.9815994,20.5730879 21.5844262,20.5635082 Z" id="Shape" fill="#24A5C2"></path>
                            </g>
                        </g>
                    </g>
                </g>
            </g>
        </g>
    </g>
</svg>