<?xml version="1.0" encoding="UTF-8"?>
<svg width="85px" height="75px" viewBox="0 0 85 75" version="1.1" xmlns="http://www.w3.org/2000/svg" xmlns:xlink="http://www.w3.org/1999/xlink">
    <!-- Generator: sketchtool 52.5 (67469) - http://www.bohemiancoding.com/sketch -->
    <title>3868C7B1-D5EE-449E-9609-0E07E071B8B3</title>
    <desc>Created with sketchtool.</desc>
    <g id="Website" stroke="none" stroke-width="1" fill="none" fill-rule="evenodd">
        <g id="Careers" transform="translate(-1162.000000, -2547.000000)">
            <g id="Benefits" transform="translate(0.000000, 2066.000000)">
                <g id="Bottom" transform="translate(135.000000, 476.000000)">
                    <g id="9" transform="translate(968.000000, 0.000000)">
                        <g id="Careers-/-icon-benefits-contd-ed" transform="translate(59.000000, 0.000000)">
                            <rect id="Background" x="0" y="0" width="85" height="85.1"></rect>
                            <g id="benefits-continued-ed" transform="translate(0.000000, 4.558929)">
                                <path d="M80.1125,12.765 C79.9837709,12.5176382 79.759583,12.3337574 79.4920119,12.2560705 C79.2244409,12.1783836 78.9367745,12.213652 78.6958333,12.3536833 L59.9816667,22.1969167 L59.9816667,21.1615333 L60.7325,16.0555333 C60.7884207,15.7473565 60.6936254,15.4310003 60.4775,15.2045333 C60.2603208,14.9793813 59.9530648,14.8646765 59.6416667,14.8925 C58.7208333,14.9634167 57.8141667,15.0627 56.9075,15.1761667 L56.9075,9.1057 L65.1666667,7.44625 L65.1666667,10.93535 L63.2258333,14.8074 C63.0570133,15.1167643 63.0570133,15.490869 63.2258333,15.8002333 C63.4127048,16.1071194 63.7451734,16.2950241 64.1041667,16.29665 L68.1983333,16.29665 C68.5537621,16.2956648 68.8822832,16.1069474 69.0625,15.8002333 C69.23132,15.490869 69.23132,15.1167643 69.0625,14.8074 L67.1216667,10.93535 L67.1216667,7.09166667 L67.3341667,7.09166667 C67.8252065,7.00886539 68.184758,6.58319174 68.184758,6.08465 C68.184758,5.58610826 67.8252065,5.16043461 67.3341667,5.07763333 L42.755,0.950283333 C42.6482226,0.922025344 42.5359441,0.922025344 42.4291667,0.950283333 L17.8783333,4.97835 C17.3872935,5.06115128 17.027742,5.48682492 17.027742,5.98536667 C17.027742,6.48390841 17.3872935,6.90958205 17.8783333,6.99238333 L28.3333333,9.1057 L28.3333333,15.1761667 C27.4266667,15.0627 26.52,14.9634167 25.6133333,14.8925 C25.3016537,14.8625584 24.9935068,14.9775958 24.7775,15.2045333 C24.5639763,15.4329234 24.4650398,15.7457221 24.5083333,16.0555333 L25.2733333,21.1615333 L25.2733333,22.1969167 L6.43166667,12.38205 C6.19072552,12.2420187 5.90305912,12.2067503 5.63548805,12.2844372 C5.36791699,12.3621241 5.14372914,12.5460048 5.015,12.7933667 C-2.06833333,25.2888833 -0.396666667,40.6778 8.99583333,48.54955 C13.4895256,52.139173 19.1011491,54.0319978 24.8483333,53.8966667 L25.0183333,53.8966667 C27.2046379,56.6385728 29.9983296,58.8334239 33.1783333,60.3075333 L19.0116667,60.3075333 C18.4483362,60.3075333 17.9916667,60.7647401 17.9916667,61.3287333 L17.9916667,73.7533333 C17.9992887,74.3141352 18.4515238,74.7669023 19.0116667,74.7745333 L66.1158333,74.7745333 C66.6791638,74.7745333 67.1358333,74.3173265 67.1358333,73.7533333 L67.1358333,61.2578167 C67.1358333,60.6938235 66.6791638,60.2366167 66.1158333,60.2366167 L51.9491667,60.2366167 C55.1437074,58.7925637 57.957299,56.6216067 60.1658333,53.8966667 L60.3358333,53.8966667 C66.0508738,54.0402042 71.6353081,52.1731903 76.1175,48.6204667 C85.5241667,40.6778 87.2383333,25.2888833 80.1125,12.765 Z M65.7333333,14.1833333 L66.1158333,13.40325 L66.5833333,14.1833333 L65.7333333,14.1833333 Z M47.7275,29.5013333 L46.2258333,29.5013333 C45.4734587,29.4434978 44.775209,29.087576 44.2858833,28.5124744 C43.7965576,27.9373728 43.5565851,27.1906075 43.6191667,26.4377333 L43.6191667,20.4949167 C44.3558333,20.3956333 45.0358333,20.29635 45.8291667,20.2396167 C46.6225,20.1828833 47.6425,20.2396167 48.5491667,20.1403333 C51.7435757,20.1773943 54.9108254,20.7330336 57.9275,21.7856 L57.9275,23.95565 C57.9253726,24.6052703 57.8250705,25.2508283 57.63,25.8704 C57.0774644,27.9332 55.2558401,29.40139 53.125,29.5013333 L47.7275,29.5013333 Z M37.4566667,29.5013333 L32.0591667,29.5013333 C29.9230004,29.4074169 28.094127,27.938005 27.54,25.8704 C27.3449295,25.2508283 27.2446274,24.6052703 27.2425,23.95565 L27.2425,21.7856 C28.22,21.4452 29.2258333,21.1615333 30.2175,20.9204167 L31.1666667,20.7076667 C32.9545274,20.3553862 34.7705164,20.1655037 36.5925,20.1403333 C37.4991667,20.1403333 38.4058333,20.2254333 39.2983333,20.2396167 C40.1908333,20.2538 40.7858333,20.3956333 41.5225,20.4949167 L41.5225,26.4377333 C41.6535632,27.9907806 40.5085594,29.3588016 38.9583333,29.5013333 L37.4566667,29.5013333 Z M42.585,29.6289833 C43.340147,30.6963577 44.5161675,31.3883408 45.815,31.52955 L42.585,36.3660667 L39.3691667,31.52955 C40.6652521,31.3916074 41.8381411,30.6984266 42.585,29.6289833 Z M58.5225,17.02 L58.5225,17.23275 L58.0833333,19.6864667 L57.8991667,19.6864667 L57.3466667,19.5162667 L56.2983333,19.2184167 L56.1283333,19.2184167 L55.3916667,19.0340333 L55.1366667,19.0340333 L55.0233333,19.0340333 L54.3433333,18.8780167 C53.295,18.67945 52.2325,18.5234333 51.17,18.4099667 L53.4933333,17.9561 L54.7258333,17.74335 L54.825,17.74335 C55.505,17.6298833 56.185,17.5306 56.865,17.4455 L58.5225,17.02 Z M23.7291667,6.08465 L28.4891667,5.30456667 L29.835,5.09181667 L42.585,2.99268333 L55.335,5.09181667 L56.6808333,5.30456667 L61.455,6.08465 L56.9075,7.00656667 L54.8675,7.41788333 L42.585,9.92833333 L30.3166667,7.41788333 L28.3333333,7.00656667 L23.7291667,6.08465 Z M42.3866667,11.9423667 L42.585,11.9423667 L42.7975,11.9423667 L54.8675,9.51701667 L54.8675,15.4740167 L54.4425,15.5449333 C50.7266323,16.1445379 47.0646618,17.0409502 43.4916667,18.2255833 L41.6783333,18.2255833 C38.1046437,17.056932 34.4424379,16.179435 30.7275,15.6016667 L30.3166667,15.53075 L30.3166667,9.57375 L42.3866667,11.9423667 Z M28.3333333,17.2469333 C29.0275,17.3320333 29.75,17.4313167 30.3875,17.5447833 L30.4725,17.5447833 C30.8833333,17.5447833 31.28,17.6866167 31.6908333,17.7575333 C32.4747222,17.8993667 33.2538889,18.0553833 34.0283333,18.2255833 C32.967802,18.3259753 31.9132864,18.4822083 30.8691667,18.6936333 L30.1891667,18.8354667 L30.0758333,18.8354667 L29.7216667,18.9205667 L29.0983333,19.0765833 L28.9141667,19.0765833 C28.56,19.1616833 28.22,19.2609667 27.8658333,19.3744333 L27.3133333,19.5446333 L27.115,19.5446333 L26.7608333,17.1192833 L26.7608333,16.9065333 L28.3333333,17.2469333 Z M10.4408333,47.0319333 C1.94083333,39.9402667 0.354166667,26.2108 6.44583333,14.7223 C12.5847222,17.9182778 18.7236111,21.1189833 24.8625,24.3244167 C25.0060162,24.4018022 25.1670202,24.4408794 25.33,24.4378833 C25.3412605,24.7518466 25.3743966,25.0646401 25.4291667,25.3739833 C24.73142,26.1996131 24.0968436,27.0767381 23.5308333,27.9979 C21.3269485,31.5108323 20.1355998,35.5652015 20.0883333,39.7133333 C20.0714296,43.9615848 21.2710129,48.1256889 23.545,51.7124333 C18.7545341,51.6157542 14.1273215,49.9519829 10.37,46.9752 L10.4408333,47.0319333 Z M30.3166667,62.2790167 L29.92,62.2790167 L29.92,66.378 C29.92,66.9419932 30.3766696,67.3992 30.94,67.3992 C31.5033304,67.3992 31.96,66.9419932 31.96,66.378 L31.96,62.2790167 L34.4108333,62.2790167 L34.4108333,66.378 C34.4108333,66.9419932 34.8675029,67.3992 35.4308333,67.3992 C35.9941638,67.3992 36.4508333,66.9419932 36.4508333,66.378 L36.4508333,62.2790167 L47.6991667,62.2790167 L47.6991667,66.378 C47.7604392,66.8994327 48.2018381,67.2924086 48.72625,67.2924086 C49.2506619,67.2924086 49.6920608,66.8994327 49.7533333,66.378 L49.7533333,62.2790167 L52.19,62.2790167 L52.19,66.378 C52.19,66.9419932 52.6466696,67.3992 53.21,67.3992 C53.7733304,67.3992 54.23,66.9419932 54.23,66.378 L54.23,62.2790167 L65.1666667,62.2790167 L65.1666667,72.6754 L20.0883333,72.6754 L20.0883333,62.2790167 L30.3166667,62.2790167 Z M42.6558333,60.2366167 L42.5,60.2366167 C36.7704452,60.2380933 31.3066672,57.8171923 27.455,53.57045 C27.0441667,53.1024 26.6333333,52.63435 26.265,52.1521167 C26.1673928,52.0351624 26.0774811,51.9119806 25.9958333,51.78335 C21.1541266,45.088651 20.8131454,36.1343602 25.1316667,29.0900167 C25.415,28.6219667 25.7125,28.1822833 26.0383333,27.6716833 C27.1346299,30.0050407 29.455861,31.5158907 32.0308333,31.5721 L36.9041667,31.5721 L41.7066667,38.7914167 C41.8980231,39.0736538 42.2159549,39.2434169 42.5566667,39.2452833 C42.898644,39.2485064 43.2188268,39.0775413 43.4066667,38.7914167 L48.2233333,31.5721 L53.125,31.5721 C55.6989534,31.5125865 58.0186006,30.0027674 59.1175,27.6716833 C59.4291667,28.12555 59.7408333,28.5794167 60.0241667,29.0900167 C64.3426879,36.1343602 64.0017067,45.088651 59.16,51.78335 C59.0783522,51.9119806 58.9884405,52.0351624 58.8908333,52.1521167 C58.5083333,52.6627167 58.1116667,53.1307667 57.7008333,53.57045 C53.8491662,57.8171923 48.3853881,60.2380933 42.6558333,60.2366167 Z M74.8141667,46.9752 C71.0623079,49.9672585 66.4345828,51.6461596 61.6391667,51.7549833 C66.2023927,44.4874756 66.2518117,35.2572338 61.7666667,27.9411667 C61.1993408,27.0208858 60.5648337,26.1438565 59.8683333,25.31725 C59.9223543,25.0078011 59.9554849,24.6950593 59.9675,24.38115 C60.1304798,24.3841461 60.2914838,24.3450689 60.435,24.2676833 C66.555,21.06225 72.6938889,17.8615444 78.8516667,14.6655667 C84.9008333,26.1540667 83.2433333,39.9119 74.8141667,46.9752 Z" id="Shape" stroke="#064658" stroke-width="0.75" fill="#064658" fill-rule="nonzero"></path>
                                <path d="M39.1566667,25.3030667 C38.7631113,24.6350527 37.9066055,24.4073902 37.2339179,24.7919928 C36.5612303,25.1765954 36.321835,26.0308288 36.6965052,26.7096401 C37.0711755,27.3884514 37.9209606,27.6400956 38.6041667,27.27455 C38.9446643,27.0923686 39.1961477,26.77895 39.3004424,26.4067959 C39.404737,26.0346418 39.3528076,25.6359928 39.1566667,25.3030667 Z" id="Path" stroke="#064658" stroke-width="0.75" fill="#064658"></path>
                                <path d="M47.9966667,24.7499167 C47.6641317,24.553545 47.2659512,24.5015545 46.8942344,24.6059718 C46.5225176,24.7103892 46.2094673,24.9621684 46.0275,25.3030667 C45.8302654,25.6342404 45.7762028,26.0315356 45.8777615,26.4034639 C45.9793203,26.7753922 46.2277466,27.0898953 46.5658333,27.27455 C46.8983683,27.4709217 47.2965488,27.5229122 47.6682656,27.4184949 C48.0399824,27.3140775 48.3530327,27.0622983 48.535,26.7214 C48.7322346,26.3902263 48.7862972,25.9929311 48.6847385,25.6210028 C48.5831797,25.2490745 48.3347534,24.9345714 47.9966667,24.7499167 Z" id="Path" stroke="#064658" stroke-width="0.75" fill="#064658"></path>
                                <path d="M9.4775,22.1118167 C9.56090975,21.910801 9.55983151,21.6846038 9.47450919,21.4843944 C9.38918687,21.2841849 9.22683017,21.1268808 9.02416667,21.0480667 C8.6095025,20.8808535 8.13739795,21.0762196 7.96166667,21.48775 C4.7175,29.5438833 6.31833333,38.3942833 11.8291667,43.0322333 C11.9772048,43.1527637 12.1625273,43.2179536 12.3533333,43.2166167 C12.5961154,43.219993 12.8265922,43.1098632 12.9766667,42.9187667 C13.1213024,42.7556986 13.1926049,42.5402636 13.1738503,42.322991 C13.1550957,42.1057184 13.0479342,41.9057244 12.8775,41.7699167 C7.905,37.6000167 6.5025,29.5155167 9.4775,22.1118167 Z" id="Path" stroke="#064658" stroke-width="0.75" fill="#064658"></path>
                                <path d="M77.9166667,26.2249833 C77.866054,25.9285511 77.6613272,25.6816698 77.3796047,25.5773371 C77.0978823,25.4730044 76.7819646,25.5270709 76.5508547,25.7191704 C76.3197449,25.9112699 76.208554,26.2122178 76.2591667,26.50865 C77.3641667,32.7918667 75.5225,38.7914167 71.485,42.1812333 C71.1319631,42.4843323 71.087775,43.0152126 71.3858333,43.3726333 C71.5416978,43.5642441 71.7765336,43.673963 72.0233333,43.6704833 C72.2199191,43.6664876 72.4094804,43.596567 72.5616667,43.4719167 C77.0525,39.7133333 79.1066667,33.0897167 77.9166667,26.2249833 Z" id="Path" stroke="#064658" stroke-width="0.75" fill="#064658"></path>
                                <path d="M46.75,48.7764833 L49.0025,46.6348 L46.92,44.63495 L45.1208333,46.3511333 C43.9538721,44.6923952 43.068361,42.8521989 42.5,40.9047333 C41.958902,42.8497144 41.097038,44.6905208 39.95,46.3511333 L38.1508333,44.63495 L36.0683333,46.6348 L38.3208333,48.7764833 C38.206427,48.9698707 38.1115154,49.1741707 38.0375,49.3863667 L34.8783333,49.3863667 L34.8783333,52.2230333 L37.995,52.2230333 C38.0718147,52.4431975 38.1665783,52.6566665 38.2783333,52.8612833 L36.0683333,54.9604167 L38.1508333,56.9602667 L40.3608333,54.84695 C40.5739144,54.9573343 40.7968268,55.0475538 41.0266667,55.1164333 L41.0266667,58.1516667 L43.9875,58.1516667 L43.9875,55.1731667 C44.2173399,55.1042872 44.4402523,55.0140676 44.6533333,54.9036833 L46.8633333,57.017 L48.9458333,55.01715 L46.75,52.8471 C46.861755,52.6424831 46.9565186,52.4290142 47.0333333,52.20885 L50.15,52.20885 L50.15,49.3721833 L46.9766667,49.3721833 C46.9199687,49.1669292 46.8440777,48.9674808 46.75,48.7764833 Z M42.5,53.31515 C41.9738186,53.2930575 41.4780179,53.0623517 41.121911,52.6738982 C40.7658042,52.2854447 40.5786337,51.7711423 40.6016667,51.2443833 C40.6016667,50.7196 40.8566667,50.2657333 41.5933333,49.0885167 C41.8766667,48.63465 42.1883333,48.1524167 42.5,47.5850833 C42.8258333,48.1524167 43.1375,48.63465 43.4208333,49.0885167 C44.1575,50.2657333 44.4125,50.7196 44.4125,51.2443833 C44.4354914,51.7735079 44.2463965,52.2899021 43.8872532,52.6787659 C43.5281099,53.0676297 43.0286828,53.2967353 42.5,53.31515 Z" id="Shape" fill="#24A5C2"></path>
                            </g>
                        </g>
                    </g>
                </g>
            </g>
        </g>
    </g>
</svg>