<?xml version="1.0" encoding="UTF-8"?>
<svg width="85px" height="82px" viewBox="0 0 85 82" version="1.1" xmlns="http://www.w3.org/2000/svg" xmlns:xlink="http://www.w3.org/1999/xlink">
    <!-- Generator: sketchtool 52.5 (67469) - http://www.bohemiancoding.com/sketch -->
    <title>1CA2AAB0-4AB1-4C74-8356-91D20B2F4746</title>
    <desc>Created with sketchtool.</desc>
    <g id="Website" stroke="none" stroke-width="1" fill="none" fill-rule="evenodd">
        <g id="Careers" transform="translate(-677.000000, -2543.000000)">
            <g id="Benefits" transform="translate(0.000000, 2066.000000)">
                <g id="Bottom" transform="translate(135.000000, 476.000000)">
                    <g id="7" transform="translate(482.000000, 0.000000)">
                        <g id="Careers-/-icon-benefits-401k" transform="translate(60.000000, 0.000000)">
                            <rect id="Background" x="0" y="0" width="85" height="85.1"></rect>
                            <g id="benefits-401K" transform="translate(0.000000, 1.519643)">
                                <path d="M66.0166667,74.9163667 L1.96916667,74.9163667 C1.62856776,74.9201558 1.30061519,74.7873424 1.05843354,74.5475403 C0.81625188,74.3077382 0.679978973,73.9808873 0.68,73.6398667 L0.68,5.97118333 C0.68,5.25835861 1.25717958,4.6805 1.96916667,4.6805 L66.0166667,4.6805 C66.7286538,4.6805 67.3058333,5.25835861 67.3058333,5.97118333 L67.3058333,73.6398667 C67.3058544,73.9808873 67.1695815,74.3077382 66.9273998,74.5475403 C66.6852181,74.7873424 66.3572656,74.9201558 66.0166667,74.9163667 Z M3.25833333,72.335 L64.7275,72.335 L64.7275,7.26186667 L3.25833333,7.26186667 L3.25833333,72.335 Z" id="Shape" stroke="#064658" stroke-width="0.5" fill="#064658" fill-rule="nonzero"></path>
                                <path d="M78.3133333,79.4266667 C78.1582198,79.427113 78.004416,79.3982409 77.86,79.3415667 L65.9458333,74.7887167 C65.6182914,74.6736196 65.3509523,74.4311393 65.2043016,74.1161367 C65.0576509,73.8011342 65.0440827,73.4402317 65.1666667,73.1150833 C65.2844714,72.7826713 65.5316704,72.5121651 65.8519351,72.3652045 C66.1721997,72.2182438 66.5382471,72.2073481 66.8666667,72.335 L78.5541667,76.80275 L81.7275,76.80275 L81.7275,3.04941667 L78.8941667,3.04941667 L66.47,7.30441667 C66.0247414,7.49194135 65.5121338,7.41452121 65.1419439,7.10383772 C64.7717539,6.79315423 64.6061065,6.30134594 64.7127869,5.82966813 C64.8194674,5.35799032 65.1805727,4.98559942 65.6483333,4.86488333 L78.2708333,0.609883333 C78.4031506,0.56456471 78.5418308,0.540626197 78.6816667,0.538966667 L83.0166667,0.538966667 C83.3584782,0.535034384 83.6872353,0.670221456 83.9276094,0.913552329 C84.1679835,1.1568832 84.2993709,1.48750067 84.2916667,1.82965 L84.2916667,78.07925 C84.2954513,78.4202496 84.162794,78.748588 83.9232737,78.9910546 C83.6837534,79.2335212 83.3572866,79.3699544 83.0166667,79.3699333 L78.3275,79.3699333 L78.3133333,79.4266667 Z" id="Path" stroke="#064658" stroke-width="0.5" fill="#064658"></path>
                                <path d="M18.8416667,81.1144833 L10.5258333,81.1144833 C9.97489271,81.1086491 9.48713378,80.7565953 9.3075,80.2351167 L7.50833333,74.9589167 C7.27221402,74.5096633 7.32106675,73.9635561 7.63316573,73.5634598 C7.94526471,73.1633635 8.46264025,72.9835925 8.95520517,73.1040946 C9.44777009,73.2245966 9.82403471,73.6229895 9.91666667,74.1221 L11.4183333,78.5331167 L17.8925,78.5331167 L19.3941667,74.2781167 C19.5240037,73.8132478 19.9020809,73.4597654 20.3741904,73.3618457 C20.8462999,73.263926 21.3335268,73.4379366 21.6371441,73.8129031 C21.9407614,74.1878696 22.0100183,74.7011151 21.8166667,75.1433 L20.0175,80.1925667 C19.8613724,80.7190245 19.3895998,81.0889196 18.8416667,81.1144833 Z" id="Path" stroke="#064658" stroke-width="0.5" fill="#064658"></path>
                                <path d="M58.4233333,81.1144833 L50.1216667,81.1144833 C49.5679058,81.1173539 49.0756094,80.762025 48.9033333,80.2351167 L47.1041667,74.9589167 C46.9911257,74.6354269 47.0112316,74.2802077 47.1600518,73.9715746 C47.308872,73.6629415 47.5741861,73.4262379 47.8975,73.31365 C48.5739451,73.0876521 49.3062095,73.4478951 49.5408333,74.1221 L51,78.5331167 L57.5166667,78.5331167 L59.0183333,74.2781167 C59.1304379,73.9546482 59.3676361,73.6898279 59.6766464,73.543142 C59.9856566,73.3964562 60.3405715,73.380203 60.6616667,73.4980333 C60.9892086,73.6131304 61.2565477,73.8556107 61.4031984,74.1706133 C61.5498491,74.4856158 61.5634173,74.8465183 61.4408333,75.1716667 L59.6416667,80.2493 C59.4538519,80.7625814 58.9692755,81.1066969 58.4233333,81.1144833 Z" id="Path" stroke="#064658" stroke-width="0.5" fill="#064658"></path>
                                <path d="M59.8966667,69.3848667 L58.8341667,69.3848667 C58.1221796,69.3848667 57.545,68.8070081 57.545,68.0941833 C57.545,67.3813586 58.1221796,66.8035 58.8341667,66.8035 L59.8966667,66.8035 C60.6086538,66.8035 61.1858333,67.3813586 61.1858333,68.0941833 C61.1858333,68.8070081 60.6086538,69.3848667 59.8966667,69.3848667 Z M52.3883333,69.3848667 L50.4616667,69.3848667 C49.7496796,69.3848667 49.1725,68.8070081 49.1725,68.0941833 C49.1725,67.3813586 49.7496796,66.8035 50.4616667,66.8035 L52.4166667,66.8035 C53.1286538,66.8035 53.7058333,67.3813586 53.7058333,68.0941833 C53.7058333,68.8070081 53.1286538,69.3848667 52.4166667,69.3848667 L52.3883333,69.3848667 Z M44.03,69.3848667 L42.0891667,69.3848667 C41.3771796,69.3848667 40.8,68.8070081 40.8,68.0941833 C40.8,67.3813586 41.3771796,66.8035 42.0891667,66.8035 L44.03,66.8035 C44.7419871,66.8035 45.3191667,67.3813586 45.3191667,68.0941833 C45.3191667,68.8070081 44.7419871,69.3848667 44.03,69.3848667 Z M35.6575,69.3848667 L33.7308333,69.3848667 C33.0188462,69.3848667 32.4416667,68.8070081 32.4416667,68.0941833 C32.4416667,67.3813586 33.0188462,66.8035 33.7308333,66.8035 L35.6575,66.8035 C36.3694871,66.8035 36.9466667,67.3813586 36.9466667,68.0941833 C36.9466667,68.8070081 36.3694871,69.3848667 35.6575,69.3848667 Z M27.285,69.3848667 L25.3583333,69.3848667 C24.6463462,69.3848667 24.0691667,68.8070081 24.0691667,68.0941833 C24.0691667,67.3813586 24.6463462,66.8035 25.3583333,66.8035 L27.285,66.8035 C27.9969871,66.8035 28.5741667,67.3813586 28.5741667,68.0941833 C28.5741667,68.8070081 27.9969871,69.3848667 27.285,69.3848667 Z M18.9266667,69.3848667 L17,69.3848667 C16.2880129,69.3848667 15.7108333,68.8070081 15.7108333,68.0941833 C15.7108333,67.3813586 16.2880129,66.8035 17,66.8035 L18.9408333,66.8035 C19.6528204,66.8035 20.23,67.3813586 20.23,68.0941833 C20.23,68.8070081 19.6528204,69.3848667 18.9408333,69.3848667 L18.9266667,69.3848667 Z M10.5541667,69.3848667 L8.6275,69.3848667 C7.91551291,69.3848667 7.33833333,68.8070081 7.33833333,68.0941833 C7.33833333,67.3813586 7.91551291,66.8035 8.6275,66.8035 L10.5541667,66.8035 C11.2661538,66.8035 11.8433333,67.3813586 11.8433333,68.0941833 C11.8433333,68.8070081 11.2661538,69.3848667 10.5541667,69.3848667 Z" id="Shape" stroke="#064658" stroke-width="0.5" fill="#064658" fill-rule="nonzero"></path>
                                <path d="M60.2225,63.5413333 L7.80583333,63.5413333 C7.09384624,63.5413333 6.51666667,62.9634747 6.51666667,62.25065 L6.51666667,12.0842 C6.51666667,11.3713753 7.09384624,10.7935167 7.80583333,10.7935167 L60.2225,10.7935167 C60.9344871,10.7935167 61.5116667,11.3713753 61.5116667,12.0842 L61.5116667,62.25065 C61.5116667,62.9634747 60.9344871,63.5413333 60.2225,63.5413333 Z M9.0525,60.9883333 L58.9333333,60.9883333 L58.9333333,13.3748833 L9.0525,13.3748833 L9.0525,60.9883333 Z" id="Shape" stroke="#064658" stroke-width="0.5" fill="#064658" fill-rule="nonzero"></path>
                                <path d="M77.1091667,78.67495 C76.7685678,78.6787391 76.4406152,78.5459257 76.1984335,78.3061236 C75.9562519,78.0663215 75.819979,77.7394707 75.82,77.39845 L75.82,3.0636 C75.7683977,2.57279962 76.0008555,2.09550319 76.4188719,1.83395981 C76.8368884,1.57241642 77.3672783,1.57241642 77.7852947,1.83395981 C78.2033112,2.09550319 78.435769,2.57279962 78.3841667,3.0636 L78.3841667,77.39845 C78.3841667,77.7369988 78.2498367,78.0616816 78.0107278,78.3010718 C77.7716189,78.540462 77.4473177,78.67495 77.1091667,78.67495 Z" id="Path" stroke="#064658" stroke-width="0.5" fill="#064658"></path>
                                <path d="M36.2383333,58.1516667 C35.9150758,58.1710317 35.5974178,58.060753 35.3555267,57.8451901 C35.1136356,57.6296271 34.9674162,57.3265181 34.9491667,57.0028167 L34.9491667,55.1164333 L15.5833333,55.1164333 L15.5833333,56.9886333 C15.4883751,57.6281603 14.9399617,58.1016314 14.2941667,58.1016314 C13.6483717,58.1016314 13.0999582,57.6281603 13.005,56.9886333 L13.005,53.9675833 C13.0232495,53.6438819 13.169469,53.3407729 13.4113601,53.1252099 C13.6532512,52.909647 13.9709091,52.7993683 14.2941667,52.8187333 L36.2383333,52.8187333 C36.560168,52.7994147 36.8762986,52.9101162 37.115946,53.1260526 C37.3555934,53.341989 37.4987389,53.6451223 37.5133333,53.9675833 L37.5133333,57.017 C37.49509,57.3369425 37.3503647,57.6364479 37.1111289,57.8493522 C36.871893,58.0622565 36.5578348,58.1710384 36.2383333,58.1516667 Z" id="Path" stroke="#064658" stroke-width="0.5" fill="#064658"></path>
                                <path d="M36.2383333,50.7196 C35.5263462,50.7196 34.9491667,50.1417414 34.9491667,49.4289167 L34.9491667,47.2872333 L15.5833333,47.2872333 L15.5833333,49.40055 C15.5833333,50.1133747 15.0061538,50.6912333 14.2941667,50.6912333 C13.5821796,50.6912333 13.005,50.1133747 13.005,49.40055 L13.005,45.99655 C13.004979,45.6555293 13.1412519,45.3286785 13.3834335,45.0888764 C13.6256152,44.8490743 13.9535678,44.7162609 14.2941667,44.72005 L36.2383333,44.72005 C36.9424964,44.72005 37.5133333,45.2915585 37.5133333,45.99655 L37.5133333,49.4289167 C37.517118,49.7699163 37.3844607,50.0982547 37.1449404,50.3407212 C36.90542,50.5831878 36.5789533,50.7196211 36.2383333,50.7196 Z" id="Path" stroke="#064658" stroke-width="0.5" fill="#064658"></path>
                                <path d="M31.3508333,27.8560667 L34.5666667,24.7782833 L31.5775,21.9416167 L28.9991667,24.3953333 C27.3604303,22.0089609 26.1255626,19.3686021 25.3441667,16.5803167 C24.5588821,19.3696805 23.3191683,22.0101667 21.675,24.3953333 L19.1108333,21.9416167 L16.1075,24.7782833 L19.3375,27.8418833 C19.1860494,28.1231464 19.0489292,28.411911 18.9266667,28.7070667 L14.4075,28.7070667 L14.4075,32.7493167 L18.87,32.7493167 C18.9789411,33.0661472 19.1115376,33.3743226 19.2666667,33.6712333 L16.1075,36.6922833 L19.1108333,39.52895 L22.27,36.5079 C22.5792695,36.6525706 22.8961202,36.7804069 23.2191667,36.89085 L23.2191667,41.14585 L27.4691667,41.14585 L27.4691667,36.8766667 C27.795,36.7632 28.1208333,36.63555 28.4325,36.4937167 L31.5916667,39.5147667 L34.5808333,36.6781 L31.4216667,33.65705 C31.5767957,33.3601392 31.7093922,33.0519639 31.8183333,32.7351333 L36.2666667,32.7351333 L36.2666667,28.7070667 L31.7475,28.7070667 C31.6328547,28.4155154 31.5003816,28.1313107 31.3508333,27.8560667 Z M25.3441667,34.33785 C23.7956549,34.2537918 22.6023608,32.938992 22.6666667,31.3877167 C22.6666667,30.6218167 23.035,29.9693833 24.0833333,28.2815667 C24.48,27.6433167 24.9191667,26.9483333 25.3866667,26.1398833 C25.84,26.9483333 26.2791667,27.6433167 26.69,28.2815667 C27.7383333,29.9693833 28.1066667,30.6218167 28.1066667,31.3877167 C28.1372632,32.1473526 27.8620138,32.8874932 27.3426563,33.4421263 C26.8232988,33.9967594 26.1033045,34.319461 25.3441667,34.33785 Z" id="Shape" fill="#24A5C2"></path>
                                <path d="M54.2158333,58.4353333 L44.4833333,58.4353333 C43.6070415,58.4353333 42.8966667,57.7241227 42.8966667,56.8468 C42.8966667,55.9694773 43.6070415,55.2582667 44.4833333,55.2582667 L54.2158333,55.2582667 C55.0921251,55.2582667 55.8025,55.9694773 55.8025,56.8468 C55.8025,57.7241227 55.0921251,58.4353333 54.2158333,58.4353333 Z" id="Path" fill="#064658"></path>
                                <path d="M54.2158333,52.9889333 L44.4833333,52.9889333 C43.6611467,52.9112395 43.0329271,52.2201207 43.0329271,51.3933083 C43.0329271,50.566496 43.6611467,49.8753772 44.4833333,49.7976833 L54.2158333,49.7976833 C55.0380199,49.8753772 55.6662396,50.566496 55.6662396,51.3933083 C55.6662396,52.2201207 55.0380199,52.9112395 54.2158333,52.9889333 Z" id="Path" fill="#064658"></path>
                                <path d="M54.2158333,47.52835 L44.4833333,47.52835 C43.6611467,47.4506561 43.0329271,46.7595373 43.0329271,45.932725 C43.0329271,45.1059127 43.6611467,44.4147939 44.4833333,44.3371 L54.2158333,44.3371 C55.0380199,44.4147939 55.6662396,45.1059127 55.6662396,45.932725 C55.6662396,46.7595373 55.0380199,47.4506561 54.2158333,47.52835 Z" id="Path" fill="#064658"></path>
                                <path d="M54.2158333,42.0677667 L48.3508333,42.0677667 C47.7455651,42.1249625 47.1601729,41.8339607 46.8398301,41.3166385 C46.5194872,40.7993162 46.5194872,40.1449671 46.8398301,39.6276448 C47.1601729,39.1103226 47.7455651,38.8193209 48.3508333,38.8765167 L54.2158333,38.8765167 C55.0380199,38.9542105 55.6662396,39.6453293 55.6662396,40.4721417 C55.6662396,41.298954 55.0380199,41.9900728 54.2158333,42.0677667 Z" id="Path" fill="#064658"></path>
                                <path d="M54.2158333,36.6071833 L48.3508333,36.6071833 C47.7455651,36.6643791 47.1601729,36.3733774 46.8398301,35.8560552 C46.5194872,35.3387329 46.5194872,34.6843838 46.8398301,34.1670615 C47.1601729,33.6497393 47.7455651,33.3587375 48.3508333,33.4159333 L54.2158333,33.4159333 C55.0380199,33.4936272 55.6662396,34.184746 55.6662396,35.0115583 C55.6662396,35.8383707 55.0380199,36.5294895 54.2158333,36.6071833 Z" id="Path" fill="#064658"></path>
                            </g>
                        </g>
                    </g>
                </g>
            </g>
        </g>
    </g>
</svg>