<?xml version="1.0" encoding="UTF-8"?>
<svg width="83px" height="69px" viewBox="0 0 83 69" version="1.1" xmlns="http://www.w3.org/2000/svg" xmlns:xlink="http://www.w3.org/1999/xlink">
    <!-- Generator: sketchtool 59.1 (101010) - https://sketch.com -->
    <title>D6C82094-ED7F-47A4-8C6D-0365AEF1EF42</title>
    <desc>Created with sketchtool.</desc>
    <g id="Homepage" stroke="none" stroke-width="1" fill="none" fill-rule="evenodd">
        <g id="Home-Page" transform="translate(-1080.000000, -3204.000000)">
            <g id="Solutions" transform="translate(-5.000000, 2905.000000)">
                <g id="3" transform="translate(942.000000, 251.000000)">
                    <g id="Icon-/-audience-servce-providers-Icon-/-Audience-/-Service-Providers" transform="translate(143.000000, 40.000000)">
                        <g id="audience-service-providers" transform="translate(0.000000, 7.500000)">
                            <path d="M14.7344261,34.0131147 L7.61508197,34.0131147 C6.85455872,34.0131147 6.23803282,33.3965888 6.23803282,32.6360655 C6.23803282,31.8755422 6.85455872,31.2590163 7.61508197,31.2590163 L13.3573769,31.2590163 L13.3573769,27.4583604 C13.3573769,26.6978372 13.9739028,26.0813112 14.7344261,26.0813112 C15.4949493,26.0813112 16.1114752,26.6978372 16.1114752,27.4583604 L16.1114752,32.6360655 C16.1114752,33.3965888 15.4949493,34.0131147 14.7344261,34.0131147 Z" id="Path" fill="#064658"></path>
                            <path d="M54.8754108,47.8249172 L15.0098364,47.8249172 C14.2493132,47.8249172 13.6327872,47.2083913 13.6327872,46.447868 C13.6327872,45.6873448 14.2493132,45.0708189 15.0098364,45.0708189 L54.9442632,45.0708189 C55.7047865,45.0708189 56.3213124,45.6873448 56.3213124,46.447868 C56.3213124,47.2083913 55.7047865,47.8249172 54.9442632,47.8249172 L54.8754108,47.8249172 Z" id="Path" fill="#064658"></path>
                            <path d="M58.5934436,51.5429707 C56.5314313,51.5485249 54.6693574,50.3106878 53.8763949,48.4072341 C53.0834323,46.5037804 53.5159403,44.3100401 54.9720342,42.8500002 C56.428128,41.3899604 58.6206898,40.951517 60.5262826,41.7393251 C62.4318754,42.5271333 63.6747551,44.3858503 63.6747551,46.4478701 C63.6747551,49.2564371 61.4020005,51.5353612 58.5934436,51.5429707 L58.5934436,51.5429707 Z M58.5934436,44.120657 C57.6441209,44.115089 56.7854298,44.6834003 56.4195629,45.559406 C56.0536961,46.4354117 56.2531038,47.4456416 56.9243879,48.1169257 C57.595672,48.7882097 58.605902,48.9876175 59.4819077,48.6217506 C60.3579135,48.2558838 60.9262248,47.3971927 60.9206568,46.4478701 C60.931709,45.8222568 60.6918495,45.2182559 60.2546097,44.7706673 C59.81737,44.3230787 59.2191443,44.0691581 58.5934436,44.0655751 L58.5934436,44.120657 Z" id="Shape" fill="#064658" fill-rule="nonzero"></path>
                            <path d="M11.2918031,51.5429521 C8.47786701,51.5429521 6.19672108,49.2618061 6.19672108,46.44787 C6.19672108,43.6339339 8.47786701,41.352788 11.2918031,41.352788 C14.1057392,41.352788 16.3868852,43.6339339 16.3868852,46.44787 C16.3868852,49.2618061 14.1057392,51.5429521 11.2918031,51.5429521 L11.2918031,51.5429521 Z M11.2918032,44.0655341 C10.3437141,44.0655913 9.4892482,44.6374551 9.1277301,45.5139125 C8.76621199,46.3903699 8.96903351,47.3983398 9.6414084,48.0667595 C10.3137833,48.7351792 11.3229324,48.9320505 12.1972417,48.565368 C13.071551,48.1986854 13.6383638,47.3408606 13.6328276,46.392788 C13.6328276,45.7731794 13.3857205,45.1791472 12.9463005,44.742312 C12.5068805,44.3054769 11.911401,44.0619086 11.2918032,44.0655341 L11.2918032,44.0655341 Z" id="Shape" fill="#064658" fill-rule="nonzero"></path>
                            <path d="M66.0157382,51.5429707 C63.9537259,51.5485249 62.091652,50.3106878 61.2986895,48.4072341 C60.5057269,46.5037804 60.9382349,44.3100401 62.3943288,42.8500002 C63.8504226,41.3899604 66.0429845,40.951517 67.9485773,41.7393251 C69.8541701,42.5271333 71.0970497,44.3858503 71.0970497,46.4478701 C71.0970497,49.2564371 68.8242951,51.5353612 66.0157382,51.5429707 L66.0157382,51.5429707 Z M66.0157382,44.120657 C65.0664155,44.115089 64.2077244,44.6834003 63.8418575,45.559406 C63.4759907,46.4354117 63.6753985,47.4456416 64.3466825,48.1169257 C65.0179666,48.7882097 66.0281966,48.9876175 66.9042024,48.6217506 C67.7802081,48.2558838 68.3485194,47.3971927 68.3429514,46.4478701 C68.3540036,45.8222568 68.1141442,45.2182559 67.6769044,44.7706673 C67.2396646,44.3230787 66.6414389,44.0691581 66.0157382,44.0655751 L66.0157382,44.120657 Z" id="Shape" fill="#064658" fill-rule="nonzero"></path>
                            <path d="M73.3829531,51.5429692 C70.5708221,51.5353502 68.2965864,49.2508498 68.3016415,46.4387131 C68.3067134,43.6265764 70.5891613,41.3502806 73.4013014,41.3528051 C76.2134415,41.3553339 78.4918056,43.6357273 78.4918056,46.4478686 C78.4918056,47.8015576 77.9531189,49.0996029 76.9946253,50.055513 C76.0361317,51.011423 74.7366372,51.5466092 73.3829531,51.5429692 L73.3829531,51.5429692 Z M73.3829532,44.1206554 C72.0900967,44.1282828 71.0482084,45.1825255 71.0557795,46.4753821 C71.0634334,47.7682388 72.117664,48.8101392 73.4105207,48.8025829 C74.7033774,48.794944 75.74529,47.7407254 75.7377073,46.4478686 C75.7488451,45.8174792 75.5052329,45.2092474 75.0620102,44.7608408 C74.6187875,44.3124342 74.0134295,44.0617663 73.3829532,44.0655307 L73.3829532,44.1206554 Z" id="Shape" fill="#064658" fill-rule="nonzero"></path>
                            <path d="M80.9704928,47.8249183 L77.1147551,47.8249183 C76.3542318,47.8249183 75.7377059,47.2083923 75.7377059,46.4478691 C75.7377059,45.6873458 76.3542318,45.0708199 77.1147551,45.0708199 L79.5934436,45.0708199 L79.5934436,38.7363935 L18.8518035,38.7363935 C18.0912803,38.7363935 17.4747543,38.1198676 17.4747543,37.3593443 L17.4747543,19.7055734 C16.6319407,20.1016068 16.094925,20.9500918 16.0977051,21.8813112 C16.0977051,22.6418344 15.4811792,23.2583604 14.7206559,23.2583604 L7.69770503,23.2583604 L3.16721317,32.8977048 L3.16721317,45.0295084 L7.58754109,45.0295084 C8.34806436,45.0295084 8.96459029,45.6460343 8.96459029,46.4065576 C8.96459029,47.1670809 8.34806436,47.7836068 7.58754109,47.7836068 L1.79016397,47.7836068 C1.0296407,47.7836068 0.413114771,47.1670809 0.413114771,46.4065576 L0.413114771,32.6360655 C0.416355378,32.4355515 0.463352196,32.2381648 0.550819691,32.0577048 L5.57704926,21.3029505 C5.81096627,20.7962134 6.32761849,20.4807836 6.885246,20.5042619 L13.5363936,20.5042619 C14.1607209,18.2590376 16.2046713,16.7049596 18.5350822,16.7036061 L18.8518035,16.7036061 C19.6123268,16.7036061 20.2288527,17.3201321 20.2288527,18.0806553 L20.2288527,35.9822951 L80.9704928,35.9822951 C81.7310161,35.9822951 82.347542,36.598821 82.347542,37.3593443 L82.347542,46.4478691 C82.347542,47.2083923 81.7310161,47.8249183 80.9704928,47.8249183 L80.9704928,47.8249183 Z" id="Path" fill="#064658"></path>
                            <path d="M57.2026241,16.2354101 L70.6288532,16.2354101 C74.9803357,16.265682 78.4919091,19.8018548 78.4918038,24.1534426 L78.4918038,27.9954097 C78.4918038,32.3684183 74.9467799,35.9134423 70.5737713,35.9134423 C69.813248,35.9134423 69.1967221,36.5299682 69.1967221,37.2904914 C69.1967221,38.0510147 69.813248,38.6675406 70.5737713,38.6675406 C76.4646811,38.6599541 81.2383156,33.8863195 81.2459021,27.9954097 L81.2459021,24.1534426 C81.2383156,18.2625328 76.4646811,13.4888983 70.5737713,13.4813118 L57.1750832,13.4813118 L57.2026241,16.2354101 Z" id="Path" fill="#064658"></path>
                            <path d="M31.548196,16.4281961 C27.8572623,17.1611119 25.1920147,20.3904942 25.1724586,24.153442 L25.1724586,27.9954093 C25.1799124,32.3492314 28.6954563,35.8832136 33.0491795,35.9134422 C33.8097027,35.9134422 34.4262285,36.5299681 34.4262285,37.2904914 C34.4262285,38.0510146 33.8097027,38.6675406 33.0491795,38.6675406 C27.1582699,38.6599541 22.3846355,33.8863193 22.377049,27.9954093 L22.377049,24.153442 C22.390778,18.8603494 26.2821142,14.3771079 31.520655,13.6190157 L31.548196,16.4281961 Z" id="Path" fill="#064658"></path>
                            <path d="M70.6288535,38.6675406 C69.8683303,38.6675406 69.2518044,38.0510147 69.2518044,37.2904914 L69.2518044,14.8583609 C69.2518044,14.0978377 69.8683303,13.4813118 70.6288535,13.4813118 C71.3893767,13.4813118 72.0059026,14.0978377 72.0059026,14.8583609 L72.0059026,37.2904914 C72.0059026,38.0510147 71.3893767,38.6675406 70.6288535,38.6675406 Z" id="Path" fill="#064658"></path>
                            <path d="M62.2977034,38.6675406 C61.5371802,38.6675406 60.9206543,38.0510147 60.9206543,37.2904914 L60.9206543,14.8583609 C60.9206543,14.0978377 61.5371802,13.4813118 62.2977034,13.4813118 C63.0582267,13.4813118 63.6747526,14.0978377 63.6747526,14.8583609 L63.6747526,37.2904914 C63.6747526,38.0510147 63.0582267,38.6675406 62.2977034,38.6675406 Z" id="Path" fill="#064658"></path>
                            <path d="M66.1809823,21.8124593 L62.2977035,21.8124593 C61.5371802,21.8124593 60.9206543,21.1959334 60.9206543,20.4354102 C60.9206543,19.674887 61.5371802,19.0583611 62.2977035,19.0583611 L66.1809823,19.0583611 C66.9415056,19.0583611 67.5580316,19.674887 67.5580316,20.4354102 C67.5580316,21.1959334 66.9415056,21.8124593 66.1809823,21.8124593 Z" id="Path" fill="#064658"></path>
                            <path d="M66.1809823,27.3068851 L62.2977035,27.3068851 C61.5371802,27.3068851 60.9206543,26.6903592 60.9206543,25.929836 C60.9206543,25.1693127 61.5371802,24.5527868 62.2977035,24.5527868 L66.1809823,24.5527868 C66.9415056,24.5527868 67.5580316,25.1693127 67.5580316,25.929836 C67.5580316,26.6903592 66.9415056,27.3068851 66.1809823,27.3068851 Z" id="Path" fill="#064658"></path>
                            <path d="M66.1809823,32.7875408 L62.2977035,32.7875408 C61.5371802,32.7875408 60.9206543,32.1710149 60.9206543,31.4104916 C60.9206543,30.6499684 61.5371802,30.0334425 62.2977035,30.0334425 L66.1809823,30.0334425 C66.9415056,30.0334425 67.5580316,30.6499684 67.5580316,31.4104916 C67.5580316,32.1710149 66.9415056,32.7875408 66.1809823,32.7875408 Z" id="Path" fill="#064658"></path>
                            <path d="M71.6065591,16.2354097 C70.8460358,16.2354097 70.2295099,15.6188838 70.2295099,14.8583605 L70.2295099,11.1816392 L61.0170511,11.1816392 L61.0170511,14.8583605 C61.0170511,15.6188838 60.4005252,16.2354097 59.640002,16.2354097 C58.8794787,16.2354097 58.2629528,15.6188838 58.2629528,14.8583605 L58.2629528,9.80458998 C58.2629528,9.04406671 58.8794787,8.42754078 59.640002,8.42754078 L71.6065591,8.42754078 C72.3670823,8.42754078 72.9836082,9.04406671 72.9836082,9.80458998 L72.9836082,14.8583605 C72.9836082,15.6188838 72.3670823,16.2354097 71.6065591,16.2354097 Z" id="Path" fill="#064658"></path>
                            <path d="M50.4275411,12.0491803 L53.7049181,8.90950813 L50.6616395,6.00393438 L48.0314756,8.51016387 C46.3654273,6.0762427 45.1051328,3.38823446 44.2996724,0.55081965 C43.5061832,3.39269177 42.2450004,6.08259456 40.5678691,8.51016387 L37.9514757,6.00393438 L34.9081971,8.90950813 L38.1855741,12.0491803 C38.0256224,12.3272322 37.8875024,12.6172842 37.7724594,12.9167212 L33.1593447,12.9167212 L33.1593447,17.0478688 L37.7173774,17.0478688 C37.8278889,17.3691632 37.9613474,17.6821004 38.1167216,17.9842622 L34.9081971,21.0550818 L37.9514757,23.9744261 L41.1737708,20.9036064 C41.4903863,21.0545343 41.8170686,21.1833667 42.1514757,21.2891802 L42.1514757,25.6131146 L46.4616395,25.6131146 L46.4616395,21.2754097 C46.7952095,21.1672508 47.1217398,21.0384783 47.4393444,20.8898359 L50.6616395,23.9606556 L53.7049181,21.0413114 L50.4826231,17.9704917 C50.6481908,17.6714108 50.7864555,17.3580109 50.8957378,17.0340983 L55.4400001,17.0340983 L55.4400001,12.9029507 L50.8406559,12.9029507 C50.7121313,12.6275409 50.5744264,12.3429507 50.4275411,12.0491803 Z M44.2996725,18.6590593 C42.710827,18.5773006 41.4831539,17.2329987 41.5455741,15.6432783 C41.5455741,14.8721308 41.9173773,14.2662291 43.0052462,12.4898357 C43.4045905,11.8426226 43.8590167,11.1127866 44.3822954,10.3003276 C44.8504921,11.126557 45.3049184,11.8426226 45.7593446,12.4898357 C46.833443,14.1973767 47.2190168,14.8721308 47.2190168,15.6432783 C47.2490751,16.4351853 46.9543702,17.2050093 46.403178,17.7744013 C45.8519857,18.3437933 45.0921379,18.663342 44.2996725,18.6590593 L44.2996725,18.6590593 Z" id="Shape" fill="#24A5C2"></path>
                            <path d="M81.2459044,66.0157356 L1.37704921,66.0157356 C0.76441461,66.1692763 0.334767424,66.7198913 0.334767424,67.3514733 C0.334767424,67.9830553 0.76441461,68.5336703 1.37704921,68.687211 L81.2459044,68.687211 C81.858539,68.5336703 82.2881862,67.9830553 82.2881862,67.3514733 C82.2881862,66.7198913 81.858539,66.1692763 81.2459044,66.0157356 Z" id="Path" fill="#064658"></path>
                            <path d="M81.2459004,53.7049198 L1.37704916,53.7049198 C0.616525909,53.7049198 0,54.3214457 0,55.081969 C0,55.8424922 0.616525909,56.4590181 1.37704916,56.4590181 L81.2459004,56.4590181 C82.0064237,56.4590181 82.6229496,55.8424922 82.6229496,55.081969 C82.6229496,54.3214457 82.0064237,53.7049198 81.2459004,53.7049198 Z" id="Path" fill="#064658"></path>
                            <path d="M16.758689,59.7777042 C16.1460545,59.9312449 15.7164073,60.4818599 15.7164073,61.1134419 C15.7164073,61.7450239 16.1460545,62.2956389 16.758689,62.4491796 L19.7055742,62.4491796 C20.3182087,62.2956389 20.7478559,61.7450239 20.7478559,61.1134419 C20.7478559,60.4818599 20.3182087,59.9312449 19.7055742,59.7777042 L16.758689,59.7777042 Z" id="Path" fill="#064658"></path>
                            <path d="M32.0990177,59.7777042 C31.4863832,59.9312449 31.056736,60.4818599 31.056736,61.1134419 C31.056736,61.7450239 31.4863832,62.2956389 32.0990177,62.4491796 L35.0459029,62.4491796 C35.6585374,62.2956389 36.0881846,61.7450239 36.0881846,61.1134419 C36.0881846,60.4818599 35.6585374,59.9312449 35.0459029,59.7777042 L32.0990177,59.7777042 Z" id="Path" fill="#064658"></path>
                            <path d="M39.7691799,59.7777064 C39.1565454,59.9312471 38.7268982,60.481862 38.7268982,61.1134441 C38.7268982,61.7450261 39.1565454,62.295641 39.7691799,62.4491817 L42.6885241,62.4491817 C43.2447728,62.5885908 43.8291897,62.3686891 44.1555617,61.8971715 C44.4819337,61.4256539 44.4819337,60.8012342 44.1555617,60.3297167 C43.8291897,59.8581991 43.2447728,59.6382973 42.6885241,59.7777064 L39.7691799,59.7777064 Z" id="Path" fill="#064658"></path>
                            <path d="M24.4288527,59.7777042 C23.8162181,59.9312449 23.3865709,60.4818599 23.3865709,61.1134419 C23.3865709,61.7450239 23.8162181,62.2956389 24.4288527,62.4491796 L27.3757378,62.4491796 C27.9883724,62.2956389 28.4180195,61.7450239 28.4180195,61.1134419 C28.4180195,60.4818599 27.9883724,59.9312449 27.3757378,59.7777042 L24.4288527,59.7777042 Z" id="Path" fill="#064658"></path>
                            <path d="M81.0668857,59.7777064 L78.1200006,59.7777064 C77.5637519,59.6382973 76.979335,59.8581991 76.652963,60.3297167 C76.3265911,60.8012342 76.3265911,61.4256539 76.652963,61.8971715 C76.979335,62.3686891 77.5637519,62.5885908 78.1200006,62.4491817 L81.0668857,62.4491817 C81.6231344,62.5885908 82.2075513,62.3686891 82.5339233,61.8971715 C82.8602953,61.4256539 82.8602953,60.8012342 82.5339233,60.3297167 C82.2075513,59.8581991 81.6231344,59.6382973 81.0668857,59.7777064 Z" id="Path" fill="#064658"></path>
                            <path d="M1.3770492,59.7777042 C0.764414605,59.9312449 0.334767424,60.4818599 0.334767424,61.1134419 C0.334767424,61.7450239 0.764414605,62.2956389 1.3770492,62.4491796 L4.36524599,62.4491796 C4.97788059,62.2956389 5.40752777,61.7450239 5.40752777,61.1134419 C5.40752777,60.4818599 4.97788059,59.9312449 4.36524599,59.7777042 L1.3770492,59.7777042 Z" id="Path" fill="#064658"></path>
                            <path d="M9.07475391,59.7777064 C8.46211932,59.9312471 8.03247213,60.481862 8.03247213,61.1134441 C8.03247213,61.7450261 8.46211932,62.295641 9.07475391,62.4491817 L12.0354097,62.4491817 C12.5916585,62.5885908 13.1760754,62.3686891 13.5024474,61.8971715 C13.8288194,61.4256539 13.8288194,60.8012342 13.5024474,60.3297167 C13.1760754,59.8581991 12.5916585,59.6382973 12.0354097,59.7777064 L9.07475391,59.7777064 Z" id="Path" fill="#064658"></path>
                            <path d="M47.4393432,59.7777064 C46.8830945,59.6382973 46.2986776,59.8581991 45.9723057,60.3297167 C45.6459337,60.8012342 45.6459337,61.4256539 45.9723057,61.8971715 C46.2986776,62.3686891 46.8830945,62.5885908 47.4393432,62.4491817 L50.3862283,62.4491817 C50.942477,62.5885908 51.5268939,62.3686891 51.8532659,61.8971715 C52.1796379,61.4256539 52.1796379,60.8012342 51.8532659,60.3297167 C51.5268939,59.8581991 50.942477,59.6382973 50.3862283,59.7777064 L47.4393432,59.7777064 Z" id="Path" fill="#064658"></path>
                            <path d="M62.7796705,59.7777064 C62.2234218,59.6382973 61.6390049,59.8581991 61.3126329,60.3297167 C60.9862609,60.8012342 60.9862609,61.4256539 61.3126329,61.8971715 C61.6390049,62.3686891 62.2234218,62.5885908 62.7796705,62.4491817 L65.7265556,62.4491817 C66.2828043,62.5885908 66.8672212,62.3686891 67.1935931,61.8971715 C67.5199651,61.4256539 67.5199651,60.8012342 67.1935931,60.3297167 C66.8672212,59.8581991 66.2828043,59.6382973 65.7265556,59.7777064 L62.7796705,59.7777064 Z" id="Path" fill="#064658"></path>
                            <path d="M70.4498344,59.7777042 C69.8371999,59.9312449 69.4075527,60.4818599 69.4075527,61.1134419 C69.4075527,61.7450239 69.8371999,62.2956389 70.4498344,62.4491796 L73.3967196,62.4491796 C74.0093542,62.2956389 74.4390013,61.7450239 74.4390013,61.1134419 C74.4390013,60.4818599 74.0093542,59.9312449 73.3967196,59.7777042 L70.4498344,59.7777042 Z" id="Path" fill="#064658"></path>
                            <path d="M55.0819681,59.7777064 C54.5257194,59.6382973 53.9413025,59.8581991 53.6149305,60.3297167 C53.2885585,60.8012342 53.2885585,61.4256539 53.6149305,61.8971715 C53.9413025,62.3686891 54.5257194,62.5885908 55.0819681,62.4491817 L58.0288532,62.4491817 C58.5851019,62.5885908 59.1695188,62.3686891 59.4958907,61.8971715 C59.8222627,61.4256539 59.8222627,60.8012342 59.4958907,60.3297167 C59.1695188,59.8581991 58.5851019,59.6382973 58.0288532,59.7777064 L55.0819681,59.7777064 Z" id="Path" fill="#064658"></path>
                        </g>
                    </g>
                </g>
            </g>
        </g>
    </g>
</svg>