<?xml version="1.0" encoding="utf-8"?>
<!-- Generator: Adobe Illustrator 21.1.0, SVG Export Plug-In . SVG Version: 6.00 Build 0)  -->
<svg version="1.1" id="Layer_2" xmlns="http://www.w3.org/2000/svg" xmlns:xlink="http://www.w3.org/1999/xlink" x="0px" y="0px"
	 viewBox="0 0 631.3 354.5" style="enable-background:new 0 0 631.3 354.5;" xml:space="preserve">
<style type="text/css">
	.st0{fill:url(#SVGID_1_);}
	.st1{opacity:0.7;fill:url(#SVGID_2_);}
	.st2{fill:url(#SVGID_3_);}
	.st3{opacity:0.2;fill:url(#SVGID_4_);}
	.st4{opacity:0.2;fill:url(#SVGID_5_);}
	.st5{opacity:0.2;fill:url(#SVGID_6_);}
	.st6{fill:url(#SVGID_7_);}
	.st7{fill:#11727F;}
	.st8{fill:#0B6475;}
	.st9{opacity:0.17;clip-path:url(#SVGID_10_);enable-background:new    ;}
	.st10{fill:#0F879E;}
	.st11{fill:url(#SVGID_11_);}
	.st12{fill:url(#SVGID_12_);}
	.st13{fill:url(#SVGID_13_);}
	.st14{fill:url(#SVGID_14_);}
	.st15{fill:url(#SVGID_15_);}
	.st16{fill:url(#SVGID_16_);}
	.st17{fill:url(#SVGID_17_);}
	.st18{fill:url(#SVGID_18_);}
	.st19{fill:url(#SVGID_19_);}
	.st20{fill:url(#SVGID_20_);}
	.st21{fill:url(#SVGID_21_);}
	.st22{fill:url(#SVGID_22_);}
	.st23{fill:url(#SVGID_23_);}
	.st24{fill:url(#SVGID_24_);}
	.st25{opacity:0.23;}
	.st26{fill:url(#SVGID_25_);}
	.st27{opacity:0.2;}
	.st28{fill:#1C1C1C;}
	.st29{fill:#49AFD9;}
	.st30{opacity:0.38;fill:url(#SVGID_26_);enable-background:new    ;}
	.st31{opacity:0.17;enable-background:new    ;}
	.st32{fill:url(#SVGID_27_);stroke:url(#SVGID_28_);stroke-width:0.945;stroke-miterlimit:10;}
	.st33{fill:url(#SVGID_29_);stroke:url(#SVGID_30_);stroke-width:0.945;stroke-miterlimit:10;}
	.st34{opacity:0.11;clip-path:url(#XMLID_8_);}
	.st35{opacity:0.22;}
	.st36{fill:#74BA43;stroke:#1BACC9;stroke-width:0.2145;stroke-miterlimit:10;}
	.st37{opacity:0.38;fill:url(#SVGID_31_);enable-background:new    ;}
	.st38{opacity:0.38;clip-path:url(#XMLID_11_);fill:url(#SVGID_32_);enable-background:new    ;}
	.st39{fill:url(#SVGID_33_);}
	.st40{opacity:0.1;clip-path:url(#XMLID_13_);}
	.st41{fill:url(#SVGID_34_);}
	.st42{opacity:0.1;clip-path:url(#XMLID_15_);}
	.st43{fill:url(#SVGID_35_);}
	.st44{opacity:0.1;clip-path:url(#XMLID_17_);}
	.st45{fill:url(#SVGID_36_);}
	.st46{opacity:0.1;clip-path:url(#XMLID_19_);}
	.st47{fill:url(#SVGID_37_);}
	.st48{opacity:0.1;clip-path:url(#XMLID_21_);}
	.st49{fill:#CC8956;}
	.st50{fill:#E09427;}
	.st51{clip-path:url(#XMLID_22_);fill:#F5A623;}
	.st52{fill:#072126;}
	.st53{fill:#053139;}
	.st54{fill:#B98834;}
	.st55{fill:#F5A623;}
	.st56{clip-path:url(#XMLID_23_);fill:#A97243;}
	.st57{fill:#E19859;}
	.st58{fill:#4C1A08;}
	.st59{fill:#A97243;}
	.st60{fill:#CFCFCE;}
	.st61{fill:#BBBBBB;}
	.st62{fill:#83542C;}
	.st63{fill:#CC6666;}
	.st64{fill:#AA5252;}
	.st65{clip-path:url(#XMLID_24_);fill:#58381E;}
	.st66{fill:#58381E;}
	.st67{fill:#AA7146;}
	.st68{clip-path:url(#XMLID_25_);fill:#A3673E;}
	.st69{fill:#A3673E;}
	.st70{fill:#FFFFFF;}
	.st71{font-family:Roboto, Helvetica, Arial, Sans-Serif;}
	.st72{font-size:15px;}
	.st73{font-size:10px;}
	.st74{font-size:9px;}
</style>
<linearGradient id="SVGID_1_" gradientUnits="userSpaceOnUse" x1="161.6513" y1="353.8603" x2="160.4393" y2="279.1511">
	<stop  offset="0.2089" style="stop-color:#FFFFFF;stop-opacity:0"/>
	<stop  offset="1" style="stop-color:#FFFFFF;stop-opacity:0.54"/>
</linearGradient>
<polygon class="st0" points="5.9,273.8 5.9,348.5 316.6,348.5 316.6,309.2 "/>
<linearGradient id="SVGID_2_" gradientUnits="userSpaceOnUse" x1="37.4979" y1="353.718" x2="37.4182" y2="278.9991" gradientTransform="matrix(-1 0 0 1 509.376 0)">
	<stop  offset="0.1967" style="stop-color:#FFFFFF;stop-opacity:0"/>
	<stop  offset="1" style="stop-color:#FFFFFF;stop-opacity:0.54"/>
</linearGradient>
<polygon class="st1" points="627.2,273.8 627.2,348.5 316.6,348.5 316.6,309.2 "/>
<g>
	<g>
		<linearGradient id="SVGID_3_" gradientUnits="userSpaceOnUse" x1="315.1429" y1="309.2173" x2="315.1429" y2="238.2916">
			<stop  offset="0" style="stop-color:#FFFFFF;stop-opacity:0"/>
			<stop  offset="1" style="stop-color:#FFFFFF;stop-opacity:0.56"/>
		</linearGradient>
		<polygon class="st2" points="316.6,238.3 625.9,273.8 316.6,309.2 4.4,273.8 		"/>
	</g>
	<linearGradient id="SVGID_4_" gradientUnits="userSpaceOnUse" x1="432.0281" y1="68.3978" x2="606.227" y2="68.3978">
		<stop  offset="0" style="stop-color:#FDFDFE;stop-opacity:0"/>
		<stop  offset="1" style="stop-color:#FDFDFE"/>
	</linearGradient>
	<path class="st3" d="M487.4,70.3c4.1-4.6,10.3-7.4,16.5-6.9c2.1,0.2,4.1,0.6,6.2,0.4c2.4-0.3,4.5-1.6,6.6-2.6
		c3.5-1.7,9.5-4.9,13.2-2.6c8.2-10,22-11.5,34.1-9.2c10.5,2,21.8,7.4,25,17.6c6-1.5,13.7-1.1,16.5,4.4c2.5,5-1,11.2-6,13.7
		c-8.4,4.2-21.3,2.9-30.7,3c-24.8,0.3-49.7,0.4-74.5,0.2c-19.8-0.2-40.7,0.8-60.3-2.6c-2.1-0.4-2.6-3.1-0.8-4.2
		c3.9-2.5,8.5-1.4,12.8-3.8c5.2-2.9,10.3-6,16.1-7.5c7.7-2.1,17.1-0.8,22,5.5C484.8,73.7,486,71.9,487.4,70.3z"/>
	
		<linearGradient id="SVGID_5_" gradientUnits="userSpaceOnUse" x1="4457.2324" y1="163.5782" x2="4603.1523" y2="163.5782" gradientTransform="matrix(1 0 0 1 -4006.0103 0)">
		<stop  offset="0" style="stop-color:#FDFDFE;stop-opacity:0"/>
		<stop  offset="1" style="stop-color:#FDFDFE"/>
	</linearGradient>
	<path class="st4" d="M484,176.2c6.6-0.8,13.8,0.5,20.4,0.7c13.2,0.4,26.4,0.2,39.5,0.2c9.2,0,18.5,0,27.7-0.1
		c7.1,0,19.5,2.4,23.9-4.6c1.7-2.7,2-6.3,0.8-9.2c-2-4.7-7.4-7.2-12.5-7.7c-2.6-0.2-5.4,0-7.4,1.6c-0.3-3.1-3.1-5.5-6.1-6.4
		c-4-1.2-8.9-0.8-12.8,0.7c-4.4,1.6-7.9,4.9-11.3,8.1c-4.2-5.8-11.2-9.5-18.4-9.6c-6.8-0.1-12,3-17,7.3c-3.3,2.8-2.5,2.6-6.3,1
		c-2.6-1.1-4.5-2.4-7.4-2.4c-4.7-0.1-6.3,1.9-9.5,4.7c-3.9,3.4-10.5,1.1-15.1,2.6c-2.2,0.7-3.3,2.2-5.2,3.3c-3,1.7-6,1.8-9.5,2
		c-2,0.1-6.2,0.1-6.7,2.4c-1,5.4,4.1,5.2,8,5.6C463.6,176.8,479.9,176.7,484,176.2z"/>
	
		<linearGradient id="SVGID_6_" gradientUnits="userSpaceOnUse" x1="3524.0732" y1="68.3979" x2="3724.0715" y2="68.3979" gradientTransform="matrix(1 0 0 1 -3468.9617 -3.416549e-05)">
		<stop  offset="0" style="stop-color:#FDFDFE;stop-opacity:0"/>
		<stop  offset="1" style="stop-color:#FDFDFE"/>
	</linearGradient>
	<path class="st5" d="M110.6,66.5c3.2-2.9,6-6,12-5.6c8.4,0.6,17.2,1.8,25,2.5c8.6,0.7,9.7-1.4,16.5-6.4c6.2-4.6,18.2-8.2,26.8-6.2
		c2.4,0.5,4.2,2.2,6.6,2.9c6.5,2.1,12.9-2.9,19.1-5.5c9.8-4.1,22.8-2,30.4,4.5c7.7,6.4,10,16.5,6.5,25c-1.2,3-3.2,5.9-6.6,7.4
		c-2.1,1-4.6,1.3-7,1.6c-3.2,0.4-6.4,0.8-9.6,1.3c-9.5,1.2-19.2,2.2-28.8,2.3c-8.1,0.1-16.5-1.5-24.6-0.4
		c-15.4,2.1-35.7-0.5-51.1-3.4c-14.3-2.7-30.2-0.6-45-0.6c-2.9,0-5.9,0-8.6-0.9c-2.4-0.8-4.5-2.2-7-2.4c-2.2-0.2-4.5,0.6-6.7,0.3
		c-2.2-0.2-4.3-2.4-2.8-3.8c7.6-1.4,15.1-3.4,22.3-6c1.9-0.7,3.7-1.4,5.7-1.7c7.4-1.2,14.7,1.5,21.6-1.4
		C107.4,69.2,109.1,67.8,110.6,66.5z"/>
</g>
<g>
	
		<linearGradient id="SVGID_7_" gradientUnits="userSpaceOnUse" x1="322.6348" y1="263.8496" x2="322.6348" y2="271.0297" gradientTransform="matrix(-0.9997 2.435094e-02 2.435094e-02 0.9997 742.5115 -9.9838)">
		<stop  offset="0" style="stop-color:#231F20;stop-opacity:0.56"/>
		<stop  offset="1" style="stop-color:#231F20;stop-opacity:0"/>
	</linearGradient>
	<path class="st6" d="M414.5,264.8l-5.5,1.9c0,0,8-0.8,8-0.8l-2,2.2c0,0,5.4-1.4,5.4-1.4l2.3,2.1l3.8-2l1.5,2c0,0,4.8-2.8,4.8-2.8
		l5.9,1.7c0,0-0.6-2.4-0.6-2.4c0,0,6.7,0,6.6-0.1l-3.7-1.8c0,0,1.4-1,1.4-1c0,0-6.7,0-6.6,0l0.6-0.9c0,0-5.9,0.6-5.9,0.6
		c0,0-1.9-0.5-1.9-0.5c0,0-1.1,0.7-1.1,0.7l-6.1-0.3c0,0-1.8,0.5-1.8,0.5l-5.3-0.2c0,0,0.4,1.3,0.4,1.3c0,0-6.3,0.6-6.3,0.6
		S414.5,264.8,414.5,264.8z"/>
</g>
<g>
	<polygon class="st7" points="396.9,230.4 375,223.5 371.9,230.3 394.3,237.4 	"/>
	<polygon class="st8" points="396.9,230.4 416.4,239 414.2,246.1 394.3,237.4 	"/>
	<g>
		<defs>
			<path id="SVGID_8_" d="M422.1,215.2l7.2-24l0.2-0.6l8.2-27.3l1.4,0.6l1.8-6l-1.4-0.6l5.6-18.8l0.2-0.5l6.4-21.5l0.1-0.5l6.1-20.2
				l2.2,1.3l2.3-6.1L451.2,84l-12.8-2.7l-2.3,6.1l2.2,0.5l-8.8,19.4l-0.2,0.5l-9.3,20.5l-0.2,0.5l-8.1,18l-1.1-0.4l-2.6,5.7l1.1,0.4
				l-11.8,26l-0.3,0.6l-10.4,22.9l-0.3,0.6l-12.8,28.2l18.4,9.4l1,0.5l1.1,0.3l18.8,4.6l9-30 M404.8,205.9l-2.3-11.6l8.9-5.9
				L404.8,205.9z M402.1,210.4l-10.9,7.6l-2.1-13.2L402.1,210.4z M390,202.6l10.4-6.9l2.5,12.5L390,202.6z M414.3,180.3l-1.1-12.5
				l8.4-7.3L414.3,180.3z M438.9,111.5l-6.3,5.6l-0.8-7.5L438.9,111.5z M432.7,107.5l6.7-6.5l0.6,8.5L432.7,107.5z M431.7,131.3
				l-8.5-2.8l7.5-6.7L431.7,131.3z M430.7,133.4l-7.3,6.2l-1.1-8.9L430.7,133.4z M422.4,150.6l-6-2.1l5.2-4.4L422.4,150.6z
				 M420.4,156.5l1.6,0.6l0,0L413,165l-1-11.4l0-0.1L420.4,156.5z M425,151.4l-0.2-0.1l-1.1-9.1l6.7-5.7L425,151.4z M433.7,127.9
				l-0.8-8l5.7-5.1L433.7,127.9z M442,105.5l-0.5-6.7l4.7-4.6L442,105.5z M446.7,90.5l-5.4,5.3l-0.5-6.5L446.7,90.5z M438.8,92.5
				l0.4,5.4l-5.1,5L438.8,92.5z M429.8,112.4l0.7,6.6l-6.2,5.5L429.8,112.4z M413.8,147.6l6.5-14.3l1,8.1L413.8,147.6L413.8,147.6
				L413.8,147.6z M409.9,156.3l0.9,10.5l-9.4,8.1L409.9,156.3z M400.4,178.9l10.7-9.3l1.2,14L400.4,178.9 M411.2,185.7l-9.2,6.2
				l-2.2-10.7L411.2,185.7z M397.8,183l2.1,10.2l-9.6,6.4L397.8,183z M387,206.8l2,12.6l-11.2,7.7L387,206.8z M377.3,230.3l12.1-8.3
				l2.5,15.8L377.3,230.3z M391.5,220.5l10.6-7.3l-8.2,22.1l0,0L391.5,220.5z M449.5,88.7L449.5,88.7L449.5,88.7L449.5,88.7z
				 M426.2,193.8l-5.1,17l-2.6-10.6L426.2,193.8z M448.8,116.1l-5.3,5.2l-0.9-8.5L448.8,116.1z M443.3,110.5l5.6-5.7l0.6,9
				L443.3,110.5z M441.7,126.2l1.1,9.8l-7.7-3.3L441.7,126.2z M442.1,138.1l-6.3,6l-1.3-9.3L442.1,138.1z M434.1,148.9l0.9,6.5
				l-5.4-2.2L434.1,148.9z M434.9,162.1L434.9,162.1l-7.9,8l-1.4-11.7l0,0L434.9,162.1z M425.3,175.2l1.6,13.6l-11.3-3.8
				L425.3,175.2z M426,190.9l-8.2,6.8l-2.6-10.4L426,190.9z M416.4,201.8l2.9,11.7l-12.6-3.7L416.4,201.8z M418.6,215.7l-9.8,8.8
				l-2.8-12.5L418.6,215.7z M428.8,184.9l-1.4-11.8l7.1-7.2L428.8,184.9z M437.4,156.3l0,0.1L437.4,156.3L437.4,156.3l-1.3-9.3
				l5.7-5.4L437.4,156.3z M444.7,132l-0.9-7.9l4.5-4.4L444.7,132z M451.5,109.3l-0.4-6.7l3.5-3.6L451.5,109.3z M455.2,95.1l-4.3,4.4
				l-0.5-7.5L455.2,95.1z M448.3,95.3l0.4,6.4l-4.5,4.6L448.3,95.3z M440.6,115.9l0.8,7.3l-5.5,5.3L440.6,115.9z M427.1,152.4l0-0.1
				l5.4-14.6l0,0l0,0l1.1,8.4l-6.5,6.2L427.1,152.4L427.1,152.4z M425,158.1L425,158.1L425,158.1L425,158.1L425,158.1z M416.5,180.8
				l7.2-19.3l1.3,10.7L416.5,180.8L416.5,180.8z M407,206.5l6.4-17.2l0,0l0,0l2.5,9.9L407,206.5L407,206.5z M396.2,235.8
				L396.2,235.8l8-21.6l0,0l2.7,12L396.2,235.8z M395.8,239.2l11.6-10.4l3.2,14.1L395.8,239.2z M409.4,227l9.2-8.3l-6.3,21.2
				L409.4,227z"/>
		</defs>
		
			<linearGradient id="SVGID_9_" gradientUnits="userSpaceOnUse" x1="388.4315" y1="147.887" x2="430.5109" y2="147.887" gradientTransform="matrix(0.9365 0.3506 -0.3506 0.9365 90.1141 -119.73)">
			<stop  offset="0" style="stop-color:#9BD9E6"/>
			<stop  offset="1" style="stop-color:#21ACC8"/>
		</linearGradient>
		<use xlink:href="#SVGID_8_"  style="overflow:visible;fill:url(#SVGID_9_);"/>
		<clipPath id="SVGID_10_">
			<use xlink:href="#SVGID_8_"  style="overflow:visible;"/>
		</clipPath>
		<polygon class="st9" points="393,240.9 450.9,119.4 413,245.8 		"/>
	</g>
	<polygon class="st10" points="448.6,90.9 435.9,88.2 438.5,81.3 451.2,84.1 	"/>
	<polygon class="st8" points="448.6,90.9 459.8,98 462.5,90.9 451.2,84.1 	"/>
	<g>
		
			<linearGradient id="SVGID_11_" gradientUnits="userSpaceOnUse" x1="406.1881" y1="142.8777" x2="407.8966" y2="142.8777" gradientTransform="matrix(0.9365 0.3506 -0.3506 0.9365 90.1141 -119.73)">
			<stop  offset="0" style="stop-color:#9BD9E6"/>
			<stop  offset="1" style="stop-color:#21ACC8"/>
		</linearGradient>
		<polygon class="st11" points="422,157.1 422,157.1 420.4,156.5 		"/>
	</g>
	<g>
		<g>
			
				<linearGradient id="SVGID_12_" gradientUnits="userSpaceOnUse" x1="408.8922" y1="147.6011" x2="422.0527" y2="147.6011" gradientTransform="matrix(0.9365 0.3506 -0.3506 0.9365 90.1141 -119.73)">
				<stop  offset="0" style="stop-color:#9BD9E6"/>
				<stop  offset="1" style="stop-color:#21ACC8"/>
			</linearGradient>
			<path class="st12" d="M402.1,213.2l-8.2,22.1l0,0L402.1,213.2z M437.4,156.3L437.4,156.3l0,0.1L437.4,156.3z M449.5,88.7
				L449.5,88.7L449.5,88.7L449.5,88.7z"/>
			
				<linearGradient id="SVGID_13_" gradientUnits="userSpaceOnUse" x1="410.9327" y1="173.3641" x2="411.2716" y2="173.3641" gradientTransform="matrix(0.9365 0.3506 -0.3506 0.9365 90.1141 -119.73)">
				<stop  offset="0" style="stop-color:#9BD9E6"/>
				<stop  offset="1" style="stop-color:#21ACC8"/>
			</linearGradient>
			<path class="st13" d="M423.7,161.5l-7.2,19.3l0,0L423.7,161.5z M413.4,189.4L413.4,189.4L413.4,189.4l-6.4,17.2l0,0L413.4,189.4z
				 M404.2,214.2L404.2,214.2l-8,21.6l0,0L404.2,214.2z M425,158.1L425,158.1L425,158.1L425,158.1L425,158.1z M432.5,137.7
				L432.5,137.7L432.5,137.7l-5.4,14.6l0,0.1l0,0l0-0.1L432.5,137.7z"/>
		</g>
	</g>
	
		<linearGradient id="SVGID_14_" gradientUnits="userSpaceOnUse" x1="395.7741" y1="116.9171" x2="395.9438" y2="116.9171" gradientTransform="matrix(0.9365 0.3506 -0.3506 0.9365 90.1141 -119.73)">
		<stop  offset="0" style="stop-color:#9BD9E6"/>
		<stop  offset="1" style="stop-color:#21ACC8"/>
	</linearGradient>
	<polygon class="st14" points="420,128.3 419.8,128.8 419.8,128.6 	"/>
	
		<linearGradient id="SVGID_15_" gradientUnits="userSpaceOnUse" x1="392.0606" y1="171.9908" x2="392.2654" y2="171.9908" gradientTransform="matrix(0.9365 0.3506 -0.3506 0.9365 90.1141 -119.73)">
		<stop  offset="0" style="stop-color:#9BD9E6"/>
		<stop  offset="1" style="stop-color:#21ACC8"/>
	</linearGradient>
	<polygon class="st15" points="397.3,178.6 397,179.1 397,178.9 	"/>
	
		<linearGradient id="SVGID_16_" gradientUnits="userSpaceOnUse" x1="411.0034" y1="142.8389" x2="411.0103" y2="142.8389" gradientTransform="matrix(0.9365 0.3506 -0.3506 0.9365 90.1141 -119.73)">
		<stop  offset="0" style="stop-color:#9BD9E6"/>
		<stop  offset="1" style="stop-color:#21ACC8"/>
	</linearGradient>
	<polygon class="st16" points="425,158.1 425,158.1 424.9,158.1 425,158.1 	"/>
	
		<linearGradient id="SVGID_17_" gradientUnits="userSpaceOnUse" x1="422.0034" y1="136.7953" x2="422.0527" y2="136.7953" gradientTransform="matrix(0.9365 0.3506 -0.3506 0.9365 90.1141 -119.73)">
		<stop  offset="0" style="stop-color:#9BD9E6"/>
		<stop  offset="1" style="stop-color:#21ACC8"/>
	</linearGradient>
	<polygon class="st17" points="437.4,156.4 437.4,156.4 437.4,156.3 	"/>
	
		<linearGradient id="SVGID_18_" gradientUnits="userSpaceOnUse" x1="397.3275" y1="93.9676" x2="397.4758" y2="93.9676" gradientTransform="matrix(0.9365 0.3506 -0.3506 0.9365 90.1141 -119.73)">
		<stop  offset="0" style="stop-color:#9BD9E6"/>
		<stop  offset="1" style="stop-color:#21ACC8"/>
	</linearGradient>
	<polygon class="st18" points="429.5,107.4 429.3,107.9 429.3,107.6 	"/>
	
		<linearGradient id="SVGID_19_" gradientUnits="userSpaceOnUse" x1="409.6196" y1="69.2319" x2="409.6548" y2="69.2319" gradientTransform="matrix(0.9365 0.3506 -0.3506 0.9365 90.1141 -119.73)">
		<stop  offset="0" style="stop-color:#9BD9E6"/>
		<stop  offset="1" style="stop-color:#21ACC8"/>
	</linearGradient>
	<polygon class="st19" points="449.5,88.7 449.5,88.7 449.5,88.7 	"/>
	<g>
		
			<linearGradient id="SVGID_20_" gradientUnits="userSpaceOnUse" x1="396.8897" y1="136.8977" x2="396.9394" y2="136.8977" gradientTransform="matrix(0.9365 0.3506 -0.3506 0.9365 90.1141 -119.73)">
			<stop  offset="0" style="stop-color:#9BD9E6"/>
			<stop  offset="1" style="stop-color:#21ACC8"/>
		</linearGradient>
		<polygon class="st20" points="413.9,147.6 413.8,147.7 413.8,147.6 		"/>
		
			<linearGradient id="SVGID_21_" gradientUnits="userSpaceOnUse" x1="397.2145" y1="143.0049" x2="406.1881" y2="143.0049" gradientTransform="matrix(0.9365 0.3506 -0.3506 0.9365 90.1141 -119.73)">
			<stop  offset="0" style="stop-color:#9BD9E6"/>
			<stop  offset="1" style="stop-color:#21ACC8"/>
		</linearGradient>
		<polygon class="st21" points="420.4,156.5 412,153.6 412,153.5 		"/>
		
			<linearGradient id="SVGID_22_" gradientUnits="userSpaceOnUse" x1="410.982" y1="136.6436" x2="411.0455" y2="136.6436" gradientTransform="matrix(0.9365 0.3506 -0.3506 0.9365 90.1141 -119.73)">
			<stop  offset="0" style="stop-color:#9BD9E6"/>
			<stop  offset="1" style="stop-color:#21ACC8"/>
		</linearGradient>
		<polygon class="st22" points="427.2,152.3 427.1,152.4 427.1,152.4 427.1,152.3 		"/>
		
			<linearGradient id="SVGID_23_" gradientUnits="userSpaceOnUse" x1="411.0034" y1="142.8389" x2="411.0103" y2="142.8389" gradientTransform="matrix(0.9365 0.3506 -0.3506 0.9365 90.1141 -119.73)">
			<stop  offset="0" style="stop-color:#9BD9E6"/>
			<stop  offset="1" style="stop-color:#21ACC8"/>
		</linearGradient>
		<polygon class="st23" points="425,158.1 425,158.1 424.9,158.1 425,158.1 		"/>
		
			<linearGradient id="SVGID_24_" gradientUnits="userSpaceOnUse" x1="411.7515" y1="142.9766" x2="421.749" y2="142.9766" gradientTransform="matrix(0.9365 0.3506 -0.3506 0.9365 90.1141 -119.73)">
			<stop  offset="0" style="stop-color:#9BD9E6"/>
			<stop  offset="1" style="stop-color:#21ACC8"/>
		</linearGradient>
		<polygon class="st24" points="434.9,162.1 434.9,162.1 425.7,158.4 425.6,158.4 		"/>
	</g>
	<polygon class="st10" points="395.6,233.9 375,223.5 371.9,230.3 393,240.9 	"/>
	<polygon class="st8" points="395.6,233.9 416.4,239 414.2,246.1 393,240.9 	"/>
	<polygon class="st8" points="423.5,157.6 439.1,163.8 440.9,157.8 425.7,151.7 	"/>
	<g>
		<polygon class="st10" points="423.5,157.6 407.8,152.1 410.4,146.4 425.7,151.7 		"/>
	</g>
</g>
<g class="st25">
	<linearGradient id="SVGID_25_" gradientUnits="userSpaceOnUse" x1="429.0594" y1="32.1394" x2="429.0594" y2="270.4875">
		<stop  offset="0" style="stop-color:#FDFDFE"/>
		<stop  offset="1" style="stop-color:#FDFDFE;stop-opacity:0"/>
	</linearGradient>
	<path class="st26" d="M492.8,264.1c0,3.6-28.5,6.4-63.7,6.4c-35.2,0-63.7-2.9-63.7-6.4c0-0.3,43.8-231.9,43.8-231.9l44.1,0.7
		C453.2,32.9,492.8,263.8,492.8,264.1z"/>
</g>
<ellipse class="st27" cx="429.3" cy="264.1" rx="63.7" ry="6.4"/>
<g>
	<g>
		<path class="st28" d="M433.9,250.6c-0.1,0.7-0.7,0.8-1.3,0.8c-1.1-0.1-2,1.6-2,1.6c-0.3-1.2-0.6-2.8,0.6-3.5
			c0.5-0.3,1.1-0.4,1.7-0.2C433.5,249.3,433.9,249.9,433.9,250.6C433.9,250.5,433.9,250.5,433.9,250.6z"/>
	</g>
	<g>
		<path class="st28" d="M419.9,249.5c0.5,0.3,1.1-0.2,1.9,0c1.1,0.2,1.9,0.8,1.9,0.8s-0.3-1.9-1-2.9c-0.8-1-2.1-1.2-2.8-0.6
			C418.7,247.8,419.2,249.1,419.9,249.5z"/>
	</g>
	<g>
		<path class="st28" d="M422.8,245.4c0.1,0.7,1.1,0.7,1.7,1.5c0.8,1,1.4,2.6,1.4,2.6s0.9-1.7,0.9-3.4c0-1.8-0.1-3.3-1.8-3.4
			C423.3,242.5,422.4,243.8,422.8,245.4z"/>
	</g>
	<g>
		<path class="st28" d="M429.8,256.7c-0.3,0.4-0.9,0.1-1.4,0.4c0,0,0,0,0,0c-0.5,0.2-0.8,0.7-0.8,1.2v0.1c0,0.7,0,1.4,0,2.1
			c0,0.8,0,1.5,0,2.3c0,0.8,0,1.6,0,2.4c0,0.1,0,2.8,0,3l-0.7-1.1c0-0.2,0-2,0-2.2c0-0.8-0.3-3.7-0.9-5.3c-0.2-0.6-0.4-1-0.6-1.1
			c0,0,0,0,0,0c-0.6-0.3-1.2,0-1.4-0.4c-0.7-0.9-0.5-1.9,0.6-2.3c0.7-0.3,1.5-0.1,2.1,0.4c0-0.2,0-0.4,0.1-0.6
			c0.4-1.1,1.5-1.6,2.5-1.3C430.2,254.8,430.4,255.8,429.8,256.7z"/>
	</g>
</g>
<g>
	<g>
		<g>
			<path class="st29" d="M469.9,205l-1,0.4c-1.7,1.8-6,3.8-8.6,4.9c-4.7,2-8.5,3.1-9.5,2.6l-0.7,0.3c0,0,0,0,0,0
				c1-1.1,4.7-3.2,9.3-5.1C464.4,205.9,468.8,204.6,469.9,205C469.9,205,469.9,205,469.9,205z"/>
			<g>
				<path class="st29" d="M475.7,218.6l-1,0.4c-1.7,1.8-6,3.8-8.6,4.9c-4.7,2-8.5,3.1-9.5,2.6l-0.7,0.3c0,0,0,0,0,0
					c1-1.1,4.7-3.2,9.3-5.1C470.2,219.5,474.6,218.3,475.7,218.6C475.7,218.6,475.7,218.6,475.7,218.6z"/>
				<path class="st10" d="M476.6,220.4L476.6,220.4c0.3,0.8-4,3.3-9.5,5.7c-5.5,2.4-10.3,3.6-10.7,2.9l0,0c-0.2-0.5-0.7-1.6-0.7-1.6
					c1.8,0.2,6-0.9,10.7-2.9c4.7-2,8.7-4.8,9.5-5.7C475.9,218.8,476.2,219.7,476.6,220.4z"/>
				<path class="st29" d="M475.9,218.8L475.9,218.8c0.3,0.8-4,3.3-9.5,5.7c-5.5,2.3-10.3,3.6-10.7,2.9l0,0c-0.1-0.1,0-0.3,0.2-0.6
					l0.7-0.3c1,0.5,4.8-0.6,9.5-2.6c2.6-1.1,6.9-3.1,8.6-4.9l1-0.4C475.8,218.7,475.8,218.7,475.9,218.8z"/>
				<g>
					<g>
						<g>
							<defs>
								<path id="XMLID_398_" d="M464.5,195l10.3,24.1c-1.7,1.8-6,3.8-8.6,4.9c-4.8,2-8.6,3.1-9.6,2.6l-10.2-23.9
									c0.4,0.7,4.6-0.5,9.6-2.6S464.7,195.7,464.5,195z"/>
							</defs>
							
								<linearGradient id="XMLID_6_" gradientUnits="userSpaceOnUse" x1="448.227" y1="228.2863" x2="473.7105" y2="246.1558" gradientTransform="matrix(0.9202 -0.3914 0.3914 0.9202 -56.4415 172.9382)">
								<stop  offset="0" style="stop-color:#9BD9E6"/>
								<stop  offset="1" style="stop-color:#21ACC8"/>
							</linearGradient>
							<use xlink:href="#XMLID_398_"  style="overflow:visible;fill:url(#XMLID_6_);"/>
							<clipPath id="XMLID_7_">
								<use xlink:href="#XMLID_398_"  style="overflow:visible;"/>
							</clipPath>
						</g>
						<path class="st10" d="M465.5,194.5L465.5,194.5c0.3,0.8-4,3.3-9.5,5.7c-5.5,2.4-10.3,3.6-10.7,2.9l0,0
							c-0.2-0.5-0.7-1.6-0.7-1.6c1.3-0.7,18.5-7.9,20.2-8.6C464.8,192.9,465.2,193.8,465.5,194.5z"/>
						<path class="st29" d="M464.8,192.9L464.8,192.9c0.3,0.8-4,3.3-9.5,5.7c-5.5,2.4-10.3,3.6-10.7,2.9l0,0
							c-0.3-0.8,3.9-3.3,9.5-5.7S464.5,192.1,464.8,192.9z"/>
					</g>
					<linearGradient id="SVGID_26_" gradientUnits="userSpaceOnUse" x1="460.589" y1="211.0938" x2="475.8072" y2="215.1715">
						<stop  offset="0" style="stop-color:#231F20;stop-opacity:0"/>
						<stop  offset="2.300739e-02" style="stop-color:#231F20;stop-opacity:2.300739e-02"/>
						<stop  offset="1" style="stop-color:#231F20"/>
					</linearGradient>
					<path class="st30" d="M464.7,195.6l-8.1,31c1.6,0.6,7.2-1.5,11.7-3.5c3.7-1.7,6.4-3.7,6.4-4L464.7,195.6z"/>
				</g>
				<path class="st10" d="M470.8,206.8L470.8,206.8c0.3,0.8-4,3.3-9.5,5.7c-5.5,2.4-10.3,3.6-10.7,2.9l0,0c-0.2-0.5-0.7-1.6-0.7-1.6
					c1.8,0.2,6-0.9,10.7-2.9c4.7-2,8.7-4.8,9.5-5.7C470.1,205.2,470.4,206.1,470.8,206.8z"/>
				<path class="st29" d="M470.1,205.2L470.1,205.2c0.3,0.8-4,3.3-9.5,5.7c-5.5,2.3-10.3,3.6-10.7,2.9l0,0c-0.1-0.1,0-0.3,0.2-0.6
					l0.7-0.3c1,0.5,4.8-0.6,9.5-2.6c2.6-1.1,6.9-3.1,8.6-4.9l1-0.4C470,205,470,205.1,470.1,205.2z"/>
			</g>
		</g>
		<path class="st10" d="M457.2,206.5c0.3,0.8,1.2,1.2,2,0.8c0.8-0.3,1.2-1.2,0.8-2c-0.3-0.8-2.5-2-2.5-2S456.8,205.7,457.2,206.5z"
			/>
	</g>
	<path class="st31" d="M466.1,226.5c3-1.2,5.8-2.6,7.3-3.5c0.6-0.4,1.3-0.8,1.9-1.2c0.4-0.3,1.1-0.7,1.2-1.3c0-0.2-0.1-0.4-0.1-0.4
		c-0.1-0.3-0.4-1.1-0.6-1.4c-0.1-0.2-0.4-0.2-0.6-0.2c-0.2,0-0.3,0-0.7,0l0.2,0.5c-0.1,0.6-4.4,3.1-6.2,3.9c-5,2.2-9.9,4.2-11.9,3.6
		l-0.9,0.8l0.7,1.7C457,229.8,461.2,228.5,466.1,226.5z"/>
	<path class="st31" d="M460.2,213c2.7-0.9,7.1-3.4,7.5-3.6c0.6-0.4,1.3-0.8,1.9-1.2c0.4-0.3,1.1-0.7,1.2-1.3c0-0.2-0.1-0.4-0.1-0.4
		c-0.1-0.3-0.4-1.1-0.6-1.4c-0.1-0.2-0.4-0.2-0.6-0.2c-0.2,0-0.3,0-0.7,0l0.2,0.4c-0.9,1-3.9,2.9-8,4.6l-0.4,0.8L460.2,213z"/>
</g>
<g>
	<linearGradient id="SVGID_27_" gradientUnits="userSpaceOnUse" x1="383.3476" y1="37.6249" x2="474.3289" y2="37.6249">
		<stop  offset="0" style="stop-color:#FFFFED"/>
		<stop  offset="0.1403" style="stop-color:#F8F8CD"/>
		<stop  offset="0.3938" style="stop-color:#EDED99"/>
		<stop  offset="0.5849" style="stop-color:#E6E679"/>
		<stop  offset="0.6901" style="stop-color:#E3E36D"/>
		<stop  offset="1" style="stop-color:#8F9246"/>
	</linearGradient>
	<linearGradient id="SVGID_28_" gradientUnits="userSpaceOnUse" x1="382.8751" y1="37.6249" x2="474.8014" y2="37.6249">
		<stop  offset="0" style="stop-color:#FFFFED"/>
		<stop  offset="0.1403" style="stop-color:#F8F8CD"/>
		<stop  offset="0.3938" style="stop-color:#EDED99"/>
		<stop  offset="0.5849" style="stop-color:#E6E679"/>
		<stop  offset="0.6901" style="stop-color:#E3E36D"/>
		<stop  offset="1" style="stop-color:#8F9246"/>
	</linearGradient>
	<path class="st32" d="M474.3,37.6c0,1.4-1.2,2.7-3.3,3.8c-2.7,1.5-6.9,2.8-12.1,3.8c-1.1,0.2-2.3,0.4-3.5,0.6
		c-0.4,0.1-0.9,0.1-1.3,0.2c-0.4,0.1-0.9,0.1-1.3,0.2c-2.8,0.4-5.8,0.7-9,1c-0.4,0-0.9,0.1-1.3,0.1c-0.9,0.1-1.8,0.1-2.7,0.2
		c-0.9,0-1.8,0.1-2.7,0.1c-0.9,0-1.7,0.1-2.6,0.1c-1,0-2.1,0.1-3.2,0.1c-0.9,0-1.7,0-2.6,0c-11.5,0-22-1-30-2.5
		c-5.3-1-9.5-2.4-12.1-3.8c-2.1-1.2-3.3-2.5-3.3-3.8c0-0.5,0.2-1,0.5-1.6c3.4-4.9,22.2-8.7,45-8.7c22.4,0,41,3.6,44.8,8.4
		c0.1,0.1,0.1,0.2,0.2,0.2C474.1,36.6,474.3,37.1,474.3,37.6z"/>
	<linearGradient id="SVGID_29_" gradientUnits="userSpaceOnUse" x1="383.3476" y1="46.5784" x2="474.3289" y2="46.5784">
		<stop  offset="0" style="stop-color:#FFFFED"/>
		<stop  offset="0.2033" style="stop-color:#F8F8CD"/>
		<stop  offset="0.5706" style="stop-color:#EDED99"/>
		<stop  offset="0.8475" style="stop-color:#E6E679"/>
		<stop  offset="1" style="stop-color:#E3E36D"/>
	</linearGradient>
	<linearGradient id="SVGID_30_" gradientUnits="userSpaceOnUse" x1="382.8751" y1="46.8147" x2="474.8014" y2="46.8147">
		<stop  offset="0" style="stop-color:#FFFFED"/>
		<stop  offset="0.2033" style="stop-color:#F8F8CD"/>
		<stop  offset="0.5706" style="stop-color:#EDED99"/>
		<stop  offset="0.8475" style="stop-color:#E6E679"/>
		<stop  offset="1" style="stop-color:#E3E36D"/>
	</linearGradient>
	<path class="st33" d="M474.3,37.6v7.7c0,5.2-17,9.4-39.1,10.1c-2.1,0.1-4.2,0.1-6.4,0.1c-25.1,0-45.5-4.6-45.5-10.2v-7.7
		c0,1.4,1.2,2.7,3.3,3.8c2.7,1.5,6.9,2.8,12.1,3.8c8,1.6,18.5,2.5,30,2.5c0.9,0,1.7,0,2.6,0c1.1,0,2.1,0,3.2-0.1
		c0.9,0,1.7,0,2.6-0.1c0.9,0,1.8-0.1,2.7-0.1c0.9,0,1.8-0.1,2.7-0.2c0.4,0,0.9-0.1,1.3-0.1c3.2-0.2,6.2-0.6,9-1
		c0.4-0.1,0.9-0.1,1.3-0.2c0.4-0.1,0.9-0.1,1.3-0.2c1.2-0.2,2.4-0.4,3.5-0.6c5.3-1,9.5-2.4,12.1-3.8C473.2,40.3,474.3,39,474.3,37.6
		z"/>
	<g>
		<defs>
			<path id="XMLID_391_" d="M454.7,30.6c-7.3,1.1-16.3,1.8-25.9,1.8c-9.6,0-18.5-0.7-25.9-1.8c0.2-1.3,0.6-2.5,1-3.8
				c0.4-1.2,0.9-2.4,1.5-3.6C409.8,14.8,418.6,9,428.8,9c10.2,0,19,5.8,23.4,14.3c0.6,1.1,1.1,2.3,1.5,3.6
				C454.2,28,454.5,29.3,454.7,30.6z"/>
		</defs>
		<use xlink:href="#XMLID_391_"  style="overflow:visible;fill:#DADDB3;"/>
		<clipPath id="XMLID_8_">
			<use xlink:href="#XMLID_391_"  style="overflow:visible;"/>
		</clipPath>
		<g class="st34">
			<ellipse class="st35" cx="421.7" cy="54.5" rx="6.9" ry="0.4"/>
			<path d="M428.4,30l2.7,0.4l1.1,0.2c0.4,0.1,0.5-0.2,0.7-0.5c0.2-0.3,0.5-0.5,0.8-0.5c0,0,0.1,0,0.1,0c0,0,0,0,0,0
				c0-0.1-0.1-0.2-0.1-0.2c-0.1-0.1-0.2-0.1-0.3-0.1c-0.4-0.1-0.8-0.2-1.2-0.1l-1,0.3l-2.2-0.1L428.4,30z"/>
			<path d="M424.3,24.7l-1.6,1l1.7,3.7c0.4,0.8,1.5,0.8,2.4,0.8l4.2,0.2l0.2-1.1l-4.7-0.6c-1.3-0.2-1.8-3.4-1.9-3.6L424.3,24.7z"/>
			<path d="M421,37.2c-0.2,3.3,0.7,8.1,0.7,8.1s0,4.7,0.3,7.5l0.9,0.5l0.5-3.6l0.2-4l-0.1-2.7"/>
			<path d="M421.3,38.5c0.1,1.5-0.1,4.6-0.2,5.8c0,0.4,0,0.8-0.1,1.2c-0.2,1.6-0.8,5.8-1.3,7.7h-1.1c-0.2-3-0.2-8.7-0.2-8.7
				s-1-6.7-0.4-8.9l6.3-0.3c0.4,5.8,0.2,12.1-1.2,17.9h-1c-0.4-3.4-0.3-8-0.3-8S421.3,41.3,421.3,38.5"/>
			<path d="M417,25.6l1,11.5l6.5-0.3l0.2-11.7c0-0.2-0.3-0.4-0.5-0.4c-1,0.1-1.1-0.4-2-0.5c-0.5,1.3-1.8,0.1-1.8-0.2V24
				c-1,0-1.9,0.1-2.6,0.4C417.3,24.5,417,25.1,417,25.6z"/>
			<path d="M416.8,25.6l1,11.5l6.5-0.3l0.4-11.7c0-0.2-0.1-0.3-0.2-0.4c-0.6-0.3-1.5-0.5-2.4-0.6c-0.5,1.3-1.8,0.2-1.8,0V24
				c-1,0-1.9,0.1-2.6,0.4C417.1,24.5,416.8,25.1,416.8,25.6z"/>
			<path d="M419.2,20.9c0.3,0.5,0.8,1,1,1.6c0.2,0.5,0.1,1.1,0.1,1.7l0,0.6c0.5,0.4,1.3,0.5,1.8-0.1c0,0,0-0.5,0-0.5l0-0.9
				c0,0.1,0.7-0.3,0.7-0.4c0.2-0.2,0.3-0.5,0.4-0.7c0.4-0.8,0.7-1.6,0.8-2.5c0-0.9-0.4-2-1.2-2.3c-0.3-0.1-0.5-0.2-0.8-0.2
				c-1-0.1-2.2,0-2.8,0.7c-0.6,0.7-0.6,1.7-0.3,2.5C418.9,20.5,419,20.7,419.2,20.9z"/>
			<path d="M417.8,33.2l0.5,2.2l0.5,1c0.1,0.2,0.1,0.5-0.1,0.7l-0.2,0.2c-0.1,0.1-0.3,0.2-0.4,0.2l0,0c-0.4,0-0.7-0.2-0.7-0.6l0-1
				l-0.8-2.1L417.8,33.2z"/>
			<path d="M421.9,52.8l-0.2,1.6h3.9l0,0c0-0.4-0.3-0.7-0.7-0.7h-0.5c-0.4,0-0.7-0.3-0.8-0.7l0-0.2c0-0.1-0.1-0.2-0.2-0.2l-1.2-0.1
				C422,52.7,421.9,52.7,421.9,52.8z"/>
			<path d="M418.3,52.8l-0.2,1.6h2.8h0.2c0-0.4-0.3-0.7-0.7-0.7h0.1c-0.4,0-0.5-0.3-0.5-0.7l0-0.2c0-0.1-0.1-0.2-0.2-0.2l-1.2-0.1
				C418.4,52.7,418.3,52.7,418.3,52.8z"/>
			<polygon points="418.9,26.2 418.9,25.2 417.2,25.1 415.5,30.3 416.5,34.2 417.9,33.3 417.6,30.2 			"/>
			<path d="M419,25.9c0.3-1.3-1.7-1.7-2.1-0.9l-1.7,5.2l1.3,3.9l1.4-0.8l-0.7-3.2L419,25.9z"/>
			<path d="M421.4,25c-0.1,0-0.2,0-0.3,0l0.2,1.1L421.4,25z"/>
		</g>
		<g class="st34">
			<ellipse class="st35" cx="438.3" cy="54.5" rx="6.9" ry="0.4"/>
			<path d="M439,37.2c0.2,3.3-0.7,8.1-0.7,8.1s0,4.7-0.3,7.5l-0.9,0.5l-0.5-3.6l-0.2-4l0.1-2.7"/>
			<path d="M438.7,38.5c-0.1,1.5,0.1,4.6,0.2,5.8c0,0.4,0,0.8,0.1,1.2c0.2,1.6,0.8,5.8,1.3,7.7h1.1c0.2-3,0.2-8.7,0.2-8.7
				s1-6.7,0.4-8.9l-6.3-0.3c-0.4,5.8-0.2,12.1,1.2,17.9h1c0.4-3.4,0.3-8,0.3-8S438.7,41.3,438.7,38.5"/>
			<path d="M443,25.6l-1,11.5l-6.5-0.3l-0.2-11.7c0-0.2,0.3-0.4,0.5-0.4c1,0.1,1.1-0.4,2-0.5c0.5,1.3,1.8,0.1,1.8-0.2V24
				c1,0,1.9,0.1,2.6,0.4C442.7,24.5,443,25.1,443,25.6z"/>
			<path d="M443.1,25.6l-1,11.5l-6.5-0.3l-0.4-11.7c0-0.2,0.1-0.3,0.2-0.4c0.6-0.3,1.5-0.5,2.4-0.6c0.5,1.3,1.8,0.2,1.8,0V24
				c1,0,1.9,0.1,2.6,0.4C442.9,24.5,443.2,25.1,443.1,25.6z"/>
			<path d="M440.8,20.9c-0.3,0.5-0.8,1-1,1.6c-0.2,0.5-0.1,1.1-0.1,1.7l0,0.6c-0.5,0.4-1.3,0.5-1.8-0.1c0,0,0-0.5,0-0.5l0-0.9
				c0,0.1-0.7-0.3-0.7-0.4c-0.2-0.2-0.3-0.5-0.4-0.7c-0.4-0.8-0.7-1.6-0.8-2.5c0-0.9,0.4-2,1.2-2.3c0.3-0.1,0.5-0.2,0.8-0.2
				c1-0.1,2.2,0,2.8,0.7c0.6,0.7,0.6,1.7,0.3,2.5C441.1,20.5,441,20.7,440.8,20.9z"/>
			<path d="M442.2,33.2l-0.5,2.2l-0.5,1c-0.1,0.2-0.1,0.5,0.1,0.7l0.2,0.2c0.1,0.1,0.3,0.2,0.4,0.2l0,0c0.4,0,0.7-0.2,0.7-0.6l0-1
				l0.8-2.1L442.2,33.2z"/>
			<path d="M438.1,52.8l0.2,1.6h-3.9l0,0c0-0.4,0.3-0.7,0.7-0.7h0.5c0.4,0,0.7-0.3,0.8-0.7l0-0.2c0-0.1,0.1-0.2,0.2-0.2l1.2-0.1
				C438,52.7,438.1,52.7,438.1,52.8z"/>
			<path d="M441.7,52.8l0.2,1.6h-2.8h-0.2c0-0.4,0.3-0.7,0.7-0.7h-0.1c0.4,0,0.5-0.3,0.5-0.7l0-0.2c0-0.1,0.1-0.2,0.2-0.2l1.2-0.1
				C441.6,52.7,441.7,52.7,441.7,52.8z"/>
			<polygon points="441.1,26.2 441.1,25.2 442.7,25.1 444.5,30.3 443.5,34.2 442.1,33.3 442.4,30.2 			"/>
			<path d="M441,25.9c-0.3-1.3,1.7-1.7,2.1-0.9l1.7,5.2l-1.3,3.9l-1.4-0.8l0.7-3.2L441,25.9z"/>
			<path d="M434.7,25.6c0-1.3,2.1-1.2,2.2-0.3l0.4,5.5l-2.2,3.4l-1.2-1.2l1.5-2.9L434.7,25.6z"/>
			<path d="M438.6,25c0.1,0,0.2,0,0.3,0l-0.2,1.1L438.6,25z"/>
		</g>
		<circle class="st34" cx="433.6" cy="30.5" r="0.7"/>
		<rect x="433.4" y="31.2" class="st34" width="0.5" height="3.2"/>
		<linearGradient id="XMLID_9_" gradientUnits="userSpaceOnUse" x1="402.4024" y1="20.6857" x2="455.2732" y2="20.6857">
			<stop  offset="0" style="stop-color:#FFFFED"/>
			<stop  offset="0.2033" style="stop-color:#F8F8CD"/>
			<stop  offset="0.5706" style="stop-color:#EDED99"/>
			<stop  offset="0.8475" style="stop-color:#E6E679"/>
			<stop  offset="1" style="stop-color:#E3E36D"/>
		</linearGradient>
		
			<use xlink:href="#XMLID_391_"  style="overflow:visible;fill:none;stroke:url(#XMLID_9_);stroke-width:0.945;stroke-miterlimit:10;"/>
	</g>
	<linearGradient id="SVGID_31_" gradientUnits="userSpaceOnUse" x1="434.4603" y1="46.7603" x2="474.7712" y2="46.7603">
		<stop  offset="0" style="stop-color:#231F20;stop-opacity:0"/>
		<stop  offset="2.300739e-02" style="stop-color:#231F20;stop-opacity:2.300739e-02"/>
		<stop  offset="1" style="stop-color:#231F20"/>
	</linearGradient>
	<path class="st37" d="M439.6,47.1l0.2,0c0.9,0,1.8-0.1,2.6-0.2l0.1,0c0.4,0,0.8-0.1,1.2-0.1c3.2-0.2,6.2-0.6,9-1
		c0.4-0.1,0.9-0.1,1.3-0.2c0.4-0.1,0.9-0.1,1.3-0.2c1.2-0.2,2.4-0.4,3.5-0.6c5.3-1,9.4-2.3,12-3.8c2-1.1,3.1-2.3,3.1-3.4h0.9v7.7
		c0,6.1-19.9,9.9-39.5,10.6l-0.8,0L439.6,47.1z"/>
	<g>
		<g>
			<defs>
				<path id="XMLID_399_" d="M455.6,35.3c0,0.4,0,0.7,0,1.1l0,0.3l-0.3,0.1c-1.3,0.4-2.7,0.7-4.4,1c-6.1,1.2-13.9,1.9-22,1.9
					c-8.1,0-16-0.7-22-1.9c-1.6-0.3-3.1-0.7-4.4-1l-0.3-0.1l0-0.3c0-0.4,0-0.7,0-1.1c0-1.6,0.2-3.2,0.4-4.8l0.1-0.5l0.5,0.1
					c7.6,1.2,16.5,1.8,25.8,1.8c9.3,0,18.2-0.6,25.8-1.8l0.5-0.1l0.1,0.5C455.5,32.1,455.6,33.7,455.6,35.3z"/>
			</defs>
			<linearGradient id="XMLID_10_" gradientUnits="userSpaceOnUse" x1="402.0581" y1="34.875" x2="455.6092" y2="34.875">
				<stop  offset="0" style="stop-color:#FFFFED"/>
				<stop  offset="0.2033" style="stop-color:#F8F8CD"/>
				<stop  offset="0.5706" style="stop-color:#EDED99"/>
				<stop  offset="0.8475" style="stop-color:#E6E679"/>
				<stop  offset="1" style="stop-color:#E3E36D"/>
			</linearGradient>
			<use xlink:href="#XMLID_399_"  style="overflow:visible;fill:url(#XMLID_10_);"/>
			<clipPath id="XMLID_11_">
				<use xlink:href="#XMLID_399_"  style="overflow:visible;"/>
			</clipPath>
			<linearGradient id="SVGID_32_" gradientUnits="userSpaceOnUse" x1="441.6686" y1="30.4546" x2="481.9795" y2="30.4546">
				<stop  offset="0" style="stop-color:#231F20;stop-opacity:0"/>
				<stop  offset="2.300739e-02" style="stop-color:#231F20;stop-opacity:2.300739e-02"/>
				<stop  offset="1" style="stop-color:#231F20"/>
			</linearGradient>
			<path class="st38" d="M446.8,30.8l0.2,0c0.9,0,1.8-0.1,2.6-0.2l0.1,0c0.4,0,0.8-0.1,1.2-0.1c3.2-0.2,6.2-0.6,9-1
				c0.4-0.1,0.9-0.1,1.3-0.2c0.4-0.1,0.9-0.1,1.3-0.2c1.2-0.2,2.4-0.4,3.5-0.6c5.3-1,9.4-2.3,12-3.8c2-1.1,3.1-2.3,3.1-3.4h0.9V29
				c0,6.1-19.9,9.9-39.5,10.6l-0.8,0L446.8,30.8z"/>
		</g>
	</g>
</g>
<ellipse class="st27" cx="561.6" cy="275.5" rx="22.5" ry="0.9"/>
<linearGradient id="SVGID_33_" gradientUnits="userSpaceOnUse" x1="539.1128" y1="267.8809" x2="541.9044" y2="267.8809">
	<stop  offset="2.167468e-02" style="stop-color:#543211"/>
	<stop  offset="0.7838" style="stop-color:#2F1500"/>
</linearGradient>
<path class="st39" d="M541.9,275.4c0,0.5-2.8,0.5-2.8,0V260h2.8V275.4z"/>
<g>
	<defs>
		<path id="XMLID_394_" d="M548.9,253.2c0,12.1-3.7,11.5-8.4,11.5s-8.4,0.6-8.4-11.5s3.7-32.2,8.4-32.2S548.9,241.1,548.9,253.2z"/>
	</defs>
	<linearGradient id="XMLID_12_" gradientUnits="userSpaceOnUse" x1="532.1336" y1="242.7848" x2="548.8836" y2="242.7848">
		<stop  offset="0" style="stop-color:#74BA44"/>
		<stop  offset="1" style="stop-color:#538531"/>
	</linearGradient>
	<use xlink:href="#XMLID_394_"  style="overflow:visible;fill:url(#XMLID_12_);"/>
	<clipPath id="XMLID_13_">
		<use xlink:href="#XMLID_394_"  style="overflow:visible;"/>
	</clipPath>
	<path class="st40" d="M545.6,224.2c-1.7,18.2-0.2,36.2-5.8,41.8l13.8,4C555.2,256.4,550.5,240.3,545.6,224.2z"/>
</g>
<ellipse class="st27" cx="385.7" cy="290.9" rx="22.5" ry="0.9"/>
<linearGradient id="SVGID_34_" gradientUnits="userSpaceOnUse" x1="363.2303" y1="283.3087" x2="366.022" y2="283.3087">
	<stop  offset="2.167468e-02" style="stop-color:#543211"/>
	<stop  offset="0.7838" style="stop-color:#2F1500"/>
</linearGradient>
<path class="st41" d="M366,290.8c0,0.5-2.8,0.5-2.8,0v-15.4h2.8V290.8z"/>
<g>
	<defs>
		<path id="XMLID_3_" d="M373,268.6c0,12.1-3.7,11.5-8.4,11.5c-4.6,0-8.4,0.6-8.4-11.5c0-12.1,3.7-32.2,8.4-32.2
			C369.3,236.3,373,256.5,373,268.6z"/>
	</defs>
	<linearGradient id="XMLID_14_" gradientUnits="userSpaceOnUse" x1="356.2512" y1="258.2126" x2="373.0012" y2="258.2126">
		<stop  offset="0" style="stop-color:#74BA44"/>
		<stop  offset="1" style="stop-color:#538531"/>
	</linearGradient>
	<use xlink:href="#XMLID_3_"  style="overflow:visible;fill:url(#XMLID_14_);"/>
	<clipPath id="XMLID_15_">
		<use xlink:href="#XMLID_3_"  style="overflow:visible;"/>
	</clipPath>
	<path class="st42" d="M369.7,239.6c-1.7,18.2-0.2,36.2-5.8,41.8l13.8,4C379.3,271.8,374.6,255.7,369.7,239.6z"/>
</g>
<ellipse class="st27" cx="186.6" cy="264.5" rx="19.5" ry="0.8"/>
<linearGradient id="SVGID_35_" gradientUnits="userSpaceOnUse" x1="167.1033" y1="257.9394" x2="169.5326" y2="257.9394">
	<stop  offset="2.167468e-02" style="stop-color:#543211"/>
	<stop  offset="0.7838" style="stop-color:#2F1500"/>
</linearGradient>
<path class="st43" d="M169.5,264.5c0,0.4-2.4,0.4-2.4,0v-13.4h2.4V264.5z"/>
<g>
	<defs>
		<path id="XMLID_396_" d="M175.6,245.1c0,10.5-3.3,10-7.3,10c-4,0-7.3,0.5-7.3-10c0-10.5,3.3-28.1,7.3-28.1
			C172.3,217.1,175.6,234.6,175.6,245.1z"/>
	</defs>
	<linearGradient id="XMLID_16_" gradientUnits="userSpaceOnUse" x1="161.03" y1="236.1009" x2="175.6058" y2="236.1009">
		<stop  offset="0" style="stop-color:#74BA44"/>
		<stop  offset="1" style="stop-color:#538531"/>
	</linearGradient>
	<use xlink:href="#XMLID_396_"  style="overflow:visible;fill:url(#XMLID_16_);"/>
	<clipPath id="XMLID_17_">
		<use xlink:href="#XMLID_396_"  style="overflow:visible;"/>
	</clipPath>
	<path class="st44" d="M172.8,219.9c-1.4,15.9-0.1,31.5-5.1,36.4l12,3.5C181.1,247.9,177,233.9,172.8,219.9z"/>
</g>
<ellipse class="st27" cx="222.5" cy="273.2" rx="9.7" ry="0.9"/>
<g>
	<ellipse class="st27" cx="272.3" cy="252.6" rx="19.5" ry="0.8"/>
	<linearGradient id="SVGID_36_" gradientUnits="userSpaceOnUse" x1="252.807" y1="246.0002" x2="255.2363" y2="246.0002">
		<stop  offset="2.167468e-02" style="stop-color:#543211"/>
		<stop  offset="0.7838" style="stop-color:#2F1500"/>
	</linearGradient>
	<path class="st45" d="M255.2,252.5c0,0.4-2.4,0.4-2.4,0v-13.4h2.4V252.5z"/>
	<g>
		<defs>
			<path id="XMLID_390_" d="M261.3,233.2c0,10.5-3.3,10-7.3,10c-4,0-7.3,0.5-7.3-10s3.3-28.1,7.3-28.1
				C258,205.1,261.3,222.7,261.3,233.2z"/>
		</defs>
		<linearGradient id="XMLID_18_" gradientUnits="userSpaceOnUse" x1="246.7338" y1="224.1617" x2="261.3095" y2="224.1617">
			<stop  offset="0" style="stop-color:#74BA44"/>
			<stop  offset="1" style="stop-color:#538531"/>
		</linearGradient>
		<use xlink:href="#XMLID_390_"  style="overflow:visible;fill:url(#XMLID_18_);"/>
		<clipPath id="XMLID_19_">
			<use xlink:href="#XMLID_390_"  style="overflow:visible;"/>
		</clipPath>
		<path class="st46" d="M258.5,208c-1.4,15.9-0.1,31.5-5.1,36.4l12,3.5C266.8,236,262.7,222,258.5,208z"/>
	</g>
</g>
<g>
	<ellipse class="st27" cx="338.5" cy="249.8" rx="19.5" ry="0.8"/>
	<linearGradient id="SVGID_37_" gradientUnits="userSpaceOnUse" x1="319.0104" y1="243.1938" x2="321.4397" y2="243.1938">
		<stop  offset="2.167468e-02" style="stop-color:#543211"/>
		<stop  offset="0.7838" style="stop-color:#2F1500"/>
	</linearGradient>
	<path class="st47" d="M321.4,249.7c0,0.4-2.4,0.4-2.4,0v-13.4h2.4V249.7z"/>
	<g>
		<defs>
			<path id="XMLID_5_" d="M327.5,230.4c0,10.5-3.3,10-7.3,10c-4,0-7.3,0.5-7.3-10s3.3-28.1,7.3-28.1
				C324.2,202.3,327.5,219.9,327.5,230.4z"/>
		</defs>
		<linearGradient id="XMLID_20_" gradientUnits="userSpaceOnUse" x1="312.9371" y1="221.3553" x2="327.5129" y2="221.3553">
			<stop  offset="0" style="stop-color:#74BA44"/>
			<stop  offset="1" style="stop-color:#538531"/>
		</linearGradient>
		<use xlink:href="#XMLID_5_"  style="overflow:visible;fill:url(#XMLID_20_);"/>
		<clipPath id="XMLID_21_">
			<use xlink:href="#XMLID_5_"  style="overflow:visible;"/>
		</clipPath>
		<path class="st48" d="M324.7,205.2c-1.4,15.9-0.1,31.5-5.1,36.4l12,3.5C333,233.2,328.9,219.2,324.7,205.2z"/>
	</g>
</g>
<g>
	<path class="st49" d="M221.9,229.1l-2.5-1.2c-0.7-0.3-1.8-1.6-2.5-0.6c-0.1,0.1-0.1,0.3-0.1,0.4c0,0.1,0.1,0.2,0.1,0.3
		c0.2,0.3,0.4,0.6,0.7,0.8c0.1,0.1,0.2,0.2,0.3,0.1c0.1-0.1,0-0.3,0.1-0.4c0.2,0,0.5,0.3,0.6,0.4c0.2,0.1,0.5,0.3,0.7,0.5
		c0.4,0.3,0.7,0.5,1.1,0.8c0.4,0.2,0.2,0.1,0.6,0.3L221.9,229.1z"/>
	<path class="st50" d="M220.4,238.1l1.4,1.5l4.5-7.3c0.2-0.3,0.1-0.8-0.3-1l-5.3-3l-0.4,1.8l2.8,2.3c0,0-1.5,2.2-2.4,2
		C219.8,234.2,220.1,237.7,220.4,238.1z"/>
	<g>
		<defs>
			<path id="XMLID_1_" d="M220.4,238.1l1.4,1.5l4.5-7.3c0.2-0.3,0.1-0.8-0.3-1l-5.3-3l-0.4,1.8l2.8,2.3c0,0-1.6,2-2.4,2
				S220.1,237.7,220.4,238.1z"/>
		</defs>
		<use xlink:href="#XMLID_1_"  style="overflow:visible;fill:#E09427;"/>
		<clipPath id="XMLID_22_">
			<use xlink:href="#XMLID_1_"  style="overflow:visible;"/>
		</clipPath>
		<path class="st51" d="M219.5,238.4l2,1.9l3.9-7.6c0.2-0.3,0.1-0.8-0.3-1l-5.3-3l-0.4,1.8l2.8,2.3l-2.4,2
			C219.5,235.1,219.2,238,219.5,238.4z"/>
	</g>
	<path class="st52" d="M217.7,250.9c-0.2,4.3,0.9,10.4,0.9,10.4s0,6,0.4,9.7l1.2,0.6l0.7-4.6l0.3-5.2l-0.2-3.5"/>
	<path class="st53" d="M218,252.6c0.1,1.9-0.1,6-0.2,7.5c0,0.5-0.1,1-0.1,1.5c-0.3,2-1.1,7.5-1.7,9.9h-1.4
		c-0.3-3.9-0.2-11.1-0.2-11.1s-1.3-8.6-0.5-11.4l8.1-0.3c0.5,7.5,0.3,15.6-1.5,23.1h-1.3c-0.5-4.4-0.4-10.4-0.4-10.4
		S218,256.2,218,252.6"/>
	<path class="st54" d="M212.6,236l1.3,14.8l8.4-0.3l0.2-11.9c0-0.2-1.5-4.2-1.7-4.2c-1.2,0.1-0.2,0-1.3-0.1
		c-0.7,1.7-2.3,0.1-2.3-0.2V234c-1.2,0-2.4,0.2-3.4,0.5C212.9,234.6,212.5,235.3,212.6,236z"/>
	<path class="st55" d="M212.3,236l1.3,14.8l8.4-0.3l0.4-12c0,0-1.1-3.9-1.7-4c-0.6-0.1-1.2-0.3-1.8-0.3c-0.7,1.7-1.8,0.3-1.9,0V234
		c-1.2,0-2.6,0.2-3.6,0.5C212.7,234.6,212.3,235.3,212.3,236z"/>
	<g>
		<defs>
			<path id="XMLID_397_" d="M214.7,232.4c0.8,0.5,1.5,0.9,2.2,0.9l-0.1,1c0.4,0.5,1.6,0.7,2,0.4c0.2-0.2,0-2.4,0-2.4
				c0.3-0.3,0.3-0.7,0.3-0.7c0.2-1-0.4-2.3-1.8-3.3c-1.3-0.8-2.7-1-3.6-0.4c-0.2,0.1-0.4,0.3-0.5,0.5
				C212.4,229.7,213.1,231.4,214.7,232.4z"/>
		</defs>
		<use xlink:href="#XMLID_397_"  style="overflow:visible;fill:#E19859;"/>
		<clipPath id="XMLID_23_">
			<use xlink:href="#XMLID_397_"  style="overflow:visible;"/>
		</clipPath>
		<path class="st56" d="M217.7,235.3l-0.1-1.5c0,0-0.2-1.4-0.4-1.5c-0.1,0,0.1,0,0,0c-0.2,0-0.4-0.1-0.6-0.1
			c-1.1-0.4-2.1-1.1-3.2-1.2c-0.1,0-0.2,0-0.3,0.1c-0.1,0.1-0.1,0.3,0,0.4c0.5,1.1,1.5,1.8,2.5,2.5c0.5,0.3,0.9,0.7,1.4,1"/>
	</g>
	<path class="st57" d="M213.5,245.8l0.7,2.8l0.6,1.3c0.2,0.3,0.1,0.7-0.1,0.9l-0.3,0.3c-0.1,0.1-0.3,0.2-0.5,0.3l0,0
		c-0.5,0-0.9-0.3-0.9-0.8l-0.1-1.3l-1.1-2.6L213.5,245.8z"/>
	<path class="st58" d="M218.8,271l-0.3,2.1h5l0,0c0-0.5-0.4-0.9-0.9-0.9H222c-0.5,0-1-0.4-1-0.9l0-0.2c0-0.1-0.1-0.2-0.2-0.2
		l-1.5-0.1C219,270.8,218.8,270.9,218.8,271z"/>
	<path class="st58" d="M214.2,271l-0.3,2.1h3.6h0.3c0-0.5-0.4-0.9-0.9-0.9h0.1c-0.5,0-0.6-0.4-0.7-0.9l0-0.2c0-0.1-0.1-0.2-0.2-0.2
		l-1.5-0.1C214.4,270.8,214.2,270.9,214.2,271z"/>
	<polygon class="st54" points="215,236.7 215,235.5 212.9,235.3 210.6,242 211.9,247 213.7,245.9 213.2,241.9 	"/>
	<path class="st55" d="M215.1,236.4c0.4-1.6-2.2-2.2-2.7-1.1l-2.1,6.5c0,0.1,0,0.3,0,0.4l1.6,4.8l1.8-1.1l-0.9-4.1L215.1,236.4z"/>
	<path class="st54" d="M218.6,234.9c-0.1,0-0.2,0-0.3,0l0.3,1.4L218.6,234.9z"/>
	<g>
		<polygon class="st59" points="217,228.1 217.4,228.4 213.6,231.2 		"/>
		<path class="st60" d="M213.1,231.3l0.2,0.2l4.3-3.9l-0.2-0.2l-0.4,0.4l0,0c0,0-1.6-1.3-2.3-1.4c-0.5-0.1-0.9,0.3-1.6,1
			c-0.5,0.5-0.8,1.1-0.8,1.8c0,0.6,0.3,1.3,0.8,1.8l0.2,0.2L213.1,231.3z"/>
		<path class="st61" d="M212.4,228.8c1.5-1.7,2.4-0.9,3.4,0.2l-2.5,2.2C212.6,230.5,212.2,229.7,212.4,228.8z"/>
		<path class="st61" d="M215,227.3l-0.7,0l-1.8,1.2l1.7-1.4c0.1-0.1,0.2-0.1,0.3,0L215,227.3z"/>
	</g>
</g>
<ellipse class="st27" cx="145.4" cy="278.3" rx="9.7" ry="0.9"/>
<g>
	<path class="st62" d="M144.4,249.5l1.8,2.2l0.8,1.2c0.2,0.3,0.5,0.5,0.9,0.4l0.4-0.1c0.2,0,0.4-0.2,0.5-0.3l0,0
		c0.3-0.4,0.2-0.9-0.2-1.2l-1.1-0.8l-1.7-2.3L144.4,249.5z"/>
	<path class="st63" d="M143.8,240l-2-0.4l0.5,7.7l2.7,3.4l1.4-1.1l-1.7-3.2l-0.2-5.4C144.6,240.5,144.2,240.1,143.8,240z"/>
	<path class="st52" d="M139.5,256.1c-0.2,4.3,0.9,10.4,0.9,10.4s0,6,0.4,9.7l1.2,0.6l0.7-4.6l0.3-5.2l-0.2-3.5"/>
	<path class="st53" d="M139.9,257.8c0.1,1.9-0.1,6-0.2,7.5c0,0.5-0.1,1-0.1,1.5c-0.3,2-1.1,7.5-1.7,9.9h-1.4
		c-0.3-3.9-0.2-11.1-0.2-11.1s-1.3-8.6-0.5-11.4l8.1-0.3c0.5,7.5,0.3,15.6-1.5,23.1H141c-0.5-4.4-0.4-10.4-0.4-10.4
		S139.9,261.4,139.9,257.8"/>
	<path class="st64" d="M134.4,241.2l1.3,14.8l8.4-0.3l0.3-15c0-0.2-0.4-0.6-0.6-0.5c-1.2,0.1-1.4-0.5-2.6-0.6
		c-0.7,1.7-2.3,0.1-2.3-0.2v-0.1c-1.2,0-2.4,0.2-3.4,0.5C134.8,239.8,134.3,240.5,134.4,241.2z"/>
	<path class="st63" d="M134.2,241.2l1.3,14.8l8.4-0.3l0.5-15c0-0.2-0.1-0.4-0.3-0.6c-0.8-0.4-2.2-0.7-3.3-0.8
		c-0.7,1.7-1.8,0.3-1.9,0v-0.1c-1.2,0-2.6,0.2-3.6,0.5C134.6,239.8,134.1,240.5,134.2,241.2z"/>
	<g>
		<defs>
			<path id="XMLID_393_" d="M136.6,237.6c0.8,0.5,1.5,0.9,2.2,0.9l-0.1,1c0.4,0.5,1.6,0.7,2,0.4c0.2-0.2,0-2.4,0-2.4
				c0.3-0.3,0.3-0.7,0.3-0.7c0.2-1-0.4-2.3-1.8-3.3c-1.3-0.8-2.7-1-3.6-0.4c-0.2,0.1-0.4,0.3-0.5,0.5
				C134.3,234.9,135,236.6,136.6,237.6z"/>
		</defs>
		<use xlink:href="#XMLID_393_"  style="overflow:visible;fill:#83542C;"/>
		<clipPath id="XMLID_24_">
			<use xlink:href="#XMLID_393_"  style="overflow:visible;"/>
		</clipPath>
		<path class="st65" d="M139.6,240.5l-0.1-1.5c0,0-0.2-1.4-0.4-1.5c-0.1,0,0.1,0,0,0c-0.2,0-0.4-0.1-0.6-0.1
			c-1.1-0.4-2.1-1.1-3.2-1.2c-0.1,0-0.2,0-0.3,0.1c-0.1,0.1-0.1,0.3,0,0.4c0.5,1.1,1.5,1.8,2.5,2.5c0.5,0.3,0.9,0.7,1.4,1"/>
	</g>
	<path class="st62" d="M135.4,251l0.7,2.8l0.6,1.3c0.2,0.3,0.1,0.7-0.1,0.9l-0.3,0.3c-0.1,0.1-0.3,0.2-0.5,0.3l0,0
		c-0.5,0-0.9-0.3-0.9-0.8l-0.1-1.3l-1.1-2.6L135.4,251z"/>
	<path class="st58" d="M140.7,276.2l-0.3,2.1h5l0,0c0-0.5-0.4-0.9-0.9-0.9h-0.7c-0.5,0-1-0.4-1-0.9l0-0.2c0-0.1-0.1-0.2-0.2-0.2
		L141,276C140.8,276,140.7,276.1,140.7,276.2z"/>
	<path class="st58" d="M136.1,276.2l-0.3,2.1h3.6h0.3c0-0.5-0.4-0.9-0.9-0.9h0.1c-0.5,0-0.6-0.4-0.7-0.9l0-0.2
		c0-0.1-0.1-0.2-0.2-0.2l-1.5-0.1C136.2,276,136.1,276.1,136.1,276.2z"/>
	<polygon class="st64" points="136.9,241.9 136.8,240.6 134.7,240.5 132.5,247.2 133.8,252.2 135.6,251.1 135.1,247.1 	"/>
	<path class="st63" d="M137,241.6c0.4-1.6-2.2-2.2-2.7-1.1l-2.2,6.7l1.7,5l1.8-1.1l-0.9-4.1L137,241.6z"/>
	<path class="st64" d="M140.5,240.1c-0.1,0-0.2,0-0.3,0l0.3,1.4L140.5,240.1z"/>
	<g>
		<polygon class="st66" points="138.9,233.3 139.3,233.6 135.5,236.4 		"/>
		<path class="st60" d="M135,236.5l0.2,0.2l4.3-3.9l-0.2-0.2l-0.4,0.4l0,0c0,0-1.6-1.3-2.3-1.4c-0.5-0.1-0.9,0.3-1.6,1
			c-0.5,0.5-0.8,1.1-0.8,1.8c0,0.6,0.3,1.3,0.8,1.8l0.2,0.2L135,236.5z"/>
		<path class="st61" d="M134.2,234c1.5-1.7,2.4-0.9,3.4,0.2l-2.5,2.2C134.4,235.7,134.1,234.8,134.2,234z"/>
		<path class="st61" d="M136.9,232.4l-0.7,0l-1.8,1.2l1.7-1.4c0.1-0.1,0.2-0.1,0.3,0L136.9,232.4z"/>
	</g>
</g>
<ellipse class="st27" cx="279.2" cy="262.1" rx="9.7" ry="0.9"/>
<g>
	<path class="st67" d="M278.2,233.2l1.8,2.2l0.8,1.2c0.2,0.3,0.5,0.5,0.9,0.4l0.4-0.1c0.2,0,0.4-0.2,0.5-0.3l0,0
		c0.3-0.4,0.2-0.9-0.2-1.2l-1.1-0.8l-1.7-2.3L278.2,233.2z"/>
	<path class="st63" d="M277.6,223.7l-2-0.4l0.5,7.7l2.7,3.4l1.4-1.1l-1.7-3.2l-0.2-5.4C278.4,224.2,278.1,223.8,277.6,223.7z"/>
	<path class="st52" d="M273.4,239.8c-0.2,4.3,0.9,10.4,0.9,10.4s0,6,0.4,9.7l1.2,0.6l0.7-4.6l0.3-5.2l-0.2-3.5"/>
	<path class="st53" d="M273.7,241.5c0.1,1.9-0.1,6-0.2,7.5c0,0.5-0.1,1-0.1,1.5c-0.3,2-1.1,7.5-1.7,9.9h-1.4
		c-0.3-3.9-0.2-11.1-0.2-11.1s-1.3-8.6-0.5-11.4l8.1-0.3c0.5,7.5,0.3,15.6-1.5,23.1h-1.3c-0.5-4.4-0.4-10.4-0.4-10.4
		S273.7,245.1,273.7,241.5"/>
	<path class="st64" d="M268.2,224.9l1.3,14.8l8.4-0.3l0.3-15c0-0.2-0.4-0.6-0.6-0.5c-1.2,0.1-1.4-0.5-2.6-0.6
		c-0.7,1.7-2.3,0.1-2.3-0.2v-0.1c-1.2,0-2.4,0.2-3.4,0.5C268.6,223.5,268.2,224.2,268.2,224.9z"/>
	<path class="st63" d="M268,224.9l1.3,14.8l8.4-0.3l0.5-15c0-0.2-0.1-0.4-0.3-0.6c-0.8-0.4-2.2-0.7-3.3-0.8c-0.7,1.7-1.8,0.3-1.9,0
		v-0.1c-1.2,0-2.6,0.2-3.6,0.5C268.4,223.5,267.9,224.2,268,224.9z"/>
	<g>
		<defs>
			<path id="XMLID_4_" d="M270.4,221.4c0.8,0.5,1.5,0.9,2.2,0.9l-0.1,1c0.4,0.5,1.6,0.7,2,0.4c0.2-0.2,0-2.4,0-2.4
				c0.3-0.3,0.3-0.7,0.3-0.7c0.2-1-0.4-2.3-1.8-3.3c-1.3-0.8-2.7-1-3.6-0.4c-0.2,0.1-0.4,0.3-0.5,0.5
				C268.1,218.6,268.8,220.3,270.4,221.4z"/>
		</defs>
		<use xlink:href="#XMLID_4_"  style="overflow:visible;fill:#AA7146;"/>
		<clipPath id="XMLID_25_">
			<use xlink:href="#XMLID_4_"  style="overflow:visible;"/>
		</clipPath>
		<path class="st68" d="M273.4,224.2l-0.1-1.5c0,0-0.2-1.4-0.4-1.5c-0.1,0,0.1,0,0,0c-0.2,0-0.4-0.1-0.6-0.1
			c-1.1-0.4-2.1-1.1-3.2-1.2c-0.1,0-0.2,0-0.3,0.1c-0.1,0.1-0.1,0.3,0,0.4c0.5,1.1,1.5,1.8,2.5,2.5c0.5,0.3,0.9,0.7,1.4,1"/>
	</g>
	<path class="st67" d="M269.2,234.7l0.7,2.8l0.6,1.3c0.2,0.3,0.1,0.7-0.1,0.9l-0.3,0.3c-0.1,0.1-0.3,0.2-0.5,0.3l0,0
		c-0.5,0-0.9-0.3-0.9-0.8l-0.1-1.3l-1.1-2.6L269.2,234.7z"/>
	<path class="st58" d="M274.5,259.9l-0.3,2.1h5l0,0c0-0.5-0.4-0.9-0.9-0.9h-0.7c-0.5,0-1-0.4-1-0.9l0-0.2c0-0.1-0.1-0.2-0.2-0.2
		l-1.5-0.1C274.7,259.7,274.5,259.8,274.5,259.9z"/>
	<path class="st58" d="M269.9,259.9l-0.3,2.1h3.6h0.3c0-0.5-0.4-0.9-0.9-0.9h0.1c-0.5,0-0.6-0.4-0.7-0.9l0-0.2
		c0-0.1-0.1-0.2-0.2-0.2l-1.5-0.1C270,259.7,269.9,259.8,269.9,259.9z"/>
	<polygon class="st64" points="270.7,225.6 270.7,224.4 268.5,224.2 266.3,231 267.6,235.9 269.4,234.8 268.9,230.8 	"/>
	<path class="st63" d="M270.8,225.3c0.4-1.6-2.2-2.2-2.7-1.1l-2.2,6.7l1.7,5l1.8-1.1l-0.9-4.1L270.8,225.3z"/>
	<path class="st64" d="M274.3,223.8c-0.1,0-0.2,0-0.3,0l0.3,1.4L274.3,223.8z"/>
	<g>
		<polygon class="st69" points="272.7,217 273.1,217.3 269.3,220.1 		"/>
		<path class="st60" d="M268.8,220.3l0.2,0.2l4.3-3.9l-0.2-0.2l-0.4,0.4l0,0c0,0-1.6-1.3-2.3-1.4c-0.5-0.1-0.9,0.3-1.6,1
			c-0.5,0.5-0.8,1.1-0.8,1.8c0,0.6,0.3,1.3,0.8,1.8l0.2,0.2L268.8,220.3z"/>
		<path class="st61" d="M268,217.7c1.5-1.7,2.4-0.9,3.4,0.2l-2.5,2.2C268.3,219.4,267.9,218.6,268,217.7z"/>
		<path class="st61" d="M270.7,216.2l-0.7,0l-1.8,1.2l1.7-1.4c0.1-0.1,0.2-0.1,0.3,0L270.7,216.2z"/>
	</g>
</g>
<text transform="matrix(1 0 0 1 5.923 141.7836)"><tspan x="0" y="0" class="st70 st71 st72">The page you were looking for doesn’t exist.</tspan><tspan x="0" y="16" class="st70 st71 st73">You may have mistyped the address or the page may have moved.</tspan><tspan x="0" y="34" class="st70 st71 st74">Click anywhere to go home.</tspan></text>
</svg>
