<?xml version="1.0" encoding="UTF-8"?>
<svg width="84px" height="85px" viewBox="0 0 84 85" version="1.1" xmlns="http://www.w3.org/2000/svg" xmlns:xlink="http://www.w3.org/1999/xlink">
    <!-- Generator: sketchtool 52.5 (67469) - http://www.bohemiancoding.com/sketch -->
    <title>1CFA5163-C26E-46A2-8990-071A2C32108C</title>
    <desc>Created with sketchtool.</desc>
    <g id="Website" stroke="none" stroke-width="1" fill="none" fill-rule="evenodd">
        <g id="Careers" transform="translate(-918.000000, -2296.000000)">
            <g id="Benefits" transform="translate(0.000000, 2066.000000)">
                <g id="Top" transform="translate(135.000000, 230.000000)">
                    <g id="4" transform="translate(726.000000, 0.000000)">
                        <g id="Careers-/-icon-benefits-atx" transform="translate(57.000000, 0.000000)">
                            <rect id="Background" x="0" y="0" width="85" height="85.1"></rect>
                            <g id="benefits-atx">
                                <rect id="Rectangle" x="57.8" y="76.29215" width="3.64083333" height="5.81516667"></rect>
                                <polygon id="Path" points="63.58 41.23095 52.8558333 46.5355167 73.7091667 46.5355167"></polygon>
                                <path d="M56.355,73.4129333 L69.9266667,73.4129333 C70.7090701,73.4129333 71.3433333,74.0479428 71.3433333,74.8312667 L71.3433333,82.0931333 L77.69,82.0931333 L77.69,49.4714667 L48.5633333,49.4714667 L48.5633333,82.0931333 L54.91,82.0931333 L54.91,74.84545 C54.9060914,74.4618641 55.0575422,74.093051 55.3298051,73.8231401 C55.602068,73.5532293 55.971922,73.4052413 56.355,73.4129333 Z" id="Path"></path>
                                <rect id="Rectangle" x="64.3166667" y="76.29215" width="4.17916667" height="5.81516667"></rect>
                                <rect id="Rectangle" x="38.25" y="14.4102667" width="18.3033333" height="4.83651667"></rect>
                                <path d="M7.8625,36.4369833 C7.8625,37.3589 7.8625,40.6919833 7.8625,56.9602667 L7.8625,82.1073167 L31.5633333,82.1073167 L31.5633333,59.7118333 C31.5633333,40.7770833 31.5633333,37.3730833 31.5633333,36.4369833 L7.8625,36.4369833 Z M12.75,78.1076167 C12.75,78.8909405 12.1157367,79.52595 11.3333333,79.52595 C10.5509299,79.52595 9.91666667,78.8909405 9.91666667,78.1076167 L9.91666667,75.9375667 C9.91666667,75.1542428 10.5509299,74.5192333 11.3333333,74.5192333 C12.1157367,74.5192333 12.75,75.1542428 12.75,75.9375667 L12.75,78.1076167 Z M12.75,67.3424667 C12.75,68.1257905 12.1157367,68.7608 11.3333333,68.7608 C10.5509299,68.7608 9.91666667,68.1257905 9.91666667,67.3424667 L9.91666667,41.8124667 C9.91666667,41.0291428 10.5509299,40.3941333 11.3333333,40.3941333 C12.1157367,40.3941333 12.75,41.0291428 12.75,41.8124667 L12.75,67.3424667 Z M19.4508333,62.8038 L18.1758333,62.8038 L18.1758333,65.1582333 C18.1758333,65.9415572 17.5415701,66.5765667 16.7591667,66.5765667 C15.9767633,66.5765667 15.3425,65.9415572 15.3425,65.1582333 L15.3425,61.3571 C15.3425,60.5737761 15.9767633,59.9387667 16.7591667,59.9387667 L19.465,59.9387667 C20.2474034,59.9387667 20.8816667,60.5737761 20.8816667,61.3571 C20.8816667,62.1404239 20.2474034,62.7754333 19.465,62.7754333 L19.4508333,62.8038 Z M19.4508333,53.0173 L18.1758333,53.0173 L18.1758333,55.315 C18.1866179,55.7228673 18.0214387,56.1156293 17.7225,56.3929333 C17.449233,56.6238883 17.1026105,56.7496239 16.745,56.7475167 C15.9625966,56.7475167 15.3283333,56.1125072 15.3283333,55.3291833 L15.3283333,51.5706 C15.3283333,50.7872761 15.9625966,50.1522667 16.745,50.1522667 L19.4508333,50.1522667 C20.2332367,50.1522667 20.8675,50.7872761 20.8675,51.5706 C20.8675,52.3539239 20.2332367,52.9889333 19.4508333,52.9889333 L19.4508333,53.0173 Z M19.4508333,43.2308 L18.1758333,43.2308 L18.1758333,45.5852333 C18.1866179,45.9931006 18.0214387,46.3858627 17.7225,46.6631667 C17.449233,46.8941216 17.1026105,47.0198572 16.745,47.01775 C15.9625966,47.01775 15.3283333,46.3827405 15.3283333,45.5994167 L15.3283333,41.7841 C15.3283333,41.0007761 15.9625966,40.3657667 16.745,40.3657667 L19.4508333,40.3657667 C20.2332367,40.3657667 20.8675,41.0007761 20.8675,41.7841 C20.8675,42.5674239 20.2332367,43.2024333 19.4508333,43.2024333 L19.4508333,43.2308 Z M27.5966667,62.8038 L26.3216667,62.8038 L26.3216667,65.1582333 C26.3216667,65.9415572 25.6874034,66.5765667 24.905,66.5765667 C24.1225966,66.5765667 23.4883333,65.9415572 23.4883333,65.1582333 L23.4883333,61.3571 C23.4883333,60.5737761 24.1225966,59.9387667 24.905,59.9387667 L27.6108333,59.9387667 C28.3932367,59.9387667 29.0275,60.5737761 29.0275,61.3571 C29.0275,62.1404239 28.3932367,62.7754333 27.6108333,62.7754333 L27.5966667,62.8038 Z M27.5966667,53.0173 L26.3216667,53.0173 L26.3216667,55.315 C26.3216667,56.0983239 25.6874034,56.7333333 24.905,56.7333333 C24.1225966,56.7333333 23.4883333,56.0983239 23.4883333,55.315 C23.4883333,54.6058333 23.4883333,53.9817667 23.4883333,53.4569833 C23.4883333,51.7408 23.4883333,50.9607167 23.9133333,50.4926667 C24.3383333,50.0246167 25.1033333,50.0529833 26.5483333,50.0671667 L27.6675,50.0671667 C28.4499034,50.0671667 29.0841667,50.7021761 29.0841667,51.4855 C29.0841667,52.2688239 28.4499034,52.9038333 27.6675,52.9038333 L27.5966667,53.0173 Z M27.5966667,43.2308 L26.3216667,43.2308 L26.3216667,45.5852333 C26.3324513,45.9931006 26.1672721,46.3858627 25.8683333,46.6631667 C25.5950664,46.8941216 25.2484439,47.0198572 24.8908333,47.01775 C24.1084299,47.01775 23.4741667,46.3827405 23.4741667,45.5994167 L23.4741667,41.7841 C23.4741667,41.0007761 24.1084299,40.3657667 24.8908333,40.3657667 L27.5966667,40.3657667 C28.3790701,40.3657667 29.0133333,41.0007761 29.0133333,41.7841 C29.0133333,42.5674239 28.3790701,43.2024333 27.5966667,43.2024333 L27.5966667,43.2308 Z" id="Shape"></path>
                                <path d="M19.6916667,25.1754167 C14.4545956,25.0801534 9.80639606,28.5180506 8.35833333,33.5577667 L31.025,33.5577667 C29.5855023,28.5120974 24.9319044,25.0702074 19.6916667,25.1754167 Z" id="Path"></path>
                                <path d="M61.7808333,19.2326 L59.5,19.2326 L59.5,12.9635667 C59.5,12.1802428 58.8657367,11.5452333 58.0833333,11.5452333 L48.5633333,11.5452333 L48.5633333,1.6169 C48.5633333,0.83357613 47.9290701,0.198566667 47.1466667,0.198566667 C46.3642633,0.198566667 45.73,0.83357613 45.73,1.6169 L45.73,11.5452333 L36.8333333,11.5452333 C36.0509299,11.5452333 35.4166667,12.1802428 35.4166667,12.9635667 L35.4166667,19.2326 L33.0083333,19.2326 C32.2259299,19.2326 31.5916667,19.8676095 31.5916667,20.6509333 L31.5916667,25.40235 C31.5916667,26.1856739 32.2259299,26.8206833 33.0083333,26.8206833 C33.7907367,26.8206833 34.425,26.1856739 34.425,25.40235 L34.425,22.126 L60.35,22.126 L60.35,34.891 C60.35,35.6743239 60.9842633,36.3093333 61.7666667,36.3093333 C62.5490701,36.3093333 63.1833333,35.6743239 63.1833333,34.891 L63.1833333,20.6793 C63.1909163,20.3006912 63.0469588,19.934768 62.783524,19.663031 C62.5200892,19.391294 62.1590551,19.2363107 61.7808333,19.2326 Z M38.25,19.2326 L38.25,14.4102667 L56.5391667,14.4102667 L56.5391667,19.2326 L38.25,19.2326 Z" id="Shape" fill="#064658" fill-rule="nonzero"></path>
                                <path d="M82.4216667,82.1073167 L80.6083333,82.1073167 C80.6083333,75.01565 80.6083333,69.3423167 80.6083333,64.7752833 C80.6083333,47.2588667 80.6083333,46.9184667 79.815,46.4929667 L70.8333333,41.7557333 C63.6366667,37.9546 63.6366667,37.9546 62.9708333,38.3233667 L53.7483333,42.84785 C45.56,46.805 45.56,46.805 45.6875,47.86875 L45.6875,82.1073167 L34.4391667,82.1073167 C34.4391667,68.6473333 34.4391667,59.0026667 34.4391667,52.0953833 C34.4391667,35.4583333 34.4391667,34.59315 34.1275,34.1392833 C32.7549845,27.2306154 26.6990554,22.2547328 19.6633333,22.2547328 C12.6276113,22.2547328 6.57168222,27.2306154 5.19916667,34.1392833 C4.87333333,34.8059 4.87333333,37.6851167 4.90166667,55.4142833 C4.90166667,62.0946333 4.90166667,70.7748333 4.90166667,82.0080333 L2.04,82.0080333 C1.2575966,82.0080333 0.623333333,82.6430428 0.623333333,83.4263667 C0.623333333,84.2096905 1.2575966,84.8447 2.04,84.8447 L82.4216667,84.8447 C83.2040701,84.8447 83.8383333,84.2096905 83.8383333,83.4263667 C83.8383333,82.6430428 83.2040701,82.0080333 82.4216667,82.0080333 L82.4216667,82.1073167 Z M8.34416667,33.5577667 C9.79222939,28.5180506 14.4404289,25.0801534 19.6775,25.1754167 C24.9177377,25.0702074 29.5713357,28.5120974 31.0108333,33.5577667 L8.34416667,33.5577667 Z M31.5633333,59.7118333 L31.5633333,82.1073167 L7.84833333,82.1073167 L7.84833333,56.9602667 C7.84833333,40.7487167 7.84833333,37.3589 7.84833333,36.4369833 L31.535,36.4369833 C31.5633333,37.3730833 31.5633333,40.7770833 31.5633333,59.7118333 Z M63.5658333,41.2735 L73.6666667,46.5355167 L52.8558333,46.5355167 L63.5658333,41.2735 Z M61.4266667,82.1073167 L57.8,82.1073167 L57.8,76.29215 L61.4266667,76.29215 L61.4266667,82.1073167 Z M68.51,82.1073167 L64.26,82.1073167 L64.26,76.29215 L68.51,76.29215 L68.51,82.1073167 Z M77.7325,82.1073167 L71.3716667,82.1073167 L71.3716667,74.84545 C71.3716667,74.0621261 70.7374034,73.4271167 69.955,73.4271167 L56.355,73.4271167 C55.5725966,73.4271167 54.9383333,74.0621261 54.9383333,74.84545 L54.9383333,82.1073167 L48.5633333,82.1073167 L48.5633333,49.48565 L77.7183333,49.48565 L77.7325,82.1073167 Z" id="Shape" fill="#064658" fill-rule="nonzero"></path>
                                <path d="M55.8166667,26.2108 L49.3,26.2108 C48.5175966,26.2108 47.8833333,26.8458095 47.8833333,27.6291333 C47.8833333,28.4124572 48.5175966,29.0474667 49.3,29.0474667 L55.8166667,29.0474667 C56.5990701,29.0474667 57.2333333,28.4124572 57.2333333,27.6291333 C57.2333333,26.8458095 56.5990701,26.2108 55.8166667,26.2108 Z" id="Path" fill="#064658"></path>
                                <path d="M44.9508333,26.2108 L38.9725,26.2108 C38.1900966,26.2108 37.5558333,26.8458095 37.5558333,27.6291333 C37.5558333,28.4124572 38.1900966,29.0474667 38.9725,29.0474667 L44.9508333,29.0474667 C45.7332367,29.0474667 46.3675,28.4124572 46.3675,27.6291333 C46.3675,26.8458095 45.7332367,26.2108 44.9508333,26.2108 Z" id="Path" fill="#064658"></path>
                                <path d="M55.8166667,32.1819833 L49.3,32.1819833 C48.5175966,32.1819833 47.8833333,32.8169928 47.8833333,33.6003167 C47.8833333,34.3836405 48.5175966,35.01865 49.3,35.01865 L55.8166667,35.01865 C56.5990701,35.01865 57.2333333,34.3836405 57.2333333,33.6003167 C57.2333333,32.8169928 56.5990701,32.1819833 55.8166667,32.1819833 Z" id="Path" fill="#064658"></path>
                                <path d="M44.9508333,32.1819833 L38.9725,32.1819833 C38.1900966,32.1819833 37.5558333,32.8169928 37.5558333,33.6003167 C37.5558333,34.3836405 38.1900966,35.01865 38.9725,35.01865 L44.9508333,35.01865 C45.7332367,35.01865 46.3675,34.3836405 46.3675,33.6003167 C46.3675,32.8169928 45.7332367,32.1819833 44.9508333,32.1819833 Z" id="Path" fill="#064658"></path>
                                <path d="M55.8166667,38.16735 L49.3,38.16735 C48.5175966,38.16735 47.8833333,38.8023595 47.8833333,39.5856833 C47.8833333,40.3690072 48.5175966,41.0040167 49.3,41.0040167 L55.8166667,41.0040167 C56.5990701,41.0040167 57.2333333,40.3690072 57.2333333,39.5856833 C57.2333333,38.8023595 56.5990701,38.16735 55.8166667,38.16735 Z" id="Path" fill="#064658"></path>
                                <path d="M44.9508333,38.16735 L38.9725,38.16735 C38.1900966,38.16735 37.5558333,38.8023595 37.5558333,39.5856833 C37.5558333,40.3690072 38.1900966,41.0040167 38.9725,41.0040167 L44.9508333,41.0040167 C45.7332367,41.0040167 46.3675,40.3690072 46.3675,39.5856833 C46.3675,38.8023595 45.7332367,38.16735 44.9508333,38.16735 Z" id="Path" fill="#064658"></path>
                                <path d="M37.5416667,45.5852333 L37.5416667,74.84545 C37.5416667,75.6287739 38.1759299,76.2637833 38.9583333,76.2637833 C39.7407367,76.2637833 40.375,75.6287739 40.375,74.84545 L40.375,45.5852333 C40.375,44.8019095 39.7407367,44.1669 38.9583333,44.1669 C38.1759299,44.1669 37.5416667,44.8019095 37.5416667,45.5852333 Z" id="Path" fill="#064658"></path>
                                <path d="M9.91666667,75.9375667 L9.91666667,78.1076167 C9.91666667,78.8909405 10.5509299,79.52595 11.3333333,79.52595 C12.1157367,79.52595 12.75,78.8909405 12.75,78.1076167 L12.75,75.9375667 C12.75,75.1542428 12.1157367,74.5192333 11.3333333,74.5192333 C10.5509299,74.5192333 9.91666667,75.1542428 9.91666667,75.9375667 Z" id="Path" fill="#064658"></path>
                                <path d="M9.91666667,41.7841 L9.91666667,67.3141 C9.91666667,68.0974239 10.5509299,68.7324333 11.3333333,68.7324333 C12.1157367,68.7324333 12.75,68.0974239 12.75,67.3141 L12.75,41.7841 C12.75,41.0007761 12.1157367,40.3657667 11.3333333,40.3657667 C10.5509299,40.3657667 9.91666667,41.0007761 9.91666667,41.7841 Z" id="Path" fill="#064658"></path>
                                <path d="M19.4225,40.3374 L16.7166667,40.3374 C15.9342633,40.3374 15.3,40.9724095 15.3,41.7557333 L15.3,45.5568667 C15.3,46.3401905 15.9342633,46.9752 16.7166667,46.9752 C17.0742772,46.9773072 17.4208997,46.8515716 17.6941667,46.6206167 C17.9931054,46.3433127 18.1582846,45.9505506 18.1475,45.5426833 L18.1475,43.2308 L19.4225,43.2308 C20.2049034,43.2308 20.8391667,42.5957905 20.8391667,41.8124667 C20.8391667,41.0291428 20.2049034,40.3941333 19.4225,40.3941333 L19.4225,40.3374 Z" id="Path" fill="#064658"></path>
                                <path d="M27.5683333,40.3374 L24.8625,40.3374 C24.0800966,40.3374 23.4458333,40.9724095 23.4458333,41.7557333 L23.4458333,45.5568667 C23.4458333,46.3401905 24.0800966,46.9752 24.8625,46.9752 C25.2201105,46.9773072 25.566733,46.8515716 25.84,46.6206167 C26.1389387,46.3433127 26.3041179,45.9505506 26.2933333,45.5426833 L26.2933333,43.2308 L27.5683333,43.2308 C28.3507367,43.2308 28.985,42.5957905 28.985,41.8124667 C28.985,41.0291428 28.3507367,40.3941333 27.5683333,40.3941333 L27.5683333,40.3374 Z" id="Path" fill="#064658"></path>
                                <path d="M19.4225,50.1239 L16.7166667,50.1239 C15.9342633,50.1239 15.3,50.7589095 15.3,51.5422333 L15.3,55.315 C15.3,56.0983239 15.9342633,56.7333333 16.7166667,56.7333333 C17.0742772,56.7354405 17.4208997,56.6097049 17.6941667,56.37875 C17.9931054,56.101446 18.1582846,55.7086839 18.1475,55.3008167 L18.1475,53.0173 L19.4225,53.0173 C20.2049034,53.0173 20.8391667,52.3822905 20.8391667,51.5989667 C20.8391667,50.8156428 20.2049034,50.1806333 19.4225,50.1806333 L19.4225,50.1239 Z" id="Path" fill="#064658"></path>
                                <path d="M27.5683333,50.1239 L26.4491667,50.1239 C25.0325,50.1239 24.2675,50.1239 23.8141667,50.5494 C23.3608333,50.9749 23.3608333,51.7975333 23.3891667,53.5137167 C23.3891667,54.0385 23.3891667,54.6625667 23.3891667,55.3717333 C23.3891667,56.1550572 24.0234299,56.7900667 24.8058333,56.7900667 C25.5882367,56.7900667 26.2225,56.1550572 26.2225,55.3717333 L26.2225,53.0173 L27.4975,53.0173 C28.2799034,53.0173 28.9141667,52.3822905 28.9141667,51.5989667 C28.9141667,50.8156428 28.2799034,50.1806333 27.4975,50.1806333 L27.5683333,50.1239 Z" id="Path" fill="#064658"></path>
                                <path d="M19.4225,59.9104 L16.7166667,59.9104 C15.9342633,59.9104 15.3,60.5454095 15.3,61.3287333 L15.3,65.1298667 C15.3,65.9131905 15.9342633,66.5482 16.7166667,66.5482 C17.4990701,66.5482 18.1333333,65.9131905 18.1333333,65.1298667 L18.1333333,62.8038 L19.4083333,62.8038 C20.1907367,62.8038 20.825,62.1687905 20.825,61.3854667 C20.825,60.6021428 20.1907367,59.9671333 19.4083333,59.9671333 L19.4225,59.9104 Z" id="Path" fill="#064658"></path>
                                <path d="M27.5683333,59.9104 L24.8625,59.9104 C24.0800966,59.9104 23.4458333,60.5454095 23.4458333,61.3287333 L23.4458333,65.1298667 C23.4458333,65.9131905 24.0800966,66.5482 24.8625,66.5482 C25.6449034,66.5482 26.2791667,65.9131905 26.2791667,65.1298667 L26.2791667,62.8038 L27.5541667,62.8038 C28.3365701,62.8038 28.9708333,62.1687905 28.9708333,61.3854667 C28.9708333,60.6021428 28.3365701,59.9671333 27.5541667,59.9671333 L27.5683333,59.9104 Z" id="Path" fill="#064658"></path>
                                <path d="M68.1275,60.54865 L70.6208333,58.1516667 L68.3116667,55.9390667 L66.3141667,57.8396333 C65.0448897,55.9898013 64.0877048,53.9438073 63.4808333,51.78335 C62.8796041,53.945904 61.9219979,55.9927986 60.6475,57.8396333 L58.65,55.9390667 L56.3266667,58.1516667 L58.82,60.5344667 C58.6999396,60.7557273 58.5911882,60.9829537 58.4941667,61.2152667 L54.995,61.2152667 L54.995,64.3497833 L58.4658333,64.3497833 C58.5490813,64.594736 58.6533597,64.8320112 58.7775,65.05895 L56.3266667,67.3992 L58.6358333,69.6118 L61.0866667,67.27155 C61.3309205,67.3854269 61.5816277,67.4848806 61.8375,67.5694 L61.8375,70.9166667 L65.1666667,70.9166667 L65.1666667,67.5694 C65.422539,67.4848806 65.6732462,67.3854269 65.9175,67.27155 L68.3683333,69.6118 L70.6775,67.3992 L68.2266667,65.05895 C68.350807,64.8320112 68.4550854,64.594736 68.5383333,64.3497833 L72.0091667,64.3497833 L72.0091667,61.2152667 L68.4533333,61.2152667 C68.3590455,60.9863259 68.2502117,60.7636648 68.1275,60.54865 Z M63.4666667,65.56955 C62.8841449,65.5474118 62.3343224,65.2942786 61.9383734,64.8659377 C61.5424243,64.4375968 61.3328483,63.8692066 61.3558333,63.2860333 C61.3558333,62.6903333 61.6391667,62.1797333 62.4608333,60.8748667 C62.7725,60.37845 63.1125,59.8394833 63.4666667,59.2154167 C63.835,59.8394833 64.175,60.37845 64.4866667,60.8748667 C65.3083333,62.1797333 65.5916667,62.6903333 65.5916667,63.2860333 C65.6315191,64.502911 64.6818927,65.5233758 63.4666667,65.56955 Z" id="Shape" fill="#24A5C2"></path>
                            </g>
                        </g>
                    </g>
                </g>
            </g>
        </g>
    </g>
</svg>