<?xml version="1.0" encoding="UTF-8"?>
<svg width="76px" height="84px" viewBox="0 0 76 84" version="1.1" xmlns="http://www.w3.org/2000/svg" xmlns:xlink="http://www.w3.org/1999/xlink">
    <!-- Generator: sketchtool 59.1 (101010) - https://sketch.com -->
    <title>8E412D37-572F-4A57-B760-37F3DE941D3E</title>
    <desc>Created with sketchtool.</desc>
    <g id="Solutions" stroke="none" stroke-width="1" fill="none" fill-rule="evenodd">
        <g id="Workforce-Marketplace-" transform="translate(-432.000000, -3077.000000)" fill-rule="nonzero">
            <g id="Section-/-Other" transform="translate(0.000000, 2902.000000)">
                <g id="icon-education" transform="translate(428.000000, 175.000000)">
                    <g id="Asset-920" transform="translate(4.000000, 0.000000)">
                        <path d="M28,78.0085837 L27.0418118,78.9449213 L19.5396341,78.9449213 L6.53876307,79 L3,77.6731044 L3,72 C6.89263937,74.3783977 10.0067509,74.7889843 12.070122,74.7539342 C14.8575784,74.7088698 16.6868467,73.832618 19.5396341,73.2067239 C20.1983885,73.0615165 20.9170296,72.9313305 21.7173345,72.8261803 L21.7173345,78.0085837 L28,78.0085837 Z" id="Path" fill="#00B7D6"></path>
                        <path d="M14.1830683,64 C15.6565822,58.4411083 15.1244281,52.5155139 12.686417,47.3346258 C10.1875349,42.1833928 5.96426367,38.1536648 0.807402235,36 C-0.0841246195,39.4208138 -0.239553551,43.003152 0.352127218,46.4932144 L4.2716788,47.8611865 C4.62861002,47.9871049 4.81955753,48.3893368 4.69817201,48.7595967 C4.57678649,49.1298566 4.18903416,49.3279346 3.83210292,49.2020163 L0.692275219,48.1163242 C1.07199537,49.6963151 1.61592944,51.2288797 2.31451953,52.687088 C4.8137111,57.8291127 9.03288509,61.8507623 14.1830683,64 L14.1830683,64 Z" id="Path" fill="#A2AAAA"></path>
                        <path d="M70.5714286,19.0467096 C70.3825889,19.0146774 70.1914265,18.9990659 70,19 C67.790861,19 66,20.8282025 66,23.0833513 L66,26 L74,26 L74,23.0833513 C73.9976717,21.0553576 72.5376724,19.3364218 70.5714286,19.0467096 L70.5714286,19.0467096 Z" id="Path" fill="#A2AAAA"></path>
                        <circle id="Oval" fill="#00B7D6" cx="53" cy="60" r="5"></circle>
                        <path d="M62.6192088,59.239261 C62.996768,58.6506568 63.0908438,57.921221 62.8751803,57.2545338 C62.6595169,56.5878466 62.1572093,56.0553028 61.5084481,55.8055317 C60.658298,55.4814856 60.0784992,54.679953 60.0311363,53.7632482 C59.9942493,53.0643858 59.6474211,52.4195767 59.0870662,52.0080711 C58.5267114,51.5965656 57.8125672,51.4622326 57.1431584,51.6424154 C56.9477011,51.6961006 56.7458942,51.7225286 56.5433476,51.7209647 C55.8515153,51.7203495 55.1967316,51.4050609 54.7605766,50.8625324 C54.3262367,50.3171687 53.6706797,50 52.9778057,50 C52.2849316,50 51.6293747,50.3171687 51.1950347,50.8625324 C50.6238126,51.5762395 49.6894464,51.8820826 48.8124529,51.6424154 C48.6169956,51.5887301 48.4151888,51.5623021 48.2126421,51.563866 C46.9921851,51.5652565 45.9865314,52.531889 45.924475,53.7632482 C45.8827163,54.671695 45.3175747,55.4709943 44.4804861,55.8055317 C43.8317248,56.0553028 43.3294173,56.5878466 43.1137538,57.2545338 C42.8980903,57.921221 42.9921661,58.6506568 43.3697254,59.239261 C43.8634265,60.0069671 43.8634265,60.9963559 43.3697254,61.764062 C42.9921718,62.3517785 42.8981134,63.0805143 43.1138654,63.7463854 C43.3296174,64.4122565 43.8320104,64.9437554 44.4804861,65.1921807 C45.3271452,65.5217607 45.9019167,66.3245623 45.9466902,67.2400748 C45.9831545,67.9387765 46.3301694,68.5834237 46.8908901,68.9941086 C47.4516107,69.4047934 48.1659933,69.5375384 48.8346681,69.355297 C49.0268923,69.3044153 49.2246623,69.2780273 49.4233713,69.2767476 C50.1200239,69.2753443 50.7797391,69.593104 51.2172499,70.1407906 C51.6527483,70.6842583 52.3078797,71 53.0000209,71 C53.692162,71 54.3472935,70.6842583 54.7827918,70.1407906 C55.3543629,69.4275017 56.2873501,69.1199129 57.1653736,69.355297 C57.3624886,69.4107674 57.5661189,69.4390768 57.7707382,69.439457 C58.9868143,69.4295014 59.9859922,68.4667566 60.0533515,67.2400748 C60.0981251,66.3245623 60.6728965,65.5217607 61.5195557,65.1921807 C62.1680314,64.9437554 62.6704244,64.4122565 62.8861764,63.7463854 C63.1019284,63.0805143 63.0078699,62.3517785 62.6303164,61.764062 C62.133232,60.9985744 62.1288793,60.0091821 62.6192088,59.239261 Z M52.9944671,67.795531 C50.074272,67.795531 47.4416182,66.0184368 46.3241079,63.2929045 C45.2065976,60.5673723 45.8243055,57.430149 47.8891952,55.3441169 C49.9540849,53.2580848 53.0595119,52.6340523 55.7574203,53.7630047 C58.4553287,54.8919572 60.2144118,57.5515667 60.2144118,60.5016615 C60.2144118,64.5299544 56.9819324,67.795531 52.9944671,67.795531 L52.9944671,67.795531 Z" id="Shape" fill="#A2AAAA"></path>
                        <path d="M51.3982899,19.4952767 L48.3780217,14.4480432 L48.9702312,13.3360324 L55,2 L20.043492,2 L4,32.2294197 L17.254724,32.2294197 L20.7056899,38 C22.9220733,35.9601785 25.2400412,34.0341861 27.6506914,32.2294197 L40,24 C42.5949541,22.8124157 49.1855801,20.2618084 51.3982899,19.4952767 Z" id="Path" fill="#00B7D6"></path>
                        <path d="M56.031,71.0106027 C56.0075251,70.9964658 55.9774749,70.9964658 55.954,71.0106027 C55.106174,72.0010907 53.8283394,72.5768799 52.478,72.5768799 C51.1276606,72.5768799 49.849826,72.0010907 49.002,71.0106027 C48.9785251,70.9964658 48.9484749,70.9964658 48.925,71.0106027 C48.2969529,71.1680463 47.6400376,71.1945788 47,71.0883525 L47,84 L52.335,78.9721806 L57.67,84 L58,84 L58,71.0883525 C57.3456227,71.199719 56.6731986,71.1731671 56.031,71.0106027 Z" id="Path" fill="#A2AAAA"></path>
                        <path d="M13.4940024,3 C14.101225,3.00240724 14.650003,2.63848725 14.8840552,2.07817985 C15.1181075,1.51787245 14.991255,0.871727573 14.5627383,0.441496971 C14.1342215,0.0112663692 13.4885879,-0.118164475 12.9273503,0.113649062 C12.3661128,0.345462599 12,0.892783175 12,1.50001031 C12,2.32609694 12.6679219,2.99669683 13.4940024,3 Z" id="Path" fill="#064658"></path>
                        <path d="M59.875,31 C60.4963203,31 61,30.3284271 61,29.5 C61,28.6715729 60.4963203,28 59.875,28 L44.125,28 C43.5036797,28 43,28.6715729 43,29.5 C43,30.3284271 43.5036797,31 44.125,31 L59.875,31 Z" id="Path" fill="#064658"></path>
                        <path d="M35,34.5 C35,35.3284271 35.4850249,36 36.0833333,36 L59.9166667,36 C60.5149751,36 61,35.3284271 61,34.5 C61,33.6715729 60.5149751,33 59.9166667,33 L36.0833333,33 C35.4850249,33 35,33.6715729 35,34.5 Z" id="Path" fill="#064658"></path>
                        <path d="M60,41.5 C60,40.6715729 59.5233999,40 58.9354839,40 L28.0645161,40 C27.4766001,40 27,40.6715729 27,41.5 C27,42.3284271 27.4766001,43 28.0645161,43 L58.9354839,43 C59.5233999,43 60,42.3284271 60,41.5 Z" id="Path" fill="#064658"></path>
                        <path d="M45,47.5 C45,46.6715729 44.4963203,46 43.875,46 L28.125,46 C27.5036797,46 27,46.6715729 27,47.5 C27,48.3284271 27.5036797,49 28.125,49 L43.875,49 C44.4963203,49 45,48.3284271 45,47.5 Z" id="Path" fill="#064658"></path>
                        <path d="M28.1,56 L36.9,56 C37.5075132,56 38,55.3284271 38,54.5 C38,53.6715729 37.5075132,53 36.9,53 L28.1,53 C27.4924868,53 27,53.6715729 27,54.5 C27,55.3284271 27.4924868,56 28.1,56 Z" id="Path" fill="#064658"></path>
                        <path d="M42,60.5 C42,59.6715729 41.5203051,59 40.9285714,59 L28.0714286,59 C27.4796949,59 27,59.6715729 27,60.5 C27,61.3284271 27.4796949,62 28.0714286,62 L40.9285714,62 C41.5203051,62 42,61.3284271 42,60.5 Z" id="Path" fill="#064658"></path>
                        <path d="M28.1818182,66 C27.529118,66 27,66.6715729 27,67.5 C27,68.3284271 27.529118,69 28.1818182,69 L38.8181818,69 C39.470882,69 40,68.3284271 40,67.5 C40,66.6715729 39.470882,66 38.8181818,66 L28.1818182,66 Z" id="Path" fill="#064658"></path>
                        <path d="M71.86444,17.413148 C71.61473,17.3726086 71.3620732,17.3527181 71.1090617,17.3536805 L52.0235337,17.3536805 L49.7573989,13.5693888 L56.1536593,1.6218393 C56.3478109,1.28730675 56.3478109,0.875145652 56.1536593,0.540613101 C55.9606821,0.20808789 55.6049081,0.00231756647 55.2189467,0 L19.9063723,0 C19.5057569,0.00106341413 19.1382106,0.221275999 18.9499221,0.573049887 L2.75004768,30.8473835 C2.57045837,31.1828993 2.58116473,31.5875846 2.77824596,31.9132385 C2.97532719,32.2388923 3.32983054,32.4376736 3.71193221,32.4367861 L16.4718467,32.4367861 L19.4879254,37.4374572 L19.4879254,54.0829346 C19.4796479,54.1529731 19.4796479,54.2237352 19.4879254,54.2937737 L19.4879254,61.6136751 L14.5969871,61.6136751 C14.4611277,61.2622766 14.336137,60.9108781 14.2002776,60.5324489 C12.3858556,55.9581481 10.3250529,51.4844003 8.02682665,47.1306501 C7.74006582,46.6173265 7.0938508,46.4255656 6.57126199,46.698719 C6.04867319,46.9718724 5.84080835,47.6100548 6.10305759,48.1361905 C8.36809896,52.4214692 10.3998658,56.8248127 12.1895586,61.3271502 C12.2221648,61.4136483 12.2493367,61.5001464 12.2873773,61.5866444 L8.52135485,61.5866444 C7.92109027,61.5866444 7.43447968,62.0707259 7.43447968,62.6678707 L7.43447968,65.8791125 C4.3469169,66.1594755 1.98726809,68.7415987 2,71.8258566 L2,75.5723054 C2,77.4443541 3.52562801,78.9619495 5.40745748,78.9619495 L20.3193849,78.9619495 C20.4093026,78.9884862 20.5027583,79.0004898 20.596538,79.0004898 L46,79.0004898 L46,76.8375476 L21.6834132,76.83734 L21.6834132,54.1315898 C21.6890451,54.0614217 21.6890451,53.9909187 21.6834132,53.9207507 L21.6834132,37.6428902 C23.6832635,35.8210241 25.786367,34.0910621 27.954683,32.4692228 C28.432908,32.1070121 28.9165675,31.7502074 29.4056613,31.3879966 L29.4328332,31.3879966 L29.5632582,31.2960924 C30.0306145,30.9609123 30.5034052,30.6311383 30.9761959,30.3067704 C32.4253628,29.3120423 33.8908329,28.3659694 35.372606,27.4685517 C37.4485376,26.2179333 39.5770015,25.0538131 41.7579977,23.976191 C42.3014352,23.7058845 42.8448728,23.4355779 43.3883104,23.1868959 C43.9245022,22.9346098 44.4679398,22.6859278 45.0186232,22.4408498 C47.2793235,21.4208931 49.5762531,20.5054549 51.9094118,19.6945353 C52.0256895,19.6535975 52.1341141,19.5932684 52.23004,19.5161329 L67.0441486,19.5161329 C66.9347484,19.6786407 66.8366988,19.8484325 66.7506923,20.0243093 C66.7235204,20.0729644 66.7017829,20.1216196 66.6800454,20.1702748 C66.5904394,20.3575376 66.5141703,20.5508323 66.4518016,20.7487308 C66.3924833,20.9453558 66.3470857,21.1458736 66.3159422,21.3488114 C66.3159422,21.4028727 66.3159422,21.456934 66.3159422,21.5109953 C66.2859471,21.7278151 66.2696121,21.9462888 66.2670328,22.1651371 L66.2670328,76.7670603 L58.7241191,76.7670603 L58.7241191,78.9295127 L67.3049986,78.9295127 C67.9052632,78.9295127 68.3918738,78.4454313 68.3918738,77.8482865 L68.3918738,25.9494288 L74.9131248,25.9494288 C75.5133894,25.9494288 76,25.4653474 76,24.8682026 L76,22.1651371 C75.9729009,19.7890354 74.2244731,17.7799944 71.86444,17.413148 Z M13.1079681,63.7761275 C13.3688181,64.4735184 13.6242338,65.1763154 13.8742151,65.8791125 L9.60823003,65.8791125 L9.60823003,63.7761275 L13.1079681,63.7761275 Z M5.40745748,76.7832787 C4.72615718,76.7832787 4.17385416,76.2338463 4.17385416,75.556087 L4.17385416,71.8096382 C4.17385416,69.7196316 5.87699122,68.0253465 7.97791726,68.0253465 L8.16268604,68.0253465 C8.27458875,68.0638851 8.39207036,68.0839723 8.5104861,68.0848139 L14.6350277,68.0848139 C15.4230122,70.4256686 16.1457842,72.793554 16.808778,75.1614394 C16.9385333,75.6311231 17.3679697,75.9565067 17.8576126,75.9561407 C17.9548896,75.9564055 18.0517622,75.9436775 18.1456345,75.9182978 C18.4239199,75.8424904 18.660485,75.6597165 18.8031968,75.4102549 C18.9459086,75.1607932 18.983054,74.8651183 18.9064471,74.5883895 C18.30142,72.4259371 17.6402376,70.2544745 16.9228999,68.0740017 L19.5096629,68.0740017 L19.5096629,76.8319339 L5.40745748,76.8319339 L5.40745748,76.7832787 Z M19.5368347,65.8520818 L16.1783904,65.8520818 C15.9338435,65.1492848 15.6892966,64.4464878 15.433881,63.7490969 L19.5096629,63.7490969 L19.5368347,65.8520818 Z M5.52157937,30.3067704 L20.5584974,2.19488919 L53.3821276,2.19488919 L48.4531487,11.3853119 L45.0512294,5.78996631 C44.8399994,5.42190093 44.4320789,5.21054658 44.0078293,5.24935321 C31.1520308,6.55125686 19.5412565,13.4652733 12.3145492,24.1221566 L12.2384679,24.2302792 C12.0012824,24.5784348 11.9885635,25.0318244 12.2058617,25.3925973 L15.1675965,30.3067704 L5.52157937,30.3067704 Z M43.4535229,20.7649492 C40.2819282,22.2074467 37.1972518,23.8320229 34.215084,25.6304671 C31.805844,27.072102 29.4672509,28.6344739 27.1993047,30.3175827 C26.7156453,30.6743873 26.2374202,31.0365981 25.7646295,31.3988089 C25.2918388,31.7610197 24.84622,32.1178243 24.3897324,32.4800351 C23.4586427,33.218873 22.5529133,33.9793354 21.6725445,34.7614224 C21.3899569,34.9992921 21.1291069,35.2479742 20.8356506,35.4912501 L19.4987941,33.2747364 L19.020569,32.4800351 L17.7163188,30.3175827 L14.4556933,24.9114517 C21.2015711,15.2341298 31.7914599,8.89511486 43.5459073,7.49830371 L47.257586,13.6558869 L47.9097111,14.7371131 L48.5618362,15.8183393 L49.4856801,17.3482744 L49.9367333,18.0997266 C48.8498582,18.5051864 47.762983,18.9268647 46.6761078,19.3755735 L46.3554796,19.5107268 C45.9315983,19.683723 45.507717,19.8567192 45.0892701,20.0513399 C44.5295294,20.2783974 43.9915261,20.5270794 43.4535229,20.7649492 Z M73.8262497,23.8410377 L68.3918738,23.8410377 L68.3918738,22.2191984 C68.3918738,20.7263366 69.6084003,19.5161092 71.1090617,19.5161092 C71.245596,19.5155312 71.3819383,19.5263819 71.5166399,19.5485697 C72.8440127,19.7489071 73.8253286,20.8836142 73.8262497,22.2191984 L73.8262497,23.8410377 Z" id="Shape" fill="#064658"></path>
                        <path d="M71.5,66 C72.3284271,66 73,65.5233999 73,64.9354839 L73,34.0645161 C73,33.4766001 72.3284271,33 71.5,33 C70.6715729,33 70,33.4766001 70,34.0645161 L70,64.9354839 C70,65.5233999 70.6715729,66 71.5,66 Z" id="Path" fill="#064658"></path>
                        <path d="M2.95634789,27.425584 L13.8786597,6.55135233 C14.1472666,6.03632255 13.9549989,5.39707775 13.4492178,5.12355911 C12.9434366,4.85004047 12.315671,5.04582393 12.0470641,5.56085371 L1.12992626,26.4350854 C0.948524458,26.7680416 0.957633767,27.1747522 1.15375398,27.4989408 C1.34987419,27.8231294 1.70249448,28.0143612 2.07612225,27.9991564 C2.44975002,27.9839515 2.78625923,27.7646755 2.95634789,27.425584 Z" id="Path" fill="#064658"></path>
                        <path d="M26.3281848,17.2185903 C22.8484316,19.4364814 19.769661,22.2111456 17.2190657,25.4279536 C16.9560201,25.7590918 16.9272977,26.2154827 17.146812,26.5760453 L18.942831,29.4919948 C19.1251676,29.8029099 19.4606621,29.9960292 19.8253576,30 C20.0078141,29.9981004 20.1862744,29.9471584 20.341455,29.8526785 C20.8297822,29.5647323 20.9890996,28.9420005 20.6975622,28.4607444 L19.2886163,26.1493209 C21.6054562,23.3310144 24.3590708,20.8897336 27.4481162,18.9153275 C27.7946643,18.7359981 28.0083054,18.3791126 27.9997524,17.9938242 C27.9911995,17.6085358 27.7619251,17.2611766 27.4077498,17.0969184 C27.0535745,16.9326602 26.6354739,16.979782 26.3281848,17.2185903 Z" id="Path" fill="#064658"></path>
                        <path d="M30.5000103,13 C29.8927832,13 29.3454626,13.3661233 29.1136491,13.9273586 C28.8818355,14.4885939 29.0112664,15.134225 29.441497,15.56274 C29.8717276,15.991255 30.5178724,16.118107 31.0781799,15.8840557 C31.6384873,15.6500044 32.0024072,15.1012286 32,14.4940084 C32,14.0967383 31.8417678,13.715826 31.5602943,13.4354749 C31.2788208,13.1551238 30.8972786,12.9984229 30.5000103,13 L30.5000103,13 Z" id="Path" fill="#064658"></path>
                        <circle id="Oval" fill="#064658" cx="71.5" cy="69.5" r="1.5"></circle>
                    </g>
                </g>
            </g>
        </g>
    </g>
</svg>