<?xml version="1.0" encoding="UTF-8"?>
<svg width="32px" height="32px" viewBox="0 0 32 32" version="1.1" xmlns="http://www.w3.org/2000/svg" xmlns:xlink="http://www.w3.org/1999/xlink">
    <!-- Generator: Sketch 52.4 (67378) - http://www.bohemiancoding.com/sketch -->
    <title>Icon / Social / Instagram</title>
    <desc>Created with Sketch.</desc>
    <g id="Symbols" stroke="none" stroke-width="1" fill="none" fill-rule="evenodd">
        <g id="Footer" transform="translate(-276.000000, -245.000000)" fill="#D0E6EB">
            <g id="FOOTER">
                <g id="Stacked-Group-3" transform="translate(135.000000, 70.000000)">
                    <g id="Social-Icons" transform="translate(0.000000, 175.000000)">
                        <g id="Icon-/-Social-/-Instagram" transform="translate(141.000000, 0.000000)">
                            <g id="Instagram">
                                <path d="M21.058,16.284 C21.058,18.961 18.875,21.14 16.191,21.14 C13.507,21.14 11.324,18.961 11.324,16.284 C11.324,15.84 11.384,15.409 11.497,15 L10,15 L10,21.958 C10,22.205 10.2,22.405 10.447,22.405 L21.934,22.405 C22.182,22.405 22.382,22.205 22.382,21.958 L22.382,15 L20.885,15 C20.998,15.409 21.058,15.84 21.058,16.284" id="Fill-111"></path>
                                <path d="M19.448,13.051 L21.611,13.051 C21.858,13.051 22.059,12.851 22.059,12.605 L22.059,10.446 C22.059,10.2 21.858,10 21.611,10 L19.448,10 C19.201,10 19,10.2 19,10.446 L19,12.605 C19,12.851 19.201,13.051 19.448,13.051" id="Fill-112"></path>
                                <path d="M16.077,19.139 C17.776,19.139 19.154,17.765 19.154,16.069 C19.154,14.374 17.776,13 16.077,13 C14.378,13 13,14.374 13,16.069 C13,17.765 14.378,19.139 16.077,19.139" id="Fill-113"></path>
                                <path d="M24,22.102 C24,23.15 23.149,24 22.098,24 L9.902,24 C8.852,24 8,23.15 8,22.102 L8,9.897 C8,8.849 8.852,8 9.902,8 L22.098,8 C23.149,8 24,8.849 24,9.897 L24,22.102 Z M0,32 L32,32 L32,0 L0,0 L0,32 Z" id="Fill-114"></path>
                            </g>
                        </g>
                    </g>
                </g>
            </g>
        </g>
    </g>
</svg>