<?xml version="1.0" encoding="UTF-8"?>
<svg width="82px" height="84px" viewBox="0 0 82 84" version="1.1" xmlns="http://www.w3.org/2000/svg" xmlns:xlink="http://www.w3.org/1999/xlink">
    <!-- Generator: sketchtool 52.4 (67378) - http://www.bohemiancoding.com/sketch -->
    <title>638DDA0B-24BB-49BF-A92B-08DE90671A11</title>
    <desc>Created with sketchtool.</desc>
    <g id="Website" stroke="none" stroke-width="1" fill="none" fill-rule="evenodd">
        <g id="Audience-/-Contractor" transform="translate(-278.000000, -679.000000)">
            <g id="Hero" transform="translate(0.000000, 80.000000)">
                <g id="1" transform="translate(135.000000, 549.000000)">
                    <g id="Icon-/-real-work" transform="translate(141.000000, 50.000000)">
                        <rect id="Background" x="0" y="0" width="84" height="84"></rect>
                        <g id="fist" transform="translate(1.500000, 0.000000)">
                            <path d="M37.254,40.754 C36.3082221,40.5975691 35.3730849,40.3824875 34.454,40.11 C34.706,40.964 34.93,41.818 35.098,42.658 C35.6016324,42.7250986 36.0690941,42.9563691 36.428,43.316 C36.9316438,43.8000717 37.6054954,44.0665951 38.304,44.058 C39.0025046,44.0665951 39.6763562,43.8000717 40.18,43.316 L43.722,39.774 C41.7274991,40.7877628 39.4592878,41.1314312 37.254,40.754 Z" id="Path"></path>
                            <path d="M35.784,4.2 C36.386,4.13 37.016,4.088 37.632,4.06 C38.0721198,4.07439189 38.4970015,3.89795674 38.7974638,3.57603286 C39.0979261,3.25410898 39.2446747,2.81808302 39.2,2.38 C39.2014601,1.95247216 39.0235075,1.54393858 38.7094588,1.25384274 C38.3954101,0.963746907 37.9740703,0.818696837 37.548,0.854 L37.464,0.854 C36.792,0.854 36.064,0.938 35.462,1.008 C35.0393894,1.04419747 34.6499396,1.25156682 34.384,1.582 C33.9703469,2.08222149 33.9008514,2.78313716 34.2082228,3.35484797 C34.5155942,3.92655877 35.1385957,4.25516421 35.784,4.186 L35.784,4.2 Z" id="Path" fill="#064658"></path>
                            <path d="M47.768,4.886 C48.37,5.012 48.958,5.166 49.56,5.32 C49.9670002,5.45241335 50.4110518,5.40613199 50.7819996,5.19263682 C51.1529475,4.97914166 51.4160355,4.61843623 51.506,4.2 C51.6480974,3.79325075 51.6081775,3.34501155 51.3964368,2.96977493 C51.1846962,2.5945383 50.821639,2.32864083 50.4,2.24 C49.756,2.058 49.112,1.904 48.454,1.764 C48.3377927,1.74935925 48.2202073,1.74935925 48.104,1.764 C47.8011914,1.76528377 47.5049963,1.85268558 47.25,2.016 C46.8938077,2.24751145 46.642512,2.60937726 46.55,3.024 C46.3681699,3.88929232 46.9181786,4.73930568 47.782,4.928 L47.768,4.886 Z" id="Path" fill="#064658"></path>
                            <path d="M58.982,9.198 C59.514,9.492 60.046,9.814 60.578,10.15 C61.0267276,10.4669041 61.6138121,10.5099928 62.104,10.262 C62.6285714,9.9787528 62.9795664,9.45487952 63.042,8.862 C63.082603,8.28825961 62.7880152,7.74272655 62.286,7.462 C61.712,7.098 61.138,6.762 60.564,6.426 C59.7908014,5.98914276 58.8098572,6.26180135 58.373,7.035 C57.9361428,7.80819865 58.2088014,8.78914276 58.982,9.226 L58.982,9.198 Z" id="Path" fill="#064658"></path>
                            <path d="M5.936,24.64 C6.888,24.64 7.196,24.122 7.798,22.932 C7.924,22.68 8.064,22.4 8.232,22.12 C8.45729164,21.7534143 8.51735037,21.3087521 8.39738374,20.8955338 C8.27741711,20.4823154 7.98857532,20.1389469 7.602,19.95 C7.33961252,19.807431 7.04658368,19.730571 6.748,19.726 C6.18460539,19.7306685 5.67344378,20.0569419 5.432,20.566 C5.11,21.154 4.802,21.742 4.508,22.344 C4.2360537,22.8263075 4.2360537,23.4156925 4.508,23.898 C4.81534343,24.3847739 5.36101534,24.6683093 5.936,24.64 Z" id="Path" fill="#064658"></path>
                            <path d="M75.74,27.258 C76.286,28.476 76.622,29.106 77.63,29.106 C78.16967,29.1107456 78.6731582,28.835152 78.96,28.378 C79.2645863,27.9310904 79.3124139,27.3571596 79.086,26.866 C78.82,26.25 78.54,25.648 78.232,25.046 C78.0123057,24.4726458 77.4446567,24.1093504 76.832,24.15 C76.5545365,24.1536453 76.2815802,24.2206872 76.034,24.346 C75.6417495,24.5167825 75.3402081,24.8457416 75.2041204,25.2513364 C75.0680326,25.6569313 75.1101381,26.101193 75.32,26.474 L75.74,27.258 Z" id="Path" fill="#064658"></path>
                            <path d="M24.22,7.308 C24.78,7.042 25.354,6.804 25.928,6.58 C26.4590317,6.41711691 26.8435469,5.95569865 26.908,5.404 C26.9952905,4.78691138 26.7504786,4.16955952 26.264,3.78 C26.017685,3.58237518 25.7117899,3.47383176 25.396,3.472 C25.1697954,3.47670946 24.9465286,3.52421303 24.738,3.612 C24.122,3.85 23.506,4.116 22.89,4.396 C22.0946579,4.7751979 21.7467802,5.7194372 22.106,6.524 C22.4739547,7.32352138 23.4197018,7.67426203 24.22,7.308 Z" id="Path" fill="#064658"></path>
                            <path d="M13.244,14.532 C13.6666609,14.5261457 14.071582,14.3611778 14.378,14.07 C14.826,13.636 15.274,13.23 15.778,12.824 C16.1127419,12.5576799 16.3190128,12.1620329 16.3456958,11.735106 C16.3723787,11.3081791 16.2169765,10.8899275 15.918,10.584 C15.6112467,10.2273943 15.1700286,10.0143925 14.7,9.996 C14.3153256,10.0065246 13.9474064,10.155681 13.664,10.416 C13.174,10.864 12.67,11.326 12.194,11.816 C11.8910207,12.1112597 11.7152179,12.5130946 11.704,12.936 C11.7011004,13.3603916 11.8673511,13.7684615 12.166,14.07 C12.4552383,14.3529061 12.8396623,14.5176592 13.244,14.532 Z" id="Path" fill="#064658"></path>
                            <path d="M2.632,31.528 C2.43543367,31.5299784 2.24089146,31.5679379 2.058,31.64 C1.52933743,31.8161137 1.15544872,32.288973 1.106,32.844 C0.98,33.502 0.882,34.174 0.798,34.832 C0.747969393,35.2882178 0.889981815,35.7446863 1.19,36.092 C1.49929173,36.4298819 1.9359343,36.622817 2.394,36.624 C3.71,36.624 3.934,35.672 4.144,34.09 C4.144,33.852 4.144,33.614 4.242,33.39 C4.36282713,32.8707681 4.17827788,32.3279762 3.766,31.99 C3.45529107,31.7055351 3.05303903,31.5416546 2.632,31.528 Z" id="Path" fill="#064658"></path>
                            <path d="M77.448,60.62 C77.083582,60.3951081 76.6408928,60.3352895 76.2298564,60.4553975 C75.81882,60.5755055 75.4779909,60.8642744 75.292,61.25 C74.998,61.796 74.69,62.328 74.382,62.86 C74.0482834,63.310248 74.0152355,63.9161257 74.298,64.4 C74.6056875,64.9339756 75.1661723,65.2723816 75.782,65.296 C76.3379308,65.3072437 76.8526262,65.0038443 77.112,64.512 C77.462,63.938 77.784,63.35 78.106,62.762 C78.3287273,62.3961767 78.3842174,61.9525137 78.2584509,61.5431033 C78.1326843,61.1336929 77.8376904,60.797695 77.448,60.62 Z" id="Path" fill="#064658"></path>
                            <path d="M70.77,14.434 C70.4877023,14.1075667 70.0813848,13.9145659 69.65,13.902 C69.5385256,13.8866556 69.4254744,13.8866556 69.314,13.902 C68.712612,14.0612761 68.2329717,14.5145625 68.04,15.106 C67.8703485,15.6401427 68.0355879,16.2239885 68.46,16.59 C68.88,17.038 69.3,17.5 69.706,17.99 C70.0271773,18.4282499 70.5729202,18.6410896 71.106,18.536 C71.7067265,18.4082401 72.1989831,17.9795006 72.408,17.402 C72.5887618,16.8748896 72.4589956,16.2909421 72.072,15.89 C71.68,15.4 71.232,14.91 70.77,14.434 Z" id="Path" fill="#064658"></path>
                            <path d="M79.1,49.91 C79.002,50.526 78.89,51.128 78.75,51.73 C78.6171864,52.2624512 78.7832915,52.8250649 79.184,53.2 C79.6518596,53.6095336 80.3007714,53.7425073 80.892,53.55 C81.4285121,53.3917713 81.8193488,52.929373 81.886,52.374 C82.026,51.716 82.138,51.058 82.25,50.4 C82.3359152,49.9700247 82.2309437,49.5239287 81.9623045,49.1773841 C81.6936653,48.8308395 81.2878186,48.6179801 80.85,48.594 L80.57,48.594 C79.8171157,48.5962631 79.1852292,49.161952 79.1,49.91 Z" id="Path" fill="#064658"></path>
                            <path d="M69.076,70.252 L69.006,70.252 C68.6057372,70.2465743 68.2190902,70.397216 67.928,70.672 C67.466,71.078 67.004,71.484 66.528,71.876 C66.0308927,72.3081597 65.8503442,73.0013188 66.0734566,73.6210756 C66.2965691,74.2408324 66.8775039,74.6598575 67.536,74.676 C68.264,74.676 68.754,74.228 69.65,73.402 L70.07,73.01 C70.5654814,72.5795775 70.7469447,71.8897068 70.5273738,71.2711973 C70.3078029,70.6526878 69.7319698,70.2316573 69.076,70.21 L69.076,70.252 Z" id="Path" fill="#064658"></path>
                            <path d="M80.192,41.02 C80.7607383,41.2605842 81.4138762,41.1862433 81.914,40.824 C82.3627575,40.5098239 82.5870471,39.962776 82.488,39.424 C82.418,38.766 82.32,38.094 82.222,37.436 C82.0566821,36.5922208 81.2526481,36.0310641 80.4036252,36.1669077 C79.5546024,36.3027514 78.9657953,37.0867627 79.072,37.94 C79.17,38.556 79.254,39.172 79.324,39.774 C79.3433879,40.3238021 79.6829841,40.8112871 80.192,41.02 Z" id="Path" fill="#064658"></path>
                            <path d="M59.066,77.07 C58.8712799,76.9868401 58.6617345,76.9439785 58.45,76.944 C58.2429429,76.9454739 58.0382682,76.9883128 57.848,77.07 C57.274,77.308 56.7,77.532 56.112,77.742 C55.3867451,78.008585 54.9566305,78.7564278 55.0909141,79.5173681 C55.2251976,80.2783084 55.8853053,80.8337591 56.658,80.836 C57.4598734,80.6635792 58.2395461,80.4005571 58.982,80.052 L59.066,80.052 C59.8842288,79.7104342 60.2722839,78.7715911 59.934,77.952 C59.7778223,77.551433 59.464017,77.2325664 59.066,77.07 Z" id="Path" fill="#064658"></path>
                            <path d="M66.668,37.31 L66.318,37.212 L66.43,36.862 C67.1301368,34.7980181 66.7461413,32.5203461 65.408,30.8 C64.0739507,28.8538946 61.8867256,27.6665438 59.528,27.608 L59.164,27.608 L59.164,27.244 C59.1094131,25.103569 58.1224321,23.0938098 56.462,21.742 C54.927868,20.4005427 52.8696707,19.8242474 50.862,20.174 L50.484,20.244 L50.484,19.88 C49.9616438,16.3785065 47.0216193,13.7442445 43.484,13.608 C40.572,13.608 39.284,15.008 36.106,18.186 C35.546,18.76 34.916,19.418 34.202,20.118 L34.02,20.3 L33.796,20.188 C29.6561337,18.0613132 24.6157905,18.8598395 21.336,22.162 C19.936,23.562 18.536,24.962 17.36,26.082 C11.186,32.088 8.96,34.342 9.1,39.326 C9.184,41.244 9.282,42.896 9.352,44.31 C9.772,51.996 9.828,53.172 6.636,56.336 C6.31528976,56.6228395 6.13197569,57.0327304 6.13197569,57.463 C6.13197569,57.8932696 6.31528976,58.3031605 6.636,58.59 C6.92028194,58.9100638 7.32791466,59.0932116 7.756,59.0932116 C8.18408534,59.0932116 8.59171806,58.9100638 8.876,58.59 C13.076,54.39 12.978,51.94 12.516,43.876 C12.446,42.476 12.362,40.922 12.278,39.172 C12.124,35.658 13.51,34.314 19.278,28.616 C20.496,27.426 21.91,26.04 23.548,24.416 C26.0078132,21.9416982 29.8484648,21.4891743 32.816,23.324 L46.522,31.724 L46.326,32.032 C45.024,34.146 42.126,37.632 37.926,36.876 C32.466,35.966 30.828,33.544 30.044,32.368 C29.96,32.228 29.876,32.116 29.806,32.018 C29.3691428,31.2448014 28.3881986,30.9721428 27.615,31.409 C26.8418014,31.8458572 26.5691428,32.8268014 27.006,33.6 C27.1152679,33.8122278 27.2368072,34.0179096 27.37,34.216 C32.228,42.084 32.97,49 29.498,54.754 C29.1642834,55.204248 29.1312355,55.8101257 29.414,56.294 C29.7242949,56.8321074 30.291124,57.1711454 30.912,57.19 C31.4674139,57.2131136 31.9838871,56.9054274 32.228,56.406 C33.8512341,53.7472839 34.7580229,50.7134003 34.86,47.6 L34.86,47.04 L35.35,47.292 C36.500958,47.8841905 37.8028525,48.1182389 39.088,47.964 L39.452,47.964 L39.452,48.328 C39.930208,51.910683 42.8483108,54.6712083 46.452,54.95 L46.802,54.95 L46.802,55.286 C46.9054274,57.9309388 48.5487762,60.2699719 51.002,61.264 L51.478,61.46 L51.114,61.838 L46.704,66.22 L42.504,70.518 C40.7838876,72.2535332 38.4064378,73.1749859 35.966,73.052 C32.6017897,72.9907077 29.3773332,74.395978 27.132,76.902 C26.6684432,77.3530897 26.5294426,78.0425325 26.782,78.638 C27.0275936,79.241027 27.614884,79.6344008 28.266,79.632 C28.924,79.632 29.204,79.352 29.666,78.848 L29.778,78.736 C31.5951741,76.9927107 34.0534866,76.0803472 36.568,76.216 L37.086,76.216 C41.832,75.978 44.24,73.416 47.558,69.958 L49.154,68.292 L49.532,67.9 C56.322,60.998 57.526,59.724 57.638,59.57 L69.65,47.6 C70.753765,46.5062952 71.3747065,45.0168621 71.3747065,43.463 C71.3747065,41.9091379 70.753765,40.4197048 69.65,39.326 C68.87947,38.3714586 67.8409197,37.66934 66.668,37.31 Z M36.75,22.008 L40.95,17.808 C41.5817456,17.1868814 42.430091,16.8354957 43.316,16.828 C44.4204921,16.887728 45.4568358,17.3807459 46.2,18.2 C46.8514574,18.8488891 47.217659,19.7305144 47.217659,20.65 C47.217659,21.5694856 46.8514574,22.4511109 46.2,23.1 L43.4,26.068 L36.75,22.008 Z M40.726,43.82 C40.0993708,44.448804 39.2477253,44.8015565 38.36,44.8 C37.4782842,44.8127301 36.6274758,44.4754274 35.994,43.862 C35.6933407,43.5620228 35.284691,43.3955359 34.86,43.4 L34.566,43.4 L34.566,43.12 C34.3225813,41.9468117 33.9998401,40.7914917 33.6,39.662 L33.376,38.99 L34.048,39.228 C35.1205989,39.5915994 36.220854,39.8678337 37.338,40.054 C45.738,41.454 49.854,32.2 50.036,31.808 C50.582,30.506 49.63,29.876 47.586,28.672 L46.508,28 L46.2,27.79 L49.728,24.248 C51.0569706,22.9423523 53.1870294,22.9423523 54.516,24.248 L55.048,24.794 C56.3337077,26.114773 56.3337077,28.219227 55.048,29.54 L40.726,43.82 Z M46.648,51.66 C45.7864533,51.6677461 44.9565365,51.3357794 44.338,50.736 L43.638,50.036 C42.3936784,48.8082933 42.34418,46.8159835 43.526,45.528 L43.61,45.444 L57.288,31.766 C58.5874353,30.5215316 60.6365647,30.5215316 61.936,31.766 L62.636,32.466 C63.9067393,33.7438607 63.9067393,35.8081393 62.636,37.086 L49,50.736 C48.3711192,51.3461485 47.5240215,51.6789369 46.648,51.66 Z M61.95,50.764 L54.95,57.666 C54.4474358,58.1637481 53.7673193,58.4408326 53.06,58.436 C52.360844,58.4411796 51.6892931,58.1634706 51.198,57.666 L50.708,57.19 C49.6741,56.1475482 49.6741,54.4664518 50.708,53.424 C53.172,50.96 55.188,48.916 56.84,47.222 C61.95,42 63.672,40.222 65.142,40.222 C66.0093657,40.3413118 66.7918285,40.8057414 67.312,41.51 C67.8447127,41.9955718 68.153656,42.6792987 68.166,43.4 L68.166,43.512 C68.18,44.576 68.18,44.576 61.95,50.764 Z" id="Shape" fill="#064658" fill-rule="nonzero"></path>
                            <path d="M2.534,43.96 L2.268,43.96 C1.83018137,43.9839801 1.42433471,44.1968395 1.15569548,44.5433841 C0.887056255,44.8899287 0.782084777,45.3360247 0.868,45.766 L0.994,46.536 C1.08626005,47.3326452 1.76003223,47.9342275 2.562,47.936 C3.05172873,47.9582155 3.52449871,47.7541317 3.84421228,47.3824988 C4.16392585,47.0108659 4.29510986,46.5129177 4.2,46.032 C4.2,45.794 4.116,45.542 4.088,45.304 C4.0006732,44.5188119 3.32357506,43.9332135 2.534,43.96 Z" id="Path" fill="#064658"></path>
                            <path d="M41.384,79.8 L40.6,79.8 L40.474,79.8 C39.9288751,79.8167661 39.4292987,80.1083632 39.1466259,80.5747733 C38.8639531,81.0411834 38.8366193,81.6189881 39.074,82.11 C39.5794575,82.8017799 40.4228104,83.161682 41.272,83.048 C41.6899018,83.0674486 42.0971838,82.9128802 42.3969573,82.6210653 C42.6967309,82.3292503 42.8621996,81.9262737 42.854,81.508 C42.9009492,81.0832612 42.7693047,80.6581108 42.4905495,80.3342238 C42.2117943,80.0103368 41.8109939,79.816837 41.384,79.8 Z" id="Path" fill="#064658"></path>
                            <path d="M19.768,69.314 L23.002,66.22 L19.992,63.336 L17.416,65.8 C15.7662703,63.4048064 14.5179086,60.7567664 13.72,57.96 C12.9318736,60.7579272 11.6878591,63.4067795 10.038,65.8 L7.448,63.336 L4.438,66.22 L7.672,69.314 C7.51966761,69.5902695 7.38408949,69.8754511 7.266,70.168 L2.716,70.168 L2.716,74.2 L7.21,74.2 C7.32236735,74.5175885 7.45807086,74.826431 7.616,75.124 L4.438,78.204 L7.448,81.004 L10.626,77.966 C10.9382964,78.1194097 11.2611113,78.2504071 11.592,78.358 L11.592,82.642 L15.792,82.642 L15.792,78.4 C16.1228887,78.2924071 16.4457036,78.1614097 16.758,78.008 L19.936,81.046 L22.96,78.246 L19.768,75.208 C19.9316427,74.9132311 20.0675595,74.6039032 20.174,74.284 L24.668,74.284 L24.668,70.168 L20.174,70.168 C20.0559105,69.8754511 19.9203324,69.5902695 19.768,69.314 Z M13.72,75.838 C12.9473481,75.8393921 12.2084633,75.5214448 11.678253,74.9594217 C11.1480426,74.3973987 10.8736396,73.6412611 10.92,72.87 C10.92,72.1 11.284,71.47 12.32,69.748 C12.712,69.104 13.16,68.348 13.622,67.578 C14.084,68.39 14.532,69.104 14.938,69.748 C16.002,71.442 16.338,72.1 16.338,72.87 C16.4337895,74.4122364 15.2621313,75.7405334 13.72,75.838 Z" id="Shape" fill="#24A5C2"></path>
                        </g>
                    </g>
                </g>
            </g>
        </g>
    </g>
</svg>