<?xml version="1.0" encoding="UTF-8"?>
<svg width="84px" height="83px" viewBox="0 0 84 83" version="1.1" xmlns="http://www.w3.org/2000/svg" xmlns:xlink="http://www.w3.org/1999/xlink">
    <!-- Generator: sketchtool 52.5 (67469) - http://www.bohemiancoding.com/sketch -->
    <title>7E0E75EA-3A3A-4EA1-9461-3E92508FCDC0</title>
    <desc>Created with sketchtool.</desc>
    <g id="Website" stroke="none" stroke-width="1" fill="none" fill-rule="evenodd">
        <g id="Audience-/-Service-Providers" transform="translate(-676.000000, -680.000000)">
            <g id="Hero" transform="translate(0.000000, 80.000000)">
                <g id="2" transform="translate(535.000000, 549.000000)">
                    <g id="Icon-/-servive-prov-better-talent" transform="translate(141.000000, 50.000000)">
                        <rect id="Background" x="0" y="0" width="84" height="84"></rect>
                        <g id="service-prov-spend-time-working" transform="translate(0.000000, 1.500000)">
                            <path d="M61.768,25.2 C61.4706356,25.4605117 61.3061411,25.8409053 61.32,26.236 C61.32,27.0091986 61.9468014,27.636 62.72,27.636 C63.4931986,27.636 64.12,27.0091986 64.12,26.236 C64.1238024,25.6776033 63.7954087,25.1703478 63.2843776,24.9452508 C62.7733466,24.7201538 62.1774207,24.8202685 61.768,25.2 Z" id="Path" fill="#064658"></path>
                            <path d="M39.606,35.252 L42.406,35.252 C42.7739819,35.2843675 43.1381487,35.157179 43.4059654,34.9027531 C43.6737822,34.6483272 43.8194665,34.2911571 43.806,33.922 C43.8099405,33.5900856 43.6958191,33.2675687 43.484,33.012 C43.2272308,32.7274498 42.8591682,32.5689784 42.476,32.578 L39.676,32.578 C39.3092418,32.5686242 38.9558904,32.7160977 38.704612,32.9834153 C38.4533335,33.2507328 38.3279777,33.6125221 38.36,33.978 C38.3560595,34.3099144 38.4701809,34.6324313 38.682,34.888 C38.9351708,35.1181694 39.2638677,35.2476561 39.606,35.252 Z" id="Path" fill="#064658"></path>
                            <path d="M48.594,35.252 L51.394,35.252 C51.7619819,35.2843675 52.1261487,35.157179 52.3939654,34.9027531 C52.6617822,34.6483272 52.8074665,34.2911571 52.794,33.922 C52.7940257,33.5883177 52.6748678,33.2655986 52.458,33.012 C52.2078682,32.7264746 51.8434436,32.5673596 51.464,32.578 L48.664,32.578 C48.2843334,32.5481644 47.9106378,32.6860528 47.6413453,32.9553453 C47.3720528,33.2246378 47.2341644,33.5983334 47.264,33.978 C47.2639743,34.3116823 47.3831322,34.6344014 47.6,34.888 C47.8648329,35.1446264 48.2260692,35.2769101 48.594,35.252 Z" id="Path" fill="#064658"></path>
                            <path d="M40.824,41.72 C40.5946681,41.9968226 40.4914574,42.3568893 40.5393156,42.7131666 C40.5871737,43.0694438 40.7817455,43.3895099 41.076,43.596 C43.4139475,45.5360424 46.8020525,45.5360424 49.14,43.596 C49.5217049,43.3210762 49.7208545,42.8581877 49.658,42.392 C49.5981718,41.8954192 49.2779656,41.4684777 48.818,41.272 C48.3812601,41.0906196 47.879985,41.1660803 47.516,41.468 C46.1309111,42.6715063 44.0710889,42.6715063 42.686,41.468 C42.4098951,41.2433758 42.0531457,41.1430226 41.700426,41.1907591 C41.3477064,41.2384956 41.0304654,41.4300656 40.824,41.72 Z" id="Path" fill="#064658"></path>
                            <path d="M49.308,9.254 C49.2689095,9.59981449 49.3745902,9.94639691 49.5999828,10.2115646 C49.8253754,10.4767323 50.1504051,10.6368681 50.498,10.654 C55.328,11.102 60.69,15.694 61.32,22.624 C61.3471158,23.0894787 61.6263499,23.50296 62.048,23.702 C62.2325595,23.7860955 62.4331871,23.8290871 62.636,23.828 C62.9262453,23.8302045 63.2100004,23.7421426 63.448,23.576 C63.8231266,23.3075485 64.026049,22.8589832 63.98,22.4 C63.294,14.826 57.61,8.652 50.75,8.008 C50.3898163,7.96450467 50.0279917,8.07493202 49.7534759,8.31213499 C49.4789601,8.54933796 49.3172137,8.89131656 49.308,9.254 Z" id="Path" fill="#064658"></path>
                            <path d="M31.024,27.132 C30.4777904,27.2812252 30.0048502,27.6247291 29.694,28.098 C29.0268034,29.4341464 28.920962,30.9814467 29.4,32.396 C29.6219354,33.6479872 30.3515471,34.7525382 31.416,35.448 L31.57,35.56 C32.886,43.96 38.57,49.952 45.15,49.952 C51.73,49.952 57.4,43.904 58.688,35.56 L58.828,35.448 C59.8924529,34.7525382 60.6220646,33.6479872 60.844,32.396 C61.2730332,31.0118762 61.1834543,29.5188945 60.592,28.196 C60.311864,27.7317646 59.8824345,27.3763746 59.374,27.188 C60.3224408,23.1823826 59.3377619,18.9638109 56.714,15.792 C54.8233248,13.5367217 52.0123333,12.2599344 49.07,12.32 C48.1695057,10.7771604 46.727334,9.62442106 45.024,9.086 C44.584652,8.96360291 44.1137157,9.04038601 43.736,9.296 C43.4308622,9.49547793 43.2386069,9.82802763 43.218,10.192 C43.148,10.626 43.036,11.34 39.214,13.44 C37.2485433,14.3830291 35.4661979,15.6676451 33.95,17.234 C31.52196,19.9176793 30.4453803,23.5595062 31.024,27.132 Z M46.9,14 C47.264,14.63 47.628,15.274 48.566,15.106 C49.6508022,14.9108951 50.7681643,15.0124734 51.8,15.4 C55.106275,16.9767135 57.178402,20.3480314 57.092,24.01 C56.4401623,22.710827 55.5190561,21.5654099 54.39,20.65 C54.124,20.412 53.844,20.174 53.592,19.908 C53.1995474,19.5824596 52.6611376,19.4960327 52.1865142,19.6823878 C51.7118909,19.868743 51.3761181,20.2984073 51.31,20.804 C51.3638305,21.5607091 50.9912403,22.28429 50.344,22.68 C47.418,25.172 42.112,24.962 36.82,22.134 C36.2191712,21.8465571 35.4990147,22.022205 35.098,22.554 C34.514734,23.4104365 34.0131981,24.3197632 33.6,25.27 C33.633899,22.9414114 34.5090909,20.7037047 36.064,18.97 C37.3693335,17.6789471 38.8841382,16.6185839 40.544,15.834 C42.4318799,15.0218315 44.090716,13.7572695 45.374,12.152 C46.0341284,12.6254452 46.5599635,13.2622364 46.9,14 Z M34.3,31.472 C34.6056699,31.2706228 34.8136563,30.9510339 34.874,30.59 C34.8692105,30.501398 34.8692105,30.412602 34.874,30.324 C35.0511763,28.4738024 35.6241261,26.6833343 36.554,25.074 C42.714,27.986 47.18,27.104 49.308,26.306 C50.9119447,25.794548 52.2942848,24.752856 53.228,23.352 C54.7960453,25.0215738 55.5975963,27.2689603 55.44,29.554 C55.4063888,30.026137 55.4585641,30.5004582 55.594,30.954 C55.7200817,31.2278923 55.9312197,31.4537608 56.196,31.598 C56.5129829,31.7883451 56.8992677,31.8243983 57.246,31.696 C57.7915591,31.39792 58.1949471,30.893685 58.366,30.296 C58.3557902,30.8010095 58.2900616,31.3033637 58.17,31.794 C58.0463836,32.4779887 57.6396289,33.0779519 57.05,33.446 C56.5064939,33.7905 56.1466606,34.3610929 56.07,35 C54.81,43.4 49.728,47.166 45.262,47.264 L45.094,47.264 C40.894,47.264 35.868,44.03 34.132,34.944 C34.0241605,34.2829639 33.6226165,33.7063878 33.04,33.376 C32.4607312,33.0246617 32.0662005,32.4354275 31.962,31.766 C31.7857457,31.1333177 31.7334531,30.4725298 31.808,29.82 C32.074,30.478 32.508,31.444 33.208,31.668 C33.5972899,31.7927313 34.0231901,31.7138609 34.342,31.458 L34.3,31.472 Z" id="Shape" fill="#064658" fill-rule="nonzero"></path>
                            <path d="M28.784,6.244 C28.9910981,6.38239366 29.2349216,6.45554071 29.484,6.454 C29.6925906,6.45276384 29.8982688,6.40493168 30.086,6.314 L31.346,5.74 C31.802377,5.58207624 32.1320654,5.18212629 32.2,4.704 C32.257763,4.20531575 32.044094,3.71387686 31.64,3.416 C31.2616723,3.14138973 30.7660602,3.0880981 30.338,3.276 C29.876,3.486 29.414,3.682 28.938,3.906 C28.5076231,4.09233346 28.2163474,4.50227716 28.182,4.97 C28.1387593,5.47206107 28.3686738,5.95862441 28.784,6.244 Z" id="Path" fill="#064658"></path>
                            <path d="M24.094,9.646 C24.3746873,9.64249816 24.6478403,9.55469898 24.878,9.394 L26.026,8.61 C26.6258613,8.47552294 27.0678156,7.96545647 27.1155262,7.35256059 C27.1632369,6.73966471 26.80554,6.16734975 26.2337155,5.94166334 C25.6618909,5.71597692 25.0097388,5.88972698 24.626,6.37 C24.206,6.65 23.786,6.93 23.38,7.224 C23.0847978,7.42430159 22.8847133,7.73695669 22.8264945,8.08891638 C22.7682756,8.44087606 22.8570224,8.80130776 23.072,9.086 C23.3150951,9.41232048 23.6881386,9.6167279 24.094,9.646 Z" id="Path" fill="#064658"></path>
                            <path d="M76.552,22.4 L76.86,23.03 C77.238,23.842 77.504,24.43 78.372,24.43 C78.8281469,24.4340011 79.2545202,24.2039525 79.5016251,23.8205139 C79.7487299,23.4370753 79.7820868,22.9537495 79.59,22.54 C79.38,22.078 79.17,21.63 78.946,21.14 C78.5196121,20.6886223 77.8468562,20.5720238 77.293439,20.853587 C76.7400217,21.1351501 76.4381827,21.7475951 76.552,22.358 L76.552,22.4 Z" id="Path" fill="#064658"></path>
                            <path d="M59.402,5.936 L60.662,6.538 C60.853818,6.63317453 61.0639608,6.68571026 61.278,6.692 C61.5226937,6.69333667 61.7619861,6.62008389 61.964,6.482 C62.3854037,6.20594032 62.6259945,5.72475879 62.594,5.222 C62.550429,4.77193445 62.2664518,4.38079596 61.852,4.2 C61.404,3.976 60.942,3.752 60.452,3.556 C60.1255715,3.41670939 59.7564285,3.41670939 59.43,3.556 C59.0981812,3.68475126 58.8278577,3.93505075 58.674,4.256 C58.545214,4.58449507 58.545214,4.94950493 58.674,5.278 C58.8203338,5.58480332 59.0820143,5.82132225 59.402,5.936 Z" id="Path" fill="#064658"></path>
                            <path d="M64.68,8.876 L65.828,9.688 C66.0572426,9.86251671 66.3378959,9.95606779 66.626,9.954 C67.0468485,9.93689174 67.43763,9.73121727 67.69,9.394 C67.9117851,9.11432247 68.0075641,8.75514935 67.9544853,8.40217515 C67.9014064,8.04920095 67.70423,7.73408128 67.41,7.532 C67.004,7.224 66.598,6.944 66.178,6.664 C65.5641162,6.27617875 64.7556136,6.42207395 64.316,7 C63.9428899,7.61774471 64.1004946,8.41789166 64.68,8.848 L64.68,8.876 Z" id="Path" fill="#064658"></path>
                            <path d="M80.234,33.838 C80.234,34.3 80.346,34.762 80.388,35.238 C80.4015822,35.5286753 80.5153559,35.8056895 80.71,36.022 C81.004927,36.3264517 81.4219096,36.4808897 81.844,36.442 C82.1911202,36.4206941 82.5148728,36.2599227 82.7416348,35.9962459 C82.9683968,35.7325692 83.0788944,35.3883985 83.048,35.042 C83.048,34.552 82.95,34.048 82.894,33.558 C82.8421202,33.204132 82.6567763,32.8835372 82.376,32.662 C82.0941343,32.4538129 81.7444444,32.3588971 81.396,32.396 C80.6780647,32.5172057 80.172874,33.1684757 80.234,33.894 L80.234,33.838 Z" id="Path" fill="#064658"></path>
                            <path d="M78.806,28 C78.946,28.448 79.072,28.9146667 79.184,29.4 C79.2899032,29.8601452 79.6390979,30.2254566 80.094,30.352 C80.2148988,30.3665228 80.3371012,30.3665228 80.458,30.352 C80.8301242,30.3541515 81.1877936,30.2080611 81.452,29.946 C81.7869594,29.6137202 81.9108538,29.1235293 81.774,28.672 C81.648,28.196 81.508,27.706 81.368,27.272 C81.1230073,26.5854732 80.3922193,26.2018095 79.688,26.39 C79.0340721,26.6321227 78.6580182,27.3185702 78.806,28 Z" id="Path" fill="#064658"></path>
                            <path d="M35.378,4.2 C35.4985612,4.21935818 35.6214388,4.21935818 35.742,4.2 L37.142,3.85 C37.5997924,3.76167404 37.9713919,3.42777301 38.108,2.982 C38.2665221,2.49163756 38.1428269,1.95383217 37.786,1.582 C37.4672243,1.23441469 36.9810239,1.09395678 36.526,1.218 L35.126,1.596 C34.7852533,1.69546567 34.4950114,1.92065337 34.314,2.226 C34.1484031,2.54013357 34.1083675,2.90545773 34.202,3.248 C34.3739992,3.76807274 34.8335126,4.14005974 35.378,4.2 Z" id="Path" fill="#064658"></path>
                            <path d="M41.538,3.08 L41.678,3.08 L43.078,2.968 C43.5484495,2.95947877 43.9749542,2.68953907 44.184,2.268 C44.4086241,1.81994152 44.3765868,1.28598582 44.1,0.868 C43.8423659,0.477481225 43.3895658,0.261862145 42.924,0.308 C42.42,0.308 41.916,0.378 41.426,0.434 C40.9162137,0.530849033 40.5018098,0.901721213 40.3492073,1.39767917 C40.1966049,1.89363713 40.3308378,2.43332067 40.698,2.8 C40.9366912,2.98859927 41.2338875,3.08766468 41.538,3.08 Z" id="Path" fill="#064658"></path>
                            <path d="M47.726,2.996 L49.126,3.136 L49.294,3.136 C49.6999098,3.142658 50.0846915,2.95546694 50.33,2.632 C50.6340737,2.22965625 50.6982489,1.69486246 50.498,1.232 C50.30683,0.799455621 49.8917958,0.508392687 49.42,0.476 C48.93,0.476 48.426,0.364 47.936,0.336 C47.5810973,0.30166569 47.2274526,0.412811161 46.956,0.644 C46.6898389,0.881841746 46.5245767,1.21236609 46.494,1.568 C46.4743485,2.29070464 47.0082203,2.90951052 47.726,2.996 Z" id="Path" fill="#064658"></path>
                            <path d="M53.69,3.962 L55.09,4.326 C55.2246144,4.34572758 55.3613856,4.34572758 55.496,4.326 C55.8198214,4.3265577 56.1311398,4.20102609 56.364,3.976 C56.7507672,3.62214794 56.9074466,3.08187408 56.77,2.576 C56.6527038,2.12302642 56.2989736,1.76929618 55.846,1.652 L54.446,1.246 C54.1025877,1.16879385 53.7426941,1.2237776 53.438,1.4 C53.1351258,1.58701065 52.9148593,1.88236802 52.822,2.226 C52.7447938,2.56941232 52.7997776,2.92930593 52.976,3.234 C53.1064938,3.56275918 53.3638364,3.82514768 53.69,3.962 Z" id="Path" fill="#064658"></path>
                            <path d="M82.432,38.864 C81.9988385,38.6139141 81.4651615,38.6139141 81.032,38.864 C80.6168793,39.0830303 80.3579112,39.514644 80.36,39.984 C80.36,40.4413333 80.332,40.908 80.276,41.384 C80.2450821,41.7350143 80.3593259,42.0833687 80.5921135,42.3479001 C80.8249011,42.6124315 81.1559034,42.7700384 81.508,42.784 L81.62,42.784 C81.9710143,42.8149179 82.3193687,42.7006741 82.5839001,42.4678865 C82.8484315,42.2350989 83.0060384,41.9040966 83.02,41.552 L83.104,40.054 C83.1196656,39.5629992 82.8605504,39.1041494 82.432,38.864 Z" id="Path" fill="#064658"></path>
                            <path d="M80.458,44.954 C80.008011,45.09679 79.6773693,45.4816353 79.604,45.948 C79.506,46.396 79.408,46.858 79.282,47.348 C79.1634077,47.7978657 79.2911549,48.2769176 79.618,48.608 C79.8822064,48.8700611 80.2398758,49.0161515 80.612,49.014 C80.7376363,49.027539 80.8643637,49.027539 80.99,49.014 C81.4394876,48.8830892 81.782546,48.5185896 81.886,48.062 C82.0073333,47.5766667 82.1193333,47.11 82.222,46.662 C82.3303888,46.2061829 82.1798407,45.727655 81.83,45.416 C81.4939616,45.0191435 80.9656438,44.8412406 80.458,44.954 Z" id="Path" fill="#064658"></path>
                            <path d="M14.882,56.728 C14.4242329,56.2934402 13.7322873,56.2189318 13.1925003,56.5460754 C12.6527132,56.8732191 12.3985833,57.5211065 12.572,58.128 L12.768,58.45 C13.37,59.5 13.678,60.018 14.49,60.018 C14.977107,60.0052218 15.4225303,59.7400889 15.666,59.318 C15.9348188,58.8900459 15.9348188,58.3459541 15.666,57.918 C15.4,57.526 15.12,57.12 14.882,56.728 Z" id="Path" fill="#064658"></path>
                            <path d="M70,13.314 C70.518,13.832 70.756,14.07 71.316,14.07 C71.8540543,14.0766623 72.3419621,13.7550867 72.548,13.258 C72.7212411,12.7777411 72.6193087,12.2412545 72.282,11.858 L71.218,10.808 C70.9764631,10.5408601 70.6331441,10.3884302 70.273,10.3884302 C69.9128559,10.3884302 69.5695369,10.5408601 69.328,10.808 C69.0647888,11.0517608 68.915168,11.3942529 68.915168,11.753 C68.915168,12.1117471 69.0647888,12.4542392 69.328,12.698 L70,13.314 Z" id="Path" fill="#064658"></path>
                            <path d="M14.532,18.27 C14.7660863,18.4333949 15.0445287,18.5213241 15.33,18.522 C15.7573824,18.5169065 16.1550469,18.302377 16.394,17.948 C16.66,17.556 16.926,17.178 17.22,16.814 C17.5114097,16.4447421 17.5809848,15.947012 17.402,15.512 C17.2094625,15.0465933 16.7817705,14.7204781 16.282,14.658 C15.8177767,14.6036171 15.3610462,14.8078025 15.092,15.19 C14.784,15.582 14.49,15.988 14.196,16.408 C13.9837217,16.6962082 13.8994604,17.0590985 13.9630257,17.4113563 C14.026591,17.763614 14.2323756,18.0741652 14.532,18.27 Z" id="Path" fill="#064658"></path>
                            <path d="M76.3,56.504 C75.8292371,56.4811804 75.3875615,56.7320085 75.166,57.148 C74.914,57.5493333 74.662,57.9413333 74.41,58.324 C74.1880446,58.6154613 74.102302,58.988366 74.1746649,59.3475004 C74.2470278,59.7066348 74.4704918,60.0172366 74.788,60.2 C75.01422,60.3580545 75.2821062,60.4457263 75.558,60.452 C76.0005823,60.4502457 76.409793,60.216411 76.636,59.836 C76.916,59.43 77.182,58.996 77.448,58.576 C77.6860073,58.1696172 77.6860073,57.6663828 77.448,57.26 C77.2238982,56.8245571 76.7885541,56.5378671 76.3,56.504 Z" id="Path" fill="#064658"></path>
                            <path d="M73.472,61.908 C73.2092088,61.6641729 72.8575122,61.5394849 72.4998221,61.5633309 C72.1421319,61.5871769 71.8100992,61.7574469 71.582,62.034 C71.274,62.384 70.966,62.734 70.644,63.07 C70.5662525,63.1539979 70.5003127,63.2481977 70.448,63.35 L70.238,62.454 C68.2775418,54.8880973 62.1556387,49.1144625 54.488,47.6 L54.292,47.6 C53.9279304,47.507359 53.5419038,47.5649227 53.2207012,47.7597506 C52.8994985,47.9545784 52.6700727,48.2703218 52.584,48.636 L51.562,54.236 L48.762,52.612 C45.304,50.554 45.024,50.4 44.24,50.848 L38.43,54.32 L37.408,48.72 C37.3394797,48.3284277 37.0976316,47.9888112 36.75,47.796 C36.4241474,47.6192768 36.0415078,47.5789989 35.686,47.684 L35.434,47.684 C25.508,49.602 20.734,58.016 19.488,62.692 C19.4943662,62.766531 19.4943662,62.841469 19.488,62.916 C19.4505423,62.856733 19.4084082,62.8005542 19.362,62.748 L18.382,61.6 C18.1630644,61.3165559 17.8349325,61.1383579 17.4779805,61.1090559 C17.1210285,61.0797538 16.7682287,61.2020544 16.506,61.446 C16.2234229,61.6679316 16.0451213,61.9967732 16.0133081,62.3546718 C15.9814949,62.7125704 16.0989985,63.0677058 16.338,63.336 C16.674,63.714 16.996,64.092 17.332,64.456 C17.5754234,64.7361983 17.9268627,64.8991847 18.298,64.904 L18.578,64.904 C18.7726322,64.8440302 18.9568116,64.7543017 19.124,64.638 C18.8835176,65.5198973 19.0588008,66.4633332 19.6,67.2 C20.286,67.788 21,68.32 21.7,68.852 C21.6929507,68.8102958 21.6929507,68.7677042 21.7,68.726 C21.7,68.53 21.7,68.334 21.7,68.152 C21.6793416,67.8256599 21.6793416,67.4983401 21.7,67.172 C21.7,66.794 21.7,66.43 21.7,66.052 C21.6785362,65.9175177 21.6785362,65.7804823 21.7,65.646 C21.6923713,65.5154447 21.6923713,65.3845553 21.7,65.254 C22.5919759,58.0234298 27.9037003,52.1190288 35,50.47 L36.12,56.658 C36.255317,57.2892121 36.8046957,57.7460638 37.45,57.764 C37.842,57.764 37.842,57.764 40.586,56.154 L44.982,53.578 L51.8,57.582 C52.1885966,57.7724042 52.6434034,57.7724042 53.032,57.582 C53.4347286,57.4057534 53.719754,57.036276 53.788,56.602 L54.908,50.428 C61.9305766,52.2038505 67.1207656,58.14107 67.942,65.338 C66.0184099,66.9526595 63.9302446,68.3604114 61.712,69.538 L61.712,63.602 C61.6676019,63.0943958 61.3509218,62.6509954 60.8851764,62.4443209 C60.4194309,62.2376463 59.878173,62.3003368 59.472,62.608 C59.1880781,62.8593015 59.0293075,63.2229373 59.038,63.602 L59.038,70.896 C57.974,71.358 56.896,71.736 55.804,72.086 C56.112,72.912 56.35,73.766 56.602,74.62 C61.6171533,73.0321144 66.2500386,70.4249249 70.21,66.962 C70.6233482,66.3719452 70.7752751,65.637632 70.63,64.932 C70.8775366,65.1830353 71.2154479,65.3242519 71.568,65.324 C72.212,65.324 72.45,65.044 73.542,63.798 C73.7888142,63.5407689 73.9207115,63.1944117 73.9075172,62.838166 C73.8943229,62.4819203 73.737166,62.1462689 73.472,61.908 Z" id="Path" fill="#064658"></path>
                            <path d="M79.59,50.988 C79.2618732,50.850816 78.8921922,50.8522803 78.5651624,50.9920591 C78.2381326,51.131838 77.981601,51.3980292 77.854,51.73 C77.686,52.178 77.504,52.598 77.322,53.032 C77.160525,53.3731927 77.160525,53.7688073 77.322,54.11 C77.4612171,54.4149871 77.7115869,54.6553421 78.022,54.782 C78.2022643,54.8641365 78.3979072,54.9070825 78.596,54.908 C79.1188351,54.9113871 79.5906619,54.5949856 79.786,54.11 C79.982,53.648 80.178,53.186 80.36,52.71 C80.4954246,52.3802306 80.4897091,52.009356 80.3441873,51.6839163 C80.1986654,51.3584765 79.9260669,51.1069399 79.59,50.988 Z" id="Path" fill="#064658"></path>
                            <path d="M74.2,18.354 C74.4352901,18.723121 74.8403164,18.9493046 75.278,18.956 C75.5586873,18.9524982 75.8318403,18.864699 76.062,18.704 C76.3779956,18.5114645 76.59592,18.1923229 76.660226,17.8279222 C76.724532,17.4635215 76.6290072,17.0890654 76.398,16.8 C76.118,16.38 75.838,15.974 75.53,15.568 C75.0344276,15.209724 74.3636594,15.2145505 73.873294,15.5799209 C73.3829285,15.9452912 73.1864424,16.5866541 73.388,17.164 C73.654,17.598 73.934,17.976 74.2,18.354 Z" id="Path" fill="#064658"></path>
                            <path d="M12.138,23.94 C12.992,23.94 13.258,23.366 13.65,22.54 C13.734,22.344 13.846,22.12 13.972,21.882 C14.0932832,21.2727662 13.7986125,20.6564668 13.2482805,20.3683519 C12.6979485,20.0802369 12.0235748,20.1892129 11.592,20.636 L10.92,22.036 C10.7583402,22.4523705 10.8050554,22.9208874 11.0457464,23.2971401 C11.2864375,23.6733928 11.6922126,23.912217 12.138,23.94 Z" id="Path" fill="#064658"></path>
                            <path d="M19.32,13.692 C19.6707395,13.6834816 20.0054965,13.5435831 20.258,13.3 C20.5846667,12.964 20.9206667,12.642 21.266,12.334 C21.5993664,12.0115561 21.7514087,11.5449437 21.672,11.088 C21.561342,10.5932282 21.1918347,10.196945 20.706,10.052 C20.2544013,9.91833878 19.7658578,10.0418168 19.432,10.374 L18.354,11.41 C17.8559959,11.9469744 17.8559959,12.7770256 18.354,13.314 C18.6106653,13.5669448 18.9598275,13.7035735 19.32,13.692 Z" id="Path" fill="#064658"></path>
                            <path d="M12.782,52.57 C12.6,52.136 12.418,51.716 12.25,51.268 C12.1031601,50.7960046 11.6911901,50.4554427 11.2,50.4 C10.7025933,50.3188846 10.1999748,50.5113768 9.884,50.904 C9.61036446,51.2918301 9.57789445,51.8005269 9.8,52.22 C9.968,52.696 10.164,53.158 10.36,53.62 C10.5085824,53.9674889 10.7913395,54.2401476 11.144,54.376 C11.2784823,54.3974638 11.4155177,54.3974638 11.55,54.376 C11.7418822,54.372639 11.9315853,54.3346984 12.11,54.264 C12.7577154,53.97634 13.0563822,53.2234508 12.782,52.57 Z" id="Path" fill="#064658"></path>
                            <path d="M15.652,36.246 L18.592,33.446 L15.862,30.8 L13.524,33.082 C12.032766,30.9140649 10.9071622,28.516245 10.192,25.984 C9.48286887,28.5184907 8.35681471,30.91727 6.86,33.082 L4.522,30.8 L1.806,33.446 L4.732,36.246 C4.592,36.512 4.466,36.764 4.354,37.03 L0.252,37.03 L0.252,40.712 L4.312,40.712 C4.41301679,40.995846 4.53467518,41.2719169 4.676,41.538 L1.876,44.338 L4.592,46.942 L7.462,44.142 C7.7467986,44.2768044 8.04169633,44.3891464 8.344,44.478 L8.344,48.37 L12.124,48.37 L12.124,44.478 C12.4209483,44.3867634 12.7110165,44.274479 12.992,44.142 L15.862,46.942 L18.592,44.338 L15.708,41.538 C15.8493248,41.2719169 15.9709832,40.995846 16.072,40.712 L20.272,40.712 L20.272,37.03 L16.072,37.03 C15.9495778,36.7596237 15.8092667,36.4977096 15.652,36.246 Z M10.192,42.154 C8.76666716,42.0933793 7.65873119,40.8915504 7.714,39.466 C7.714,38.766 8.05,38.178 9.016,36.666 C9.366,36.092 9.772,35.448 10.192,34.72 C10.612,35.448 11.018,36.12 11.382,36.666 C12.348,38.206 12.684,38.794 12.684,39.466 C12.7313754,40.8939078 11.619405,42.0933365 10.192,42.154 Z" id="Shape" fill="#24A5C2"></path>
                            <path d="M54.88,69.79 C53.9,69.678 52.934,69.79 51.954,69.65 L49.84,69.65 L49.84,64.778 C49.8902579,63.2316027 48.6773973,61.9372579 47.131,61.887 C45.5846027,61.8367421 44.2902579,63.0496027 44.24,64.596 C43.9470795,66.3760075 43.3453629,68.0911367 42.462,69.664 L31.598,69.664 C31.4333872,69.6565099 31.3038297,69.520783 31.304,69.356 L31.304,63.826 C30.422,63.826 29.526,63.826 28.63,63.826 L28.63,69.328 C28.6376629,70.9639966 29.9620034,72.2883371 31.598,72.296 L41.398,72.296 L41.398,79.198 L27.398,79.198 C24.2233469,79.1903038 21.6516962,76.6186531 21.644,73.444 L21.644,63.98 L19.068,63.98 L19.068,73.458 C19.068,78.0971919 22.8288081,81.858 27.468,81.858 L42.77,81.858 C42.8721511,81.8725513 42.9758489,81.8725513 43.078,81.858 L43.274,81.858 L43.358,81.858 C43.5487096,81.7719983 43.7130252,81.6366796 43.834,81.466 C44.6922457,81.8001656 45.6013945,81.9848365 46.522,82.012 L51.282,82.012 C53.172,82.012 54.082,81.844 54.88,80.612 L55.118,80.276 C55.8522934,79.3666128 56.3350432,78.2804257 56.518,77.126 C56.5550256,77.0172948 56.5785355,76.9044471 56.588,76.79 C56.588,76.79 56.588,76.72 56.588,76.678 C56.588,76.636 56.588,76.538 56.588,76.468 L56.588,72.044 C56.5751752,70.9991968 55.8823894,70.0849468 54.88,69.79 Z M53.872,72.59 L53.284,72.59 C52.9075155,72.5796443 52.544992,72.7328233 52.29,73.01 C52.0781809,73.2655687 51.9640595,73.5880856 51.968,73.92 C51.9312999,74.2865641 52.0550722,74.6510687 52.3073908,74.9194927 C52.5597094,75.1879167 52.9158686,75.3339776 53.284,75.32 L53.872,75.32 L53.872,75.53 L53.284,75.53 C52.9075155,75.5196443 52.544992,75.6728233 52.29,75.95 C52.0781809,76.2055687 51.9640595,76.5280856 51.968,76.86 C51.9521797,77.2148984 52.0852606,77.560284 52.3351283,77.8128099 C52.584996,78.0653357 52.9289541,78.202064 53.284,78.19 L52.864,78.806 L52.598,79.212 C52.514,79.338 52.36,79.38 51.758,79.38 L51.604,79.38 L48.342,79.38 C45.948,79.38 45.192,79.31 44.142,78.596 L44.142,71.778 C46.116,70.112 46.942,65.17 46.942,64.778 C46.942,64.778 46.942,64.68 47.04,64.68 C47.138,64.68 47.152,64.68 47.152,64.778 L47.152,70 C47.155641,70.6212784 47.4078936,71.2152323 47.8524408,71.6492576 C48.2969879,72.083283 48.8968125,72.3212388 49.518,72.31 C51.996,72.31 53.326,72.31 53.844,72.31 L53.872,72.59 Z" id="Shape" fill="#064658" fill-rule="nonzero"></path>
                            <circle id="Oval" fill="#064658" cx="29.974" cy="63.91" r="1.33"></circle>
                        </g>
                    </g>
                </g>
            </g>
        </g>
    </g>
</svg>